<?xml version="1.0" encoding="UTF-8" standalone="no"?>
<svg xmlns:xlink="http://www.w3.org/1999/xlink" height="17.15px" width="12.3px" xmlns="http://www.w3.org/2000/svg">
  <g transform="matrix(1.0, 0.0, 0.0, 1.0, -10.6, -10.7)">
    <use height="17.15" transform="matrix(1.0, 0.0, 0.0, 1.0, 10.6, 10.7)" width="12.3" xlink:href="#shape0"/>
  </g>
  <defs>
    <g id="shape0" transform="matrix(1.0, 0.0, 0.0, 1.0, -10.6, -10.7)">
      <path d="M22.75 13.45 Q23.15 17.1 22.35 20.1 L21.5 22.45 20.3 24.55 19.1 26.0 18.05 27.0 17.25 27.5 16.95 27.75 16.8 27.85 16.6 27.75 Q14.0 25.95 12.5 23.35 11.35 21.3 10.85 18.7 L10.6 16.65 10.6 15.0 10.7 13.85 10.85 12.95 11.25 13.2 Q12.45 13.9 13.7 13.6 L14.8 13.05 15.65 12.35 16.2 11.7 16.45 11.4 16.7 10.7 17.0 11.3 Q18.45 13.5 20.3 13.65 21.2 13.7 22.2 13.2 L22.45 12.95 22.65 12.85 22.75 13.25 22.75 13.45 M20.25 14.25 Q18.25 14.2 16.7 12.1 L16.6 12.25 16.45 12.4 15.75 13.15 14.8 13.8 Q13.15 14.8 11.35 14.0 L11.3 14.75 11.25 15.75 11.5 18.55 Q11.95 21.05 13.05 23.05 14.4 25.5 16.8 27.1 L17.3 26.75 18.05 26.15 18.9 25.3 19.75 24.15 20.95 22.15 21.75 19.95 22.2 15.8 22.2 14.85 22.15 14.0 20.25 14.25 M20.65 15.5 L20.7 18.1 20.3 20.15 19.7 21.8 18.95 23.05 18.15 24.0 17.45 24.65 16.8 25.15 15.1 23.7 13.95 22.15 13.25 20.6 12.9 19.15 12.75 17.75 12.75 16.6 12.75 15.85 12.85 15.5 12.9 15.5 Q13.8 16.1 14.8 15.8 L15.6 15.4 16.2 14.85 16.55 14.4 16.65 14.2 16.7 14.2 Q17.25 15.05 17.85 15.4 L18.95 15.85 19.9 15.8 20.55 15.5 20.65 15.5 M16.05 16.75 L14.85 17.1 14.4 17.55 14.0 18.2 13.7 19.05 13.6 19.2 13.45 19.35 13.4 19.4 13.6 19.4 13.85 19.35 14.45 19.35 14.85 19.3 15.2 19.35 15.65 19.55 16.1 19.8 16.45 19.95 16.55 20.0 16.7 20.1 16.95 20.15 18.65 20.15 19.1 20.25 19.55 20.35 19.55 20.1 Q19.55 17.85 18.35 17.1 17.85 16.7 17.25 16.7 L16.05 16.75" fill="#ffffff" fill-rule="evenodd" stroke="none"/>
    </g>
  </defs>
</svg>
