<?xml version="1.0" encoding="UTF-8" standalone="no"?>
<svg xmlns:xlink="http://www.w3.org/1999/xlink" height="43.75px" width="31.25px" xmlns="http://www.w3.org/2000/svg">
  <g transform="matrix(1.0, 0.0, 0.0, 1.0, 0.0, 0.0)">
    <use height="43.75" transform="matrix(1.0, 0.0, 0.0, 1.0, 0.0, 0.0)" width="31.25" xlink:href="#shape0"/>
  </g>
  <defs>
    <g id="shape0" transform="matrix(1.0, 0.0, 0.0, 1.0, 0.0, 0.0)">
      <path d="M30.9 6.6 L30.9 7.0 Q31.9 16.2 29.9 24.0 28.15 30.3 24.65 35.3 L21.65 39.05 18.95 41.55 16.95 42.95 16.15 43.55 15.7 43.75 15.2 43.55 Q12.0 41.2 9.35 38.45 6.7 35.65 4.85 32.3 1.8 26.95 0.6 20.35 0.1 17.5 0.05 15.1 L0.05 10.9 0.25 8.05 0.4 6.85 0.6 5.7 1.6 6.35 Q4.7 8.15 7.8 7.35 9.3 6.95 10.6 6.0 L12.8 4.2 14.25 2.5 14.75 1.65 14.9 1.25 15.0 0.65 15.15 0.0 16.2 1.6 Q19.95 7.15 24.65 7.45 27.05 7.65 29.5 6.35 30.0 6.05 30.55 6.35 L30.9 6.6 M25.55 12.3 Q25.9 15.85 25.65 18.8 25.4 21.75 24.75 24.15 24.1 26.5 23.15 28.3 L21.3 31.4 19.3 33.9 17.5 35.6 15.65 36.8 Q13.15 35.15 11.4 33.15 9.6 31.2 8.5 29.15 7.35 27.1 6.7 25.1 6.1 23.15 5.85 21.4 L5.4 17.9 5.4 15.0 5.6 13.05 5.7 12.3 5.85 12.3 Q8.1 13.85 10.65 13.0 11.8 12.65 12.7 11.95 L14.2 10.6 15.15 9.45 15.45 8.85 15.55 8.85 Q16.9 11.05 18.4 11.95 19.85 12.9 21.2 13.1 L23.6 13.0 25.35 12.3 25.55 12.3 M24.55 9.1 Q19.45 8.8 15.55 3.55 L15.25 3.95 14.75 4.5 13.05 6.15 10.7 7.85 Q6.35 10.4 1.95 8.3 L1.7 10.25 1.6 12.9 1.75 16.2 2.25 20.1 Q3.4 26.3 6.3 31.5 9.75 37.6 15.8 41.7 L18.85 39.4 Q21.0 37.6 23.35 34.3 25.05 31.85 26.3 29.2 27.5 26.5 28.3 23.5 29.5 18.6 29.5 13.0 L29.5 10.65 29.3 8.3 26.9 9.0 24.55 9.1" fill="#ffffff" fill-rule="evenodd" stroke="none"/>
    </g>
  </defs>
</svg>
