<?xml version="1.0" encoding="UTF-8" standalone="no"?>
<svg xmlns:xlink="http://www.w3.org/1999/xlink" height="45.35px" width="49.85px" xmlns="http://www.w3.org/2000/svg">
  <g transform="matrix(1.0, 0.0, 0.0, 1.0, -20.4, -18.55)">
    <use height="45.35" transform="matrix(1.0, 0.0, 0.0, 1.0, 20.4, 18.55)" width="49.85" xlink:href="#shape0"/>
  </g>
  <defs>
    <g id="shape0" transform="matrix(1.0, 0.0, 0.0, 1.0, -20.4, -18.55)">
      <path d="M48.75 19.75 L48.95 26.85 46.15 26.85 46.35 19.75 Q46.35 19.2 46.7 18.9 47.05 18.55 47.55 18.55 48.0 18.55 48.35 18.9 48.75 19.2 48.75 19.75 M58.0 21.4 Q58.45 21.3 58.85 21.65 L59.4 22.3 59.35 23.2 57.25 27.1 56.2 26.85 54.2 26.85 57.25 22.0 58.0 21.4 M54.3 33.1 Q54.3 32.4 53.65 32.4 L39.75 32.4 39.3 32.6 Q39.05 32.75 39.05 33.1 L39.05 41.95 39.3 42.45 39.75 42.6 53.65 42.6 Q54.3 42.6 54.3 41.95 L54.3 33.1 M55.4 29.95 Q56.35 29.95 56.9 30.55 57.45 31.2 57.45 32.05 L57.45 51.0 Q57.45 51.85 56.9 52.45 56.35 53.1 55.4 53.1 L22.5 53.1 Q21.7 53.1 21.05 52.45 20.4 51.85 20.4 51.0 L20.4 32.05 Q20.4 31.2 21.05 30.55 21.7 29.95 22.5 29.95 L55.4 29.95 M60.35 32.1 L65.55 29.45 66.45 29.35 Q66.95 29.45 67.15 29.85 67.4 30.25 67.25 30.8 L66.8 31.55 60.35 35.4 60.35 32.1 M45.4 36.75 L45.25 37.35 45.9 37.0 46.1 37.35 45.5 37.65 46.1 37.95 45.9 38.35 45.25 38.05 45.4 38.65 44.9 38.65 44.9 38.05 44.4 38.35 44.15 37.95 44.7 37.65 44.15 37.35 44.4 37.0 44.9 37.35 44.9 36.75 45.4 36.75 M48.15 36.75 L48.1 37.35 48.7 37.0 48.85 37.35 48.25 37.65 48.85 37.95 48.7 38.35 48.1 38.05 48.15 38.65 47.7 38.65 47.7 38.05 47.15 38.35 47.0 37.95 47.45 37.65 47.0 37.35 47.15 37.0 47.7 37.35 47.7 36.75 48.15 36.75 M42.6 36.75 L42.5 37.35 Q42.85 37.2 43.15 37.0 L43.3 37.35 42.75 37.65 43.3 37.95 43.15 38.35 42.5 38.05 42.6 38.65 42.15 38.65 42.15 38.05 41.6 38.35 41.4 37.95 41.9 37.65 41.4 37.35 41.6 37.0 42.15 37.35 42.15 36.75 42.6 36.75 M47.75 47.95 L47.35 48.15 47.15 48.55 47.15 50.35 47.35 50.75 47.75 50.9 49.55 50.9 49.95 50.75 50.1 50.35 50.1 48.55 49.95 48.15 49.55 47.95 47.75 47.95 M49.95 43.95 L49.55 43.8 47.75 43.8 47.35 43.95 47.15 44.35 47.15 46.15 47.35 46.55 Q47.55 46.75 47.75 46.75 L49.55 46.75 Q49.8 46.75 49.95 46.55 L50.1 46.15 50.1 44.35 49.95 43.95 M43.4 48.15 L43.2 48.55 43.2 50.35 43.4 50.75 Q43.55 50.9 43.8 50.9 L45.6 50.9 46.0 50.75 46.15 50.35 46.15 48.55 46.0 48.15 45.6 47.95 43.8 47.95 Q43.55 47.95 43.4 48.15 M42.05 48.15 L41.6 47.95 39.85 47.95 39.45 48.15 Q39.2 48.3 39.2 48.55 L39.2 50.35 39.45 50.75 39.85 50.9 41.6 50.9 42.05 50.75 42.2 50.35 42.2 48.55 42.05 48.15 M42.2 44.35 L42.05 43.95 41.6 43.8 39.85 43.8 Q39.65 43.8 39.45 43.95 L39.2 44.35 39.2 46.15 39.45 46.55 Q39.65 46.75 39.85 46.75 L41.6 46.75 42.05 46.55 42.2 46.15 42.2 44.35 M43.4 43.95 L43.2 44.35 43.2 46.15 43.4 46.55 Q43.55 46.75 43.8 46.75 L45.6 46.75 46.0 46.55 46.15 46.15 46.15 44.35 46.0 43.95 45.6 43.8 43.8 43.8 Q43.55 43.8 43.4 43.95 M60.35 39.75 L69.05 40.0 Q69.45 40.0 69.85 40.4 70.25 40.7 70.25 41.2 70.25 41.75 69.85 42.1 L69.05 42.35 60.35 42.55 60.35 39.75 M51.7 47.95 L51.3 48.15 51.1 48.55 51.1 50.35 51.3 50.75 51.7 50.9 53.45 50.9 53.9 50.75 54.05 50.35 54.05 48.55 53.9 48.15 53.45 47.95 51.7 47.95 M54.05 44.35 L53.9 43.95 Q53.75 43.8 53.45 43.8 L51.7 43.8 Q51.5 43.8 51.3 43.95 L51.1 44.35 51.1 46.15 51.3 46.55 51.7 46.75 53.45 46.75 Q53.75 46.75 53.9 46.55 L54.05 46.15 54.05 44.35 M36.2 21.65 Q36.65 21.3 37.1 21.4 L37.85 22.0 40.8 26.85 37.65 26.85 35.8 23.2 Q35.55 22.75 35.7 22.3 35.8 21.85 36.2 21.65 M33.3 43.0 L33.4 43.0 33.35 43.9 33.3 44.8 33.3 46.9 31.25 46.9 32.4 44.8 32.9 43.9 33.3 43.0 M29.15 47.1 L29.15 48.55 33.3 48.55 33.3 50.75 35.35 50.75 35.35 48.55 36.6 48.55 36.6 46.9 35.35 46.9 35.35 41.35 32.7 41.35 29.15 47.1 M23.8 44.65 Q22.8 45.65 22.8 47.25 22.8 48.95 23.75 49.95 24.75 50.9 26.5 50.9 L27.65 50.8 28.45 50.6 28.3 48.9 27.65 49.1 26.95 49.15 Q26.2 49.15 25.6 48.65 25.0 48.15 25.0 47.15 25.0 46.4 25.55 45.8 26.0 45.2 26.95 45.2 L27.65 45.25 28.15 45.4 28.55 43.8 27.75 43.6 26.9 43.55 Q24.85 43.55 23.8 44.65 M37.35 55.95 L40.55 55.95 37.85 60.4 37.1 61.0 Q36.65 61.15 36.2 60.8 35.8 60.65 35.7 60.15 35.55 59.65 35.8 59.2 L37.35 55.95 M65.55 53.0 L60.35 50.15 60.35 46.95 66.8 50.9 67.25 51.65 Q67.4 52.15 67.15 52.6 66.95 53.0 66.45 53.1 L65.55 53.0 M56.9 55.9 L57.6 55.8 59.35 59.2 59.4 60.15 58.85 60.8 58.0 61.0 57.25 60.4 54.5 55.95 56.2 55.95 56.9 55.9 M48.95 55.95 L48.75 62.7 Q48.75 63.2 48.35 63.55 48.0 63.9 47.55 63.9 47.05 63.9 46.7 63.55 46.35 63.2 46.35 62.7 L46.15 55.95 48.95 55.95" fill="#990000" fill-rule="evenodd" stroke="none"/>
    </g>
  </defs>
</svg>
