<?xml version="1.0" encoding="UTF-8" standalone="no"?>
<svg xmlns:xlink="http://www.w3.org/1999/xlink" height="32.8px" width="28.05px" xmlns="http://www.w3.org/2000/svg">
  <g transform="matrix(1.0, 0.0, 0.0, 1.0, 1.75, 0.2)">
    <use height="32.8" transform="matrix(1.0, 0.0, 0.0, 1.0, -1.75, -0.2)" width="28.05" xlink:href="#shape0"/>
  </g>
  <defs>
    <g id="shape0" transform="matrix(1.0, 0.0, 0.0, 1.0, 1.75, 0.2)">
      <path d="M21.15 6.35 L21.15 10.65 6.9 10.65 6.9 6.35 21.15 6.35" fill="#e7ae41" fill-opacity="0.4" fill-rule="evenodd" stroke="none"/>
      <path d="M21.15 6.35 L6.9 6.35 6.9 10.65 21.15 10.65 21.15 6.35 M24.85 9.85 L25.6 9.85 Q26.3 9.85 26.3 10.55 L26.3 17.2 Q26.3 17.9 25.6 17.9 L24.85 17.9 24.85 31.2 Q24.85 32.6 23.45 32.6 L4.75 32.6 Q3.35 32.6 3.35 31.2 L3.35 4.9 Q3.35 3.5 4.75 3.5 L11.3 3.5 11.3 2.55 Q11.3 2.4 11.45 2.4 L12.1 2.4 12.25 2.55 12.25 3.5 23.45 3.5 Q24.85 3.5 24.85 4.9 L24.85 9.85 M21.15 14.75 L9.9 14.75 9.9 28.05 21.15 28.05 21.15 14.75" fill="#ffd88e" fill-rule="evenodd" stroke="none"/>
      <path d="M3.2 22.45 L1.55 22.35 Q0.65 22.15 -0.05 21.3 -0.75 20.45 -1.15 18.35 -1.5 16.35 -1.5 12.6 L-1.5 10.5 -1.5 8.15 -1.25 5.75 Q-1.0 4.4 -0.35 3.0 L-0.1 2.5 0.65 1.7 1.55 1.0 Q2.8 0.15 4.8 0.05 L5.7 0.1 8.15 0.25 10.15 0.7 Q11.5 1.15 11.6 1.45 L11.75 2.15 11.75 2.4" fill="none" stroke="#ffd88e" stroke-linecap="round" stroke-linejoin="round" stroke-width="0.5"/>
      <path d="M13.4 24.75 L13.6 24.95 13.6 26.2 13.4 26.35 12.05 26.35 Q11.8 26.35 11.8 26.2 L11.8 24.95 Q11.8 24.75 12.05 24.75 L13.4 24.75 M16.6 24.95 L16.6 26.2 16.35 26.35 15.0 26.35 14.8 26.2 14.8 24.95 15.0 24.75 16.35 24.75 16.6 24.95 M19.35 26.35 L18.0 26.35 17.75 26.2 17.75 24.95 18.0 24.75 19.35 24.75 19.6 24.95 19.6 26.2 19.35 26.35 M19.6 23.35 L19.35 23.5 18.0 23.5 17.75 23.35 17.75 22.1 Q17.75 21.85 18.0 21.85 L19.35 21.85 19.6 22.1 19.6 23.35 M17.75 19.2 L18.0 19.0 19.35 19.0 19.6 19.2 19.6 20.45 19.35 20.6 18.0 20.6 17.75 20.45 17.75 19.2 M14.8 22.1 Q14.8 21.85 15.0 21.85 L16.35 21.85 16.6 22.1 16.6 23.35 16.35 23.5 15.0 23.5 14.8 23.35 14.8 22.1 M11.8 22.1 Q11.8 21.85 12.05 21.85 L13.4 21.85 13.6 22.1 13.6 23.35 13.4 23.5 12.05 23.5 Q11.8 23.5 11.8 23.35 L11.8 22.1 M13.6 20.45 L13.4 20.6 12.05 20.6 Q11.8 20.6 11.8 20.45 L11.8 19.2 Q11.8 19.0 12.05 19.0 L13.4 19.0 13.6 19.2 13.6 20.45 M14.8 19.2 L15.0 19.0 16.35 19.0 16.6 19.2 16.6 20.45 16.35 20.6 15.0 20.6 14.8 20.45 14.8 19.2 M12.05 17.75 L11.8 17.55 11.8 16.35 Q11.8 16.15 12.05 16.15 L13.4 16.15 13.6 16.35 13.6 17.55 13.4 17.75 12.05 17.75 M19.6 17.55 L19.35 17.75 18.0 17.75 17.75 17.55 17.75 16.35 18.0 16.15 19.35 16.15 19.6 16.35 19.6 17.55 M16.35 16.15 L16.6 16.35 16.6 17.55 16.35 17.75 15.0 17.75 14.8 17.55 14.8 16.35 15.0 16.15 16.35 16.15" fill="#e7ae41" fill-rule="evenodd" stroke="none"/>
    </g>
  </defs>
</svg>
