<?xml version="1.0" encoding="UTF-8" standalone="no"?>
<svg xmlns:xlink="http://www.w3.org/1999/xlink" height="41.3px" width="46.3px" xmlns="http://www.w3.org/2000/svg">
  <g transform="matrix(1.0, 0.0, 0.0, 1.0, 0.0, 0.0)">
    <use height="41.3" transform="matrix(1.0, 0.0, 0.0, 1.0, 0.0, 0.0)" width="46.3" xlink:href="#shape0"/>
  </g>
  <defs>
    <g id="shape0" transform="matrix(1.0, 0.0, 0.0, 1.0, 0.0, 0.0)">
      <path d="M45.95 16.05 L46.3 16.4 46.3 17.8 46.2 18.05 45.7 18.6 45.0 18.95 44.15 19.05 43.15 18.6 Q39.9 16.45 37.2 15.4 34.5 14.4 32.15 14.15 L28.25 14.3 25.2 14.75 23.25 14.95 21.35 15.0 21.05 15.0 19.95 14.55 19.05 14.25 18.3 14.0 17.85 14.75 17.25 15.25 18.1 16.6 19.35 18.3 19.35 18.45 19.55 18.6 21.05 19.85 Q21.6 19.85 21.05 20.4 L20.85 20.55 20.55 20.4 19.8 19.85 20.45 22.6 20.85 25.75 Q21.6 29.4 23.55 32.4 25.5 35.4 28.85 37.55 L29.5 38.25 29.55 38.85 29.55 39.15 29.4 39.85 29.0 40.35 28.85 40.9 28.0 41.15 Q27.6 41.6 26.5 40.85 L26.25 40.7 Q22.2 38.15 19.8 34.8 17.45 31.4 16.45 27.35 L16.15 24.5 15.95 22.15 15.65 20.55 15.5 19.35 14.95 18.75 13.95 17.1 13.15 16.15 12.6 15.4 12.3 15.0 11.45 14.65 10.2 14.1 8.45 13.45 0.25 6.75 0.0 6.4 Q0.0 6.2 0.25 6.2 L0.25 5.95 Q0.25 5.7 0.75 5.7 L9.5 9.05 9.7 9.4 9.75 9.8 Q9.75 10.55 10.0 10.55 L10.75 10.5 11.05 10.3 11.05 10.05 12.0 8.8 12.05 8.25 11.6 8.15 11.3 8.25 10.8 8.25 10.5 8.0 4.9 0.6 4.9 0.0 5.65 0.0 13.1 5.2 13.4 5.2 14.8 7.15 15.8 8.55 16.45 9.25 17.45 9.55 18.95 10.0 20.55 10.4 21.35 10.55 24.35 10.3 30.85 10.05 34.8 10.2 37.85 11.0 41.2 12.8 45.95 16.05 M20.75 16.8 L21.05 16.75 23.1 17.55 23.35 18.05 23.1 18.15 22.85 18.05 20.85 17.55 Q20.6 17.55 20.55 17.4 L20.55 17.1 Q20.55 16.8 20.75 16.8 M21.6 15.7 L23.65 16.05 Q23.85 16.05 24.05 16.2 L24.2 16.5 24.05 16.75 23.65 16.75 21.6 16.5 Q21.35 16.5 21.35 16.05 L21.45 15.8 Q21.5 15.7 21.6 15.7 M22.4 18.95 L22.4 19.35 21.95 19.4 Q21.85 19.5 21.85 19.35 L20.05 18.3 Q19.8 18.3 19.8 17.8 L20.05 17.7 20.35 17.8 22.05 18.75 22.4 18.95" fill="#475d75" fill-rule="evenodd" stroke="none"/>
    </g>
  </defs>
</svg>
