<?xml version="1.0" encoding="UTF-8" standalone="no"?>
<svg xmlns:xlink="http://www.w3.org/1999/xlink" height="36.85px" width="31.1px" xmlns="http://www.w3.org/2000/svg">
  <g transform="matrix(1.0, 0.0, 0.0, 1.0, 3.5, 1.1)">
    <use height="36.85" transform="matrix(1.0, 0.0, 0.0, 1.0, -3.5, -1.1)" width="31.1" xlink:href="#shape0"/>
  </g>
  <defs>
    <g id="shape0" transform="matrix(1.0, 0.0, 0.0, 1.0, 3.5, 1.1)">
      <path d="M10.55 8.15 L10.55 6.15 Q9.35 6.0 9.35 5.0 9.35 4.35 9.8 4.15 L10.8 4.0 16.3 4.0 20.95 11.45 20.95 27.2 18.6 28.35 17.85 28.2 Q17.6 27.75 18.05 27.35 18.45 27.0 19.25 26.55 L19.95 26.2 19.95 12.15 17.95 11.0 17.95 13.35 16.75 14.45 16.75 16.8 16.25 16.8 16.25 19.2 16.75 19.2 16.75 21.7 16.25 21.7 16.25 24.1 16.75 24.1 16.75 26.6 16.25 26.6 16.25 29.0 16.75 29.0 16.75 31.3 17.95 33.35 17.95 35.05 Q17.95 35.75 17.25 35.75 L8.35 35.75 Q7.65 35.75 7.65 35.05 L7.65 33.35 8.8 31.3 8.8 29.0 9.35 29.0 9.35 26.6 8.8 26.6 8.8 24.1 9.35 24.1 9.35 21.7 8.8 21.7 8.8 19.2 9.35 19.2 9.35 16.8 8.8 16.8 8.8 14.45 7.65 13.35 7.65 10.15 Q7.65 9.45 8.35 9.45 L9.05 9.45 10.55 8.15" fill="#ffffff" fill-rule="evenodd" stroke="none"/>
      <path d="M4.15 -1.1 L4.15 2.0 6.8 0.45 7.9 2.35 5.15 3.95 7.9 5.55 6.8 7.45 4.15 5.95 4.15 9.05 1.9 9.05 1.9 5.85 -0.9 7.45 -2.0 5.55 0.8 3.95 -2.0 2.35 -0.9 0.45 1.9 2.1 1.9 -1.1 4.15 -1.1 M27.55 5.7 L25.55 6.9 27.6 8.05 26.75 9.5 24.75 8.35 24.75 10.65 23.1 10.65 23.1 8.3 21.0 9.5 20.2 8.05 22.2 6.9 20.2 5.7 21.05 4.25 23.1 5.45 23.1 3.05 24.75 3.05 24.75 5.4 26.75 4.25 27.55 5.7 M3.9 19.25 L3.05 20.7 1.05 19.55 1.05 21.85 -0.6 21.85 -0.6 19.5 -2.7 20.7 -3.5 19.25 -1.45 18.1 -3.5 16.9 -2.65 15.45 -0.6 16.65 -0.6 14.25 1.05 14.25 1.05 16.6 3.05 15.45 3.85 16.9 1.85 18.1 3.9 19.25" fill="#ffffff" fill-opacity="0.8509804" fill-rule="evenodd" stroke="none"/>
    </g>
  </defs>
</svg>
