<?xml version="1.0" encoding="UTF-8" standalone="no"?>
<svg xmlns:xlink="http://www.w3.org/1999/xlink" height="34.75px" width="23.75px" xmlns="http://www.w3.org/2000/svg">
  <g transform="matrix(1.0, 0.0, 0.0, 1.0, 0.15, 1.15)">
    <use height="34.75" transform="matrix(1.0, 0.0, 0.0, 1.0, -0.15, -1.15)" width="23.75" xlink:href="#shape0"/>
  </g>
  <defs>
    <g id="shape0" transform="matrix(1.0, 0.0, 0.0, 1.0, 0.15, 1.15)">
      <path d="M8.55 -1.1 L9.7 -1.15 12.05 -1.05 14.45 -0.9 15.75 -0.85 17.75 -0.75 18.3 -0.7 18.85 -0.2 18.6 0.65 17.75 1.2 17.1 1.2 16.75 1.0 16.75 2.15 16.65 3.85 16.6 6.0 16.6 6.15 16.65 6.1 16.65 6.15 16.95 6.25 Q17.2 6.25 17.6 6.5 L18.45 7.35 19.75 9.15 21.0 10.95 21.7 12.15 22.05 13.2 22.3 14.4 22.55 15.6 22.75 16.5 22.75 16.65 23.1 17.7 23.35 18.45 23.4 18.75 23.55 19.15 23.6 19.65 23.55 20.1 23.2 20.4 23.1 20.55 23.1 20.75 22.85 22.0 22.4 24.2 21.75 26.55 21.2 27.9 20.55 28.6 19.75 29.65 19.1 30.6 18.75 31.1 18.5 31.5 18.45 31.9 17.7 32.45 16.65 32.9 15.2 33.45 13.7 33.55 Q12.35 33.5 11.55 33.05 L10.65 32.4 10.5 31.8 10.45 31.25 10.35 31.1 10.15 31.05 8.55 29.65 Q7.5 28.75 6.95 27.3 L6.4 26.3 6.0 25.4 5.2 23.8 Q4.85 23.05 4.85 21.45 L4.8 21.25 4.65 21.05 4.5 20.9 4.2 20.4 4.2 19.95 Q4.2 19.55 4.35 19.4 L4.65 18.95 4.65 17.55 4.65 15.75 4.85 14.25 5.0 13.75 5.45 12.45 6.1 11.35 6.5 10.55 7.0 9.7 Q6.05 9.4 5.55 8.8 L5.4 9.05 5.35 9.15 4.85 9.95 3.65 12.45 2.8 14.05 2.4 14.8 2.4 15.95 2.25 18.3 2.2 20.7 2.2 21.8 2.25 22.0 2.35 22.1 2.2 24.55 1.85 24.75 1.5 24.95 1.5 26.7 0.8 26.75 0.65 26.5 0.55 26.7 0.55 27.35 0.55 27.9 -0.15 28.2 0.2 16.75 4.15 7.0 3.8 6.0 3.8 4.9 Q3.85 3.3 4.85 2.1 5.8 0.85 7.3 0.4 L7.85 -0.75 8.55 -1.1 M12.6 -0.1 L11.9 0.15 10.8 0.75 Q11.65 1.15 12.25 1.75 12.95 2.45 13.3 3.35 L13.55 5.3 13.3 6.6 13.65 6.6 13.8 6.4 14.1 6.15 14.55 5.7 14.6 5.7 15.2 5.6 15.7 5.55 15.7 0.5 15.45 0.4 15.2 0.15 14.8 0.05 14.0 0.0 13.2 -0.1 12.6 -0.1 M10.3 1.2 L10.1 1.45 10.05 1.65 9.7 2.25 9.7 6.7 11.15 6.65 12.6 6.6 12.8 5.3 Q12.95 4.4 12.6 3.7 L11.75 2.3 10.3 1.2 M5.2 2.8 Q4.5 3.75 4.5 5.0 L4.5 5.5 4.55 6.1 6.8 1.35 Q5.85 1.85 5.2 2.8 M7.5 5.15 L6.8 6.25 6.4 7.0 6.2 7.35 6.05 7.7 5.8 8.2 6.55 8.7 7.35 9.05 7.8 8.45 8.2 7.8 8.55 7.25 8.65 6.85 8.95 6.85 9.35 6.7 8.95 6.7 8.95 3.0 8.25 4.05 7.5 5.15" fill="#ffffff" fill-rule="evenodd" stroke="none"/>
    </g>
  </defs>
</svg>
