<?xml version="1.0" encoding="UTF-8" standalone="no"?>
<svg xmlns:xlink="http://www.w3.org/1999/xlink" height="34.75px" width="26.1px" xmlns="http://www.w3.org/2000/svg">
  <g transform="matrix(1.0, 0.0, 0.0, 1.0, -0.1, -0.5)">
    <use height="34.75" transform="matrix(1.0, 0.0, 0.0, 1.0, 0.1, 0.5)" width="26.1" xlink:href="#shape0"/>
  </g>
  <defs>
    <g id="shape0" transform="matrix(1.0, 0.0, 0.0, 1.0, -0.1, -0.5)">
      <path d="M20.45 7.45 L20.45 7.55 20.5 7.65 20.55 7.75 20.55 7.8 20.6 7.9 20.7 8.0 20.7 8.05 20.75 8.1 20.75 8.2 20.8 8.3 20.85 8.4 20.9 8.45 20.9 8.55 20.95 8.65 21.0 8.7 21.0 8.75 21.0 8.85 21.1 8.95 21.15 9.05 21.2 9.1 21.2 9.2 21.25 9.3 21.25 9.35 21.3 9.4 21.3 9.5 21.35 9.6 21.4 9.7 21.45 9.75 21.5 9.85 21.55 9.95 21.65 9.95 21.75 10.0 21.85 10.1 21.9 10.2 21.95 10.3 21.95 10.4 22.0 10.5 22.05 10.6 22.05 10.65 22.1 10.75 22.1 10.85 22.15 10.95 22.2 11.0 22.2 11.05 22.25 11.15 22.25 11.25 22.3 11.3 22.35 11.4 22.4 11.5 22.4 11.6 22.45 11.65 22.5 11.7 22.55 11.8 22.6 11.9 22.6 11.95 22.65 12.05 22.7 12.15 22.75 12.2 22.8 12.3 22.85 12.35 22.85 12.45 22.9 12.55 22.95 12.6 23.0 12.7 23.05 12.8 23.05 12.85 23.1 12.95 23.15 13.0 23.2 13.1 23.25 13.15 23.25 13.25 23.3 13.35 23.35 13.45 23.4 13.5 23.45 13.6 23.5 13.65 23.5 13.75 23.55 13.8 23.55 13.9 23.6 14.0 23.6 14.1 23.65 14.15 23.7 14.25 23.7 14.3 23.8 14.4 23.85 14.45 23.85 14.55 23.9 14.65 23.9 14.75 23.95 14.8 23.95 14.9 24.0 14.95 24.0 15.05 24.05 15.1 24.1 15.2 24.15 15.3 24.15 15.35 24.15 15.45 24.2 15.55 24.25 15.6 24.35 15.7 24.35 15.75 24.4 15.85 24.4 15.95 24.45 16.0 24.5 16.1 24.5 16.2 24.55 16.25 24.55 16.3 24.65 16.4 24.7 16.5 24.75 16.6 24.8 16.65 24.8 16.75 24.8 16.85 24.9 16.95 25.0 17.05 25.0 17.15 25.1 17.25 25.1 17.3 25.15 17.4 25.2 17.5 25.2 17.55 25.3 17.6 25.35 17.7 25.4 17.8 25.45 17.9 25.45 17.95 25.45 18.05 25.5 18.15 25.55 18.2 25.65 18.25 25.65 18.35 25.7 18.45 25.75 18.5 25.75 18.55 25.75 18.65 25.75 18.7 25.85 18.75 25.9 18.85 25.95 18.9 26.0 19.0 26.0 19.05 26.0 19.15 26.0 19.2 26.0 19.3 26.0 19.4 26.0 19.5 25.95 19.55 25.95 19.65 25.9 19.7 25.9 20.3 25.9 21.0 25.9 21.7 25.9 22.45 25.9 23.2 25.9 23.9 25.9 24.35 25.9 24.45 25.9 24.65 25.9 24.75 25.9 24.9 25.9 25.0 25.9 25.1 25.9 25.15 25.9 25.25 25.9 25.3 25.9 25.4 25.9 25.5 25.95 25.55 25.95 25.65 26.0 25.75 26.0 25.8 26.0 25.9 26.0 25.95 26.0 26.05 26.0 26.1 26.0 26.2 26.0 26.3 26.0 26.4 26.0 26.45 26.0 26.55 26.0 26.6 26.0 26.7 26.0 26.75 26.0 26.85 26.0 26.95 26.0 27.05 26.0 27.1 26.0 27.2 26.05 27.25 26.05 27.35 26.1 27.4 26.1 27.5 26.1 27.6 26.1 27.7 26.1 27.75 26.1 27.85 26.1 27.9 26.1 28.0 26.1 28.05 26.1 28.15 26.1 28.25 26.1 28.3 26.1 28.4 26.1 28.5 26.1 28.55 26.1 28.65 26.1 28.7 26.1 28.8 26.1 28.9 26.1 28.95 26.1 29.05 26.1 29.15 26.1 29.25 26.1 29.35 26.1 29.45 26.1 29.55 26.15 29.6 26.2 29.7 26.2 29.8 26.2 29.9 26.2 30.0 26.2 30.1 26.2 30.2 26.2 30.25 26.2 30.35 26.2 30.45 26.2 30.55 26.2 30.65 26.2 30.75 26.2 30.85 26.2 30.9 26.2 31.0 26.2 31.1 26.2 31.2 26.2 31.3 26.2 31.4 26.2 31.5 26.15 31.55 26.15 31.65 26.1 31.75 26.1 31.85 26.1 31.95 26.1 32.05 26.1 32.1 26.1 32.2 26.1 32.3 26.1 32.4 26.1 32.5 26.1 32.6 26.1 32.7 26.1 32.75 26.1 32.85 26.1 32.95 26.1 33.05 26.1 33.15 26.1 33.25 26.1 33.35 26.1 33.4 26.1 33.5 26.1 33.6 26.1 33.7 26.05 33.8 26.05 33.9 26.0 34.0 25.95 34.05 25.9 34.15 25.85 34.25 25.8 34.35 25.75 34.35 25.7 34.45 25.65 34.45 25.45 34.55 25.25 34.6 24.9 34.6 24.7 34.55 24.55 34.45 24.5 34.35 24.5 34.3 24.5 34.2 24.5 34.1 24.5 34.0 24.5 33.95 24.55 33.9 24.65 33.8 24.75 33.7 24.95 33.7 25.05 33.6 25.05 33.35 25.05 32.6 25.05 31.85 25.05 31.15 25.05 30.45 25.05 29.7 25.05 28.95 25.05 28.25 25.05 27.5 25.05 26.75 25.05 26.05 25.05 25.8 25.05 25.6 25.05 25.5 25.05 25.45 25.05 25.35 25.05 25.25 25.05 25.15 25.05 24.95 25.05 24.85 25.05 24.7 25.0 24.6 24.9 24.55 24.9 24.45 24.9 24.4 24.9 24.3 24.9 24.2 24.9 24.15 24.9 24.05 24.9 23.95 24.9 23.9 24.9 23.8 24.9 23.75 24.9 23.65 24.9 23.6 24.9 23.5 24.9 23.4 24.9 23.3 24.9 23.25 24.85 23.15 24.85 23.1 24.8 23.0 24.8 22.95 24.8 22.85 24.8 22.75 24.8 22.65 24.8 22.6 24.8 22.5 24.8 22.45 24.8 22.35 24.8 22.3 24.8 22.2 24.8 22.1 24.8 22.0 24.8 21.95 24.8 21.85 24.8 21.8 24.8 21.7 24.8 21.65 24.8 21.55 24.8 21.45 24.7 21.35 24.7 21.3 24.7 21.2 24.7 21.15 24.7 21.05 24.7 21.0 24.7 20.9 24.7 20.8 24.7 20.75 24.65 20.65 24.6 20.55 24.6 20.45 24.6 20.35 24.6 20.25 24.6 20.15 24.55 20.1 24.5 20.0 24.5 19.9 24.5 19.8 24.5 19.7 24.45 19.6 24.45 19.5 24.4 19.45 24.35 19.35 24.35 19.25 24.25 19.2 24.25 19.15 24.25 19.05 24.25 18.95 24.25 18.85 24.25 18.8 24.25 18.7 24.25 18.6 24.2 18.55 24.15 18.5 24.1 18.4 24.05 18.3 24.05 18.2 24.0 18.15 23.95 18.05 23.9 17.95 23.85 17.9 23.85 17.85 23.8 17.75 23.7 17.65 23.65 17.6 23.6 17.5 23.6 17.4 23.55 17.3 23.55 17.25 23.5 17.2 23.45 17.1 23.4 17.0 23.35 16.95 23.35 16.85 23.3 16.75 23.25 16.65 23.2 16.65 23.2 16.55 23.15 16.45 23.15 16.35 23.05 16.3 23.0 16.2 22.9 16.2 22.75 16.1 22.7 16.0 22.6 15.95 22.6 15.85 22.55 15.75 22.5 15.7 22.5 15.6 22.4 15.55 22.3 15.45 22.25 15.35 22.25 15.3 22.2 15.2 22.15 15.1 22.1 15.05 22.1 14.95 22.05 14.9 21.95 14.8 21.95 14.75 21.9 14.65 21.9 14.55 21.8 14.45 21.75 14.4 21.65 14.3 21.65 14.25 21.65 14.15 21.65 14.1 21.55 14.0 21.45 13.9 21.4 13.8 21.35 13.75 21.3 13.65 21.25 13.6 21.25 13.5 21.2 13.45 21.1 13.35 21.05 13.25 21.0 13.15 20.95 13.1 20.9 13.0 20.8 12.95 20.8 12.85 20.75 12.8 20.7 12.7 20.6 12.6 20.55 12.55 20.5 12.45 20.4 12.35 20.35 12.3 20.25 12.2 20.2 12.15 20.15 12.05 20.15 11.95 20.05 11.9 20.0 11.8 19.95 11.7 19.9 11.65 19.8 11.6 19.75 11.5 19.7 11.4 15.85 11.45 15.8 11.5 15.75 11.6 15.75 11.65 15.75 11.75 15.75 11.85 15.75 11.9 15.75 12.0 15.75 12.1 15.75 12.2 15.75 12.3 15.75 12.4 15.75 12.5 15.75 12.55 15.75 12.65 15.75 12.75 15.75 12.85 15.75 12.95 15.75 13.05 15.75 13.15 15.75 13.2 15.75 13.3 15.75 13.4 15.75 13.5 15.75 13.6 15.75 13.7 15.75 13.8 15.75 13.85 15.75 13.95 15.75 14.05 15.75 14.15 15.75 14.25 15.75 14.35 15.75 14.4 15.75 14.5 15.85 14.5 15.95 14.5 16.25 14.55 16.3 14.6 16.6 14.65 16.8 14.7 16.9 14.7 17.55 14.75 17.8 14.75 17.9 14.8 18.0 14.85 18.15 14.9 18.2 14.9 18.55 14.95 18.8 15.0 18.9 15.05 19.0 15.05 19.15 15.1 19.25 15.1 19.45 15.15 19.7 15.2 19.8 15.3 19.95 15.35 20.05 15.35 20.35 15.4 20.45 15.5 20.6 15.6 20.8 15.7 20.95 15.75 21.1 15.8 21.3 15.9 21.4 16.0 21.45 16.05 21.55 16.15 21.65 16.25 21.65 16.3 21.8 16.4 21.95 16.45 22.05 16.55 22.1 16.65 22.2 16.7 22.25 16.8 22.35 16.9 22.45 16.95 22.55 17.05 22.6 17.1 22.7 17.2 22.75 17.25 22.8 17.35 22.85 17.45 22.9 17.55 22.95 17.6 23.0 17.7 23.05 17.75 23.05 17.85 23.1 17.9 23.1 18.0 23.15 18.1 23.2 18.2 23.2 18.25 23.25 18.35 23.25 18.4 23.35 18.5 23.35 18.55 23.4 18.65 23.4 18.75 23.4 18.85 23.45 18.9 23.5 19.0 23.5 19.05 23.55 19.15 23.55 19.2 23.55 19.3 23.6 19.4 23.6 19.5 23.6 19.55 23.65 19.65 23.7 19.7 23.7 19.8 23.75 19.85 23.75 19.95 23.8 20.05 23.8 20.1 23.85 20.2 23.85 20.3 23.85 20.35 23.9 20.45 23.9 20.5 23.95 20.6 24.0 20.7 24.05 20.75 24.1 20.85 24.15 20.95 24.15 21.05 24.2 21.15 24.2 21.25 24.25 21.35 24.25 21.4 24.3 21.5 24.35 21.6 24.35 21.65 24.4 21.7 24.4 21.8 24.4 21.9 24.4 22.0 24.4 22.05 24.4 22.15 24.45 22.25 24.45 22.3 24.5 22.35 24.5 22.45 24.5 22.55 24.5 22.65 24.5 22.7 24.5 22.8 24.5 22.9 24.5 23.0 24.5 23.1 24.5 23.2 24.5 23.25 24.5 23.35 24.5 23.45 24.5 23.55 24.5 23.65 24.5 23.75 24.5 23.85 24.5 23.9 24.5 24.0 24.5 24.1 24.5 24.2 24.5 24.3 24.5 24.4 24.5 24.5 24.5 24.55 24.5 24.65 24.5 24.75 24.45 24.85 24.4 24.95 24.4 25.05 24.4 25.15 24.4 25.2 24.4 25.3 24.4 25.4 24.4 25.5 24.35 25.6 24.35 25.7 24.3 25.8 24.25 25.85 24.25 25.95 24.25 26.05 24.2 26.1 24.2 26.15 24.15 26.25 24.15 26.35 24.15 26.45 24.15 26.5 24.1 26.6 24.05 26.7 24.0 26.75 24.0 26.8 23.95 26.9 23.95 27.0 23.9 27.05 23.9 27.15 23.85 27.25 23.85 27.35 23.75 27.45 23.7 27.55 23.7 27.65 23.65 27.7 23.6 27.8 23.55 27.9 23.55 28.0 23.5 28.05 23.5 28.1 23.4 28.2 23.4 28.3 23.35 28.35 23.35 28.45 23.3 28.55 23.25 28.65 23.25 28.7 23.2 28.75 23.15 28.85 23.15 28.95 23.1 29.0 23.05 29.1 23.05 29.2 23.0 29.25 22.95 29.35 22.9 29.4 22.85 29.5 22.85 29.6 22.8 29.65 22.75 29.75 22.7 29.85 22.65 29.9 22.6 30.0 22.55 30.05 22.5 30.15 22.45 30.2 22.4 30.3 22.35 30.4 22.25 30.5 22.25 30.55 22.2 30.65 22.1 30.7 22.05 30.8 22.0 30.85 21.95 30.95 21.95 31.05 21.85 31.15 21.75 31.2 21.65 31.3 21.65 31.35 21.55 31.45 21.5 31.5 21.45 31.6 21.4 31.7 21.3 31.8 21.25 31.85 21.2 31.95 21.05 32.0 21.0 32.1 20.95 32.15 20.8 32.25 20.65 32.35 20.55 32.45 20.45 32.5 20.4 32.6 20.3 32.65 20.1 32.75 19.95 32.8 19.8 32.9 19.7 33.0 19.6 33.05 19.45 33.15 19.25 33.25 19.1 33.3 19.05 33.4 19.0 33.45 18.85 33.55 18.75 33.6 18.55 33.65 18.45 33.7 18.3 33.75 18.1 33.85 17.95 33.9 17.8 33.95 17.55 34.0 17.45 34.0 17.25 34.05 17.05 34.1 16.9 34.2 16.7 34.3 16.6 34.35 16.3 34.35 16.25 34.45 16.15 34.45 15.95 34.5 15.8 34.55 15.7 34.55 15.55 34.6 15.2 34.65 15.05 34.65 14.9 34.7 14.7 34.75 14.65 34.75 14.45 34.8 14.2 34.85 14.05 34.9 13.9 34.95 13.45 34.95 13.25 35.05 13.1 35.1 12.95 35.15 12.6 35.2 12.55 35.2 12.4 35.25 10.15 35.25 9.95 35.2 9.9 35.2 9.8 35.15 9.55 35.1 9.35 35.0 9.3 34.95 9.25 34.95 9.0 34.9 8.85 34.8 8.8 34.75 8.65 34.7 8.35 34.65 8.25 34.6 8.2 34.6 7.95 34.55 7.75 34.45 7.55 34.35 7.4 34.35 7.1 34.25 7.0 34.15 6.95 34.15 6.75 34.1 6.45 34.0 6.35 33.95 6.3 33.95 6.1 33.9 5.85 33.8 5.7 33.7 5.5 33.65 5.25 33.55 5.2 33.45 5.0 33.4 4.9 33.3 4.8 33.25 4.7 33.15 4.6 33.05 4.5 33.0 4.4 32.9 4.3 32.8 4.15 32.75 4.0 32.65 3.95 32.6 3.85 32.5 3.75 32.45 3.7 32.35 3.65 32.25 3.55 32.15 3.45 32.1 3.35 32.0 3.3 31.95 3.1 31.85 3.05 31.8 3.0 31.7 2.9 31.6 2.8 31.5 2.7 31.45 2.65 31.35 2.55 31.3 2.5 31.2 2.45 31.15 2.4 31.05 2.35 30.95 2.25 30.85 2.15 30.8 2.1 30.7 2.05 30.65 2.05 30.55 2.0 30.5 2.0 30.4 1.9 30.3 1.85 30.2 1.8 30.15 1.75 30.05 1.7 30.0 1.65 29.9 1.55 29.8 1.45 29.7 1.4 29.6 1.4 29.55 1.4 29.45 1.35 29.35 1.3 29.25 1.25 29.2 1.15 29.15 1.15 29.05 1.1 28.95 1.1 28.9 1.05 28.8 1.0 28.7 0.95 28.65 0.95 28.55 0.95 28.5 0.9 28.4 0.9 28.3 0.85 28.25 0.8 28.15 0.8 28.05 0.75 28.0 0.75 27.9 0.7 27.85 0.7 27.75 0.65 27.7 0.65 27.6 0.6 27.5 0.55 27.4 0.5 27.35 0.5 27.25 0.5 27.2 0.45 27.1 0.45 27.05 0.45 26.95 0.45 26.85 0.45 26.75 0.4 26.7 0.3 26.6 0.3 26.55 0.3 26.45 0.3 26.4 0.3 26.3 0.3 26.2 0.3 26.1 0.3 26.05 0.25 25.95 0.25 25.9 0.2 25.8 0.2 25.75 0.2 25.65 0.15 25.55 0.15 25.5 0.1 25.4 0.1 25.3 0.1 25.25 0.1 25.15 0.1 25.1 0.1 25.0 0.1 24.9 0.1 24.85 0.1 24.75 0.1 24.65 0.1 24.55 0.1 24.45 0.1 24.35 0.1 24.25 0.1 24.2 0.1 24.1 0.1 24.0 0.1 23.9 0.1 23.8 0.1 23.7 0.1 23.6 0.1 23.55 0.1 23.45 0.1 23.35 0.1 23.25 0.1 23.15 0.1 23.05 0.1 22.95 0.1 22.9 0.1 22.8 0.1 22.7 0.1 22.6 0.1 22.5 0.1 22.4 0.1 22.3 0.1 22.25 0.15 22.15 0.2 22.05 0.2 21.95 0.2 21.85 0.2 21.75 0.2 21.7 0.2 21.6 0.2 21.5 0.25 21.4 0.25 21.35 0.3 21.3 0.3 21.2 0.3 21.1 0.3 21.05 0.3 20.95 0.3 20.85 0.4 20.75 0.45 20.75 0.45 20.65 0.45 20.55 0.45 20.45 0.45 20.4 0.45 20.3 0.5 20.2 0.5 20.1 0.5 20.0 0.5 19.9 0.55 19.8 0.6 19.75 0.7 19.65 0.7 19.55 0.75 19.5 0.75 19.45 0.75 19.35 0.75 19.25 0.8 19.15 0.8 19.1 0.9 19.0 0.95 18.9 0.95 18.85 1.0 18.8 1.05 18.7 1.1 18.6 1.1 18.55 1.1 18.45 1.15 18.35 1.15 18.25 1.15 18.2 1.2 18.15 1.25 18.05 1.35 17.95 1.4 17.9 1.4 17.8 1.45 17.7 1.55 17.6 1.65 17.5 1.7 17.4 1.75 17.3 1.8 17.25 1.85 17.15 1.9 17.05 2.0 16.95 2.05 16.9 2.15 16.85 2.25 16.75 2.35 16.65 2.4 16.6 2.45 16.5 2.55 16.4 2.65 16.3 2.7 16.25 2.8 16.2 2.9 16.1 3.0 16.0 3.05 15.95 3.1 15.85 3.2 15.75 3.3 15.7 3.35 15.6 3.55 15.55 3.65 15.45 3.8 15.35 3.95 15.35 4.1 15.35 4.2 15.25 4.4 15.15 4.6 15.05 4.8 15.0 5.05 14.95 5.15 14.9 5.2 14.9 5.4 14.85 5.55 14.8 5.75 14.75 5.9 14.75 6.1 14.7 6.15 14.7 6.35 14.65 6.8 14.6 6.95 14.5 7.15 14.45 7.25 14.4 7.4 14.35 7.45 14.3 7.65 14.3 8.6 14.25 8.7 14.25 8.85 14.25 8.85 14.2 9.35 14.2 9.35 14.05 9.35 13.95 9.35 13.85 9.35 13.8 9.35 13.7 9.35 13.6 9.35 13.5 9.35 13.4 9.35 13.3 9.35 13.2 9.35 13.15 9.35 13.05 9.35 12.95 9.35 12.85 9.35 12.75 9.35 12.65 9.35 12.55 9.35 12.5 9.35 12.4 9.35 12.3 9.3 12.2 9.3 12.1 9.3 12.0 9.3 11.9 9.3 11.85 9.3 11.75 9.3 11.65 9.3 11.6 9.3 11.5 9.3 11.45 8.9 11.45 8.85 11.35 8.85 11.25 8.85 11.15 8.7 11.15 8.7 11.05 8.7 10.95 8.7 10.85 8.7 10.75 8.7 10.6 8.7 10.5 8.7 10.4 8.7 9.95 8.7 9.85 8.7 9.75 8.7 9.7 8.7 9.6 8.7 9.5 8.7 9.4 8.7 9.3 8.7 9.2 8.7 9.1 8.7 9.05 8.7 8.95 8.7 8.85 8.7 8.75 8.7 8.65 8.7 8.55 8.7 8.45 8.7 8.4 8.7 8.3 8.7 8.2 8.7 8.1 8.7 8.0 8.7 7.9 8.7 7.8 8.7 7.75 8.7 7.65 8.7 7.55 8.7 7.45 8.7 7.35 8.7 7.25 8.7 7.15 8.7 7.1 8.7 7.0 8.7 6.9 8.7 6.85 8.7 6.75 8.7 6.7 8.7 6.6 8.7 6.55 8.7 6.45 8.7 6.35 8.7 6.25 8.7 6.2 8.7 6.1 8.7 6.05 8.7 5.95 8.7 5.9 8.7 5.8 8.7 5.7 8.7 5.6 8.7 5.55 8.7 5.45 8.7 5.4 8.7 5.3 8.7 5.25 8.7 5.15 8.7 5.05 8.7 4.95 8.7 4.9 8.7 4.8 8.7 4.75 8.7 4.65 8.7 4.6 7.75 4.65 7.6 4.65 7.4 4.7 7.35 4.7 7.2 4.7 6.95 4.65 6.8 4.6 6.55 4.5 6.5 4.4 6.4 4.3 6.35 4.25 6.3 4.15 6.3 4.1 6.25 4.0 6.25 3.95 6.25 3.85 6.25 3.75 6.3 3.7 6.3 3.6 6.35 3.5 6.4 3.45 6.5 3.35 6.55 3.3 6.75 3.25 6.8 3.25 6.8 3.2 6.8 3.1 6.8 3.05 6.8 2.95 6.8 2.85 6.8 2.8 6.85 2.75 6.95 2.65 7.0 2.55 7.1 2.45 7.15 2.4 7.25 2.3 7.4 2.25 7.45 2.2 7.65 2.2 8.35 2.2 8.35 2.15 8.45 2.1 8.55 2.0 8.7 1.95 8.7 1.9 8.7 1.8 16.05 1.8 16.05 1.75 16.05 1.65 16.05 1.55 16.05 1.45 16.05 1.4 16.05 1.3 16.05 1.2 16.05 1.1 16.05 1.0 16.05 0.9 16.05 0.85 16.05 0.75 16.05 0.65 16.05 0.6 16.2 0.55 16.2 0.5 17.5 0.5 17.5 0.55 17.5 0.65 17.5 0.75 17.5 0.85 17.55 0.9 17.55 1.0 17.6 1.1 17.65 1.15 17.65 1.2 17.7 1.3 17.7 1.4 17.65 1.45 17.65 1.55 17.6 1.65 17.55 1.75 17.55 1.85 17.55 1.95 17.75 1.95 17.85 2.05 17.95 2.1 18.0 2.2 18.1 2.25 18.15 2.35 18.2 2.4 18.25 2.5 18.3 2.6 18.3 2.65 18.35 2.75 18.35 2.8 18.35 2.9 18.3 3.0 18.3 3.05 18.35 3.05 18.4 3.15 18.4 3.25 18.45 3.35 18.5 3.4 18.5 3.5 18.5 3.6 18.55 3.7 18.6 3.7 18.65 3.8 18.75 3.85 18.8 3.95 18.85 4.0 18.9 4.1 18.95 4.15 18.95 4.25 19.0 4.3 19.0 4.4 19.05 4.5 19.05 4.6 19.1 4.65 19.1 4.75 19.15 4.8 19.15 4.9 19.2 4.95 19.25 5.05 19.25 5.15 19.35 5.25 19.4 5.3 19.45 5.4 19.45 5.45 19.45 5.55 19.5 5.6 19.6 5.7 19.65 5.8 19.7 5.9 19.7 5.95 19.75 6.05 19.75 6.1 19.8 6.2 19.9 6.25 19.9 6.35 19.95 6.45 19.95 6.55 20.0 6.6 20.05 6.7 20.05 6.75 20.1 6.85 20.15 6.9 20.2 7.0 20.25 7.1 20.25 7.15 20.3 7.25 20.35 7.35 20.4 7.4 20.45 7.45 M1.6 21.95 L1.6 21.85 1.6 21.75 1.6 21.7 1.55 21.75 1.55 21.85 1.5 21.95 1.5 22.05 1.5 22.15 1.5 22.25 1.55 22.15 1.55 22.05 1.6 22.0 1.6 21.95" fill="#ffffff" fill-rule="evenodd" stroke="none"/>
    </g>
  </defs>
</svg>
