<?xml version="1.0" encoding="UTF-8" standalone="no"?>
<svg xmlns:xlink="http://www.w3.org/1999/xlink" height="34.15px" width="15.45px" xmlns="http://www.w3.org/2000/svg">
  <g transform="matrix(1.0, 0.0, 0.0, 1.0, -1.75, -0.5)">
    <use height="34.15" transform="matrix(1.0, 0.0, 0.0, 1.0, 1.75, 0.5)" width="15.45" xlink:href="#shape0"/>
  </g>
  <defs>
    <g id="shape0" transform="matrix(1.0, 0.0, 0.0, 1.0, -1.75, -0.5)">
      <path d="M13.25 1.45 L13.3 1.5 13.3 1.6 13.35 1.65 13.35 1.75 13.4 1.75 13.4 1.8 13.45 1.85 13.45 2.0 13.5 2.0 13.5 2.1 13.55 2.1 13.55 2.2 13.6 2.25 13.6 2.4 13.65 2.45 13.65 2.55 13.7 2.6 13.7 2.65 13.75 2.65 13.75 2.75 13.8 2.8 13.8 2.85 13.85 2.9 13.85 2.95 13.9 3.0 13.9 3.15 13.95 3.2 13.95 3.25 14.0 3.25 14.0 3.4 14.05 3.4 14.05 3.45 14.1 3.5 14.1 3.55 14.15 3.6 14.15 3.7 14.2 3.75 14.2 3.9 14.25 3.95 14.25 4.0 14.3 4.05 14.3 4.1 14.4 4.2 14.4 4.25 14.45 4.3 14.5 4.35 14.5 4.6 14.55 4.65 14.55 4.75 14.6 4.8 14.6 4.85 14.65 4.9 14.65 4.95 14.7 5.0 14.7 5.1 14.75 5.1 14.75 5.2 14.8 5.25 14.8 5.4 14.85 5.45 14.85 5.55 14.9 5.6 14.9 5.7 14.95 5.7 14.95 5.75 15.0 5.8 15.0 5.85 15.05 5.9 15.05 5.95 15.1 6.0 15.1 6.2 15.15 6.25 15.15 6.35 15.2 6.35 15.2 6.5 15.25 6.5 15.25 6.6 15.3 6.65 15.3 6.7 15.35 6.75 15.35 6.85 15.4 6.9 15.4 7.0 15.45 7.05 15.45 7.15 15.5 7.2 15.5 7.25 15.55 7.25 15.55 7.3 15.6 7.35 15.6 7.4 15.65 7.45 15.65 7.55 15.7 7.55 15.7 7.7 15.75 7.75 15.75 7.8 15.8 7.85 15.8 7.9 15.85 7.95 15.85 8.1 15.95 8.2 15.95 8.3 16.0 8.35 16.0 8.4 16.05 8.4 16.05 8.5 16.1 8.5 16.15 8.55 16.15 8.6 16.35 8.8 16.35 9.45 16.4 9.5 16.4 9.6 16.45 9.65 16.5 9.7 16.5 9.75 16.55 9.8 16.55 9.85 16.6 9.85 16.6 9.95 16.65 10.0 16.7 10.05 16.7 10.1 16.75 10.1 16.75 10.15 16.85 10.25 16.9 10.3 16.9 10.35 16.95 10.35 16.95 10.4 17.1 10.6 17.1 10.95 17.2 11.0 17.2 11.65 17.2 11.95 17.2 12.25 17.2 12.5 17.2 12.8 17.2 13.05 17.2 13.4 17.2 13.7 17.2 14.0 17.2 14.25 17.2 14.3 17.2 14.55 17.2 14.85 17.2 15.15 17.2 15.4 17.2 15.7 17.2 16.0 17.2 16.3 17.2 16.55 17.2 16.85 17.2 17.15 17.2 17.45 17.2 17.7 17.2 18.0 17.2 18.3 17.2 18.6 17.2 18.9 17.2 19.2 17.2 19.5 17.2 19.8 17.2 20.05 17.2 20.35 17.2 20.65 17.2 20.95 17.2 21.2 17.2 21.5 17.2 21.8 17.2 22.1 17.2 22.35 17.2 22.65 17.2 22.95 17.2 23.25 17.2 23.5 17.2 23.8 17.2 24.1 17.2 24.4 17.2 24.7 17.2 25.0 17.2 25.3 17.2 25.6 17.2 25.85 17.2 26.15 17.2 26.45 17.2 26.75 17.2 27.0 17.2 27.3 17.2 27.6 17.2 27.9 17.2 28.15 17.2 28.45 17.2 28.75 17.2 29.05 17.2 29.3 17.2 29.6 17.2 29.9 17.2 30.25 17.2 30.35 17.05 30.35 17.05 30.4 17.0 30.45 16.95 30.55 16.85 30.55 16.85 30.6 16.8 30.65 16.8 30.7 16.75 30.7 16.75 30.8 16.05 30.8 16.05 30.0 16.15 29.9 16.2 29.85 16.25 29.85 16.25 29.8 16.3 29.8 16.3 29.75 16.35 29.75 16.35 29.5 16.35 29.3 16.35 29.0 16.35 28.7 16.35 28.4 16.35 28.1 16.35 27.8 16.35 27.55 16.35 27.25 16.35 26.95 16.35 26.65 16.35 26.4 16.35 26.1 16.35 25.8 16.35 25.5 16.35 25.25 16.35 24.95 16.35 24.65 16.35 24.35 16.35 24.1 16.35 23.8 16.35 23.5 16.35 23.2 16.35 22.9 16.35 22.6 16.35 22.3 16.35 22.0 16.35 21.75 16.35 21.45 16.35 21.15 16.35 20.85 16.35 20.6 16.35 20.3 16.35 20.0 16.35 19.7 16.35 19.45 16.35 19.15 16.35 18.85 16.35 18.55 16.35 18.3 16.35 17.95 16.35 17.65 16.35 17.35 16.35 17.1 16.35 16.8 16.35 16.5 16.35 16.2 16.35 15.95 16.35 15.65 16.35 15.35 16.35 15.05 16.35 14.8 16.35 14.5 16.35 14.2 16.35 13.9 16.35 13.65 16.35 13.35 16.35 13.05 16.35 12.75 16.35 12.45 16.35 12.15 16.35 11.85 16.35 11.55 16.35 11.3 16.35 11.25 16.25 11.25 16.2 11.2 16.2 11.15 16.15 11.1 16.15 11.05 16.1 11.05 16.1 11.0 16.05 10.95 16.05 10.9 16.0 10.85 16.0 10.75 15.95 10.7 15.95 10.65 15.9 10.65 15.9 10.55 15.85 10.55 15.85 10.5 15.8 10.45 15.75 10.45 15.7 10.4 15.7 10.3 15.65 10.25 15.65 10.2 15.6 10.2 15.6 10.1 15.55 10.05 15.5 10.0 15.5 9.95 15.45 9.95 15.45 9.9 15.4 9.8 15.35 9.75 15.35 9.7 15.2 9.6 15.2 9.55 15.15 9.55 15.15 9.45 15.1 9.4 15.05 9.35 15.05 9.3 15.0 9.3 15.0 9.25 14.9 9.2 14.9 9.15 14.85 9.15 14.85 9.1 14.8 9.05 14.8 8.95 14.75 8.9 14.7 8.85 14.7 8.8 14.65 8.8 14.5 8.6 14.5 8.55 14.45 8.5 14.4 8.5 14.4 32.9 14.2 32.95 14.0 33.1 13.95 33.1 Q12.75 33.75 11.7 34.0 L9.3 34.5 7.25 34.6 5.55 34.35 Q3.9 34.0 3.0 33.5 L2.3 33.15 1.95 32.95 1.8 32.9 1.8 8.45 Q1.6 8.05 1.95 7.6 L2.0 7.5 2.3 7.45 2.3 7.4 2.95 7.25 4.1 7.15 4.95 7.0 5.45 6.95 5.45 6.25 5.6 6.0 5.75 5.8 5.75 3.6 5.7 3.6 5.15 3.55 4.45 3.55 4.45 2.85 4.5 2.85 4.5 2.8 4.6 2.8 4.6 2.35 4.8 1.85 5.3 1.45 11.2 1.45 11.45 1.55 11.45 1.75 Q11.75 1.15 12.2 0.7 L12.2 0.65 12.2 0.55 12.35 0.55 12.4 0.5 12.4 0.55 12.9 0.55 12.9 1.1 12.95 1.15 12.95 1.2 13.2 1.2 13.2 1.25 13.25 1.3 13.25 1.45 M6.7 11.55 Q5.5 12.6 4.8 14.15 3.8 16.3 3.8 18.5 3.8 20.15 4.2 21.55 4.7 23.3 6.15 24.05 6.85 24.45 7.7 24.5 6.25 23.6 6.15 21.55 6.05 20.0 7.25 18.7 L7.65 18.4 Q7.1 19.95 8.85 21.6 9.7 22.45 10.1 23.55 10.3 24.1 10.0 24.3 10.65 24.55 11.35 23.75 L11.4 23.7 Q12.4 23.05 12.7 21.4 13.0 19.45 12.05 17.6 L10.5 15.35 Q9.4 14.1 9.0 12.4 8.5 10.55 9.55 9.25 L6.7 11.55 M13.9 26.1 L13.9 25.95 8.25 26.55 2.35 25.95 2.35 26.05 2.35 26.15 2.35 26.85 2.35 26.95 2.35 27.05 2.35 27.15 2.35 27.25 2.35 27.35 2.35 27.45 2.35 27.55 2.35 27.65 2.35 27.75 2.35 27.8 8.35 28.55 13.9 27.85 13.9 27.3 13.9 27.2 13.9 27.15 13.9 27.0 13.9 26.9 13.9 26.85 13.9 26.75 13.9 26.6 13.9 26.55 13.9 26.45 13.9 26.35 13.9 26.25 13.9 26.1 M10.3 24.5 L10.3 24.55 10.55 24.5 10.3 24.5 M9.3 24.6 L9.3 24.55 9.25 24.6 9.3 24.6 M7.1 24.75 L6.85 24.7 6.8 24.75 7.1 24.75" fill="#ffffff" fill-rule="evenodd" stroke="none"/>
    </g>
  </defs>
</svg>
