<?xml version="1.0" encoding="UTF-8" standalone="no"?>
<svg xmlns:xlink="http://www.w3.org/1999/xlink" height="34.1px" width="26.75px" xmlns="http://www.w3.org/2000/svg">
  <g transform="matrix(1.0, 0.0, 0.0, 1.0, -1.0, -0.3)">
    <use height="34.1" transform="matrix(1.0, 0.0, 0.0, 1.0, 1.0, 0.3)" width="26.75" xlink:href="#shape0"/>
  </g>
  <defs>
    <g id="shape0" transform="matrix(1.0, 0.0, 0.0, 1.0, -1.0, -0.3)">
      <path d="M20.65 4.0 L20.75 4.0 20.85 4.0 20.95 4.05 21.05 4.1 21.15 4.2 21.15 4.25 21.2 4.25 21.2 4.3 21.25 4.35 21.25 4.55 21.35 4.65 21.4 4.7 21.45 4.75 21.45 4.8 21.5 4.85 21.6 4.95 21.6 5.0 21.65 5.0 21.7 5.05 21.75 5.1 21.8 5.15 21.8 5.2 21.85 5.25 21.9 5.3 21.9 5.35 21.95 5.4 22.0 5.45 22.05 5.5 22.05 5.55 22.1 5.6 22.2 5.7 22.2 5.75 22.25 5.75 22.3 5.8 22.3 5.85 22.35 5.9 22.35 5.95 22.4 6.0 22.4 6.05 22.5 6.15 22.55 6.2 22.6 6.25 22.65 6.3 22.7 6.35 22.7 6.4 22.75 6.45 22.8 6.5 22.85 6.55 22.9 6.6 22.9 6.65 22.95 6.7 23.0 6.75 23.0 6.85 23.05 6.9 23.05 6.95 23.1 7.0 23.15 7.05 23.15 7.1 23.2 7.15 23.2 7.2 23.25 7.25 23.3 7.3 23.3 7.35 23.35 7.4 23.35 7.45 23.4 7.5 23.4 7.55 23.45 7.6 23.45 7.65 23.5 7.7 23.55 7.75 23.55 7.8 23.6 7.85 23.6 7.9 23.65 7.95 23.65 8.0 23.7 8.0 23.7 8.05 23.75 8.1 23.8 8.15 23.8 8.2 23.85 8.25 23.85 8.3 23.9 8.35 23.9 8.4 23.95 8.45 23.95 8.5 24.0 8.55 24.0 8.7 24.05 8.75 24.1 8.8 24.1 8.85 24.15 8.9 24.15 8.95 24.2 9.0 24.2 9.1 24.25 9.15 24.25 9.25 24.3 9.3 24.3 9.6 24.35 9.65 24.4 9.7 24.5 9.75 24.6 9.75 24.65 9.8 24.75 9.85 24.8 9.9 24.85 9.95 24.9 9.95 25.0 10.0 25.1 10.05 25.2 10.15 25.25 10.2 25.3 10.25 25.35 10.3 25.4 10.35 25.4 10.4 25.45 10.45 25.5 10.5 25.5 10.6 25.55 10.65 25.55 10.75 25.6 10.8 25.6 11.2 25.65 11.25 25.65 11.4 25.7 11.45 25.7 11.5 25.75 11.55 25.75 11.75 25.8 11.75 25.8 12.0 25.85 12.05 25.85 12.4 25.9 12.45 25.9 12.6 25.95 12.65 25.95 12.75 26.0 12.8 26.0 13.05 26.05 13.1 26.05 13.25 26.1 13.25 26.1 13.5 26.15 13.55 26.15 13.75 26.2 13.8 26.2 13.85 26.25 13.9 26.25 14.2 26.3 14.25 26.3 14.45 26.35 14.5 26.35 14.75 26.4 14.8 26.4 15.5 26.45 15.5 26.45 15.55 26.5 15.6 26.5 15.95 26.45 16.0 26.45 16.05 26.4 16.1 26.4 16.35 26.35 16.4 26.35 16.5 26.4 16.5 26.6 16.7 26.6 16.75 26.65 16.8 26.65 17.1 26.6 17.15 26.6 17.2 26.5 17.3 26.55 17.35 26.55 18.0 26.5 18.05 26.5 18.3 26.55 18.35 26.55 18.75 26.5 18.8 26.5 18.85 26.45 18.9 26.45 18.95 26.4 19.0 26.35 19.05 26.3 19.1 26.2 19.1 26.15 19.15 26.05 19.15 25.45 19.15 25.4 19.2 25.3 19.2 25.05 19.25 25.0 19.25 24.9 19.3 24.9 19.4 24.85 19.45 24.85 19.5 24.8 19.55 24.8 19.95 24.75 20.0 24.75 20.05 24.75 20.15 24.75 20.2 24.75 20.3 24.75 20.45 24.75 20.55 24.75 20.7 24.75 20.85 24.75 21.0 24.75 21.15 24.75 21.25 24.75 21.4 24.75 21.55 24.75 21.7 24.75 21.85 24.75 21.9 24.85 21.95 24.95 21.95 25.05 22.0 25.15 22.0 25.25 22.0 25.35 22.05 25.4 22.05 25.5 22.1 25.6 22.1 25.7 22.15 25.8 22.2 25.85 22.25 25.9 22.25 25.95 22.3 26.0 22.35 26.0 22.4 26.1 22.5 26.15 22.55 26.15 23.25 26.1 23.25 26.1 23.35 26.1 23.45 26.1 23.55 26.1 23.65 26.1 23.8 26.1 23.95 26.1 24.05 26.1 24.2 26.1 24.35 26.1 24.5 26.1 24.65 26.1 24.75 26.1 24.9 26.1 25.05 26.1 25.15 26.2 25.25 26.25 25.25 26.35 25.3 26.4 25.35 26.4 25.4 26.45 25.45 26.5 25.5 26.5 25.55 26.6 25.65 26.65 25.7 26.65 25.75 26.7 25.8 26.7 25.85 26.75 25.9 26.75 25.95 26.8 26.0 26.85 26.0 26.9 26.05 26.9 26.1 26.95 26.15 26.95 26.2 27.0 26.25 27.0 26.3 27.1 26.4 27.15 26.45 27.15 26.5 27.2 26.55 27.2 26.6 27.25 26.65 27.3 26.7 27.3 26.75 27.35 26.75 27.35 26.85 27.65 26.85 27.65 27.3 27.7 27.35 27.7 27.4 27.75 27.45 27.75 27.65 27.75 27.75 27.75 27.9 27.75 28.0 27.75 28.15 27.75 28.35 27.75 28.55 27.75 28.75 27.75 28.9 27.75 29.1 27.75 29.3 27.75 29.5 27.75 29.65 27.75 29.85 27.75 30.05 27.75 30.25 27.75 30.4 27.75 30.6 27.75 30.8 27.75 31.35 27.7 31.4 27.7 31.45 27.65 31.5 27.65 31.55 27.55 31.65 27.55 31.7 27.55 31.8 27.55 31.9 27.55 31.95 27.25 31.95 27.25 32.0 27.25 32.1 27.25 32.2 27.25 32.3 27.25 32.4 27.25 32.5 27.25 32.6 27.25 32.7 27.25 32.75 27.25 32.85 27.25 32.95 27.25 33.05 27.25 33.15 27.25 33.25 27.25 33.35 27.25 33.45 27.25 33.55 27.2 33.6 27.2 33.65 27.15 33.7 27.15 33.75 27.05 33.85 26.95 33.9 26.85 33.95 26.75 33.95 26.65 33.95 26.55 33.9 24.75 33.9 22.0 33.9 21.25 33.95 20.7 34.0 20.4 34.0 20.35 34.05 20.35 34.1 19.45 34.15 18.25 34.2 17.9 34.25 17.9 34.15 17.8 34.15 17.4 34.15 17.4 34.05 17.35 34.0 17.35 33.8 17.3 33.75 17.3 33.45 17.25 33.4 17.25 33.2 17.2 33.15 17.2 32.85 17.15 32.85 17.15 32.45 17.1 32.4 17.1 32.35 17.1 32.25 17.1 32.15 17.1 32.0 17.1 31.9 17.1 31.8 17.1 31.7 17.1 31.55 17.1 31.45 17.1 31.35 17.1 31.25 17.1 31.1 17.1 31.0 17.1 30.9 17.1 30.8 17.1 30.65 17.1 30.55 17.1 30.45 17.1 30.35 17.1 30.2 17.1 30.1 17.1 30.0 17.15 30.0 17.15 29.45 17.2 29.4 17.2 28.75 17.25 28.7 17.25 28.25 17.3 28.25 17.3 27.7 17.35 27.65 17.35 26.95 17.4 26.9 17.4 26.0 17.45 26.0 17.45 24.75 17.4 24.7 17.4 24.5 17.35 24.5 17.35 24.25 17.3 24.2 17.3 23.95 17.25 23.95 17.25 23.7 17.2 23.65 17.2 23.25 17.15 23.2 17.15 22.85 17.1 22.85 17.1 21.65 17.15 21.6 17.15 21.55 17.15 21.45 17.15 21.4 17.15 21.3 17.15 21.25 17.15 21.15 17.15 21.1 17.15 21.0 17.15 20.95 17.15 20.85 17.15 20.8 17.15 20.7 17.15 20.6 17.15 20.5 17.15 20.45 17.15 20.35 17.15 20.3 17.15 20.2 17.15 20.1 17.2 20.05 17.2 19.9 17.2 19.8 17.2 19.7 17.2 19.6 17.2 19.45 17.2 19.35 17.15 19.35 17.15 18.2 17.1 18.15 17.1 17.3 17.05 17.25 17.05 17.15 17.05 17.05 17.05 17.0 17.05 16.9 17.05 16.85 17.05 16.75 17.05 16.7 17.05 16.6 17.05 16.5 17.05 16.4 17.05 16.2 17.05 16.1 17.05 15.95 17.05 15.85 17.05 15.8 17.0 15.8 17.0 14.95 16.95 14.95 16.95 13.85 16.9 13.85 16.9 12.85 16.85 12.8 16.85 11.65 16.8 11.6 16.8 11.15 16.75 11.1 16.75 10.65 16.7 10.6 16.7 10.35 16.65 10.3 16.65 10.15 16.6 10.1 16.6 9.85 16.55 9.8 16.55 9.5 16.5 9.45 16.5 8.95 16.45 8.95 16.45 8.6 16.4 8.55 16.4 8.4 16.35 8.4 16.35 8.2 16.3 8.2 16.3 7.95 16.25 7.9 16.25 7.75 16.2 7.7 16.2 7.55 16.15 7.5 16.15 7.4 16.1 7.35 16.1 7.25 16.05 7.2 16.05 7.15 15.95 7.05 15.95 7.0 15.9 6.95 15.9 6.6 15.85 6.6 15.85 6.1 16.0 6.1 16.0 6.05 16.2 6.05 16.2 6.0 16.3 6.0 16.3 5.95 16.35 5.95 16.35 5.9 16.5 5.9 16.5 5.8 16.55 5.75 16.55 5.25 16.6 5.25 16.6 5.15 16.65 5.1 16.65 5.05 16.65 4.95 16.65 4.85 16.65 4.75 16.65 4.65 16.65 4.55 16.65 4.5 16.65 4.4 16.65 4.3 16.65 4.2 16.65 4.1 16.65 4.05 16.65 3.95 16.65 3.85 16.65 3.75 16.65 3.65 16.55 3.6 16.5 3.55 16.5 3.5 16.45 3.45 16.45 3.4 16.4 3.35 16.4 3.25 16.35 3.2 16.35 3.15 16.3 3.1 16.3 2.75 16.25 2.7 16.25 2.65 16.2 2.6 16.15 2.55 16.15 2.4 16.05 2.35 15.95 2.3 15.9 2.25 15.9 2.15 15.7 2.1 15.55 2.05 15.45 2.0 15.2 1.95 15.2 1.9 15.15 1.9 15.15 2.0 14.15 2.0 13.9 1.95 13.9 1.9 11.1 1.9 11.15 1.95 11.2 2.0 11.3 2.05 11.4 2.1 11.45 2.15 11.45 2.2 11.5 2.25 11.55 2.3 11.65 2.35 11.75 2.4 11.8 2.45 11.85 2.5 11.9 2.5 11.95 2.55 12.05 2.6 12.1 2.65 12.1 2.7 12.15 2.75 12.25 2.8 12.3 2.8 12.4 2.85 12.4 2.9 12.5 3.0 12.55 3.0 12.65 3.05 12.7 3.1 12.75 3.15 12.75 3.25 12.9 3.3 12.95 3.35 13.0 3.4 13.0 3.45 13.1 3.5 13.2 3.6 13.2 3.65 13.25 3.7 13.3 3.75 13.35 3.75 13.65 4.05 13.65 4.1 13.7 4.15 13.7 4.2 13.75 4.25 13.8 4.3 13.9 4.4 13.9 4.45 14.0 4.55 14.05 4.6 14.1 4.65 14.1 4.7 14.15 4.75 14.2 4.8 14.2 4.9 14.25 4.95 14.25 5.0 14.3 5.05 14.4 5.15 14.4 5.25 14.45 5.25 14.5 5.3 14.6 5.35 14.65 5.4 14.65 5.5 14.7 5.55 14.7 5.6 14.75 5.65 14.8 5.7 14.85 5.75 14.9 5.8 15.0 5.85 15.0 5.9 15.05 5.95 15.1 6.0 15.15 6.0 15.15 6.05 15.2 6.1 15.2 6.15 15.25 6.15 15.25 6.35 15.3 6.4 15.3 6.5 15.35 6.55 15.35 6.6 15.4 6.65 15.4 6.75 15.45 6.8 15.45 6.85 15.5 6.9 15.55 6.95 15.55 7.1 15.6 7.15 15.6 7.3 15.65 7.35 15.65 7.4 15.7 7.45 15.7 7.5 15.75 7.55 15.75 7.7 15.8 7.75 15.8 7.95 15.85 8.0 15.85 8.2 15.9 8.25 15.9 8.35 15.95 8.4 16.0 8.45 16.0 8.55 16.05 8.6 16.05 8.9 16.1 8.95 16.1 9.45 16.15 9.5 16.15 9.65 16.2 9.7 16.2 11.3 16.25 11.35 16.25 11.6 16.25 11.7 16.25 11.8 16.25 11.9 16.25 12.0 16.25 12.1 16.25 12.15 16.25 12.25 16.25 12.35 16.25 12.45 16.25 12.55 16.25 12.65 16.25 12.75 16.25 12.85 16.25 12.9 16.25 13.0 16.25 13.1 16.25 13.5 16.3 13.55 16.3 14.2 16.35 14.25 16.35 14.95 16.4 15.0 16.4 15.15 16.45 15.15 16.45 16.65 16.5 16.7 16.5 17.5 16.55 17.55 16.55 17.7 16.55 17.8 16.55 18.0 16.55 18.15 16.55 18.35 16.55 18.55 16.55 18.75 16.55 18.9 16.55 19.1 16.55 19.3 16.55 19.5 16.55 19.65 16.55 19.85 16.55 20.05 16.55 20.25 16.55 20.4 16.55 20.6 16.55 20.8 16.55 21.0 16.55 21.15 16.55 21.2 16.55 21.3 16.55 21.4 16.6 21.45 16.6 22.55 16.65 22.6 16.65 22.65 16.7 22.7 16.7 22.8 16.75 22.85 16.75 23.45 16.8 23.5 16.8 23.8 16.85 23.85 16.85 24.15 16.9 24.15 16.9 24.25 16.9 24.4 16.9 24.55 16.9 24.7 16.9 24.8 16.9 24.95 16.9 25.1 16.9 25.25 16.9 25.4 16.9 25.55 16.9 25.65 16.9 25.8 16.9 25.95 16.9 26.1 16.9 26.2 16.9 26.3 16.9 26.4 16.85 26.45 16.85 26.6 16.8 26.65 16.8 27.7 16.75 27.75 16.75 28.0 16.7 28.05 16.7 28.8 16.65 28.85 16.65 30.05 16.6 30.05 16.6 30.15 16.55 30.2 16.55 30.35 16.55 30.45 16.55 30.55 16.55 30.65 16.55 30.75 16.55 30.8 16.55 30.9 16.55 31.0 16.55 31.1 16.55 31.2 16.55 31.3 16.55 31.4 16.55 31.5 16.55 31.55 16.55 31.65 16.55 31.75 16.55 31.85 16.55 31.95 16.55 32.05 16.55 32.15 16.55 32.25 16.55 32.3 16.55 32.4 16.55 32.75 16.6 32.8 16.6 32.85 16.65 32.9 16.65 32.95 16.65 33.05 16.65 33.1 16.65 33.2 16.65 33.3 16.65 33.4 16.65 33.5 16.65 33.6 16.65 33.7 16.65 33.8 16.65 33.85 16.65 33.95 16.65 34.05 16.65 34.15 16.65 34.25 16.65 34.35 15.3 34.35 13.4 34.4 12.25 34.35 12.2 34.3 12.15 34.25 11.8 34.25 11.05 34.2 10.3 34.15 9.55 34.1 9.5 34.05 9.5 34.0 8.65 34.0 8.4 33.95 7.8 33.9 7.1 33.85 7.05 33.8 7.05 33.75 6.6 33.75 5.15 33.7 4.7 33.65 4.7 33.6 4.3 33.55 4.25 33.5 3.85 33.5 3.55 33.45 3.05 33.4 3.0 33.35 3.0 33.25 2.85 33.25 2.85 33.2 2.8 33.15 2.8 32.9 2.75 32.85 2.7 32.8 2.7 32.75 2.65 32.75 2.65 32.6 2.6 32.55 2.6 32.5 2.6 32.4 2.6 32.25 2.6 32.0 2.6 31.8 2.6 31.5 2.6 31.25 2.6 30.95 2.6 30.65 2.6 30.4 2.6 30.1 2.6 29.85 2.6 29.6 2.6 29.3 2.6 29.0 2.6 28.8 2.6 28.5 2.6 28.25 2.6 27.95 2.6 27.7 2.6 27.55 2.6 27.5 2.65 27.5 2.65 26.8 2.6 26.75 2.6 25.1 2.55 25.05 2.55 24.15 2.5 24.1 2.5 23.7 2.45 23.65 2.45 23.6 2.4 23.55 2.4 23.1 2.35 23.05 2.35 22.7 2.3 22.65 2.3 22.25 2.25 22.25 2.25 21.95 2.2 21.9 2.2 21.85 2.15 21.8 2.15 21.45 2.1 21.4 2.1 21.1 2.05 21.05 2.05 20.65 2.0 20.6 2.0 20.5 1.95 20.45 1.95 20.4 1.9 20.35 1.9 20.1 1.85 20.05 1.85 19.8 1.8 19.75 1.8 19.4 1.75 19.35 1.75 19.25 1.7 19.2 1.7 19.15 1.65 19.1 1.65 18.85 1.6 18.8 1.6 18.5 1.55 18.5 1.55 18.1 1.5 18.05 1.5 17.75 1.45 17.75 1.45 17.7 1.4 17.65 1.4 17.4 1.35 17.35 1.35 16.95 1.3 16.9 1.3 16.2 1.25 16.15 1.25 15.6 1.2 15.55 1.2 15.5 1.15 15.5 1.15 14.75 1.1 14.75 1.1 13.5 1.05 13.45 1.05 12.65 1.05 12.55 1.05 12.5 1.0 12.5 1.0 12.25 1.0 12.15 1.0 12.05 1.0 11.95 1.0 11.85 1.0 11.75 1.0 11.7 1.0 11.6 1.0 11.5 1.0 11.4 1.0 11.3 1.0 11.2 1.0 11.1 1.0 11.0 1.0 10.95 1.0 10.85 1.0 10.75 1.0 10.65 1.0 10.55 1.0 10.45 1.0 10.35 1.0 10.25 1.0 9.75 1.05 9.7 1.05 9.25 1.1 9.2 1.1 9.0 1.15 8.95 1.15 8.75 1.2 8.75 1.2 8.7 1.25 8.65 1.25 8.6 1.3 8.55 1.3 8.45 1.35 8.4 1.35 8.3 1.4 8.25 1.4 8.15 1.45 8.1 1.5 8.05 1.5 8.0 1.55 8.0 1.55 7.8 1.6 7.75 1.6 7.6 1.65 7.55 1.65 7.45 1.7 7.4 1.7 7.35 1.75 7.3 1.75 7.25 1.8 7.25 1.8 7.1 1.85 7.05 1.85 6.95 1.9 6.9 1.9 6.8 1.95 6.75 1.95 6.7 2.0 6.65 2.0 6.6 2.05 6.55 2.05 6.5 2.1 6.45 2.15 6.4 2.15 6.3 2.2 6.25 2.2 6.2 2.25 6.15 2.3 6.1 2.3 6.05 2.35 6.0 2.35 5.95 2.4 5.9 2.4 5.85 2.45 5.8 2.45 5.75 2.5 5.75 2.5 5.7 2.6 5.6 2.65 5.55 2.65 5.5 2.7 5.45 2.75 5.4 2.9 5.25 2.9 5.2 2.95 5.15 3.0 5.1 3.05 5.05 3.15 5.0 3.2 5.0 3.35 4.85 3.45 4.8 3.55 4.75 3.6 4.7 3.65 4.65 3.7 4.6 3.75 4.55 3.85 4.5 3.9 4.45 3.95 4.4 4.0 4.35 4.1 4.3 4.15 4.3 4.15 4.25 4.25 4.25 4.35 4.2 4.4 4.15 4.5 4.1 4.6 4.0 4.65 4.0 4.75 3.95 4.85 3.85 4.9 3.8 5.0 3.75 5.05 3.75 5.15 3.75 5.25 3.7 5.35 3.65 5.4 3.6 5.5 3.6 5.6 3.55 5.7 3.5 5.8 3.5 5.85 3.5 5.9 3.45 6.0 3.45 6.15 3.45 6.25 3.4 6.35 3.4 6.5 3.35 6.6 3.3 6.7 3.25 6.8 3.25 7.15 3.25 7.2 3.2 7.3 3.2 7.4 3.2 7.5 3.15 7.6 3.1 7.65 3.05 7.75 3.0 7.85 3.0 7.9 2.95 7.9 2.75 7.95 2.7 7.95 2.65 8.0 2.6 8.0 2.0 8.05 1.95 8.05 1.3 8.1 1.25 8.1 1.1 8.15 1.05 8.15 1.0 8.3 0.85 8.4 0.8 8.5 0.75 8.6 0.75 8.7 0.75 8.8 0.8 8.9 0.85 8.95 0.9 9.0 0.9 9.1 0.9 9.2 0.95 9.3 1.0 9.4 1.1 9.45 1.1 14.65 1.15 14.65 0.3 15.45 0.35 15.45 1.0 15.55 1.05 15.55 1.1 15.95 1.15 15.95 1.2 16.2 1.25 16.3 1.3 16.45 1.35 16.65 1.4 16.65 1.5 16.7 1.5 16.7 1.55 16.8 1.6 16.9 1.65 16.9 1.8 17.0 1.9 17.05 1.95 17.1 2.0 17.15 2.05 17.15 2.2 17.2 2.25 17.2 2.3 17.25 2.35 17.3 2.4 17.4 2.5 17.4 2.6 17.45 2.65 17.5 2.7 17.5 2.75 17.65 2.9 17.65 3.0 17.7 3.05 17.7 3.1 17.75 3.15 17.75 3.2 17.8 3.25 17.9 3.25 17.9 3.3 18.0 3.4 18.0 3.45 18.05 3.5 18.1 3.55 18.15 3.6 18.15 3.65 18.2 3.7 18.25 3.75 18.35 3.8 18.45 3.85 18.45 3.9 18.6 3.9 18.7 3.85 18.8 3.85 18.9 3.85 19.0 3.85 19.1 3.85 19.2 3.85 19.3 3.9 19.4 3.9 19.65 3.9 19.75 3.9 19.85 3.95 20.0 3.95 20.1 3.95 20.15 4.0 20.35 4.0 20.45 4.0 20.55 4.0 20.65 4.0 M24.15 10.8 L24.25 10.85 24.2 10.8 24.15 10.8 M6.85 4.3 L6.7 4.35 6.85 4.35 6.85 4.3 M5.1 5.4 L5.05 5.35 5.05 5.4 4.7 5.45 4.55 5.5 4.5 5.5 4.4 5.55 4.35 5.55 4.25 5.6 4.15 5.65 4.1 5.65 4.0 5.7 3.9 5.75 3.85 5.75 3.8 5.8 3.75 5.85 3.7 5.85 3.65 5.9 3.6 5.9 3.5 6.0 3.5 6.05 3.45 6.05 3.35 6.15 3.35 6.2 3.3 6.25 3.15 6.25 3.15 6.3 3.05 6.4 3.05 6.45 3.0 6.5 3.0 6.55 2.9 6.65 2.9 6.7 2.85 6.75 2.85 6.8 2.75 6.9 2.75 7.0 2.65 7.1 2.65 7.2 2.6 7.2 2.6 7.25 2.55 7.3 2.55 7.35 2.45 7.45 2.45 7.55 2.4 7.55 2.4 7.6 2.35 7.65 2.35 7.7 2.3 7.75 2.3 7.85 2.25 7.9 2.25 7.95 2.2 8.0 2.2 8.1 2.15 8.15 2.15 8.35 2.1 8.35 2.1 8.45 2.05 8.5 2.05 8.55 2.0 8.6 2.0 8.75 1.95 8.8 1.95 8.95 1.9 9.0 1.9 9.55 1.85 9.6 1.85 9.85 1.8 9.9 1.8 10.05 1.75 10.05 1.75 11.1 1.7 11.15 1.7 12.0 1.75 12.05 1.75 13.1 1.8 13.15 1.8 13.95 1.85 14.0 1.85 14.45 1.9 14.5 1.9 14.85 1.95 14.85 1.95 15.25 2.0 15.3 2.0 15.45 2.05 15.5 2.05 15.75 2.1 15.8 2.1 15.95 2.15 16.0 2.15 16.2 2.2 16.25 2.2 16.35 2.25 16.4 2.25 16.65 2.3 16.7 2.3 16.85 2.35 16.9 2.35 17.05 2.4 17.1 2.4 17.3 2.45 17.35 2.45 17.45 2.5 17.5 2.5 17.55 2.55 17.55 2.55 17.65 2.6 17.7 2.6 17.9 2.65 17.95 2.65 18.0 2.75 18.1 2.75 18.6 3.25 18.6 3.25 18.7 3.45 18.65 4.25 18.65 4.3 18.6 4.3 18.5 4.35 18.45 4.35 18.4 4.4 18.35 4.4 18.3 4.5 18.2 4.5 18.15 4.55 18.1 4.55 18.0 4.6 17.95 4.6 17.85 4.65 17.8 4.65 17.75 4.75 17.65 4.75 17.6 4.8 17.55 4.8 17.5 4.85 17.5 4.85 17.45 4.9 17.4 4.9 17.35 4.95 17.3 4.95 17.25 5.0 17.2 5.0 17.15 5.05 17.1 5.05 17.05 5.1 17.0 5.1 16.95 5.15 16.9 5.15 16.8 5.2 16.75 5.25 16.75 5.25 16.65 5.3 16.6 5.3 16.45 5.35 16.4 5.35 16.35 5.4 16.3 5.4 16.2 5.45 16.15 5.45 16.05 5.5 16.0 5.5 15.95 5.55 15.9 5.55 15.8 5.6 15.75 5.6 15.7 5.65 15.65 5.65 15.55 5.7 15.5 5.75 15.45 5.75 15.35 5.8 15.3 5.8 15.25 5.85 15.2 5.85 15.15 5.9 15.1 5.9 15.0 5.95 14.95 5.95 14.9 6.0 14.85 6.0 14.8 6.05 14.75 6.05 14.7 6.1 14.65 6.1 14.55 6.15 14.5 6.15 14.45 6.2 14.4 6.2 14.3 6.25 14.25 6.25 14.15 6.3 14.1 6.3 14.0 6.35 13.95 6.35 13.9 6.4 13.85 6.4 13.75 6.45 13.75 6.45 13.7 6.5 13.65 6.5 13.6 6.55 13.55 6.55 13.5 6.6 13.45 6.6 13.3 6.65 13.25 6.65 13.1 6.7 13.05 6.75 13.0 6.75 12.95 6.8 12.9 6.8 12.8 6.85 12.75 6.85 12.65 6.9 12.6 6.9 12.5 6.95 12.45 6.95 12.3 7.0 12.25 7.0 12.1 7.05 12.05 7.05 11.9 7.1 11.85 7.1 11.75 7.15 11.75 7.15 11.5 7.2 11.45 7.2 10.95 7.25 10.9 7.25 10.65 7.3 10.6 7.3 9.1 7.35 9.05 7.35 8.8 7.3 8.75 7.3 8.45 7.25 8.4 7.25 7.9 7.2 7.9 7.2 7.75 7.15 7.7 7.15 7.65 7.1 7.6 7.1 7.5 7.05 7.45 7.0 7.4 7.0 7.35 6.95 7.3 6.95 7.25 6.85 7.15 6.85 7.1 6.75 7.0 6.75 6.9 6.7 6.85 6.65 6.8 6.65 6.75 6.6 6.7 6.55 6.65 6.55 6.6 6.5 6.55 6.5 6.5 6.45 6.45 6.45 6.4 6.35 6.3 6.35 6.25 6.2 6.1 6.15 6.1 6.05 6.0 6.0 5.95 5.9 5.95 5.85 5.9 5.85 5.85 5.8 5.8 5.75 5.8 5.6 5.65 5.55 5.65 5.45 5.6 5.3 5.45 5.15 5.45 5.15 5.4 5.1 5.4 M3.85 19.95 L3.0 19.95 2.9 19.95 2.95 20.0 2.95 20.1 3.0 20.15 3.0 20.35 3.05 20.4 3.05 20.8 3.1 20.85 3.1 21.05 3.15 21.1 3.15 21.25 3.4 21.25 3.4 21.15 3.45 21.1 3.45 21.05 3.5 21.0 3.5 20.9 3.55 20.9 3.55 20.75 3.6 20.75 3.6 20.7 3.65 20.65 3.65 20.5 3.7 20.45 3.75 20.4 3.75 20.3 3.8 20.25 3.8 20.15 3.85 20.1 3.85 19.95" fill="#ffffff" fill-rule="evenodd" stroke="none"/>
    </g>
  </defs>
</svg>
