<?xml version="1.0" encoding="UTF-8" standalone="no"?>
<svg xmlns:xlink="http://www.w3.org/1999/xlink" height="36.7px" width="24.9px" xmlns="http://www.w3.org/2000/svg">
  <g transform="matrix(1.0, 0.0, 0.0, 1.0, 0.0, 0.0)">
    <use height="36.7" transform="matrix(1.0, 0.0, 0.0, 1.0, 0.0, 0.0)" width="24.9" xlink:href="#shape0"/>
  </g>
  <defs>
    <g id="shape0" transform="matrix(1.0, 0.0, 0.0, 1.0, 0.0, 0.0)">
      <path d="M21.4 4.65 L21.95 5.4 Q22.3 5.85 22.5 5.65 22.7 5.45 22.1 4.5 21.45 3.5 22.3 2.3 22.4 2.8 23.5 3.8 24.6 4.85 24.85 5.85 L24.9 6.85 24.5 8.05 23.95 8.9 Q23.8 9.25 24.2 9.75 24.55 10.25 24.0 11.1 L22.4 13.0 Q21.7 13.8 20.3 13.9 L21.0 12.7 21.25 12.65 22.75 10.6 22.5 9.95 21.45 9.0 Q20.8 8.55 20.25 8.35 L19.55 8.3 18.05 10.35 18.1 10.35 18.1 10.65 16.6 12.5 16.45 12.35 15.7 10.85 Q15.3 9.5 15.55 8.65 L16.15 7.55 Q16.5 6.85 16.15 5.65 L16.7 5.85 Q17.35 6.2 17.65 6.95 L17.8 8.3 17.85 8.85 18.6 7.2 Q18.65 6.7 17.95 5.65 L16.85 4.25 Q16.55 3.8 16.6 2.15 16.65 0.45 17.1 0.0 17.2 1.05 18.0 1.85 18.4 2.25 20.15 2.75 20.85 2.95 21.0 3.6 L21.4 4.65" fill="#ffffff" fill-opacity="0.6" fill-rule="evenodd" stroke="none"/>
      <path d="M20.25 8.35 Q20.8 8.55 21.45 9.0 L22.5 9.95 22.75 10.6 21.25 12.65 21.0 12.7 17.75 18.0 Q17.55 18.25 17.3 20.75 17.0 23.2 16.25 24.3 L7.55 36.5 5.75 36.55 Q4.25 36.15 2.85 35.15 1.45 34.15 0.6 32.85 -0.15 31.65 0.05 31.15 L8.75 18.9 Q9.5 17.8 11.75 16.75 L13.25 16.05 14.15 15.45 18.1 10.65 18.1 10.35 18.05 10.35 19.55 8.3 20.25 8.35" fill="#ffffff" fill-rule="evenodd" stroke="none"/>
    </g>
  </defs>
</svg>
