<?xml version="1.0" encoding="UTF-8" standalone="no"?>
<svg xmlns:xlink="http://www.w3.org/1999/xlink" height="34.95px" width="33.75px" xmlns="http://www.w3.org/2000/svg">
  <g transform="matrix(1.0, 0.0, 0.0, 1.0, 0.0, 1.2)">
    <use height="34.95" transform="matrix(1.0, 0.0, 0.0, 1.0, 0.0, -1.2)" width="33.75" xlink:href="#shape0"/>
  </g>
  <defs>
    <g id="shape0" transform="matrix(1.0, 0.0, 0.0, 1.0, 0.0, 1.2)">
      <path d="M33.75 0.0 L33.75 33.75 0.0 33.75 0.0 0.0 33.75 0.0" fill="#ffffff" fill-opacity="0.0" fill-rule="evenodd" stroke="none"/>
      <path d="M9.8 19.45 L9.05 20.05 Q8.25 21.05 8.25 22.55 8.25 24.4 9.5 25.75 L10.4 26.45 11.5 27.0 11.5 18.8 9.8 19.45 M17.5 11.35 Q18.05 10.8 18.2 10.25 L18.35 8.85 Q18.35 7.4 17.35 6.3 L15.7 5.3 15.7 12.45 Q17.0 11.95 17.5 11.35 M11.5 -1.2 L15.7 -1.2 15.7 0.6 Q19.25 1.0 21.05 2.5 L22.4 3.9 Q24.25 6.15 24.25 9.2 L23.95 11.35 Q23.7 12.4 23.1 13.25 22.2 15.0 19.95 16.15 17.7 17.25 15.7 17.75 L15.7 27.0 17.7 25.5 Q18.7 24.3 19.1 21.8 L19.35 20.95 25.0 21.8 25.0 22.55 Q24.7 25.5 23.3 27.55 21.7 29.65 19.8 30.5 L18.05 31.25 15.7 31.7 15.7 33.5 11.5 33.5 11.5 31.75 Q7.7 31.35 5.2 28.9 2.4 26.3 2.4 22.35 L2.5 20.7 3.1 19.05 Q3.7 17.45 5.0 16.35 L6.4 15.2 8.15 14.45 Q9.05 14.05 11.5 13.55 L11.5 5.4 Q11.1 5.5 10.75 5.8 L10.15 6.2 Q9.35 6.95 9.05 8.8 L8.85 9.65 3.0 8.9 3.2 8.05 Q3.55 5.6 4.95 3.9 5.65 3.0 6.5 2.4 8.45 1.0 11.5 0.6 L11.5 -1.2" fill="#ffffff" fill-rule="evenodd" stroke="none"/>
    </g>
  </defs>
</svg>
