<?xml version="1.0" encoding="UTF-8" standalone="no"?>
<svg xmlns:xlink="http://www.w3.org/1999/xlink" height="35.05px" width="48.1px" xmlns="http://www.w3.org/2000/svg">
  <g transform="matrix(1.0, 0.0, 0.0, 1.0, -2.5, 0.05)">
    <use height="35.05" transform="matrix(1.0, 0.0, 0.0, 1.0, 2.5, -0.05)" width="48.1" xlink:href="#shape0"/>
  </g>
  <defs>
    <g id="shape0" transform="matrix(1.0, 0.0, 0.0, 1.0, -2.5, 0.05)">
      <path d="M24.05 12.2 L20.5 12.2 Q19.8 12.2 19.8 12.9 L19.8 14.9 Q19.8 15.65 20.5 15.65 L22.4 15.65 Q23.4 15.65 24.1 15.05 24.75 14.45 24.75 13.8 L24.75 13.25 24.55 12.6 Q24.35 12.2 24.05 12.2 M50.25 4.4 L50.6 4.55 50.55 5.1 49.6 12.0 Q49.4 12.85 48.05 13.3 L44.6 14.25 43.55 14.5 37.9 14.6 Q37.15 14.6 37.15 15.0 L37.15 17.2 Q37.15 18.2 36.45 18.15 L35.6 18.0 27.8 18.0 26.5 18.25 26.15 17.85 26.1 17.4 Q25.35 18.6 24.6 18.6 L19.65 18.6 Q18.75 18.6 18.65 19.8 L18.05 21.05 Q17.5 22.15 17.3 22.95 15.85 28.55 15.65 30.35 15.55 31.7 15.9 34.4 15.9 35.25 14.7 34.75 L13.25 34.95 8.95 34.05 4.05 32.8 Q2.85 32.35 2.6 31.4 2.3 30.45 2.75 28.45 L4.45 21.4 5.8 16.05 6.3 14.85 6.7 13.05 Q6.75 12.3 5.85 11.3 L4.5 10.1 Q4.0 9.65 4.0 8.85 L4.0 3.75 Q4.0 2.65 4.45 2.05 L5.45 1.05 6.45 0.25 8.85 0.6 Q9.15 0.65 9.3 0.85 L9.5 1.0 11.9 1.4 15.45 1.5 17.55 1.8 17.8 2.4 Q18.0 2.35 18.15 2.25 L18.85 2.1 28.15 2.1 29.35 2.4 Q29.25 2.2 29.3 1.9 29.35 1.55 30.15 1.4 L31.0 1.55 31.5 1.05 31.6 0.65 Q31.6 0.3 31.9 0.2 L33.5 0.1 35.05 0.7 36.6 1.2 37.25 1.0 38.0 0.95 42.15 1.8 Q42.65 2.0 43.4 2.5 L44.25 2.55 45.1 2.6 45.35 2.85 45.4 3.1 47.6 3.7 48.15 4.05 48.5 4.25 48.85 4.15 49.25 4.05 50.25 4.4" fill="#ffffff" fill-rule="evenodd" stroke="none"/>
    </g>
  </defs>
</svg>
