<?xml version="1.0" encoding="UTF-8" standalone="no"?>
<svg xmlns:xlink="http://www.w3.org/1999/xlink" height="52.65px" width="52.35px" xmlns="http://www.w3.org/2000/svg">
  <g transform="matrix(1.0, 0.0, 0.0, 1.0, 26.2, 26.7)">
    <use height="52.65" transform="matrix(1.0, 0.0, 0.0, 1.0, -26.2, -26.7)" width="52.35" xlink:href="#shape0"/>
  </g>
  <defs>
    <g id="shape0" transform="matrix(1.0, 0.0, 0.0, 1.0, 26.2, 26.7)">
      <path d="M-26.2 -26.7 L26.15 -26.7 26.15 25.95 -26.2 25.95 -26.2 -26.7" fill="#999999" fill-opacity="0.0" fill-rule="evenodd" stroke="none"/>
      <path d="M6.85 -24.9 L7.15 -24.25 7.15 -20.3 6.85 -19.75 6.15 -19.6 3.2 -19.6 3.2 -15.85 Q5.45 -15.5 7.55 -14.75 9.65 -13.95 11.55 -12.65 L13.55 -14.9 14.3 -15.1 15.0 -14.9 18.45 -11.7 Q19.25 -11.0 18.45 -10.25 L16.5 -8.0 Q18.5 -5.4 19.6 -2.2 20.7 1.0 20.7 4.55 20.7 8.85 19.1 12.65 17.45 16.4 14.7 19.2 11.9 22.05 8.1 23.6 4.35 25.2 0.0 25.2 -4.25 25.2 -7.95 23.6 -11.7 22.05 -14.55 19.2 -17.35 16.4 -19.0 12.65 -20.65 8.85 -20.65 4.55 -20.65 1.0 -19.55 -2.2 -18.45 -5.4 -16.25 -8.0 L-18.4 -10.25 Q-18.85 -11.0 -18.4 -11.7 L-14.75 -14.9 -14.0 -15.1 Q-13.5 -15.1 -13.5 -14.9 L-11.6 -12.65 Q-9.7 -13.8 -7.7 -14.65 L-3.65 -15.85 -3.65 -19.6 -6.35 -19.6 -7.1 -19.75 -7.4 -20.3 -7.4 -24.25 -7.1 -24.9 -6.35 -25.2 6.15 -25.2 6.85 -24.9 M0.0 -12.15 Q-3.5 -12.15 -6.5 -10.85 -9.55 -9.55 -11.8 -7.3 -14.05 -5.05 -15.35 -2.0 -16.7 1.0 -16.7 4.55 -16.7 8.1 -15.35 11.15 -14.05 14.25 -11.8 16.55 -9.55 18.85 -6.5 20.2 -3.5 21.55 0.0 21.55 3.55 21.55 6.65 20.2 9.75 18.85 12.05 16.55 14.35 14.25 15.65 11.15 17.0 8.1 17.0 4.55 17.0 1.0 15.65 -2.0 14.35 -5.05 12.05 -7.3 9.75 -9.55 6.65 -10.85 3.55 -12.15 0.0 -12.15 M6.65 -3.0 L-1.5 2.75 -1.5 3.0 Q-1.95 3.45 -2.2 4.4 -2.4 5.25 -1.5 6.15 -0.65 7.15 0.3 6.95 1.2 6.75 1.85 6.15 L7.65 -2.0 Q8.35 -2.3 7.65 -3.0 7.3 -3.25 6.65 -3.0 M4.65 -6.2 Q6.85 -5.3 8.4 -3.65 9.95 -2.05 10.9 0.05 11.75 2.2 11.75 4.6 11.75 7.0 10.9 9.15 9.95 11.35 8.4 12.9 6.85 14.5 4.65 15.4 2.5 16.35 0.05 16.35 -2.35 16.35 -4.45 15.4 -6.5 14.5 -8.05 12.9 -9.65 11.35 -10.55 9.15 -11.45 7.0 -11.45 4.6 -11.45 2.2 -10.55 0.05 -9.65 -2.05 -8.05 -3.65 -6.5 -5.3 -4.45 -6.2 -2.35 -7.1 0.05 -7.1 2.5 -7.1 4.65 -6.2" fill="#ffffff" fill-rule="evenodd" stroke="none"/>
    </g>
  </defs>
</svg>
