<?xml version="1.0" encoding="UTF-8" standalone="no"?>
<svg xmlns:xlink="http://www.w3.org/1999/xlink" height="31.2px" width="125.0px" xmlns="http://www.w3.org/2000/svg">
  <g transform="matrix(1.0, 0.0, 0.0, 1.0, -1.25, -1.5)">
    <use height="31.2" transform="matrix(1.0, 0.0, 0.0, 1.0, 1.25, 1.5)" width="125.0" xlink:href="#shape0"/>
  </g>
  <defs>
    <g id="shape0" transform="matrix(1.0, 0.0, 0.0, 1.0, -1.25, -1.5)">
      <path d="M126.1 12.95 L103.2 12.9 103.15 12.0 103.6 11.95 103.65 11.6 96.3 11.5 96.3 11.3 93.25 11.35 92.65 11.55 87.35 11.5 88.4 11.7 88.4 12.6 88.15 12.9 87.0 12.85 87.0 13.25 86.15 13.25 86.15 11.75 86.35 11.75 86.35 11.55 83.1 11.45 83.0 11.75 82.9 12.5 82.8 12.65 82.55 12.75 82.3 12.6 82.1 12.5 82.15 11.8 82.05 11.5 81.4 11.5 81.35 12.6 81.15 12.8 80.95 12.95 80.6 12.95 80.3 13.6 61.85 13.75 61.5 13.55 61.05 13.45 60.1 13.8 60.0 12.55 59.1 12.6 59.15 13.4 59.1 13.5 58.95 13.75 58.65 13.85 58.5 13.9 58.35 13.85 Q58.15 13.85 58.05 14.05 L57.85 14.35 57.75 14.55 57.75 18.8 58.05 18.9 58.1 19.25 57.45 19.5 57.45 21.05 Q57.55 22.85 57.9 24.4 L59.0 28.3 59.65 30.35 59.85 30.6 52.3 32.7 52.1 32.7 52.1 32.5 51.3 29.85 50.15 25.4 49.75 22.4 49.65 21.1 49.1 21.2 48.4 21.1 43.7 21.1 42.15 21.25 41.9 21.25 Q41.55 21.25 41.35 21.4 L41.05 21.7 39.95 23.8 40.5 24.45 40.35 24.55 Q40.05 24.65 39.65 24.85 L39.3 25.15 39.2 25.3 37.05 29.5 37.0 29.9 37.25 30.3 37.45 30.45 37.25 30.9 30.2 29.25 36.55 18.25 36.7 17.8 36.8 16.9 36.45 16.0 35.9 15.4 35.3 15.1 33.7 15.05 33.7 15.25 33.25 15.3 33.2 12.55 31.95 12.5 31.9 12.05 26.85 12.05 25.65 12.95 20.9 13.05 20.9 13.5 16.75 13.55 16.8 16.15 13.9 16.15 13.9 17.2 12.5 17.2 12.5 16.2 7.8 19.15 7.8 16.75 1.85 19.45 1.8 20.45 1.75 20.6 1.5 20.8 1.3 20.6 1.25 20.45 1.35 7.15 6.65 7.15 6.85 7.35 7.0 8.05 20.65 8.2 20.8 8.3 20.9 8.55 31.95 8.6 31.9 8.15 33.2 8.15 33.2 7.8 33.65 7.75 33.7 8.1 35.0 8.05 35.0 7.45 36.3 7.45 36.4 7.55 39.75 2.2 39.9 2.0 40.3 1.7 40.8 1.5 41.1 1.5 57.75 3.3 58.25 3.4 59.1 3.9 59.6 4.75 59.8 5.2 59.7 8.45 60.05 8.4 60.1 6.95 61.15 7.15 61.15 6.8 61.5 6.75 61.5 6.65 61.6 6.5 61.85 6.4 80.35 6.7 80.55 7.1 80.55 7.6 81.05 7.65 81.15 7.7 81.3 7.9 81.4 9.1 82.05 9.1 82.1 7.15 85.15 2.85 85.45 2.6 Q85.75 2.35 86.05 2.4 86.8 2.5 87.15 2.95 L87.3 3.3 87.25 3.45 87.3 9.1 92.6 9.1 93.3 9.35 96.3 9.3 96.3 9.1 103.65 9.1 103.65 7.75 126.05 7.75 126.25 7.95 126.25 12.7 126.1 12.95 M86.2 6.15 L85.95 5.9 85.75 5.25 85.7 4.75 84.55 4.65 82.75 7.45 83.0 7.65 86.4 7.65 86.65 7.35 86.65 6.15 86.2 6.15 M83.05 9.1 L86.25 9.1 86.4 8.6 83.05 8.6 83.05 9.1 M58.0 4.2 L57.85 4.1 43.85 4.1 43.5 4.1 42.95 4.35 42.5 4.8 42.3 5.05 41.5 7.0 41.8 7.3 57.75 7.2 57.95 7.15 58.35 6.95 Q58.95 6.55 58.95 5.65 58.95 4.9 58.4 4.45 L58.0 4.2 M6.05 13.5 L5.85 13.45 2.15 13.45 1.95 13.5 1.8 13.8 2.0 14.05 2.15 14.15 5.9 14.15 6.05 14.0 6.2 13.75 6.05 13.5 M1.8 7.6 L1.8 8.15 6.55 8.15 6.5 7.8 6.35 7.6 6.15 7.55 1.8 7.6 M47.75 17.15 L47.35 17.0 45.45 17.0 45.0 17.45 Q44.6 18.1 44.55 18.65 44.5 19.2 44.9 19.75 L45.35 20.15 45.15 20.3 44.5 19.8 Q43.85 19.2 43.8 18.5 43.75 18.05 44.0 17.45 L44.2 17.0 43.35 17.3 Q42.45 17.9 42.55 19.05 42.6 19.7 43.2 20.25 L43.8 20.7 48.3 20.7 48.3 20.1 48.7 19.5 Q48.95 18.8 48.6 17.95 L47.75 17.15" fill="#ffffff" fill-rule="evenodd" stroke="none"/>
    </g>
  </defs>
</svg>
