<?xml version="1.0" encoding="UTF-8" standalone="no"?>
<svg xmlns:xlink="http://www.w3.org/1999/xlink" height="33.4px" width="47.05px" xmlns="http://www.w3.org/2000/svg">
  <g transform="matrix(1.0, 0.0, 0.0, 1.0, 0.0, 0.0)">
    <use height="33.4" transform="matrix(1.0, 0.0, 0.0, 1.0, 0.0, 0.0)" width="47.05" xlink:href="#shape0"/>
  </g>
  <defs>
    <g id="shape0" transform="matrix(1.0, 0.0, 0.0, 1.0, 0.0, 0.0)">
      <path d="M47.05 5.95 L47.05 7.5 46.45 8.15 44.0 8.15 43.8 8.25 43.6 8.3 43.6 10.9 37.1 10.9 37.1 11.3 37.2 11.7 37.25 12.15 37.05 12.3 36.75 12.55 36.9 13.25 37.0 13.8 35.7 13.8 34.2 13.75 33.8 14.5 33.15 15.65 32.2 16.75 Q31.65 17.2 30.95 17.3 L28.4 17.35 Q26.9 17.3 26.05 16.65 L25.75 16.45 25.75 25.45 25.4 25.55 24.95 25.65 24.95 33.4 19.1 33.4 19.1 25.85 19.0 25.75 18.85 25.7 18.75 25.65 15.4 25.65 14.7 24.7 15.85 19.6 16.65 16.05 17.05 14.4 16.1 12.65 Q15.6 11.85 15.3 11.75 L13.9 11.6 11.9 11.75 11.75 11.9 11.5 12.1 11.2 12.4 10.45 12.3 10.35 12.1 10.3 12.0 10.2 11.85 5.45 11.85 5.45 15.55 5.2 15.55 4.5 15.85 3.35 15.85 2.75 15.65 2.4 15.55 2.2 15.55 1.7 15.5 1.1 15.45 0.75 15.25 0.15 14.5 0.0 14.1 0.0 13.75 Q0.0 12.95 0.35 12.1 L0.45 11.0 0.45 9.2 0.85 1.7 2.05 0.15 2.05 0.0 4.6 0.15 6.55 0.35 8.5 0.45 10.05 0.6 10.85 0.7 11.75 0.75 13.5 1.0 15.2 1.25 16.15 1.35 16.3 1.35 16.3 1.5 16.5 1.7 16.5 2.2 15.8 2.65 14.8 2.8 13.5 2.8 12.35 2.8 11.8 2.75 7.1 2.4 7.0 2.4 6.95 2.3 6.95 2.75 7.85 2.8 9.15 2.9 10.4 3.05 11.2 3.1 13.25 3.1 17.9 3.1 23.9 3.1 29.85 3.1 29.85 2.7 29.95 2.1 30.05 1.3 30.15 1.3 31.0 1.2 32.0 1.2 32.9 1.2 33.45 1.35 33.85 1.9 34.2 2.65 39.25 2.65 39.25 2.4 39.35 2.0 39.4 1.6 39.5 1.6 40.25 1.3 Q40.65 1.1 41.2 0.95 L42.05 0.7 42.7 0.7 43.3 1.2 43.45 1.6 43.45 4.95 43.95 5.4 46.7 5.4 47.05 5.95 M26.5 15.45 L27.35 15.75 31.15 15.75 31.95 15.45 32.3 14.65 32.3 14.05 31.95 13.25 Q31.65 12.95 31.15 12.95 L27.35 12.95 Q26.85 12.95 26.5 13.25 26.1 13.55 26.1 14.05 L26.1 14.65 Q26.1 15.15 26.5 15.45 M2.75 2.9 L2.65 3.35 2.65 4.05 2.7 5.4 2.85 7.15 3.45 4.65 3.95 3.05 3.35 2.9 2.75 2.9" fill="#ffffff" fill-rule="evenodd" stroke="none"/>
    </g>
  </defs>
</svg>
