<?xml version="1.0" encoding="UTF-8" standalone="no"?>
<svg xmlns:xlink="http://www.w3.org/1999/xlink" height="34.5px" width="129.6px" xmlns="http://www.w3.org/2000/svg">
  <g transform="matrix(1.0, 0.0, 0.0, 1.0, -0.5, -1.2)">
    <use height="34.5" transform="matrix(1.0, 0.0, 0.0, 1.0, 0.5, 1.2)" width="129.6" xlink:href="#shape0"/>
  </g>
  <defs>
    <g id="shape0" transform="matrix(1.0, 0.0, 0.0, 1.0, -0.5, -1.2)">
      <path d="M130.1 16.2 L130.1 16.35 130.1 16.4 130.1 16.55 130.1 16.65 130.1 16.75 130.1 16.9 130.1 16.95 130.1 17.1 130.1 17.2 130.1 17.3 130.1 17.4 130.1 17.5 130.1 17.7 129.8 17.7 125.05 17.7 125.05 17.85 124.45 17.85 124.45 17.7 117.75 17.7 117.75 17.8 117.75 17.95 117.75 18.1 117.75 18.15 117.5 18.15 117.5 18.05 117.3 18.05 117.3 18.0 117.3 17.9 117.3 17.85 117.3 17.7 116.6 17.7 116.6 17.85 116.35 17.85 116.35 17.7 115.65 17.7 115.65 17.8 115.65 17.95 115.65 18.15 115.4 18.15 115.2 18.15 115.2 18.2 114.95 18.2 114.95 18.15 114.95 17.95 114.95 17.8 114.95 17.6 114.95 17.5 103.1 17.5 103.05 17.45 103.0 17.4 102.9 17.4 102.75 17.4 102.75 17.75 102.3 17.75 84.3 17.7 84.3 18.25 84.2 18.3 84.2 19.1 84.35 19.1 84.35 19.55 84.2 19.55 84.15 19.6 84.1 19.6 84.05 19.65 84.05 19.6 84.1 19.55 83.5 19.55 83.5 19.65 83.0 19.65 83.0 19.2 82.05 19.2 82.05 19.6 81.6 19.6 81.6 19.2 80.95 19.2 80.95 19.55 80.45 19.55 80.45 19.2 79.7 19.2 79.7 19.55 79.2 19.55 79.2 19.2 78.55 19.2 78.55 19.55 78.05 19.55 78.05 19.2 77.3 19.2 77.3 19.55 76.85 19.55 76.85 19.2 76.65 19.2 76.25 19.2 76.25 19.65 75.8 19.65 75.8 19.2 75.05 19.2 75.05 19.55 74.6 19.55 74.6 19.2 73.95 19.2 73.95 19.55 73.4 19.55 73.4 19.2 72.7 19.2 72.7 19.55 72.15 19.55 72.15 19.2 71.45 19.2 71.45 19.5 71.0 19.5 71.0 19.2 70.3 19.2 70.3 19.55 69.85 19.55 69.85 19.2 69.2 19.2 69.2 19.55 68.75 19.55 68.75 19.2 68.0 19.2 68.0 19.5 67.45 19.5 67.45 19.2 66.8 19.2 66.8 19.55 66.35 19.55 66.35 19.2 65.5 19.2 65.5 19.55 63.95 19.55 63.95 19.2 63.4 19.2 63.4 19.35 63.35 19.4 63.35 19.45 63.3 19.5 63.3 19.6 63.25 19.65 63.2 19.7 63.15 19.7 62.75 19.7 62.45 19.75 62.3 19.8 62.25 19.85 62.1 19.9 62.05 19.95 62.0 19.95 61.7 20.0 61.5 20.05 61.45 20.1 61.45 20.15 61.35 20.2 61.25 20.25 61.2 20.3 61.1 20.4 61.05 20.4 61.0 20.45 61.0 20.55 60.95 20.6 60.9 20.6 60.9 20.65 60.9 20.75 60.9 20.8 60.9 20.9 60.9 21.6 60.9 21.7 60.9 21.9 60.9 22.05 60.9 22.25 60.9 22.45 60.9 22.6 60.9 22.8 60.9 23.0 60.9 23.1 60.9 23.15 61.05 23.3 61.1 23.3 61.2 23.35 61.25 23.4 61.3 23.45 61.35 23.5 61.35 24.45 61.3 24.45 61.25 24.5 61.25 24.55 61.2 24.55 60.85 24.55 60.85 24.7 60.65 24.7 60.55 24.7 60.55 24.75 60.55 25.05 60.55 25.35 60.55 25.6 60.55 25.9 60.55 26.2 60.55 26.5 60.55 26.8 60.55 27.1 60.55 27.35 60.55 27.7 60.55 27.95 60.55 28.25 60.55 28.55 60.55 28.85 60.55 29.15 60.55 29.4 60.55 29.7 60.55 30.0 60.55 30.3 60.55 30.6 60.55 30.9 60.55 31.15 60.55 31.5 60.55 31.75 60.55 32.05 60.55 32.35 60.55 32.6 60.55 32.95 60.55 33.2 60.55 33.5 60.55 33.8 60.55 34.1 60.55 34.35 60.55 34.55 60.55 34.7 60.55 34.95 60.55 35.15 60.55 35.3 60.55 35.4 60.65 35.4 60.65 35.7 51.95 35.7 51.75 35.7 51.6 35.7 51.6 35.6 51.6 35.5 51.6 35.4 51.6 35.3 51.6 35.2 51.6 35.15 51.6 35.05 51.6 35.0 51.6 34.9 51.55 34.9 51.55 34.85 51.15 34.85 51.15 34.25 51.25 34.2 51.25 33.9 51.25 33.6 51.25 33.3 51.25 33.0 51.25 32.7 51.25 32.45 51.25 32.1 51.25 31.85 51.25 31.55 51.25 31.25 51.25 31.0 51.25 30.65 51.25 30.4 51.25 30.1 51.25 29.8 51.25 29.5 51.25 29.2 51.25 28.9 51.25 28.65 51.25 28.3 51.25 28.05 51.25 27.75 51.25 27.45 51.25 27.2 51.25 26.85 51.25 26.6 51.25 26.35 51.05 26.35 50.7 26.35 50.65 26.35 50.55 26.4 50.5 26.45 50.45 26.45 50.3 26.5 50.1 26.55 50.1 26.75 43.7 26.8 43.2 26.8 43.2 27.05 43.1 27.15 43.1 27.2 43.05 27.25 43.05 27.3 43.0 27.3 42.95 27.35 42.95 27.45 42.9 27.45 42.85 27.5 42.85 27.6 42.8 27.65 42.8 27.75 42.75 27.75 42.65 27.85 42.65 27.9 42.6 27.95 42.6 28.0 42.55 28.0 42.55 28.1 42.5 28.1 42.5 28.15 42.45 28.2 42.45 28.25 42.35 28.25 42.35 28.35 42.4 28.35 42.4 28.5 42.45 28.55 42.45 28.6 42.5 28.65 42.5 28.7 42.55 28.7 42.55 28.75 42.6 28.8 42.6 29.4 42.5 29.45 41.75 29.45 41.7 29.5 41.7 29.6 41.65 29.65 41.65 29.7 41.6 29.75 41.55 29.8 41.55 29.85 41.5 29.85 41.5 29.9 41.45 29.95 41.45 30.0 41.4 30.05 41.4 30.1 41.35 30.1 41.35 30.15 41.3 30.15 41.3 30.25 41.25 30.3 41.25 30.35 41.2 30.35 41.2 30.4 41.15 30.45 41.15 30.5 41.1 30.5 41.1 30.55 41.05 30.6 41.0 30.65 41.0 30.75 40.95 30.75 40.95 31.0 40.9 31.05 40.85 31.1 40.85 31.15 40.75 31.2 40.75 31.3 40.7 31.3 40.7 31.4 40.65 31.45 40.65 31.5 40.6 31.55 40.6 31.6 40.55 31.65 40.55 31.7 40.5 31.75 40.45 31.8 40.45 31.95 40.4 32.0 40.35 32.05 40.3 32.1 40.3 32.15 40.25 32.2 40.25 32.25 40.2 32.25 40.2 32.3 40.1 32.35 40.1 32.4 40.05 32.45 40.0 32.5 40.0 32.55 39.95 32.6 39.95 32.65 39.9 32.7 39.9 32.85 39.85 32.9 39.85 32.95 39.8 32.95 39.85 33.0 39.85 33.05 39.9 33.1 39.9 33.15 39.95 33.15 39.95 33.8 39.9 33.85 39.85 33.9 39.85 33.95 39.8 33.95 39.8 34.05 39.75 34.1 39.75 34.2 39.7 34.25 39.6 34.25 39.6 34.3 38.85 34.3 38.7 34.25 38.6 34.2 38.5 34.15 38.35 34.1 38.1 34.05 38.1 34.0 37.8 33.95 37.55 33.9 37.35 33.9 37.2 33.85 36.9 33.8 36.75 33.75 36.6 33.7 36.45 33.65 36.25 33.6 36.15 33.55 35.9 33.5 35.7 33.45 35.55 33.45 35.55 33.4 35.35 33.35 35.2 33.3 35.0 33.25 34.8 33.2 34.65 33.15 34.45 33.1 34.25 33.05 34.15 33.0 34.0 32.95 33.8 32.95 33.55 32.9 33.5 32.85 33.5 32.25 33.55 32.25 33.55 32.05 33.6 32.0 33.65 32.0 33.7 31.95 33.7 31.9 33.75 31.85 33.75 31.8 33.85 31.75 33.85 31.6 33.9 31.6 33.9 31.55 34.0 31.55 34.0 31.45 34.05 31.45 34.05 31.4 34.15 31.35 34.15 31.25 34.2 31.25 34.25 31.2 34.25 31.15 34.3 31.15 34.3 31.05 34.35 31.05 34.35 30.95 34.4 30.9 34.4 30.85 34.45 30.85 34.45 30.8 34.55 30.75 34.55 30.65 34.6 30.65 34.65 30.6 34.7 30.55 34.7 30.5 34.75 30.45 34.8 30.4 34.8 30.2 34.85 30.15 34.85 30.1 34.95 30.1 34.95 30.0 35.05 29.9 35.05 29.8 35.1 29.75 35.15 29.7 35.2 29.7 35.25 29.65 35.25 29.5 35.35 29.4 35.35 29.35 35.45 29.25 35.5 29.2 35.5 29.15 35.6 29.15 35.6 29.05 35.65 29.0 35.65 28.9 35.7 28.85 35.7 28.75 35.75 28.75 35.75 28.7 35.8 28.7 35.9 28.65 35.9 28.55 35.95 28.5 35.95 28.4 36.0 28.4 36.0 28.35 36.05 28.3 36.05 28.25 36.1 28.25 36.15 28.2 36.15 28.1 36.2 28.1 36.2 27.9 36.25 27.9 36.3 27.85 36.3 27.75 36.4 27.75 36.45 27.75 36.45 27.6 36.5 27.6 36.55 27.55 36.55 27.4 36.6 27.4 36.6 27.35 36.65 27.3 36.7 27.3 36.7 27.2 36.75 27.15 36.75 27.0 36.8 26.95 36.85 26.9 36.85 26.8 36.95 26.8 36.95 26.7 37.05 26.7 37.1 26.65 37.1 26.6 37.15 26.55 37.15 26.4 37.2 26.35 37.25 26.35 37.35 26.25 37.35 26.15 37.45 26.15 37.5 26.1 37.5 26.0 37.55 26.0 37.55 25.95 37.6 25.9 37.6 25.85 37.65 25.85 37.7 25.8 37.7 25.75 37.75 25.7 37.8 25.65 37.8 25.55 37.85 25.55 37.85 25.5 37.9 25.45 37.95 25.4 38.0 25.4 38.0 25.35 38.05 25.3 38.05 25.2 38.1 25.2 38.1 25.0 38.15 25.0 38.15 24.95 38.2 24.9 38.25 24.85 38.3 24.85 38.4 24.75 38.4 24.7 38.45 24.65 38.45 24.6 38.5 24.6 38.5 24.5 38.55 24.45 38.6 24.4 38.6 24.35 38.65 24.3 38.65 24.25 38.7 24.25 38.75 24.2 38.8 24.15 38.85 24.1 38.85 24.05 38.95 24.0 38.95 23.95 39.05 23.95 39.05 23.8 39.1 23.8 39.1 23.65 39.15 23.6 39.15 23.5 39.2 23.5 39.25 23.45 39.25 23.05 39.3 23.05 39.3 22.85 39.25 22.8 39.25 22.6 39.15 22.55 39.15 22.5 39.1 22.45 39.1 22.4 39.05 22.35 39.0 22.3 39.0 22.25 38.95 22.2 38.9 22.2 38.75 22.1 38.75 22.05 38.7 22.05 38.6 22.0 38.55 21.95 38.55 21.85 38.4 21.8 38.35 21.75 38.3 21.7 38.2 21.65 38.15 21.6 38.1 21.6 38.1 21.55 38.05 21.5 38.0 21.45 37.9 21.4 33.15 21.35 33.15 21.3 33.1 21.25 33.1 21.2 33.05 21.15 32.85 20.95 32.75 20.9 32.7 20.9 32.6 20.9 32.55 20.85 32.4 20.85 32.4 20.9 32.3 20.9 32.2 20.9 30.9 20.9 30.9 20.8 27.8 20.85 27.7 20.9 26.95 20.9 26.9 20.9 26.8 21.0 26.75 21.05 26.7 21.1 26.65 21.1 26.6 21.15 26.55 21.15 26.55 21.2 26.5 21.25 26.45 21.3 26.4 21.35 26.4 21.4 26.35 21.45 26.3 21.5 26.3 21.6 26.2 21.6 26.15 21.65 26.1 21.65 26.1 21.7 26.05 21.75 26.0 21.8 25.95 21.85 25.9 21.85 25.8 21.9 25.8 21.95 25.75 22.0 25.7 22.0 25.7 22.05 25.6 22.1 25.5 22.1 25.45 22.15 25.4 22.15 25.4 22.25 25.35 22.3 25.35 22.35 25.3 22.4 25.3 22.45 25.25 22.5 25.2 22.55 25.15 22.55 25.1 22.6 25.1 22.65 25.05 22.7 25.0 22.7 25.0 22.8 24.95 22.85 24.85 22.95 24.85 23.0 24.8 23.05 24.75 23.05 24.7 23.1 24.65 23.1 24.6 23.15 24.6 23.2 24.55 23.25 24.5 23.3 24.45 23.3 24.45 23.35 24.4 23.4 24.4 23.45 24.35 23.5 24.25 23.5 24.25 23.55 24.2 23.6 24.2 23.65 24.15 23.65 24.15 23.7 24.1 23.7 24.05 23.75 23.95 23.8 23.9 23.8 23.9 23.85 23.85 23.9 23.85 23.95 23.8 23.95 23.8 24.0 23.75 24.05 23.75 24.1 23.7 24.15 23.75 24.25 23.75 24.3 23.7 24.4 23.75 24.45 23.75 24.55 23.75 24.65 23.75 24.75 23.75 24.85 23.75 24.95 23.75 25.05 23.75 25.15 23.75 25.25 23.75 25.35 23.75 25.4 23.75 25.5 23.75 25.6 23.75 25.65 23.65 25.75 23.65 25.85 23.55 25.85 23.55 25.95 23.45 26.05 23.35 26.1 23.3 26.15 23.15 26.2 23.05 26.2 22.95 26.15 22.9 26.1 14.0 26.1 10.85 26.1 8.05 26.1 8.05 26.05 7.95 26.05 7.95 25.95 7.9 25.95 7.85 25.9 7.85 25.7 7.7 25.7 7.7 25.65 7.7 25.4 7.7 25.35 7.4 25.3 7.4 25.2 7.4 25.15 7.4 25.05 7.4 25.0 7.4 24.9 4.55 24.9 4.55 25.1 4.55 25.4 4.55 25.7 4.55 25.95 4.55 26.3 4.55 26.55 4.55 26.85 4.55 27.15 4.55 27.45 4.55 27.75 4.55 28.0 4.55 28.1 4.55 28.65 4.05 28.65 4.05 28.6 2.65 28.55 2.65 28.9 2.55 28.95 2.55 29.45 2.5 29.45 2.4 29.45 1.75 29.45 1.8 29.5 1.85 29.55 1.8 29.55 1.65 29.55 1.6 29.6 1.5 29.6 1.2 29.6 0.75 29.6 0.75 29.55 0.75 29.4 0.75 29.25 0.75 29.15 0.75 28.95 0.75 28.8 0.75 28.7 0.75 28.55 0.75 28.4 0.75 28.25 0.75 28.1 0.75 27.95 0.75 27.8 0.75 27.65 0.75 27.5 0.75 27.35 0.75 27.25 0.75 27.05 0.75 26.9 1.0 26.9 1.0 26.5 1.05 26.45 1.05 26.4 1.05 26.1 1.05 25.85 1.05 25.55 1.05 25.25 1.05 24.95 1.05 24.65 1.05 24.4 1.05 24.05 1.05 23.8 1.05 23.5 1.05 23.2 1.05 22.9 1.05 22.6 1.05 22.35 1.05 22.05 1.05 21.75 1.05 21.45 1.05 21.15 1.05 20.85 1.05 20.6 1.05 20.25 1.05 20.0 1.05 19.7 1.05 19.4 1.05 19.15 1.05 18.8 1.05 18.55 1.05 18.25 1.05 17.95 1.05 17.65 1.05 17.35 1.0 17.35 1.0 17.3 0.95 17.25 0.9 17.15 0.9 17.05 0.9 16.95 0.9 16.9 0.9 16.8 0.9 16.7 0.9 16.6 0.9 16.55 0.9 16.45 0.9 16.4 0.9 16.3 0.9 16.2 0.9 16.1 0.9 16.0 0.9 15.9 0.9 15.8 0.9 15.7 0.9 15.6 0.9 15.5 0.9 15.45 0.9 15.35 0.9 15.25 0.9 15.15 0.8 15.15 0.75 15.1 0.75 14.85 0.75 14.75 0.75 14.4 0.5 14.4 0.5 13.95 1.6 13.95 1.6 14.0 2.65 14.0 2.65 14.45 2.5 14.45 2.55 14.5 4.4 14.5 4.4 14.85 4.55 14.85 4.55 14.9 4.55 15.15 4.55 15.45 4.55 15.75 4.55 16.05 4.55 16.35 4.55 16.65 4.55 16.9 4.55 17.25 4.55 17.5 4.55 17.8 4.55 18.1 4.55 18.35 4.55 18.7 4.55 18.95 7.7 18.95 7.7 18.65 7.7 18.35 7.7 18.05 7.7 17.85 7.85 17.85 8.15 17.85 12.6 17.85 12.6 17.65 12.6 17.45 12.6 17.3 12.6 17.1 12.6 16.9 12.6 16.75 12.6 16.55 12.6 16.5 8.8 16.5 8.8 16.4 8.3 16.4 8.3 15.8 8.25 15.75 8.25 15.35 8.2 15.35 8.2 15.3 8.2 15.05 8.2 14.9 8.2 14.65 8.2 14.45 8.2 14.2 8.2 14.0 8.2 13.75 8.2 13.6 8.2 13.35 8.2 13.1 8.2 12.9 8.2 12.65 8.2 12.45 8.2 12.25 8.2 12.05 8.2 11.8 8.2 11.6 8.2 11.35 8.15 11.3 8.15 10.85 8.2 10.8 8.2 10.6 8.4 10.6 8.4 10.4 8.6 10.35 8.6 10.25 8.9 10.2 8.95 10.15 9.45 10.15 22.1 10.15 22.45 10.15 24.25 10.1 24.3 10.1 24.3 10.05 25.35 10.1 26.2 10.15 26.5 10.15 28.0 10.15 28.0 10.2 28.4 10.2 28.45 10.25 28.5 10.25 28.55 10.3 28.6 10.35 28.6 11.0 28.55 11.05 28.5 11.05 28.5 11.15 28.45 11.2 28.45 11.3 28.4 11.35 28.35 11.4 28.3 11.45 28.25 11.5 28.15 11.6 28.15 11.65 28.05 11.75 28.05 11.8 27.85 12.0 27.8 12.0 27.8 12.1 27.7 12.15 27.7 12.2 27.6 12.35 27.55 12.35 27.55 12.4 27.45 12.5 27.45 12.55 27.3 12.65 27.3 12.7 27.25 12.75 27.25 12.8 27.2 12.85 27.2 12.95 27.1 12.95 27.05 13.0 27.0 13.05 26.95 13.1 26.85 13.1 26.85 13.2 26.8 13.25 26.8 13.3 26.75 13.3 26.75 13.45 26.7 13.5 26.6 13.6 26.55 13.6 26.55 13.65 26.5 13.7 26.45 13.75 26.4 13.8 26.4 13.85 26.35 13.9 26.25 14.05 26.2 14.05 26.2 14.1 26.1 14.2 26.1 14.25 26.05 14.25 26.05 14.35 26.0 14.4 26.0 14.45 25.95 14.45 25.9 14.5 25.85 14.5 25.8 14.55 25.75 14.6 25.75 14.65 25.7 14.65 25.65 14.7 25.65 14.75 25.6 14.75 25.55 14.8 25.45 14.9 25.4 14.9 25.4 14.95 25.35 15.0 25.35 15.05 25.3 15.05 25.3 15.1 25.25 15.15 25.25 15.2 25.15 15.3 25.1 15.3 25.0 15.4 24.95 15.45 24.85 15.45 24.7 15.65 24.65 15.65 24.65 15.7 24.6 15.75 24.6 15.8 24.45 15.8 24.4 15.85 24.35 15.9 24.3 15.95 24.2 15.95 24.15 16.0 24.05 16.05 24.0 16.1 24.0 16.15 23.9 16.15 23.85 16.2 23.75 16.3 23.7 16.3 23.7 16.35 23.6 16.4 23.55 16.4 23.4 16.4 23.4 16.45 23.25 16.45 17.95 16.45 17.95 16.6 17.9 16.65 17.9 16.8 17.75 16.9 17.75 17.0 17.75 17.1 17.75 17.15 17.75 17.25 17.75 17.35 17.75 17.45 17.75 17.5 17.75 17.6 17.75 17.7 17.75 17.75 17.75 17.85 21.45 17.85 23.9 17.85 23.95 17.85 24.0 17.8 24.0 17.75 24.05 17.7 24.1 17.7 24.2 17.65 24.25 17.6 24.3 17.6 24.35 17.55 24.35 17.5 24.4 17.45 24.45 17.4 24.5 17.4 24.55 17.35 24.6 17.35 24.7 17.25 24.75 17.25 24.8 17.2 24.8 17.1 24.85 17.05 24.85 17.0 24.9 16.95 24.9 16.9 24.95 16.9 25.0 16.85 25.05 16.8 25.05 16.7 25.1 16.65 25.15 16.65 25.25 16.6 25.25 16.55 25.35 16.5 25.35 16.45 25.4 16.4 25.4 16.35 25.45 16.3 25.5 16.3 25.55 16.25 25.55 16.15 25.6 16.1 25.65 16.1 25.65 16.0 25.7 15.95 25.75 15.95 25.8 15.9 25.8 15.85 25.85 15.8 25.85 15.7 25.9 15.7 25.95 15.65 26.05 15.6 26.05 15.55 26.1 15.5 26.15 15.5 26.2 15.45 26.25 15.45 26.3 15.4 26.35 15.35 26.35 15.3 26.4 15.3 26.45 15.25 26.45 15.15 26.5 15.1 26.55 15.05 26.6 15.0 26.7 15.0 26.7 14.95 26.75 14.9 26.75 14.8 26.8 14.75 26.85 14.7 26.85 14.55 26.9 14.55 26.95 14.5 27.0 14.45 27.0 14.4 27.05 14.35 27.1 14.35 27.1 14.3 27.15 14.25 27.15 14.2 27.2 14.15 27.25 14.1 27.3 14.1 27.3 14.05 27.35 14.05 27.4 14.0 27.5 13.9 27.5 13.85 27.55 13.8 27.6 13.75 27.65 13.75 27.7 13.7 27.7 13.6 27.75 13.6 27.8 13.55 27.85 13.5 27.9 13.45 27.95 13.4 28.0 13.4 28.05 13.35 28.05 13.25 28.1 13.2 28.15 13.15 28.15 13.1 28.2 13.05 28.25 13.0 28.3 13.0 28.4 12.95 28.4 12.9 28.45 12.85 28.45 12.8 28.5 12.8 28.55 12.75 28.6 12.7 28.6 12.65 28.65 12.65 28.65 12.5 28.7 12.45 28.75 12.45 29.0 12.45 29.0 12.4 29.9 12.4 29.95 12.4 30.4 12.4 30.55 12.4 30.75 12.4 31.0 12.4 31.05 12.4 32.15 12.4 32.55 12.4 32.55 12.35 32.6 12.35 32.6 12.3 32.65 12.25 32.65 12.2 32.7 12.15 32.8 12.15 32.8 12.1 32.85 12.0 32.9 11.9 32.9 11.8 32.9 11.7 32.9 11.6 32.9 11.5 32.9 11.4 32.9 11.3 33.0 11.2 33.1 11.2 33.15 11.2 33.15 10.95 33.2 10.9 33.35 10.85 35.65 10.85 35.65 10.25 33.9 10.25 33.55 10.25 33.45 10.25 33.45 9.3 33.75 9.3 36.55 9.3 36.6 9.25 36.65 9.2 36.7 9.15 36.7 9.1 36.75 9.1 36.9 9.05 36.95 9.0 37.0 9.0 37.05 8.95 37.1 8.95 37.8 8.95 37.9 9.0 37.95 9.0 38.05 9.05 38.05 9.1 38.1 9.1 38.15 9.2 38.2 9.25 38.2 9.7 41.45 9.7 41.45 9.8 41.55 9.8 41.55 9.9 41.55 10.0 41.55 10.05 41.55 10.15 41.55 10.25 41.55 10.35 41.55 10.45 41.55 10.5 41.55 10.6 41.55 10.65 41.55 10.75 41.55 10.8 46.2 10.8 46.2 10.6 46.2 10.3 46.2 10.0 46.2 9.75 46.2 9.4 46.2 9.15 46.2 8.85 46.2 8.55 46.2 8.3 46.2 7.95 46.2 7.7 46.2 7.4 46.2 7.1 45.2 7.1 45.15 7.15 45.1 7.2 45.05 7.2 44.85 7.25 44.8 7.25 44.75 7.3 44.7 7.35 44.7 7.4 44.65 7.4 44.65 7.45 44.6 7.5 44.5 7.55 44.45 7.6 44.4 7.65 44.25 7.65 44.2 7.7 44.0 7.7 35.3 7.65 35.3 7.7 34.95 7.65 34.85 7.65 34.85 7.45 34.85 7.15 34.85 6.95 34.85 6.9 34.85 6.6 34.85 6.35 34.85 6.1 34.85 5.85 34.85 5.55 34.85 5.35 34.85 5.05 34.85 4.8 34.85 4.6 34.85 4.3 34.85 4.05 34.85 3.8 34.85 3.55 34.85 3.3 35.45 3.3 35.5 3.35 44.3 3.4 44.3 3.5 44.55 3.5 44.55 3.55 44.65 3.55 44.7 3.6 44.85 3.65 44.95 3.7 45.0 3.7 45.2 3.75 45.2 3.85 45.3 3.85 45.35 3.9 45.4 3.95 45.45 4.0 45.5 4.0 46.2 4.0 46.2 3.9 46.2 3.6 46.2 3.3 46.2 3.0 46.55 3.0 46.65 3.0 49.85 3.0 49.85 3.5 49.8 3.5 49.8 3.75 49.8 3.95 52.4 3.95 52.4 3.5 52.5 3.5 52.5 3.35 53.2 3.35 53.2 3.3 53.1 3.25 53.1 2.6 53.15 2.55 53.15 2.5 53.2 2.45 53.2 2.25 53.6 2.3 53.6 2.25 53.6 2.1 53.6 2.0 53.6 1.85 53.6 1.75 53.6 1.65 53.65 1.6 53.65 1.2 55.65 1.2 55.65 1.45 55.9 1.45 55.9 2.15 55.85 2.2 55.85 2.3 55.85 2.4 55.85 2.45 56.15 2.45 56.15 3.35 56.9 3.35 56.9 3.65 56.95 3.65 56.95 3.7 57.0 3.7 57.0 3.75 57.05 3.8 57.05 3.85 57.1 3.9 57.1 3.95 58.9 3.95 58.9 3.65 58.9 3.5 58.85 3.5 58.85 3.05 61.95 3.05 62.45 3.05 62.45 3.35 62.45 3.55 62.45 3.65 62.45 3.9 65.25 3.9 65.3 3.9 65.35 3.85 65.5 3.8 65.5 3.75 65.6 3.7 65.65 3.65 65.8 3.65 65.95 3.65 66.1 3.6 66.3 3.55 66.4 3.55 66.5 3.5 66.55 3.5 66.6 3.45 66.7 3.45 66.8 3.4 66.85 3.35 67.1 3.35 67.25 3.3 67.4 3.25 67.45 3.25 67.5 3.2 67.75 3.2 67.75 3.15 67.8 3.15 67.9 3.1 67.95 3.05 68.1 3.05 68.3 3.0 68.35 3.0 68.6 2.95 68.65 2.95 68.8 2.9 68.95 2.85 69.0 2.85 69.15 2.8 69.35 2.75 69.4 2.7 69.6 2.7 69.85 2.7 69.9 2.7 70.05 2.65 70.1 2.65 70.25 2.6 70.55 2.55 70.55 2.5 70.6 2.5 70.7 2.45 70.7 2.4 71.05 2.4 71.3 2.35 71.35 2.35 71.6 2.3 71.65 2.3 71.85 2.25 72.05 2.25 72.35 2.2 72.6 2.15 72.65 2.1 72.75 2.1 72.8 2.1 72.95 2.1 73.0 2.05 73.05 2.0 73.05 1.9 73.1 1.9 73.1 1.85 73.55 1.85 73.55 2.05 81.2 2.0 81.25 2.0 81.45 2.0 81.95 2.0 81.95 2.3 81.95 2.45 81.95 2.65 81.95 2.9 81.95 3.2 81.95 3.5 81.95 3.75 81.95 4.1 81.95 4.35 81.95 4.65 81.95 4.95 81.95 5.25 81.95 5.55 81.95 5.85 81.95 6.1 81.95 6.4 81.95 6.7 81.95 6.95 81.95 7.3 81.95 7.55 81.95 7.9 81.95 8.15 81.95 8.45 81.95 8.75 81.95 9.05 81.45 9.05 81.45 9.0 73.75 9.0 73.7 9.0 72.95 9.0 72.65 8.95 72.6 8.9 72.35 8.85 72.25 8.85 72.0 8.8 72.0 8.75 71.85 8.7 71.65 8.65 71.6 8.6 71.3 8.55 71.2 8.5 71.1 8.45 70.9 8.4 70.7 8.4 70.55 8.35 70.4 8.3 70.25 8.25 70.05 8.2 69.85 8.15 69.85 8.1 69.7 8.05 69.45 8.0 69.25 7.95 69.1 7.9 68.85 7.9 68.65 7.85 68.35 7.8 68.2 7.75 68.0 7.7 67.85 7.65 67.7 7.6 67.65 7.6 67.45 7.55 67.45 7.5 67.35 7.5 67.35 7.45 67.25 7.45 67.1 7.4 66.95 7.35 66.75 7.3 66.55 7.25 66.3 7.2 62.6 7.2 62.6 7.25 62.4 7.25 62.4 7.45 62.4 7.75 62.45 8.05 62.45 8.35 62.45 8.65 62.45 8.9 62.45 9.25 62.45 9.5 62.45 9.8 62.45 10.1 62.4 10.35 62.4 10.7 62.4 10.8 82.2 10.8 82.2 10.75 82.2 10.65 82.2 10.55 82.2 10.5 82.2 10.4 82.2 10.35 82.2 10.25 82.2 10.15 82.2 10.05 82.2 10.0 82.2 9.9 82.2 9.8 82.2 9.7 82.15 9.65 82.15 8.85 82.4 8.85 82.4 8.75 85.85 8.75 85.85 8.8 86.25 8.8 86.35 8.85 86.4 8.85 86.4 8.9 86.45 8.95 86.55 9.0 86.55 9.05 86.6 9.05 86.65 9.1 86.75 9.15 86.75 9.2 86.8 9.2 86.85 9.25 87.0 9.3 87.0 8.8 87.1 8.8 87.1 8.75 88.3 8.75 88.35 8.75 88.4 8.8 88.4 8.85 88.5 8.85 88.5 9.05 88.55 9.05 88.55 9.1 88.6 9.15 88.65 9.2 88.65 9.3 88.7 9.3 88.7 9.4 88.75 9.4 88.75 9.5 88.8 9.55 88.8 9.65 88.85 9.65 88.85 9.7 88.9 9.75 88.9 9.8 88.95 9.8 88.95 9.95 89.0 10.0 89.0 10.2 89.05 10.25 89.05 10.8 93.1 10.8 93.2 10.75 93.35 10.8 93.4 10.8 102.25 10.8 102.25 11.15 102.9 11.2 102.9 11.65 102.35 11.65 102.35 11.95 102.4 12.0 102.75 12.0 102.75 12.15 102.8 12.15 102.8 12.65 102.7 12.65 102.7 12.75 102.7 13.0 102.7 13.15 102.7 13.4 102.7 13.6 102.7 13.8 102.7 14.05 102.7 14.25 102.7 14.5 102.7 14.7 102.7 14.95 102.7 15.1 102.7 15.35 102.7 15.5 114.95 15.5 114.95 15.4 114.95 15.2 114.95 15.0 115.05 15.0 115.65 15.0 115.65 15.25 115.65 15.4 115.8 15.4 115.85 15.4 116.65 15.4 116.65 15.0 116.95 15.0 116.95 15.1 117.0 15.2 117.0 15.25 117.15 15.4 117.2 15.45 117.3 15.45 117.3 15.3 117.3 15.05 117.3 14.95 117.55 14.95 117.55 15.0 117.75 15.0 117.75 15.1 117.8 15.15 117.8 15.45 124.25 15.45 124.25 15.15 124.8 15.15 124.8 15.45 130.1 15.45 130.1 15.7 130.1 15.8 130.1 15.9 130.1 15.95 130.1 16.1 130.1 16.2 M84.95 10.8 L87.0 10.8 87.0 10.5 84.95 10.5 84.95 10.8 M58.85 4.45 L58.9 4.5 58.9 4.45 58.85 4.45 M53.6 7.5 L52.45 7.5 52.45 7.15 49.9 7.15 49.9 7.2 49.8 7.2 49.8 7.25 49.8 7.55 49.8 7.85 49.8 8.15 49.85 8.4 49.85 8.7 49.8 9.0 49.8 9.3 49.9 9.3 58.9 9.35 58.9 9.25 58.9 8.9 58.9 8.65 58.9 8.35 58.9 8.05 58.9 7.75 58.9 7.45 58.9 7.2 57.7 7.15 57.55 7.15 56.95 7.15 56.95 7.5 55.6 7.5 55.6 7.9 53.6 7.85 53.6 7.5 M44.7 22.65 L44.7 22.85 44.65 22.85 44.65 23.2 44.55 23.25 44.5 23.3 44.5 23.35 44.5 23.5 44.5 23.6 44.5 23.75 44.5 23.95 44.5 24.1 44.5 24.25 44.5 24.4 44.5 24.5 44.5 24.7 44.5 24.85 44.5 24.95 44.5 25.1 44.5 25.2 44.55 25.2 44.6 25.25 44.6 25.4 44.7 25.5 44.7 25.6 44.75 25.65 44.8 25.7 44.85 25.75 44.9 25.8 45.0 25.85 45.05 25.85 45.05 25.9 45.1 25.95 45.2 26.0 45.3 26.05 45.4 26.1 45.6 26.15 49.8 26.15 49.9 26.1 50.1 26.05 50.25 26.0 50.25 25.9 50.35 25.85 50.4 25.85 50.4 25.7 50.45 25.7 50.45 25.65 50.55 25.55 50.55 25.5 50.65 25.45 50.65 25.4 50.7 25.4 50.7 25.3 50.7 25.2 50.7 25.05 50.7 24.95 50.7 24.9 50.7 24.75 50.7 24.65 50.7 24.5 50.7 24.45 50.7 24.3 50.7 24.2 50.7 24.1 50.7 23.95 50.7 23.9 50.7 23.75 50.7 23.65 50.7 23.5 50.65 23.45 50.65 23.05 50.6 23.0 50.55 22.95 50.5 22.95 50.45 22.9 50.45 22.8 50.4 22.75 50.4 22.65 50.3 22.55 50.25 22.55 50.15 22.55 50.1 22.55 48.05 22.55 48.0 22.55 48.0 22.6 47.95 22.65 47.9 22.65 47.85 22.7 47.8 22.75 47.75 22.8 47.7 22.8 47.6 22.85 47.55 22.9 47.45 22.95 47.4 23.0 47.35 23.05 47.3 23.05 47.3 23.1 47.25 23.15 47.2 23.15 47.2 23.2 47.1 23.35 47.05 23.4 47.0 23.4 46.9 23.5 46.8 23.55 46.8 23.6 46.75 23.65 46.75 23.7 46.7 23.75 46.7 23.8 46.6 23.9 46.6 23.95 46.55 24.0 46.55 24.1 46.5 24.15 46.5 24.2 46.45 24.25 46.45 24.4 46.35 24.45 46.35 24.65 46.4 24.7 46.45 24.75 46.45 25.05 46.5 25.1 46.5 25.4 46.55 25.4 46.55 25.5 46.6 25.55 46.6 25.6 46.65 25.65 46.7 25.7 46.7 25.95 46.55 25.95 46.4 25.95 46.25 25.95 46.2 25.9 46.2 25.85 46.05 25.85 46.05 25.8 46.0 25.8 45.9 25.7 45.9 25.6 45.85 25.55 45.85 25.45 45.8 25.45 45.8 25.4 45.75 25.35 45.75 25.25 45.7 25.2 45.7 25.0 45.65 25.0 45.65 24.65 45.6 24.6 45.6 24.45 45.55 24.45 45.55 24.4 45.55 24.3 45.55 24.25 45.55 24.15 45.55 23.85 45.55 23.75 45.55 23.7 45.55 23.6 45.55 23.5 45.55 23.4 45.55 23.3 45.55 23.2 45.55 23.15 45.55 23.05 45.55 22.95 45.6 22.9 45.6 22.55 45.2 22.55 45.2 22.6 44.8 22.6 44.75 22.6 44.75 22.65 44.7 22.65 M29.6 12.95 L29.65 12.9 29.65 12.85 29.6 12.85 29.6 12.95 M4.55 20.15 L4.55 20.45 4.55 20.7 4.55 21.0 4.55 21.3 4.55 21.6 4.55 21.9 4.55 22.15 4.55 22.5 4.55 22.75 4.55 23.05 4.55 23.35 4.55 23.65 4.55 23.95 4.55 24.1 7.4 24.1 7.4 24.0 7.4 23.95 7.4 23.85 7.4 23.8 7.7 23.8 7.7 23.75 7.65 23.75 7.65 22.8 7.7 22.75 7.7 22.45 7.7 22.15 7.7 21.95 7.7 21.85 7.7 21.6 7.7 21.25 7.7 21.0 7.7 20.7 7.7 20.4 7.7 20.15 7.7 19.95 6.45 19.95 6.15 19.95 4.55 19.95 4.55 20.15 M19.6 23.75 L19.7 23.75 19.65 23.7 19.6 23.75" fill="#ffffff" fill-rule="evenodd" stroke="none"/>
    </g>
  </defs>
</svg>
