<?xml version="1.0" encoding="UTF-8" standalone="no"?>
<svg xmlns:xlink="http://www.w3.org/1999/xlink" height="26.0px" width="116.3px" xmlns="http://www.w3.org/2000/svg">
  <g transform="matrix(1.0, 0.0, 0.0, 1.0, 0.0, 0.0)">
    <use height="26.0" transform="matrix(1.0, 0.0, 0.0, 1.0, 0.0, 0.0)" width="116.3" xlink:href="#shape0"/>
  </g>
  <defs>
    <g id="shape0" transform="matrix(1.0, 0.0, 0.0, 1.0, 0.0, 0.0)">
      <path d="M112.7 9.1 L116.3 8.65 113.8 11.75 Q110.85 15.15 108.6 16.65 104.6 19.2 98.6 20.4 L86.1 21.45 64.2 21.45 63.75 21.4 63.5 20.6 63.0 19.4 Q62.5 18.4 61.55 17.75 60.55 17.05 59.0 17.0 57.4 16.95 56.1 17.65 54.3 18.6 53.25 20.4 L52.55 22.0 Q52.3 23.5 53.1 23.85 L53.8 24.05 54.35 24.35 Q54.8 25.1 54.45 25.6 54.1 26.1 53.15 26.0 52.0 25.85 50.95 25.0 49.65 23.95 49.65 22.35 L49.65 18.7 49.55 17.85 49.0 17.5 42.5 18.45 28.15 19.4 13.75 18.7 6.35 18.0 Q5.25 18.0 4.4 19.05 L3.4 20.65 Q3.1 21.15 2.55 21.2 2.05 21.2 1.65 20.65 1.25 20.05 1.2 15.35 L0.35 14.3 Q0.0 13.6 0.0 12.8 0.0 12.05 0.35 11.35 0.65 10.7 1.2 10.3 1.3 5.9 1.65 5.35 2.05 4.75 2.55 4.8 3.1 4.8 3.4 5.35 L4.4 6.9 Q5.25 8.0 6.35 8.0 L13.75 7.3 28.15 6.55 42.5 7.5 49.0 8.45 49.55 8.1 49.65 7.3 49.65 3.65 Q49.65 2.05 50.95 1.0 52.0 0.15 53.15 0.0 54.1 -0.1 54.45 0.4 54.8 0.85 54.35 1.6 L53.8 1.95 53.1 2.15 Q52.3 2.5 52.55 3.95 52.75 5.35 53.35 6.15 L53.9 6.7 53.9 8.0 67.6 8.0 74.45 8.35 83.4 9.1 101.5 9.9 112.7 9.1" fill="#ffffff" fill-rule="evenodd" stroke="none"/>
    </g>
  </defs>
</svg>
