<?xml version="1.0" encoding="UTF-8" standalone="no"?>
<svg xmlns:xlink="http://www.w3.org/1999/xlink" height="31.4px" width="41.6px" xmlns="http://www.w3.org/2000/svg">
  <g transform="matrix(1.0, 0.0, 0.0, 1.0, 0.0, 0.0)">
    <use height="31.4" transform="matrix(1.0, 0.0, 0.0, 1.0, 0.0, 0.0)" width="41.6" xlink:href="#shape0"/>
  </g>
  <defs>
    <g id="shape0" transform="matrix(1.0, 0.0, 0.0, 1.0, 0.0, 0.0)">
      <path d="M40.5 0.7 L40.95 0.95 Q41.35 1.2 41.35 1.55 L41.55 5.2 41.5 8.9 41.25 9.75 40.6 10.2 30.4 10.35 29.75 10.5 Q29.15 10.7 28.95 11.2 28.8 11.6 28.9 12.8 L29.1 14.6 29.3 15.85 Q29.3 16.2 28.75 16.25 L26.65 16.6 23.0 16.9 16.2 16.7 Q12.95 25.35 12.95 25.9 L13.2 29.75 14.4 30.5 Q14.75 30.65 14.7 30.9 L14.6 31.1 14.25 31.3 13.05 31.35 0.3 28.8 Q-0.3 28.7 0.3 25.5 L1.45 21.6 Q2.4 19.0 3.2 17.5 L4.55 14.15 Q5.15 12.35 5.05 11.6 4.95 11.05 3.65 10.3 L1.75 9.55 0.95 9.05 0.5 8.5 Q0.35 8.3 0.35 7.45 L0.35 6.2 Q0.35 4.9 0.55 4.6 L2.0 2.15 2.85 1.15 Q3.3 0.7 3.65 0.75 L4.45 0.75 4.95 0.7 5.4 0.05 6.9 0.2 7.1 0.75 20.85 0.75 20.85 1.2 26.8 1.2 26.8 0.75 40.5 0.7 M22.05 10.95 Q21.8 11.9 22.25 12.55 L23.25 13.9 Q23.65 14.25 24.2 14.35 24.7 14.4 24.65 14.6 24.6 14.85 24.25 14.85 L23.6 14.85 22.4 14.15 Q21.35 13.25 21.05 12.65 L20.85 10.95 19.95 10.9 Q19.15 10.9 18.55 11.55 18.05 12.15 18.05 12.95 L18.05 14.3 Q18.15 14.9 19.05 15.25 20.35 15.75 21.55 15.65 L23.75 15.4 25.2 15.45 26.65 15.55 27.5 15.45 27.9 15.05 28.0 13.45 Q27.95 12.2 27.6 11.6 L26.9 11.0 26.5 10.9 26.5 11.0 22.05 10.95" fill="#ffffff" fill-rule="evenodd" stroke="none"/>
    </g>
  </defs>
</svg>
