<?xml version="1.0" encoding="UTF-8" standalone="no"?>
<svg xmlns:xlink="http://www.w3.org/1999/xlink" height="33.7px" width="53.95px" xmlns="http://www.w3.org/2000/svg">
  <g transform="matrix(1.0, 0.0, 0.0, 1.0, 0.0, 0.0)">
    <use height="33.7" transform="matrix(1.0, 0.0, 0.0, 1.0, 0.0, 0.0)" width="53.95" xlink:href="#shape0"/>
  </g>
  <defs>
    <g id="shape0" transform="matrix(1.0, 0.0, 0.0, 1.0, 0.0, 0.0)">
      <path d="M53.95 6.3 Q53.95 9.75 52.8 10.45 L52.3 10.55 50.05 10.75 46.6 10.85 42.95 11.0 40.0 11.05 37.9 11.2 36.65 11.45 36.15 11.95 36.05 12.6 36.05 13.0 36.1 14.1 36.25 15.25 36.55 16.6 36.55 16.75 35.85 17.55 35.85 17.7 34.05 17.9 29.15 18.0 25.9 17.9 24.0 17.6 23.15 17.25 22.35 17.4 21.4 18.4 19.9 20.7 Q19.1 22.35 18.05 25.1 16.95 27.8 15.6 31.9 L15.5 32.0 Q15.5 33.2 14.85 33.5 14.5 33.85 14.3 33.65 L3.1 33.65 3.15 33.2 3.35 32.4 2.55 32.4 2.15 32.35 Q1.0 32.25 0.35 31.3 0.0 30.75 0.0 29.9 0.0 28.85 0.3 28.1 L0.55 27.15 0.55 27.25 1.2 26.4 2.5 24.4 4.25 21.75 6.2 19.0 7.75 15.6 8.25 12.95 8.0 11.45 Q7.55 10.5 6.75 9.95 L5.2 9.1 Q4.5 8.95 4.25 8.45 L4.05 7.25 4.1 6.75 4.1 6.4 4.05 6.3 4.05 3.65 4.05 2.55 3.9 1.95 3.85 1.95 3.8 1.8 3.85 1.65 3.9 1.55 Q3.95 1.45 4.35 1.25 L6.5 1.0 6.6 0.7 6.75 0.5 6.95 0.15 7.1 0.0 8.55 0.05 8.7 0.4 8.8 0.7 8.85 1.0 50.15 1.0 50.25 0.8 Q50.35 0.7 50.4 0.7 L51.35 0.4 51.55 0.6 51.8 0.85 53.6 0.85 53.95 6.3 M33.05 11.45 L25.95 11.45 25.6 11.7 Q25.35 11.95 25.35 12.4 L25.35 14.8 Q25.35 15.35 25.6 15.55 L25.95 15.8 33.05 15.8 33.45 15.55 33.7 14.8 33.7 12.4 33.45 11.7 Q33.3 11.45 33.05 11.45" fill="#ffffff" fill-rule="evenodd" stroke="none"/>
    </g>
  </defs>
</svg>
