<?xml version="1.0" encoding="UTF-8" standalone="no"?>
<svg xmlns:xlink="http://www.w3.org/1999/xlink" height="26.6px" width="129.35px" xmlns="http://www.w3.org/2000/svg">
  <g transform="matrix(1.0, 0.0, 0.0, 1.0, 0.25, 0.9)">
    <use height="26.6" transform="matrix(1.0, 0.0, 0.0, 1.0, -0.25, -0.9)" width="129.35" xlink:href="#shape0"/>
  </g>
  <defs>
    <g id="shape0" transform="matrix(1.0, 0.0, 0.0, 1.0, 0.25, 0.9)">
      <path d="M30.4 -0.85 L30.45 -0.9 51.55 -0.9 51.85 -0.8 52.05 -0.6 52.1 -0.55 52.15 -0.55 52.35 -0.4 52.45 -0.2 52.5 -0.1 52.5 0.05 52.65 0.05 52.65 -0.05 53.1 -0.05 53.4 0.1 53.6 0.2 128.45 0.25 128.8 0.4 128.95 0.5 129.05 0.7 129.1 0.85 129.1 1.05 129.05 1.1 129.1 1.2 129.1 1.4 129.1 1.55 129.1 1.75 129.1 1.85 129.1 2.05 129.1 2.2 129.1 2.4 129.1 2.5 129.1 2.7 129.1 2.85 129.1 3.05 129.1 3.25 129.1 3.35 129.1 3.5 129.1 3.7 129.1 3.9 129.1 4.0 129.1 4.15 129.1 4.35 129.1 4.55 128.95 4.6 128.75 4.75 128.65 4.95 128.45 5.1 128.4 5.25 128.1 5.1 128.05 5.05 125.45 5.05 125.45 5.2 125.45 5.3 125.45 5.4 125.45 5.55 125.45 5.6 125.45 5.7 125.45 5.85 125.45 5.9 125.5 6.0 125.55 6.05 126.3 6.1 126.3 6.05 126.3 5.9 128.7 5.9 128.7 6.0 128.7 6.25 128.7 6.5 128.7 6.7 128.7 6.9 128.7 7.15 128.7 7.35 128.7 7.6 128.7 7.8 128.7 8.0 128.7 8.25 128.7 8.5 128.7 8.55 128.7 8.65 128.7 8.8 128.7 8.9 128.7 9.0 128.7 9.15 128.7 9.25 128.7 9.4 128.7 9.55 128.7 9.65 128.7 9.8 128.7 9.9 128.7 10.05 128.7 10.15 128.7 10.45 128.7 10.55 128.7 10.8 128.7 10.9 128.7 11.1 126.45 11.05 126.45 11.1 125.85 11.1 125.8 11.15 125.65 11.2 125.55 11.35 125.55 11.45 125.5 11.55 125.45 11.7 125.4 11.8 125.3 11.9 125.2 12.05 125.15 12.1 125.15 12.2 124.95 12.35 124.85 12.45 124.8 12.55 124.65 12.7 124.6 12.8 124.55 12.95 124.55 13.0 124.35 13.05 124.35 13.15 124.1 13.2 123.95 13.35 123.95 13.45 123.2 13.45 123.2 13.5 123.2 13.65 123.2 13.75 90.95 13.8 90.95 13.95 90.95 14.05 90.95 14.15 88.45 14.1 88.45 14.0 88.45 13.85 88.45 13.8 88.45 13.7 88.45 13.6 88.1 13.5 87.7 13.4 87.7 13.3 87.4 13.2 87.1 13.1 87.1 13.0 86.65 12.95 86.2 12.8 86.2 12.7 70.1 12.7 69.7 12.55 69.55 12.45 69.3 12.35 69.15 12.15 69.0 12.05 69.0 11.85 69.0 11.7 69.0 11.5 65.25 11.5 65.25 11.6 65.25 11.75 65.25 11.8 65.25 11.9 65.25 12.05 65.25 12.15 65.25 12.25 64.2 12.25 64.2 12.35 64.2 12.45 64.2 12.55 64.2 12.7 64.2 12.8 64.2 12.85 61.8 12.8 61.7 12.7 61.7 12.65 61.7 12.5 61.7 12.4 61.7 12.25 49.6 12.25 49.55 12.25 Q49.5 12.25 49.4 12.35 L49.25 12.35 49.1 12.4 48.9 12.5 48.65 12.65 48.5 12.65 48.3 12.7 48.1 12.8 48.0 12.95 47.8 13.05 47.7 13.1 47.65 13.15 47.5 13.2 47.35 13.35 47.35 13.45 47.2 13.5 47.2 13.65 47.2 13.75 47.05 13.75 46.95 13.75 46.95 14.0 46.25 14.05 46.2 14.05 45.75 14.1 45.7 14.1 45.55 14.15 45.45 14.15 45.0 14.25 44.95 14.25 44.55 14.3 44.45 14.3 44.3 14.35 44.25 14.35 44.1 14.4 44.05 14.4 43.95 14.45 43.9 14.45 43.7 14.5 43.65 14.5 43.6 14.6 43.5 14.6 43.35 14.65 43.3 14.65 43.1 14.7 43.05 14.7 42.8 14.75 42.75 14.75 42.65 14.8 42.55 14.8 42.5 14.9 42.45 14.9 42.35 14.95 42.3 14.95 42.15 15.0 42.1 15.0 42.05 15.05 41.9 15.1 41.85 15.1 41.75 15.15 41.7 15.15 Q41.65 15.15 41.55 15.25 L41.5 15.25 41.4 15.3 41.35 15.3 41.25 15.35 41.2 15.35 41.1 15.4 41.05 15.4 41.0 15.45 40.9 15.45 40.8 15.55 40.75 15.55 40.7 15.6 40.55 15.65 40.5 15.65 40.45 15.7 40.4 15.7 40.35 15.75 40.25 15.75 40.2 15.8 40.15 15.8 40.05 15.9 39.9 15.95 39.85 15.95 39.8 16.0 39.75 16.0 39.7 16.05 39.55 16.1 39.5 16.2 39.45 16.2 39.4 16.25 39.2 16.3 39.15 16.3 39.05 16.4 39.05 16.45 38.95 16.45 38.9 16.55 38.85 16.55 38.8 16.6 38.65 16.65 38.6 16.65 38.55 16.7 38.45 16.75 38.4 16.75 38.3 16.85 38.2 16.9 38.15 16.9 38.1 16.95 38.0 16.95 37.95 17.0 37.9 17.0 37.85 17.05 37.8 17.05 37.75 17.1 37.65 17.1 37.6 17.2 37.55 17.25 37.5 17.25 37.45 17.3 37.35 17.3 37.25 17.4 37.2 17.5 37.15 17.5 37.05 17.55 37.0 17.55 36.95 17.6 36.9 17.65 36.85 17.65 36.8 17.7 36.7 17.8 36.65 17.8 36.6 17.85 36.55 17.9 36.5 17.9 36.4 17.95 36.35 17.95 36.3 18.0 36.25 18.0 36.25 18.05 36.2 18.15 36.15 18.15 36.05 18.2 36.0 18.2 35.95 18.25 35.9 18.25 35.75 18.35 35.65 18.45 35.6 18.5 35.55 18.55 35.5 18.55 35.3 18.7 35.25 18.8 35.2 18.8 35.0 18.95 34.95 19.0 34.9 19.0 34.85 19.1 34.75 19.1 34.7 19.15 34.65 19.15 34.55 19.2 34.4 19.25 34.3 19.3 34.25 19.3 34.1 19.35 34.0 19.45 33.95 19.45 33.8 19.5 33.7 19.55 33.65 19.55 33.6 19.6 33.55 19.6 33.35 19.65 33.3 19.65 33.25 19.75 33.15 19.75 33.05 19.8 33.0 19.8 32.9 19.85 32.8 19.85 32.65 19.9 32.6 19.9 32.4 19.95 32.0 20.0 31.95 20.0 31.75 20.1 31.7 20.1 31.45 20.15 31.4 20.15 30.9 20.2 30.85 20.2 29.1 20.2 29.05 20.15 28.8 20.15 28.8 20.1 28.6 20.1 28.55 20.0 28.3 20.0 28.25 19.95 27.9 19.95 27.85 19.9 27.75 19.9 27.75 19.85 27.55 19.85 27.5 19.8 27.35 19.8 27.3 19.75 27.15 19.75 27.1 19.65 26.95 19.65 26.95 19.6 26.8 19.6 26.7 19.55 26.65 19.55 26.6 19.5 26.5 19.5 26.45 19.45 26.35 19.45 26.3 19.35 26.2 19.35 26.2 19.3 26.05 19.3 26.0 19.25 25.9 19.25 25.85 19.2 25.7 19.2 25.7 19.15 25.65 19.15 25.55 19.0 25.5 19.0 25.5 18.95 25.35 18.95 25.35 18.9 25.3 18.9 25.3 18.85 25.25 18.85 25.25 18.8 25.2 18.8 25.2 18.7 25.15 18.7 25.15 18.65 25.05 18.65 25.05 18.6 25.0 18.55 24.95 18.55 24.75 18.35 24.75 18.3 24.7 18.3 24.7 18.25 24.6 18.15 24.6 18.05 24.55 18.05 24.55 18.0 24.5 18.0 24.5 17.95 24.35 17.85 24.35 17.8 24.25 17.65 24.25 17.6 24.2 17.6 24.2 17.55 24.1 17.5 24.1 17.4 24.05 17.35 24.0 17.35 24.0 17.3 23.95 17.25 23.95 17.2 23.9 17.1 23.9 17.05 23.75 17.0 23.75 16.95 23.65 16.85 23.65 16.75 23.6 16.7 23.55 16.65 23.55 16.55 23.4 16.4 23.4 16.35 23.35 16.3 23.35 16.25 23.25 16.1 23.25 16.05 23.2 16.0 23.1 16.0 23.1 15.9 23.05 15.8 23.05 15.75 23.0 15.7 23.0 15.65 22.9 15.55 22.9 15.45 22.65 15.25 22.65 15.15 22.6 15.1 22.6 15.05 22.5 15.0 22.05 14.5 22.05 14.45 22.0 14.45 22.0 14.35 21.95 14.3 21.85 14.3 21.7 14.1 21.65 14.05 21.65 14.0 21.35 13.7 20.45 13.7 20.35 13.75 19.45 13.95 19.25 14.05 19.1 14.1 19.1 14.0 19.1 13.8 19.1 13.65 19.05 13.65 19.05 13.7 19.0 13.75 18.75 13.8 18.5 13.95 18.4 14.05 18.25 14.1 18.2 14.15 Q18.1 14.15 18.05 14.25 L17.9 14.35 17.8 14.45 17.55 14.5 17.45 14.65 17.4 14.7 17.3 14.75 17.15 14.8 17.0 14.9 17.0 14.95 16.75 15.0 16.6 15.1 16.6 15.25 16.35 15.3 16.1 15.4 15.95 15.55 15.9 15.6 15.85 15.65 15.65 15.7 15.55 15.8 15.45 15.95 15.2 16.0 15.2 16.05 15.15 16.1 14.9 16.2 14.8 16.3 14.7 16.4 14.7 16.6 14.6 16.65 14.5 16.75 14.25 17.0 Q14.05 17.05 13.9 17.2 L13.85 17.25 13.85 17.35 13.7 17.35 13.6 17.4 13.5 17.55 13.4 17.65 13.3 17.8 13.1 17.9 13.0 18.0 12.95 18.15 12.85 18.25 12.7 18.3 12.6 18.45 12.45 18.55 12.4 18.65 12.3 18.8 12.3 18.9 12.1 18.95 12.0 19.1 12.0 19.2 11.8 19.25 11.7 19.35 11.6 19.5 11.45 19.6 11.4 19.75 11.35 19.8 11.3 19.9 11.1 20.0 11.05 20.15 10.95 20.25 10.8 20.4 10.75 20.5 10.65 20.6 10.5 20.65 10.5 20.8 10.4 20.9 10.35 21.05 10.2 21.15 10.1 21.25 10.0 21.4 9.95 21.5 9.85 21.55 9.8 21.7 9.65 21.8 9.65 21.9 9.55 22.05 9.5 22.15 9.5 22.25 9.5 22.35 9.35 22.4 9.3 22.5 9.2 22.6 9.15 22.75 9.1 22.85 9.05 23.0 9.0 23.05 8.9 23.15 8.9 23.3 8.9 23.4 8.9 23.5 8.75 23.55 8.7 23.7 8.65 23.8 8.65 23.95 8.45 24.0 8.4 24.1 8.35 24.2 8.35 24.35 8.25 24.45 8.15 24.5 8.15 24.65 8.05 24.75 8.05 24.85 8.05 25.0 8.05 25.1 8.05 25.25 8.05 25.35 8.05 25.4 7.85 25.4 7.85 25.5 7.85 25.65 7.85 25.7 5.35 25.65 5.1 25.5 5.1 25.4 4.9 25.35 4.6 25.25 4.55 25.1 4.5 25.05 4.2 24.95 4.2 24.8 3.95 24.75 3.85 24.65 3.7 24.5 3.6 24.45 3.35 24.35 3.3 24.2 3.15 24.15 3.15 24.05 3.0 23.95 2.85 23.8 2.75 23.7 2.65 23.55 2.45 23.45 2.4 23.35 2.25 23.3 2.2 23.15 2.1 23.05 2.1 23.0 1.9 22.85 1.8 22.75 1.65 22.7 1.65 22.55 1.55 22.45 1.35 22.35 1.3 22.2 1.15 22.1 1.05 21.95 1.0 21.85 0.95 21.8 0.75 21.7 0.7 21.55 0.65 21.5 0.45 21.4 0.45 21.25 0.4 21.2 0.35 21.1 0.35 20.95 0.15 20.9 0.1 20.8 0.05 20.65 0.05 20.6 -0.15 20.5 -0.15 20.4 -0.15 20.3 -0.2 20.2 -0.25 20.1 -0.25 19.95 -0.25 19.85 -0.25 19.75 -0.25 19.6 -0.25 19.5 -0.25 19.45 -0.25 19.3 -0.25 19.2 -0.25 19.1 -0.25 18.85 -0.25 18.7 -0.25 18.6 -0.25 18.55 -0.25 18.45 -0.25 18.3 -0.25 18.2 -0.25 18.05 -0.25 17.85 -0.25 17.7 -0.15 17.65 -0.15 17.6 -0.15 16.95 -0.15 16.3 -0.15 15.65 -0.15 15.0 -0.15 14.3 -0.15 13.65 -0.15 13.0 -0.15 12.35 -0.15 11.6 -0.15 10.95 -0.15 10.3 -0.15 10.2 -0.25 10.15 -0.25 10.05 -0.25 9.95 -0.25 9.85 -0.25 9.75 -0.25 9.6 -0.25 9.5 -0.25 9.4 -0.25 9.25 -0.25 9.15 -0.25 9.1 -0.25 8.95 -0.25 8.85 -0.25 8.75 -0.25 8.6 -0.25 8.5 -0.25 8.35 -0.25 8.25 -0.25 8.2 -0.25 8.1 -0.25 7.95 -0.25 7.85 -0.25 7.65 2.25 7.65 2.25 7.8 2.4 7.9 2.55 7.95 2.55 8.1 2.75 8.2 3.0 8.25 3.05 8.35 3.15 8.5 3.4 8.55 3.4 8.65 3.7 8.8 4.0 8.85 4.0 8.95 4.3 9.1 4.9 9.15 4.9 9.25 5.35 9.4 7.1 9.4 7.6 9.25 7.7 9.15 7.75 9.15 8.35 9.1 8.8 8.95 8.85 8.85 8.9 8.85 9.5 8.8 10.1 8.65 10.1 8.55 10.7 8.5 11.05 8.35 11.05 8.25 11.1 8.25 11.35 8.2 11.75 8.1 11.8 7.95 11.9 7.95 12.1 7.9 12.65 7.8 12.7 7.65 12.75 7.65 13.05 7.6 13.5 7.5 13.5 7.35 13.9 7.3 14.25 7.2 14.25 7.05 14.55 7.0 14.85 6.9 14.85 6.75 15.25 6.7 15.5 6.6 15.5 6.5 15.55 6.5 15.7 6.4 15.9 6.3 16.0 6.2 16.15 6.1 16.15 6.05 16.5 6.0 16.6 5.9 16.75 5.75 17.0 5.7 17.0 5.6 17.2 5.55 17.4 5.4 17.45 5.3 17.5 5.3 17.75 5.25 17.95 5.1 18.1 5.0 18.2 4.95 18.2 4.9 Q18.35 4.8 18.45 4.8 L18.45 4.7 18.5 4.7 18.7 4.65 19.05 4.55 19.05 4.4 19.1 4.4 19.35 4.35 19.45 4.25 19.55 4.1 19.7 4.05 19.7 4.0 19.9 3.95 19.9 3.8 20.0 3.8 20.15 3.75 20.35 3.65 20.4 3.5 20.45 3.5 20.75 3.45 20.85 3.35 20.85 3.25 21.15 3.15 21.4 3.05 21.4 2.95 21.45 2.95 21.65 2.85 21.95 2.75 21.95 2.65 22.3 2.55 22.6 2.45 22.6 2.35 22.65 2.35 22.9 2.3 23.1 2.15 23.1 2.05 23.45 2.0 23.75 1.85 23.75 1.75 23.85 1.75 24.1 1.7 24.4 1.55 24.4 1.45 24.95 1.4 25.25 1.25 25.25 1.15 25.3 1.15 25.55 1.1 25.85 1.0 25.85 0.85 25.9 0.85 26.05 0.8 26.25 0.7 26.3 0.55 26.35 0.55 26.7 0.5 26.8 0.5 26.8 0.4 26.8 0.25 27.2 0.2 27.45 0.15 27.55 0.1 27.65 0.05 27.65 -0.05 27.75 -0.05 27.85 -0.15 28.6 -0.25 28.75 -0.45 29.8 -0.55 29.9 -0.75 30.4 -0.85 M29.15 13.85 L29.15 13.95 29.1 14.0 29.1 14.05 29.05 14.1 29.05 14.15 28.95 14.15 28.95 14.25 28.9 14.3 28.9 14.35 28.85 14.4 28.85 14.5 28.8 14.6 28.8 14.7 28.75 14.7 28.75 14.75 28.7 14.8 28.7 14.9 28.6 14.95 28.6 15.05 28.55 15.05 28.55 15.25 28.5 15.25 28.5 15.6 28.45 15.6 28.45 15.7 28.4 15.75 28.4 16.0 28.3 16.05 28.3 16.3 28.25 16.3 28.25 16.85 28.3 16.9 28.3 17.9 27.35 17.9 27.35 17.85 27.3 17.85 27.3 17.7 27.25 17.65 27.25 17.55 27.2 17.55 27.2 17.5 27.15 17.4 27.15 17.3 27.1 17.3 27.1 17.2 27.0 17.1 27.0 17.0 26.95 16.95 26.95 16.7 26.9 16.65 26.9 16.35 26.85 16.3 26.85 16.25 26.85 16.05 26.85 15.9 26.85 15.7 26.85 15.55 26.85 15.35 26.85 15.25 26.85 15.1 26.85 15.0 26.85 14.9 26.85 14.7 26.85 14.6 26.85 14.45 26.85 14.35 26.85 14.3 26.8 14.3 26.7 14.35 26.65 14.4 26.45 14.65 26.45 14.7 26.2 14.95 26.2 15.0 26.15 15.05 26.15 15.15 26.05 15.25 26.05 15.3 26.0 15.35 26.0 15.45 25.95 15.55 25.95 15.8 25.9 15.9 25.9 16.3 25.95 16.35 25.95 16.65 26.0 16.7 26.0 16.9 26.05 16.95 26.05 17.05 26.15 17.1 26.15 17.2 26.2 17.25 26.2 17.3 26.3 17.4 26.3 17.5 26.35 17.5 26.55 17.65 26.55 17.7 26.6 17.7 26.8 17.9 26.85 17.9 26.85 17.95 26.9 17.95 26.95 18.0 27.0 18.0 27.1 18.05 27.15 18.05 27.15 18.15 27.2 18.15 27.25 18.2 27.3 18.2 27.35 18.25 27.5 18.25 27.5 18.3 27.6 18.3 27.6 18.35 27.65 18.35 27.75 18.45 27.8 18.45 28.1 18.45 28.1 18.5 28.15 18.5 28.15 18.55 28.2 18.55 28.2 18.6 28.25 18.6 28.25 18.65 28.3 18.65 28.3 18.7 28.55 18.7 28.6 18.8 28.75 18.8 28.8 18.85 28.95 18.85 28.95 18.9 29.1 18.9 29.15 18.95 29.2 18.95 29.25 19.0 30.1 19.0 30.1 19.1 30.7 19.1 30.7 19.0 30.85 19.0 30.85 18.95 31.4 18.95 31.4 18.9 31.55 18.9 31.55 18.85 31.75 18.85 31.75 18.8 31.95 18.8 31.95 18.7 32.1 18.7 32.1 18.65 32.15 18.65 32.15 18.6 32.3 18.6 32.35 18.55 32.45 18.55 32.45 18.5 32.65 18.5 32.65 18.45 32.8 18.45 32.9 18.35 33.0 18.35 33.0 18.3 33.1 18.3 33.15 18.25 33.3 18.25 33.3 18.2 33.4 18.05 33.55 18.05 33.7 17.9 33.75 17.9 33.8 17.85 33.9 17.8 34.0 17.8 34.0 17.7 34.05 17.65 34.25 17.65 34.25 17.6 34.35 17.5 34.45 17.5 34.55 17.4 34.6 17.35 34.65 17.3 34.7 17.3 34.75 17.25 34.85 17.25 34.9 17.2 34.9 17.1 34.95 17.05 34.95 17.0 35.0 17.0 35.0 16.95 35.05 16.9 35.05 16.65 35.1 16.65 35.1 16.6 35.2 16.55 35.2 16.45 35.25 16.45 35.25 16.4 35.3 16.35 35.3 16.3 35.35 16.25 35.35 16.2 35.4 16.1 35.5 16.05 35.5 15.95 35.55 15.95 35.55 15.6 35.5 15.55 35.5 15.4 35.4 15.35 35.4 15.25 35.35 15.15 35.35 15.05 35.3 15.0 35.3 14.95 35.25 14.9 35.25 14.8 35.2 14.75 35.2 14.7 35.1 14.65 35.1 14.6 34.85 14.3 34.85 14.25 34.75 14.15 34.7 14.15 34.65 14.1 34.65 14.05 34.6 14.05 34.45 13.95 34.35 13.95 34.25 13.8 34.1 13.75 29.25 13.75 29.2 13.8 29.15 13.85 M28.15 18.2 L28.4 18.2 28.1 18.3 28.15 18.2 M2.25 17.4 L2.3 17.3 2.35 17.2 2.25 17.2 2.25 17.25 2.25 17.4" fill="#ffffff" fill-rule="evenodd" stroke="none"/>
    </g>
  </defs>
</svg>
