<?xml version="1.0" encoding="UTF-8" standalone="no"?>
<svg xmlns:xlink="http://www.w3.org/1999/xlink" height="35.05px" width="97.25px" xmlns="http://www.w3.org/2000/svg">
  <g transform="matrix(1.0, 0.0, 0.0, 1.0, 0.0, 0.0)">
    <use height="35.05" transform="matrix(1.0, 0.0, 0.0, 1.0, 0.0, 0.0)" width="97.25" xlink:href="#shape0"/>
  </g>
  <defs>
    <g id="shape0" transform="matrix(1.0, 0.0, 0.0, 1.0, 0.0, 0.0)">
      <path d="M91.3 2.7 L91.55 3.1 92.0 4.55 92.4 6.4 92.4 8.0 92.65 8.4 92.85 9.0 93.15 9.0 93.65 8.95 93.95 8.95 96.7 9.0 96.8 9.2 96.95 9.7 97.2 10.45 97.2 11.25 96.7 11.8 95.6 12.05 94.75 12.15 94.25 12.3 93.75 12.45 93.45 12.45 92.85 12.3 92.7 13.1 92.05 13.7 91.75 13.75 91.65 13.85 91.55 13.9 91.55 14.75 91.3 15.55 91.15 15.55 89.65 15.55 88.15 15.2 87.8 15.4 87.65 15.55 87.55 15.55 86.65 15.9 86.15 16.5 86.15 17.25 86.25 18.6 86.25 20.65 86.25 23.1 86.25 25.3 86.15 27.05 85.9 28.65 85.6 29.55 85.45 30.1 85.3 30.35 85.1 30.35 83.75 30.5 Q82.8 30.5 82.4 30.1 L82.4 30.0 82.0 29.55 Q81.75 29.35 81.75 28.8 L81.65 27.9 81.65 27.7 81.45 27.55 81.8 22.4 82.0 19.3 82.25 17.55 82.4 16.8 82.05 16.65 81.75 16.3 81.5 16.0 81.3 15.9 81.1 15.8 80.8 15.45 80.35 15.2 80.0 15.1 79.85 15.05 79.75 15.05 79.0 15.2 78.8 15.1 78.6 15.05 78.35 15.05 78.1 15.05 77.8 15.1 77.3 15.2 74.25 15.2 74.3 14.75 74.35 14.25 74.35 13.9 73.0 14.7 71.75 15.2 69.7 15.2 69.95 16.3 70.25 17.8 70.55 19.8 70.25 19.85 69.7 20.15 69.95 21.3 70.6 24.0 71.35 27.65 72.3 31.8 72.8 33.95 72.85 34.3 72.6 34.35 72.25 34.4 71.9 34.45 71.65 34.55 70.85 34.6 70.5 34.65 70.15 34.7 69.9 34.8 68.35 34.85 68.0 34.9 67.65 34.95 67.4 35.05 66.55 35.05 66.3 34.0 66.3 33.95 65.25 29.4 64.25 25.25 63.6 22.3 63.3 21.15 61.95 21.15 60.9 21.2 60.15 21.25 59.5 21.45 58.85 21.95 58.45 22.55 58.15 23.0 57.75 23.35 56.55 23.6 54.35 23.75 51.9 23.75 50.45 23.5 49.1 23.0 47.95 22.35 Q46.95 23.75 46.95 24.25 L47.25 24.9 47.35 25.25 47.5 25.25 46.95 25.8 46.8 25.75 46.5 25.8 46.05 26.55 45.2 27.9 44.55 29.4 44.25 30.25 44.25 31.35 Q44.4 31.5 44.15 31.85 L43.0 32.05 41.8 31.5 39.9 30.4 38.1 29.35 37.15 28.45 37.3 27.9 37.95 26.7 39.4 23.95 42.15 19.2 41.8 17.6 Q41.55 16.45 40.1 16.0 L38.0 15.2 36.9 15.0 35.95 14.9 34.85 14.75 33.3 14.6 31.8 14.6 30.75 14.75 4.9 23.9 4.8 23.9 4.25 23.95 3.05 24.1 1.8 24.05 0.8 23.75 Q0.5 23.4 0.5 23.1 L0.5 19.6 0.5 17.0 0.25 15.05 0.25 12.65 0.2 11.65 0.1 10.7 0.0 9.45 Q0.0 8.85 0.65 8.6 L1.65 8.45 3.7 8.4 6.25 8.35 8.4 8.35 26.6 8.35 27.65 8.05 29.0 7.7 30.4 7.3 31.05 7.0 32.1 6.25 32.7 5.9 33.15 5.75 35.1 5.25 35.7 5.15 36.05 5.05 37.3 3.85 39.05 2.0 40.55 1.8 42.05 2.0 42.35 1.95 42.5 1.9 42.7 1.95 43.2 2.2 44.4 2.2 44.7 2.8 44.7 4.9 44.9 4.9 44.9 3.65 47.5 3.65 47.5 3.0 48.9 3.0 48.9 3.65 49.85 3.65 49.85 3.0 51.15 3.0 51.15 3.65 52.05 3.65 52.05 3.0 53.4 3.0 53.4 3.65 54.5 3.65 54.5 3.0 55.8 3.0 55.8 3.65 56.9 3.65 56.9 3.0 58.25 3.0 58.25 3.65 59.35 3.65 59.35 3.0 60.7 3.0 60.7 3.65 61.55 3.65 61.55 3.0 63.05 3.0 63.05 3.65 63.85 3.65 63.85 3.0 65.2 3.0 65.2 3.65 66.6 3.65 66.6 4.9 84.95 4.9 86.2 3.8 87.25 2.7 87.3 2.0 87.35 1.6 87.65 0.75 88.35 0.25 88.75 0.25 89.65 0.0 90.4 0.6 91.15 2.0 91.3 2.7 M65.85 4.35 L45.7 4.35 45.7 4.9 65.85 4.9 65.85 4.35 M49.25 20.05 Q49.25 20.45 49.75 20.8 50.15 21.15 50.7 21.15 L55.35 21.15 56.35 20.8 56.7 20.05 Q56.7 19.3 56.35 18.9 L55.35 18.6 50.7 18.6 Q50.15 18.6 49.75 18.9 49.25 19.3 49.25 20.05 M23.3 14.2 L23.6 13.55 Q23.6 12.3 22.4 12.3 L20.2 12.3 Q19.75 12.3 19.45 12.6 19.1 12.95 19.1 13.55 19.1 13.95 19.45 14.2 19.75 14.55 20.2 14.55 L22.4 14.55 Q22.95 14.55 23.3 14.2 M5.25 11.2 L4.05 11.1 4.1 12.9 4.3 15.25 4.4 17.55 4.45 18.9 Q4.7 19.15 5.5 19.45 L7.2 19.75 8.85 19.35 10.85 18.65 12.85 17.75 14.25 17.0 14.6 16.1 14.3 14.55 13.75 12.95 12.35 12.75 10.1 12.15 8.6 11.75 6.85 11.4 5.25 11.2" fill="#ffffff" fill-rule="evenodd" stroke="none"/>
    </g>
  </defs>
</svg>
