<?xml version="1.0" encoding="UTF-8" standalone="no"?>
<svg xmlns:xlink="http://www.w3.org/1999/xlink" height="35.1px" width="96.65px" xmlns="http://www.w3.org/2000/svg">
  <g transform="matrix(1.0, 0.0, 0.0, 1.0, 0.0, 0.0)">
    <use height="35.1" transform="matrix(1.0, 0.0, 0.0, 1.0, 0.0, 0.0)" width="96.65" xlink:href="#shape0"/>
  </g>
  <defs>
    <g id="shape0" transform="matrix(1.0, 0.0, 0.0, 1.0, 0.0, 0.0)">
      <path d="M96.35 11.3 L96.65 12.2 Q96.75 12.95 96.35 13.9 L96.35 14.05 96.2 14.05 95.25 14.15 93.2 14.25 91.15 14.3 89.85 14.05 89.65 13.95 89.5 13.9 81.35 13.9 80.6 14.15 Q80.1 14.2 79.9 14.4 L79.1 14.7 78.25 14.75 77.8 14.4 77.6 14.4 77.55 14.65 77.45 15.15 77.45 15.2 77.3 15.95 76.85 16.9 76.25 17.75 75.2 18.1 55.2 18.1 54.4 18.35 54.4 19.7 54.35 21.05 Q54.3 21.7 53.85 22.35 53.3 22.7 52.35 22.7 L50.65 22.6 48.75 22.4 47.15 22.15 46.3 21.9 45.4 22.5 Q44.8 22.95 44.8 24.05 L44.8 25.1 44.6 25.2 44.05 25.85 43.65 26.7 43.7 27.25 43.75 27.55 44.05 27.95 43.75 27.95 43.2 28.65 Q42.7 29.3 42.7 30.45 L42.7 30.95 42.9 31.25 42.35 31.25 41.25 30.95 39.45 30.6 37.65 29.95 Q36.9 29.6 36.8 29.1 L36.6 28.95 Q36.8 26.25 37.3 23.7 37.9 21.15 40.0 19.25 L40.15 18.75 40.2 18.2 Q40.2 17.75 39.4 17.3 L37.95 17.05 Q36.85 17.05 35.4 17.6 32.2 18.75 31.0 22.35 L30.9 22.4 Q29.9 23.1 29.4 23.1 L29.4 23.2 29.45 24.8 29.6 27.25 29.7 29.95 29.9 32.6 29.9 32.85 29.35 33.25 27.85 34.05 25.4 34.9 22.1 35.1 21.95 35.1 21.55 27.65 21.3 22.4 21.25 19.7 17.75 20.3 15.8 20.8 15.75 21.05 15.65 21.4 Q15.65 22.35 15.2 22.35 L14.15 22.6 Q13.25 22.7 12.85 22.95 L12.7 22.95 12.4 22.5 12.05 22.15 11.95 21.7 10.6 22.4 8.25 23.1 5.4 23.55 2.3 23.7 2.15 23.55 1.95 23.45 Q0.8 19.85 0.35 17.25 0.0 14.65 0.0 12.9 0.0 9.6 0.8 8.55 1.55 7.45 1.9 7.25 L2.4 6.45 3.4 5.0 3.4 4.75 12.85 4.75 12.85 5.0 13.8 6.35 14.7 7.25 16.0 6.65 17.85 5.15 18.05 5.15 22.85 5.4 27.3 5.55 30.7 5.55 32.5 5.35 32.8 4.5 33.15 3.25 33.4 2.1 33.65 1.4 33.65 1.25 33.9 1.0 Q34.05 0.75 34.6 0.65 L36.05 0.35 38.7 0.1 62.15 0.85 69.85 1.05 74.2 1.1 76.15 1.25 76.7 1.25 77.2 1.25 Q77.6 1.15 77.95 1.8 78.9 2.85 78.9 5.4 L78.9 7.2 78.65 9.35 78.5 9.85 78.4 10.7 78.85 10.7 79.2 10.75 79.7 10.8 81.05 11.1 81.1 11.2 81.15 11.4 81.15 11.5 88.25 11.5 88.75 11.4 89.3 11.2 89.7 11.1 90.9 10.9 92.8 10.85 94.85 10.85 96.0 10.9 96.35 11.1 96.35 11.3 M72.2 4.35 L40.05 4.35 Q38.4 4.35 38.4 6.1 L38.4 7.7 Q38.4 9.4 40.05 9.4 L72.2 9.4 Q73.0 9.4 73.4 8.9 73.9 8.5 73.9 7.7 L73.9 6.1 Q73.9 5.3 73.4 4.85 73.0 4.35 72.2 4.35" fill="#ffffff" fill-rule="evenodd" stroke="none"/>
    </g>
  </defs>
</svg>
