<?xml version="1.0" encoding="UTF-8" standalone="no"?>
<svg xmlns:xlink="http://www.w3.org/1999/xlink" height="30.1px" width="87.05px" xmlns="http://www.w3.org/2000/svg">
  <g transform="matrix(1.0, 0.0, 0.0, 1.0, 0.0, 0.0)">
    <use height="30.1" transform="matrix(1.0, 0.0, 0.0, 1.0, 0.0, 0.0)" width="87.05" xlink:href="#shape0"/>
  </g>
  <defs>
    <g id="shape0" transform="matrix(1.0, 0.0, 0.0, 1.0, 0.0, 0.0)">
      <path d="M86.25 1.1 L86.65 1.65 86.8 2.3 87.05 3.45 87.05 4.1 87.0 4.65 86.95 4.75 86.85 4.85 86.8 5.55 86.75 6.8 86.7 8.1 86.65 8.9 86.65 9.25 83.55 9.25 83.4 9.6 83.25 9.65 82.65 9.7 81.25 9.75 78.6 9.75 76.9 9.7 75.45 9.65 74.15 9.65 73.4 9.75 Q72.7 9.85 72.0 10.35 L70.65 11.55 Q70.15 12.2 70.1 12.55 L70.0 13.6 70.0 14.2 Q70.35 14.75 70.1 14.95 L69.75 15.35 69.75 15.5 69.0 15.8 67.7 16.15 65.9 16.65 64.1 16.75 60.9 16.35 Q59.85 16.2 59.35 16.35 58.75 16.5 58.4 16.75 L57.95 17.3 55.95 24.2 55.9 24.3 55.9 24.5 55.95 25.35 56.2 27.05 56.2 27.85 Q56.2 29.1 55.7 29.8 L55.2 30.05 54.9 30.1 47.9 30.1 47.85 30.0 47.6 29.95 47.4 29.9 47.05 29.8 Q46.45 29.45 46.45 28.3 L46.55 27.95 46.6 27.65 44.6 27.4 43.95 27.05 43.95 26.85 43.85 26.65 43.85 26.45 43.8 26.2 43.7 25.55 43.7 25.05 Q43.7 24.05 43.95 23.0 L44.25 21.9 44.3 21.9 44.3 21.85 44.95 20.3 46.25 17.3 47.6 14.25 48.35 12.6 48.45 11.9 48.0 10.55 Q47.7 9.95 46.9 9.8 L45.6 9.5 44.75 9.4 Q44.4 9.15 44.4 8.65 L44.4 8.55 Q44.4 8.1 44.65 7.85 44.95 7.6 45.35 7.6 45.5 7.4 45.65 7.4 L45.9 7.35 46.75 6.55 46.95 6.35 47.6 5.2 47.85 4.1 47.7 3.3 47.55 2.3 47.55 2.15 Q47.7 1.65 48.0 1.6 L48.7 1.5 49.35 1.7 49.9 1.8 50.25 1.7 50.65 1.5 51.2 1.35 51.6 1.2 52.0 1.1 52.15 1.1 52.15 0.15 52.45 0.15 53.9 0.3 54.15 0.6 54.25 0.9 54.3 1.4 56.7 1.4 58.7 1.35 61.5 1.35 63.0 1.35 63.6 1.4 63.7 1.4 64.05 1.8 83.4 1.8 83.4 1.75 83.5 1.55 83.7 1.4 83.85 1.3 84.05 1.0 Q84.45 0.65 85.15 0.75 L85.9 0.85 86.1 0.95 86.25 1.1 M61.85 10.35 L61.25 10.4 61.15 10.45 61.0 10.45 60.1 10.9 Q59.6 11.2 59.45 11.7 L59.3 12.55 Q59.3 13.3 59.5 13.5 L59.5 13.55 59.6 13.55 60.35 14.3 60.5 14.35 Q61.0 14.7 62.2 15.0 L64.8 15.1 Q68.25 14.65 68.45 13.35 L68.6 12.65 68.25 11.45 Q67.9 10.8 66.95 10.35 L65.0 10.35 63.25 10.35 61.85 10.35 M42.5 1.0 Q42.9 1.05 43.0 1.45 L43.1 2.15 43.45 3.35 43.35 3.95 43.25 4.5 43.25 4.7 43.2 5.35 43.1 6.65 43.0 7.95 42.95 8.7 42.95 9.05 39.95 9.05 39.85 9.25 39.7 9.45 39.6 9.5 39.0 9.55 37.6 9.6 34.95 9.6 33.3 9.55 31.85 9.5 30.4 9.5 29.75 9.6 Q28.95 9.75 28.25 10.2 L26.95 11.4 26.4 12.4 26.3 13.45 26.4 14.05 26.45 14.85 26.1 15.2 26.1 15.3 25.35 15.6 24.05 16.0 22.75 16.35 22.2 16.5 20.4 16.6 17.1 16.15 Q16.1 16.0 15.55 16.15 L14.7 16.6 14.3 17.15 12.25 24.05 12.25 24.35 12.25 25.2 12.4 26.9 12.55 27.75 Q12.55 29.05 12.0 29.6 L11.5 29.9 11.25 29.95 4.2 29.95 3.4 29.6 2.95 29.05 2.85 28.15 2.85 27.5 1.05 27.3 0.95 27.25 0.3 26.9 0.25 26.7 0.15 26.5 0.15 26.1 0.1 25.4 0.05 25.15 0.0 24.85 0.25 22.85 0.5 21.7 0.5 21.6 1.05 20.5 1.2 20.15 2.55 17.1 3.9 14.0 4.65 12.45 4.75 11.75 Q4.75 11.1 4.35 10.4 4.05 9.8 3.3 9.65 L1.9 9.4 1.1 9.25 1.05 9.2 Q0.75 8.85 0.75 8.5 L0.75 8.45 0.95 7.75 1.05 7.65 Q1.35 7.4 1.75 7.4 L2.0 7.3 2.25 7.25 3.1 6.45 3.25 6.2 3.9 5.05 4.2 4.0 4.05 3.2 3.95 2.2 3.95 2.0 Q4.05 1.55 4.3 1.45 L5.0 1.4 5.7 1.6 6.3 1.7 7.0 1.4 7.5 1.2 7.95 1.05 8.4 1.0 8.45 1.0 8.45 0.0 8.8 0.0 10.2 0.15 Q10.45 0.2 10.45 0.35 L10.6 1.25 11.55 1.25 13.05 1.2 15.05 1.1 17.85 1.15 19.3 1.2 19.85 1.2 20.05 1.25 20.35 1.7 39.8 1.7 39.8 1.6 40.0 1.25 40.15 1.1 40.4 0.85 Q40.75 0.45 41.45 0.55 L42.3 0.75 42.4 0.8 42.5 1.0 M23.25 10.15 L21.3 10.15 19.55 10.15 18.15 10.2 17.55 10.2 17.3 10.3 16.4 10.7 Q15.9 11.05 15.75 11.5 15.6 11.8 15.6 12.35 L15.8 13.3 15.9 13.4 16.15 13.65 16.65 14.15 16.85 14.2 Q17.3 14.5 18.5 14.8 L21.05 14.9 Q24.5 14.35 24.8 13.2 L24.9 12.45 Q24.9 11.9 24.55 11.3 24.2 10.65 23.25 10.15" fill="#ffffff" fill-rule="evenodd" stroke="none"/>
    </g>
  </defs>
</svg>
