<?xml version="1.0" encoding="UTF-8" standalone="no"?>
<svg xmlns:xlink="http://www.w3.org/1999/xlink" height="34.6px" width="99.05px" xmlns="http://www.w3.org/2000/svg">
  <g transform="matrix(1.0, 0.0, 0.0, 1.0, -1.0, 2.2)">
    <use height="34.6" transform="matrix(1.0, 0.0, 0.0, 1.0, 1.0, -2.2)" width="99.05" xlink:href="#shape0"/>
  </g>
  <defs>
    <g id="shape0" transform="matrix(1.0, 0.0, 0.0, 1.0, -1.0, 2.2)">
      <path d="M30.3 -0.5 L30.35 -0.55 30.35 -0.6 30.4 -0.6 30.45 -0.65 30.45 -0.7 30.55 -0.7 30.55 -0.8 30.6 -0.8 30.65 -0.85 30.65 -1.05 30.7 -1.1 30.7 -1.75 30.7 -1.85 30.7 -2.05 31.2 -2.05 31.2 -2.2 31.9 -2.2 31.9 -2.15 31.9 -1.9 31.9 -1.7 31.9 -1.45 31.9 -1.25 31.9 -1.0 31.9 -0.8 31.9 -0.55 31.9 -0.3 31.9 -0.15 32.4 -0.15 33.1 -0.15 33.1 -0.5 33.8 -0.5 33.8 -0.3 33.85 -0.25 33.85 -0.1 34.2 -0.1 34.2 -0.15 34.2 -0.25 34.2 -0.35 34.2 -0.45 34.2 -0.55 34.2 -0.65 34.2 -0.75 34.2 -0.85 34.3 -0.85 34.3 -0.9 35.25 -0.9 35.25 -0.95 35.95 -0.95 35.95 -0.8 35.95 -0.55 35.95 -0.45 35.95 -0.35 35.95 -0.25 35.95 -0.15 35.95 -0.1 41.1 -0.1 41.1 -0.6 41.15 -0.6 44.5 -0.6 44.5 -0.7 44.5 -0.8 44.5 -0.85 44.5 -0.95 44.5 -1.05 44.5 -1.15 44.5 -1.25 44.5 -1.3 45.2 -1.3 45.2 -0.75 45.25 -0.7 45.25 -0.5 45.75 -0.5 45.75 0.4 45.65 0.45 45.65 0.55 45.6 0.55 45.6 0.75 45.55 0.8 45.55 0.85 45.5 0.9 45.5 1.0 45.45 1.0 45.45 1.05 45.4 1.1 45.4 1.2 45.35 1.25 45.35 1.3 45.3 1.35 45.3 1.45 45.25 1.45 45.25 1.5 45.2 1.55 45.15 1.65 45.1 1.7 45.05 1.75 45.05 1.9 45.0 1.95 45.0 2.0 44.95 2.0 44.95 2.15 44.9 2.15 44.9 2.25 44.85 2.25 44.85 2.35 44.8 2.4 44.8 2.45 44.75 2.45 44.75 2.5 44.7 2.55 44.7 2.7 44.65 2.7 44.65 2.75 44.6 2.8 44.6 2.95 44.55 3.0 44.55 3.05 44.5 3.05 44.5 3.15 44.45 3.15 44.45 3.25 44.4 3.25 44.4 3.3 44.35 3.35 44.35 3.5 44.3 3.5 44.3 3.55 44.25 3.55 44.25 3.65 44.2 3.7 44.15 3.7 44.15 3.85 44.1 3.85 44.1 3.95 44.05 3.95 44.05 4.15 44.0 4.15 43.95 4.2 43.95 4.25 43.9 4.3 43.85 4.4 43.8 4.45 43.8 4.5 43.75 4.55 43.75 4.6 43.7 4.6 43.7 4.75 45.4 4.75 45.4 5.2 49.1 5.2 52.2 5.2 52.2 5.65 81.5 5.65 81.5 5.9 81.9 5.9 81.9 5.6 82.25 5.6 82.25 5.4 82.25 5.1 82.25 4.8 82.25 4.5 82.25 4.25 82.25 3.95 82.25 3.65 82.25 3.35 82.25 3.05 82.25 2.75 82.25 2.45 82.25 2.2 82.25 1.9 82.25 1.6 82.25 1.3 82.25 1.0 82.25 0.7 82.25 0.45 82.25 0.3 82.55 0.3 82.95 0.3 83.25 0.3 83.3 0.3 83.3 0.35 83.45 0.35 83.5 0.4 83.5 0.75 83.8 0.75 83.85 0.75 83.95 0.8 83.95 1.35 83.95 1.65 83.95 1.7 83.95 1.9 84.3 1.9 84.3 2.3 84.4 2.3 84.4 2.35 84.4 2.65 84.4 2.9 84.4 3.25 84.4 3.5 84.4 3.8 84.4 4.1 84.4 4.4 84.4 4.7 84.4 4.95 84.4 5.2 84.8 5.2 85.15 5.25 85.2 5.25 85.3 5.25 85.3 5.3 85.3 5.5 85.3 5.65 85.3 5.85 85.3 6.1 85.3 6.25 85.3 6.35 85.55 6.35 85.55 6.45 87.6 6.45 87.6 6.65 87.7 6.65 87.7 7.35 86.7 7.35 86.7 7.65 86.6 7.7 86.6 7.75 87.6 7.75 87.6 8.45 85.3 8.45 85.3 8.6 94.95 8.6 94.95 8.25 99.85 8.25 99.95 8.25 99.95 9.15 99.95 9.3 99.95 9.4 99.95 9.95 99.95 10.05 99.95 10.2 99.95 10.25 99.95 10.35 99.95 10.45 99.95 10.6 100.05 10.6 100.05 11.3 99.7 11.3 99.3 11.3 94.05 11.3 94.05 11.35 93.35 11.35 93.3 11.3 93.25 11.3 93.25 10.85 84.65 10.85 84.65 11.35 84.5 11.35 84.5 11.65 84.1 11.65 84.1 11.7 84.0 11.75 84.0 11.85 84.0 12.0 84.0 12.1 84.0 12.25 84.0 12.35 84.0 12.5 84.0 12.6 84.0 12.75 84.0 12.85 84.0 13.0 84.0 13.15 84.0 13.25 84.0 13.35 84.0 13.5 84.0 13.65 84.0 13.8 84.0 13.9 84.0 14.05 84.0 14.15 83.3 14.15 83.3 14.1 83.2 14.1 82.55 14.05 82.35 14.05 82.25 14.0 82.25 13.2 82.35 13.15 82.35 13.0 82.35 12.9 82.35 12.75 82.35 12.6 82.35 12.5 82.35 12.35 82.35 12.25 82.35 12.1 82.35 12.0 82.35 11.85 82.35 11.7 82.05 11.7 81.9 11.65 81.9 11.35 81.5 11.35 81.45 11.35 81.4 11.4 81.4 11.65 81.4 11.75 81.4 11.8 81.4 11.9 81.4 12.0 81.4 12.1 81.4 12.15 81.4 12.25 81.4 12.35 81.4 12.45 81.4 12.6 81.4 12.7 81.4 12.8 81.4 12.9 81.4 12.95 81.35 12.95 81.35 13.1 80.7 13.1 80.7 13.15 80.65 13.15 80.65 13.25 80.6 13.25 80.6 13.35 80.5 13.45 80.5 13.5 80.45 13.55 80.45 13.6 80.45 13.7 80.45 13.8 80.45 13.95 80.45 14.05 80.45 14.2 80.45 14.3 80.45 14.45 79.9 14.45 79.85 14.5 79.8 14.5 79.8 14.6 79.75 14.6 79.75 14.85 78.9 14.85 78.85 14.8 58.2 14.75 58.2 14.95 57.4 14.95 57.4 14.85 57.35 14.85 57.35 14.75 57.3 14.7 57.25 14.65 57.25 14.6 57.2 14.6 57.2 14.5 57.15 14.45 49.75 14.4 49.7 14.4 49.65 14.45 49.6 14.5 49.5 14.5 49.45 14.55 49.35 14.6 49.25 14.6 49.2 14.65 49.15 14.7 49.1 14.7 49.0 14.75 48.95 14.8 48.9 14.85 48.8 14.85 48.8 14.9 48.7 14.95 48.6 15.0 48.55 15.05 48.45 15.1 48.4 15.15 48.35 15.15 48.25 15.2 48.2 15.25 48.15 15.3 48.1 15.3 48.05 15.35 48.0 15.4 47.95 15.4 47.9 15.45 47.85 15.5 47.8 15.5 47.75 15.55 47.7 15.6 47.7 15.65 47.7 15.85 47.7 16.05 47.7 16.2 47.7 16.4 47.7 16.65 47.7 16.8 47.7 17.0 47.7 17.1 48.1 17.1 48.1 17.8 47.35 17.85 47.3 17.85 47.3 19.25 47.35 19.25 47.35 19.7 47.4 19.7 47.4 20.15 47.45 20.2 47.45 20.55 47.5 20.6 47.5 20.95 47.55 20.95 47.55 21.5 47.6 21.55 47.65 21.6 47.65 22.1 47.7 22.15 47.7 22.2 47.75 22.25 47.75 22.5 47.8 22.55 47.8 22.7 47.85 22.75 47.85 22.8 47.9 22.85 47.9 23.1 47.95 23.15 48.0 23.2 48.0 23.45 48.05 23.45 48.05 23.5 48.1 23.55 48.1 23.7 48.15 23.75 48.15 23.8 48.2 23.85 48.2 23.9 48.25 23.9 48.25 24.25 48.35 24.3 48.35 24.5 48.4 24.55 48.4 24.7 48.45 24.7 48.45 24.8 48.5 24.9 48.5 24.95 48.55 24.95 48.55 25.15 48.6 25.15 48.6 25.25 48.7 25.35 48.7 25.55 48.75 25.6 48.8 25.65 48.8 25.8 48.85 25.85 48.85 25.95 48.9 25.95 48.9 26.2 48.95 26.2 48.95 26.3 49.0 26.4 49.0 26.5 49.05 26.55 49.05 26.65 49.1 26.7 49.1 26.75 49.15 26.75 49.15 26.9 49.2 26.95 49.25 27.0 49.25 27.15 49.3 27.2 49.3 27.3 49.35 27.35 49.4 27.45 49.4 27.55 49.45 27.6 49.45 27.65 49.5 27.7 49.5 27.8 49.55 27.85 49.55 27.9 49.6 27.9 49.6 28.1 49.65 28.15 49.65 28.25 49.7 28.3 49.7 28.35 49.75 28.4 49.75 28.45 49.8 28.45 49.8 28.65 49.9 28.7 49.9 28.75 49.95 28.8 49.95 28.95 50.0 29.0 50.0 29.05 50.05 29.1 50.05 29.15 50.1 29.15 50.15 29.2 50.15 29.25 50.25 29.3 50.3 29.35 50.3 30.05 50.25 30.05 50.25 30.15 50.0 30.15 50.0 30.25 49.7 30.3 49.65 30.3 49.55 30.35 49.4 30.4 49.35 30.4 49.25 30.45 49.2 30.5 49.05 30.5 48.9 30.55 48.8 30.6 48.75 30.6 48.65 30.7 48.55 30.7 48.5 30.7 48.35 30.75 48.35 30.8 48.25 30.85 48.15 30.85 48.1 30.9 48.05 30.9 47.95 30.95 47.9 30.95 47.8 31.0 47.7 31.05 47.65 31.05 47.55 31.05 47.45 31.1 47.4 31.15 47.3 31.15 47.15 31.2 47.0 31.25 46.85 31.3 46.8 31.3 46.7 31.35 46.65 31.35 46.55 31.4 46.5 31.4 46.4 31.45 46.3 31.5 46.2 31.5 46.1 31.55 45.95 31.6 45.85 31.6 45.8 31.65 45.7 31.7 45.65 31.7 45.6 31.75 45.45 31.75 45.15 31.8 45.15 31.85 45.05 31.85 45.05 31.9 44.85 31.95 44.7 31.95 44.7 32.0 44.6 32.05 44.5 32.1 44.35 32.1 44.25 32.15 44.25 32.2 44.15 32.2 44.05 32.25 43.9 32.3 43.6 32.3 43.6 32.35 43.45 32.4 43.4 32.4 43.3 32.4 42.45 32.4 42.45 32.05 42.4 32.05 42.35 32.0 42.35 31.8 42.3 31.75 42.25 31.7 42.25 31.5 42.2 31.45 42.2 31.25 42.15 31.25 42.15 31.05 42.1 31.05 42.1 30.7 42.0 30.7 42.0 30.4 41.95 30.4 41.95 30.25 41.9 30.25 41.9 30.15 41.85 30.1 41.85 30.05 41.8 30.0 41.8 29.9 41.75 29.9 41.75 29.7 41.65 29.6 41.65 29.35 41.6 29.35 41.6 29.25 41.55 29.2 41.55 29.1 41.5 29.05 41.5 28.95 41.45 28.9 41.45 28.8 41.4 28.75 41.4 28.45 41.3 28.45 41.3 28.1 41.25 28.05 41.25 27.95 41.2 27.9 41.2 27.7 41.15 27.65 41.15 27.55 41.1 27.55 41.1 27.25 41.05 27.2 41.05 27.1 41.0 27.1 40.95 27.05 40.95 26.85 40.9 26.85 40.9 26.7 40.85 26.65 40.85 26.45 40.8 26.4 40.8 26.35 40.75 26.3 40.75 26.1 40.7 26.05 40.7 25.95 40.65 25.9 40.65 25.8 40.6 25.75 40.6 25.65 40.55 25.6 40.55 25.45 40.5 25.4 40.5 25.3 40.45 25.25 40.45 25.15 40.4 25.15 40.4 24.95 40.35 24.9 40.35 24.75 40.3 24.7 40.3 24.6 40.25 24.6 40.25 24.5 40.2 24.45 40.2 24.3 40.15 24.25 40.15 24.15 40.1 24.1 40.1 23.9 40.05 23.9 40.05 23.55 40.0 23.5 40.0 23.35 39.95 23.3 39.95 23.2 39.9 23.15 39.9 23.0 39.85 23.0 39.85 22.6 39.8 22.55 39.75 22.55 39.75 22.25 39.7 22.2 39.7 21.8 39.65 21.75 39.65 21.5 39.6 21.45 39.6 21.2 39.55 21.2 39.55 21.0 39.5 20.95 39.5 20.5 39.45 20.45 39.45 20.4 39.4 20.4 39.4 19.95 39.35 19.95 39.35 19.6 39.3 19.6 39.3 19.45 39.25 19.4 39.25 19.15 39.2 19.1 39.2 18.95 39.15 18.9 31.65 18.9 31.35 18.9 31.35 19.15 31.3 19.2 31.3 19.25 31.2 19.25 31.2 19.35 31.15 19.4 31.15 19.5 31.1 19.55 31.05 19.6 31.0 19.65 31.0 19.9 30.95 19.95 30.85 19.95 30.85 20.1 30.8 20.15 30.8 20.2 30.7 20.3 30.7 20.4 30.65 20.45 30.65 20.6 30.6 20.6 30.6 20.65 30.55 20.7 30.55 20.75 30.5 20.8 30.5 20.85 30.45 20.9 30.45 20.95 30.4 20.95 30.4 21.0 30.35 21.05 30.3 21.1 30.3 21.25 30.2 21.35 30.2 21.4 30.15 21.4 30.15 21.5 30.1 21.55 30.1 21.6 29.95 21.7 29.95 21.8 29.85 21.85 29.85 22.0 29.8 22.0 29.8 22.05 29.75 22.05 29.75 22.1 29.7 22.15 29.65 22.2 29.65 22.3 29.6 22.35 29.6 22.4 29.55 22.45 29.5 22.5 29.5 22.55 29.45 22.55 29.4 22.6 29.4 22.7 29.35 22.75 29.3 22.8 29.25 22.9 29.25 22.95 29.2 23.0 29.2 23.05 29.15 23.1 29.1 23.1 29.1 23.15 29.05 23.2 29.05 23.35 28.95 23.35 28.95 23.45 28.9 23.5 28.9 23.55 28.85 23.6 28.85 23.7 28.8 23.7 28.8 23.75 28.75 23.8 28.7 23.8 28.7 24.0 28.65 24.05 28.6 24.1 28.6 24.2 28.55 24.25 28.55 24.3 28.5 24.35 28.5 24.45 28.45 24.5 28.45 24.6 28.4 24.65 28.4 24.8 28.35 24.85 28.35 25.05 28.25 25.1 28.25 25.45 28.2 25.5 28.2 25.6 28.15 25.6 28.15 26.25 28.1 26.3 28.1 26.35 27.35 26.35 27.35 26.3 27.3 26.25 27.25 26.2 27.15 26.2 27.05 26.15 27.05 26.1 27.0 26.1 27.0 26.05 26.85 26.05 26.75 26.0 26.65 25.95 26.55 25.95 26.55 25.9 26.45 25.85 26.35 25.85 26.25 25.8 26.25 25.75 26.1 25.75 26.1 25.7 26.0 25.7 25.95 25.65 25.85 25.6 25.75 25.6 25.65 25.55 25.65 25.5 25.5 25.5 25.35 25.45 25.25 25.35 25.1 25.35 25.05 25.3 25.0 25.3 24.95 25.25 24.85 25.2 24.8 25.15 24.75 25.15 24.65 25.1 24.5 25.05 24.4 25.0 24.35 24.95 24.25 24.95 24.2 24.9 24.15 24.85 24.1 24.85 24.1 24.8 23.95 24.8 23.85 24.75 23.75 24.7 23.7 24.65 23.55 24.65 23.5 24.6 23.4 24.6 23.4 24.55 23.25 24.55 23.25 24.5 23.2 24.5 23.05 24.45 22.95 24.4 22.95 24.35 22.85 24.35 22.8 24.35 22.75 24.3 22.65 24.25 22.5 24.25 22.5 24.2 22.4 24.15 22.35 24.15 22.15 24.1 22.1 24.05 22.0 24.0 22.0 23.95 21.9 23.95 21.8 23.9 21.7 23.9 21.7 23.85 21.65 23.85 21.6 23.8 21.6 23.75 21.45 23.75 21.45 23.6 21.4 23.6 21.4 22.8 21.45 22.8 21.45 22.65 21.5 22.6 21.5 22.45 21.55 22.45 21.55 22.25 21.6 22.2 21.65 22.2 21.7 22.15 21.7 22.05 21.75 22.0 21.75 21.95 21.8 21.9 21.85 21.85 21.85 21.8 21.9 21.75 21.9 21.65 21.95 21.65 21.95 21.6 22.0 21.6 22.0 21.55 22.05 21.5 22.05 21.4 22.1 21.4 22.1 21.35 22.15 21.3 22.15 21.25 22.3 21.1 22.3 21.05 22.35 21.05 22.35 20.95 22.45 20.85 22.5 20.85 22.55 20.8 22.55 20.75 22.65 20.65 22.7 20.6 22.7 20.55 22.75 20.5 22.8 20.45 22.85 20.4 22.95 20.35 22.95 20.3 23.0 20.25 23.05 20.2 23.05 20.15 23.1 20.1 23.1 20.05 23.15 20.05 23.15 20.0 23.25 19.95 23.25 19.9 23.3 19.85 23.35 19.85 23.4 19.75 23.45 19.7 23.5 19.65 23.55 19.6 23.55 19.55 23.6 19.5 23.65 19.45 23.7 19.4 23.75 19.35 23.75 19.3 23.85 19.25 23.85 19.2 23.9 19.15 23.95 19.1 23.95 19.05 24.0 19.05 24.0 18.95 24.05 18.9 24.1 18.9 24.1 18.85 24.15 18.8 24.2 18.8 24.25 18.75 24.25 18.7 24.4 18.55 24.4 18.5 24.45 18.45 24.5 18.4 24.55 18.35 24.6 18.35 24.7 18.25 24.75 18.2 24.75 18.15 24.8 18.1 24.85 18.05 24.85 18.0 24.9 18.0 24.9 17.95 24.95 17.95 24.95 17.9 25.0 17.85 25.05 17.8 25.1 17.75 25.1 17.7 25.15 17.65 25.2 17.6 25.2 17.5 25.25 17.45 25.3 17.45 25.3 17.35 25.35 17.35 25.35 17.25 25.4 17.2 25.45 17.15 25.45 17.05 25.5 17.0 25.55 16.95 25.55 16.75 25.65 16.7 25.65 16.45 25.7 16.4 25.7 15.95 25.65 15.95 25.65 15.7 25.55 15.65 25.55 15.5 25.5 15.5 25.5 15.45 25.45 15.4 25.45 15.35 25.4 15.35 25.2 15.15 25.15 15.1 25.1 15.05 25.1 15.0 25.05 15.0 24.95 14.95 24.9 14.95 24.8 14.9 24.75 14.85 24.7 14.85 24.55 14.8 24.45 14.75 24.15 14.7 24.1 14.7 24.1 14.65 24.0 14.65 23.85 14.6 23.75 14.6 23.65 14.55 23.65 14.5 23.6 14.5 23.45 14.5 23.25 14.45 23.1 14.4 22.7 14.4 22.7 14.2 22.45 14.2 22.45 14.15 22.45 14.05 22.45 13.95 22.45 13.8 22.45 13.7 22.45 13.55 22.45 13.4 22.45 13.3 22.45 13.25 22.45 13.1 22.45 12.95 22.45 12.8 22.45 12.7 22.45 12.55 22.45 12.45 22.45 12.3 22.45 12.2 22.45 12.15 21.9 12.15 21.9 12.25 21.55 12.25 21.55 12.35 21.55 12.55 21.55 12.7 21.55 12.85 21.55 13.0 21.55 13.2 21.55 13.35 21.55 13.5 21.55 13.7 21.55 13.8 21.55 13.95 21.6 14.0 21.6 14.7 21.35 14.7 21.35 14.85 18.05 14.85 18.05 15.85 17.95 15.85 17.95 16.15 17.25 16.15 17.25 16.1 17.15 16.1 17.15 16.15 16.9 16.2 16.5 16.2 15.85 16.2 15.85 16.25 15.8 16.3 15.8 16.75 15.7 16.75 15.7 17.05 15.65 17.1 15.65 17.25 15.2 17.3 13.95 17.3 13.95 17.2 13.95 17.1 13.95 17.0 13.95 16.9 13.95 16.85 13.95 16.75 13.9 16.75 13.85 16.8 13.75 16.9 13.7 16.95 13.65 17.0 13.45 17.0 13.4 17.1 13.3 17.15 13.15 17.2 13.1 17.3 13.05 17.35 12.85 17.35 12.75 17.45 12.7 17.5 12.6 17.55 12.6 17.65 12.5 17.7 12.35 17.75 12.25 17.8 12.25 17.9 12.1 17.95 12.05 18.0 11.95 18.1 11.9 18.15 11.8 18.25 11.65 18.25 11.6 18.35 11.55 18.4 11.4 18.45 11.35 18.55 11.25 18.6 11.2 18.7 11.15 18.75 11.0 18.8 11.0 18.85 10.9 18.9 10.8 19.0 10.8 19.05 10.7 19.15 10.7 19.2 10.55 19.35 10.55 19.45 9.15 19.45 9.15 19.35 9.15 18.35 9.15 18.25 9.15 18.0 9.15 17.9 9.15 17.8 9.15 17.75 9.15 17.6 9.05 17.6 9.0 17.65 8.8 17.7 8.8 17.8 8.8 17.85 8.6 17.9 8.5 17.95 8.45 18.0 8.3 18.05 8.2 18.1 8.2 18.2 8.05 18.25 7.95 18.3 7.9 18.35 7.85 18.4 7.85 18.45 7.75 18.45 7.75 18.55 7.7 18.6 7.55 18.65 7.5 18.7 7.4 18.8 7.35 18.85 7.35 18.9 7.25 18.9 7.2 19.0 7.2 19.05 7.15 19.05 7.05 19.1 7.0 19.15 6.95 19.25 6.85 19.35 6.8 19.45 6.7 19.5 6.65 19.55 6.55 19.6 6.5 19.7 6.45 19.75 6.35 19.85 6.35 19.9 6.25 20.0 6.2 20.05 6.15 20.15 6.1 20.2 6.05 20.3 5.95 20.35 5.95 20.4 5.9 20.5 5.8 20.5 5.8 20.6 5.7 20.65 5.65 20.75 5.6 20.8 5.55 20.85 5.55 20.95 5.5 20.95 5.35 21.0 5.35 21.05 5.3 21.15 5.25 21.2 5.25 21.3 5.25 21.35 5.1 21.4 5.1 21.45 5.0 21.55 5.0 21.6 4.95 21.65 4.9 21.75 4.9 21.85 4.8 21.9 4.8 22.0 4.75 22.05 4.7 22.1 4.65 22.2 4.6 22.25 4.6 22.3 4.55 22.4 4.55 22.5 4.45 22.55 4.45 22.65 4.45 22.7 4.4 22.8 4.4 22.95 4.3 23.0 4.3 23.1 4.3 23.2 4.3 23.3 3.95 23.3 2.9 23.25 2.5 23.25 2.4 23.2 2.4 23.1 2.35 23.0 2.3 22.95 2.3 22.9 2.3 22.8 2.3 22.75 2.3 22.65 2.3 22.5 2.2 22.45 2.2 22.35 2.2 22.3 2.2 22.2 2.2 22.1 2.15 22.05 2.15 22.0 2.15 21.9 2.15 21.85 2.15 21.75 2.15 21.7 2.05 21.65 2.05 21.55 2.05 21.45 2.05 21.4 2.05 21.3 2.05 21.25 2.0 21.2 1.95 21.1 1.95 20.95 1.95 20.85 1.85 20.85 1.85 20.75 1.85 20.6 1.85 20.5 1.85 20.4 1.85 20.3 1.85 20.25 1.8 20.15 1.8 20.05 1.8 19.95 1.8 19.85 1.8 19.8 1.75 19.7 1.7 19.65 1.7 19.5 1.7 19.4 1.7 19.35 1.7 19.25 1.65 19.2 1.65 19.15 1.6 19.1 1.6 19.05 1.6 18.95 1.6 18.9 1.6 18.8 1.6 18.7 1.6 18.6 1.6 18.5 1.6 18.45 1.6 18.35 1.6 18.25 1.6 18.15 1.6 18.1 1.5 18.05 1.5 18.0 1.5 17.9 1.5 17.8 1.5 17.7 1.5 17.65 1.5 17.55 1.5 17.45 1.45 17.4 1.45 17.35 1.45 17.25 1.45 17.2 1.45 17.1 1.45 16.9 1.45 16.8 1.45 16.75 1.4 16.65 1.4 16.6 1.35 16.55 1.35 16.5 1.35 16.4 1.35 16.3 1.35 16.2 1.35 16.1 1.35 16.0 1.3 15.95 1.3 15.9 1.25 15.85 1.25 15.75 1.25 15.65 1.25 15.55 1.25 15.4 1.25 15.3 1.25 15.25 1.25 15.15 1.25 15.05 1.25 14.95 1.15 14.95 1.15 14.85 1.15 14.8 1.15 14.7 1.15 14.6 1.15 14.5 1.15 14.35 1.15 14.25 1.15 14.15 1.1 14.05 1.1 13.9 1.1 13.8 1.1 13.7 1.1 13.6 1.1 13.55 1.1 13.45 1.1 13.25 1.1 13.15 1.1 13.1 1.1 13.0 1.1 12.8 1.1 12.7 1.1 12.65 1.1 12.5 1.1 12.45 1.1 12.35 1.05 12.25 1.0 12.2 1.0 12.1 1.0 12.0 1.0 11.85 1.0 11.75 1.0 11.6 1.0 11.45 1.0 11.3 1.0 11.2 1.0 11.1 1.0 10.95 1.0 10.8 1.0 10.65 1.0 10.5 1.0 10.35 1.0 10.25 1.0 10.1 1.0 9.95 1.0 9.85 1.0 9.75 1.0 9.6 1.0 9.45 1.0 9.3 1.0 9.2 1.0 9.05 1.05 9.0 1.1 8.95 1.1 8.85 1.1 8.8 1.1 8.7 1.1 8.6 1.1 8.5 1.1 8.4 1.1 8.35 1.1 8.25 1.1 8.05 1.1 7.95 1.1 7.9 1.15 7.8 1.15 7.65 1.15 7.55 1.15 7.45 1.15 7.35 1.15 7.25 1.15 7.15 1.15 7.0 1.25 6.95 1.25 6.9 2.75 6.95 2.75 7.05 2.85 7.05 2.85 7.1 2.9 7.15 2.9 7.9 23.55 7.9 23.6 7.85 23.65 7.8 23.7 7.8 23.75 7.75 23.75 7.7 23.85 7.7 23.85 7.65 23.9 7.55 23.95 7.55 24.0 7.45 24.05 7.45 24.1 7.4 24.2 7.35 24.2 7.3 24.3 7.25 24.35 7.2 24.4 7.2 24.4 7.15 24.45 7.1 24.5 7.1 24.5 7.05 24.6 6.95 24.65 6.9 24.7 6.85 24.75 6.8 24.85 6.7 24.9 6.65 24.95 6.65 25.0 6.6 25.0 6.55 25.1 6.5 25.15 6.45 25.2 6.45 25.45 6.2 25.45 6.15 25.5 6.15 25.55 6.1 25.6 6.1 25.65 6.05 25.65 6.0 25.75 5.95 25.85 5.9 25.95 5.85 26.05 5.75 26.2 5.75 26.2 5.3 26.3 5.25 26.3 5.1 27.0 5.1 27.0 5.2 34.3 5.2 34.3 4.75 34.25 4.7 34.25 4.65 34.2 4.6 34.2 3.85 33.85 3.85 33.85 4.35 33.8 4.4 33.1 4.4 33.1 4.2 33.05 4.15 33.05 3.85 31.05 3.85 31.05 4.3 31.0 4.3 31.0 4.4 30.3 4.4 30.3 4.05 30.2 4.05 30.2 4.0 30.2 3.75 30.2 3.55 30.2 3.3 30.2 3.05 30.2 2.85 30.2 2.6 30.2 2.4 30.2 2.15 30.2 1.95 30.2 1.7 30.2 1.45 30.2 1.25 30.2 1.0 30.2 0.8 30.2 0.55 30.2 0.35 30.2 0.1 30.2 -0.1 30.2 -0.3 30.3 -0.3 30.3 -0.5 M47.7 14.4 L47.7 14.45 47.75 14.4 47.7 14.4 M37.9 15.45 L37.85 15.4 37.8 15.35 34.65 15.35 34.65 15.4 34.6 15.5 34.55 15.5 34.55 15.65 34.5 15.7 34.5 15.9 34.45 15.95 34.45 16.1 34.4 16.1 34.4 16.3 34.35 16.35 34.35 17.1 34.4 17.1 34.4 17.2 34.45 17.25 34.45 17.35 34.5 17.35 34.5 17.55 34.55 17.55 34.55 18.2 37.4 18.2 37.4 17.9 37.45 17.9 37.45 17.85 37.5 17.8 37.55 17.8 37.65 17.7 37.7 17.7 37.7 17.65 37.8 17.6 37.85 17.55 37.95 17.45 38.1 17.45 38.15 17.4 38.2 17.35 38.3 17.25 38.35 17.2 38.45 17.15 38.45 17.1 38.55 17.1 38.55 17.05 38.6 17.0 38.7 17.0 38.7 16.85 38.7 16.7 38.7 16.55 38.7 16.45 38.7 16.3 38.7 16.2 38.7 16.1 38.65 16.05 38.6 16.0 38.55 15.95 38.45 15.9 38.35 15.85 38.35 15.8 38.3 15.75 38.25 15.75 38.15 15.7 38.15 15.6 38.05 15.55 38.0 15.5 37.95 15.45 37.9 15.45 M32.55 16.1 L32.5 16.05 32.45 16.0 32.45 15.95 32.1 15.95 32.1 16.1 32.1 16.3 32.1 16.45 32.1 16.6 32.1 16.75 32.1 16.95 32.1 17.1 32.1 17.25 32.1 17.45 32.15 17.5 32.2 17.55 32.25 17.55 32.25 17.65 32.3 17.65 32.3 17.7 32.35 17.75 32.35 17.8 32.45 17.8 32.45 17.85 32.55 17.9 32.6 17.9 32.6 17.95 32.7 18.0 32.75 18.0 32.75 18.05 32.8 18.05 32.9 18.1 32.9 18.2 33.6 18.2 33.6 18.1 33.5 18.1 33.5 18.0 33.45 17.95 33.45 17.9 33.4 17.9 33.4 17.85 33.35 17.8 33.3 17.8 33.3 17.7 33.25 17.65 33.25 17.55 33.15 17.5 33.15 17.35 33.1 17.35 33.1 17.2 33.05 17.15 33.05 17.05 32.95 16.95 32.95 16.9 32.9 16.9 32.9 16.85 32.85 16.8 32.8 16.75 32.8 16.65 32.75 16.6 32.75 16.55 32.7 16.55 32.7 16.45 32.65 16.4 32.65 16.3 32.6 16.3 32.6 16.25 32.55 16.2 32.55 16.1" fill="#ffffff" fill-rule="evenodd" stroke="none"/>
    </g>
  </defs>
</svg>
