<?xml version="1.0" encoding="UTF-8" standalone="no"?>
<svg xmlns:xlink="http://www.w3.org/1999/xlink" height="41.45px" width="99.7px" xmlns="http://www.w3.org/2000/svg">
  <g transform="matrix(1.0, 0.0, 0.0, 1.0, 0.0, 0.0)">
    <use height="41.45" transform="matrix(1.0, 0.0, 0.0, 1.0, 0.0, 0.0)" width="99.7" xlink:href="#shape0"/>
  </g>
  <defs>
    <g id="shape0" transform="matrix(1.0, 0.0, 0.0, 1.0, 0.0, 0.0)">
      <path d="M48.55 18.15 L48.25 18.4 Q47.9 18.8 47.9 19.4 L48.0 20.4 47.8 20.7 46.8 20.75 46.15 20.7 45.9 21.3 44.7 21.3 44.35 21.4 44.05 21.7 41.6 26.2 Q41.1 27.15 41.5 27.85 41.8 28.4 42.3 28.55 L45.7 28.55 Q47.55 28.35 48.55 27.6 49.25 27.0 53.45 20.1 53.7 19.65 52.8 18.15 L48.55 18.15 M95.5 10.15 L96.1 10.2 96.8 9.9 99.25 9.9 99.5 10.35 99.7 11.5 99.5 12.65 99.15 13.1 96.95 13.1 96.5 12.95 96.05 12.9 95.45 13.0 95.15 13.1 93.75 13.1 93.55 12.95 91.35 12.95 91.15 12.75 90.1 12.75 Q90.0 13.1 89.65 13.1 L87.6 13.1 87.2 12.95 87.05 12.85 72.6 13.2 71.8 14.05 71.45 14.05 71.2 13.75 70.85 13.75 70.65 14.05 67.65 14.05 67.25 17.1 Q67.2 17.6 66.6 17.8 L66.95 18.15 67.75 18.25 Q68.55 18.4 68.5 18.9 68.2 20.55 68.35 21.35 L68.4 23.65 68.4 26.25 Q68.5 27.8 69.55 29.55 69.75 29.9 68.85 30.25 L66.95 30.6 64.75 30.2 63.5 29.85 Q63.45 27.65 63.75 25.8 L64.45 23.35 Q64.85 22.15 64.7 21.6 L64.35 20.35 63.95 19.45 Q63.8 19.05 64.7 18.55 L65.6 18.1 61.85 17.9 57.5 18.1 Q56.05 19.05 53.7 22.35 L50.5 27.15 Q49.4 28.75 48.4 29.25 L45.55 29.75 40.6 30.0 37.1 30.05 Q36.6 30.05 36.45 29.75 L36.35 28.7 Q36.45 26.55 36.9 25.6 L37.85 23.85 Q38.6 22.5 38.9 22.25 L39.9 21.35 Q40.65 20.45 40.65 19.15 40.65 17.7 39.4 17.45 L36.6 17.55 33.55 17.75 Q32.05 17.85 31.85 18.25 31.45 18.85 30.45 19.2 L30.35 21.0 Q30.6 23.75 31.9 28.25 33.9 35.35 35.55 37.5 36.25 38.4 35.4 38.85 L31.75 40.15 28.05 41.45 Q27.45 41.6 27.55 39.65 L26.4 37.2 Q25.15 33.9 24.2 30.05 23.3 26.2 22.9 22.65 L22.7 19.9 21.2 19.85 18.95 21.65 Q18.8 21.8 18.45 21.35 18.1 20.95 18.0 21.0 16.8 21.45 14.4 23.05 11.65 25.0 11.35 26.05 L11.0 27.25 11.55 27.85 12.1 28.7 Q12.1 29.35 11.7 29.7 11.35 30.05 10.7 30.05 L4.85 30.05 Q4.3 30.05 3.75 29.6 3.1 29.0 2.75 28.0 L1.2 21.55 Q0.05 16.15 0.0 14.95 -0.05 13.7 0.15 13.15 L0.8 12.2 2.4 10.9 Q3.6 10.1 4.25 10.1 L35.7 9.45 35.7 9.1 36.5 8.5 37.7 7.7 39.1 7.45 41.0 7.5 41.0 4.95 40.25 4.95 Q40.3 5.5 39.5 5.5 L38.9 5.25 38.8 4.95 37.05 4.95 36.8 5.2 36.2 5.2 Q35.75 4.55 35.75 3.0 35.75 1.5 36.15 1.35 L36.6 1.35 36.9 1.55 38.6 1.5 38.7 1.15 Q38.85 0.85 39.4 0.85 40.05 0.85 40.05 1.45 L40.55 1.4 40.55 0.55 41.5 0.4 42.55 0.5 42.55 1.1 46.5 0.55 51.25 0.0 52.8 0.0 53.5 0.55 54.2 0.55 54.2 0.25 54.75 0.25 54.75 0.45 55.75 0.45 55.75 5.35 54.75 5.4 54.75 5.6 54.25 5.6 54.25 5.3 51.75 5.3 52.15 5.9 52.8 5.9 Q53.5 6.0 53.55 6.25 L53.75 7.2 55.4 7.2 55.4 7.0 56.15 7.0 56.15 7.2 57.85 7.2 57.85 7.0 58.6 7.0 58.6 7.2 60.3 7.2 60.3 7.0 61.0 7.0 61.0 7.2 62.75 7.2 62.75 7.0 63.45 7.0 63.45 7.2 65.2 7.2 65.2 7.0 65.9 7.0 65.9 7.2 67.25 7.2 70.8 8.95 70.8 10.1 71.7 10.6 87.2 10.6 87.45 10.45 87.85 10.2 89.7 10.2 90.15 10.6 91.05 10.6 91.5 10.35 93.45 10.45 93.5 10.25 Q93.65 10.05 93.9 10.05 L95.15 10.05 95.5 10.15" fill="#ffffff" fill-rule="evenodd" stroke="none"/>
    </g>
  </defs>
</svg>
