<?xml version="1.0" encoding="UTF-8" standalone="no"?>
<svg xmlns:xlink="http://www.w3.org/1999/xlink" height="37.7px" width="132.8px" xmlns="http://www.w3.org/2000/svg">
  <g transform="matrix(1.0, 0.0, 0.0, 1.0, 0.0, 4.8)">
    <use height="37.7" transform="matrix(1.0, 0.0, 0.0, 1.0, 0.0, -4.8)" width="132.8" xlink:href="#shape0"/>
  </g>
  <defs>
    <g id="shape0" transform="matrix(1.0, 0.0, 0.0, 1.0, 0.0, 4.8)">
      <path d="M75.65 -3.7 L76.9 -3.7 77.5 -3.5 Q77.65 -3.2 77.95 -3.15 L78.4 -3.15 78.5 -2.95 78.85 -2.9 79.2 -2.95 79.8 -2.9 80.5 -2.6 81.15 -2.25 81.5 -2.05 81.8 -2.0 82.15 -1.85 82.6 -1.85 82.95 -1.8 83.55 -1.5 84.15 -1.3 84.4 -1.15 84.55 -1.15 84.8 -0.4 85.05 0.4 85.15 1.25 85.1 1.95 84.95 2.65 Q84.55 3.95 84.15 4.3 L83.75 4.95 83.55 5.05 83.3 5.1 96.6 5.1 96.75 5.45 97.05 5.9 99.15 6.3 101.35 6.85 103.2 7.2 104.25 7.35 Q104.7 7.35 104.8 6.5 L104.9 5.8 105.9 3.8 105.9 3.35 105.95 2.55 106.1 1.45 107.7 1.45 107.7 6.95 107.65 7.35 107.65 7.45 108.05 7.6 109.85 7.75 113.95 7.7 119.2 7.65 124.4 7.6 126.0 7.55 127.3 7.55 128.25 7.6 129.35 7.6 130.5 7.45 132.0 7.45 Q132.35 7.45 132.35 7.6 L132.8 9.95 132.35 10.35 131.1 10.5 128.65 10.4 126.3 10.3 125.0 10.2 108.3 10.2 107.7 10.35 107.7 11.05 109.95 11.05 110.75 11.9 110.75 14.25 109.7 14.25 109.3 14.05 109.1 13.9 108.9 13.85 108.55 13.9 108.0 13.9 107.2 14.0 99.5 14.25 96.55 14.5 95.15 14.55 94.5 15.5 Q94.05 16.15 93.15 16.15 92.35 16.15 91.3 14.9 L90.7 14.75 90.25 14.55 90.4 15.8 90.4 16.75 90.35 17.8 90.1 18.3 89.3 18.3 88.5 18.0 86.75 17.95 82.9 17.95 78.15 18.0 74.8 18.0 74.95 18.55 Q75.55 20.85 75.55 22.2 L75.55 31.6 75.3 32.9 74.6 32.8 63.75 32.8 62.8 32.65 Q62.5 32.5 62.5 31.85 L62.4 15.75 62.5 15.35 Q62.4 15.0 61.85 14.95 L61.7 14.95 61.35 15.35 Q61.15 15.35 61.15 15.7 L61.2 16.35 61.35 16.75 61.15 17.1 60.8 17.25 60.95 17.9 61.0 18.65 60.8 20.1 59.7 20.95 58.1 21.4 56.4 21.4 55.0 21.2 54.45 20.95 54.05 20.85 53.55 20.6 53.15 21.8 52.25 24.05 51.4 26.3 51.05 27.35 51.35 27.9 51.4 28.4 51.15 28.85 50.6 29.7 Q50.05 30.15 48.5 29.7 L46.8 29.2 45.15 28.55 43.35 27.85 43.0 27.85 43.2 27.55 44.6 25.15 46.15 22.6 47.35 20.55 47.85 19.55 47.8 18.55 Q47.55 17.85 47.05 17.6 L46.4 17.25 45.9 17.0 36.0 16.3 27.55 16.3 22.0 16.85 Q18.8 17.45 18.5 18.3 18.3 18.75 18.4 19.65 18.55 20.75 19.15 21.55 19.75 22.3 19.5 22.6 L19.15 22.75 1.6 23.55 Q0.9 23.55 0.45 22.85 0.0 22.15 0.0 21.15 L0.0 6.65 0.8 6.1 3.45 6.2 13.2 7.55 Q14.05 7.6 15.15 8.9 16.25 10.15 17.35 10.3 L20.35 10.2 23.45 9.75 29.05 8.25 33.1 6.5 Q36.35 5.1 40.15 5.05 L40.8 4.95 43.6 4.55 45.7 4.45 45.7 4.05 46.2 2.7 46.65 1.8 Q47.0 1.4 47.55 1.2 L48.95 1.1 50.55 1.45 52.1 1.8 53.55 2.3 53.85 2.65 54.1 3.05 54.2 3.8 54.2 4.45 62.25 4.45 62.25 3.8 66.5 3.8 66.5 4.45 67.75 4.5 69.45 4.5 71.0 4.55 71.75 4.65 73.0 4.55 75.65 4.4 78.85 4.15 82.0 3.8 82.45 3.4 82.95 2.9 83.4 1.75 82.5 1.15 82.0 0.9 81.4 0.65 80.25 0.3 79.05 0.05 78.85 0.05 77.65 -0.2 76.7 -0.4 75.9 -0.65 75.4 -1.15 75.4 -1.2 74.35 -1.2 73.5 -1.15 73.0 -1.2 Q72.55 -1.75 72.45 -2.4 72.3 -3.0 73.3 -4.65 L73.3 -4.8 73.4 -4.8 75.05 -4.25 75.65 -3.7 M59.25 17.45 L55.75 17.5 Q55.45 17.9 55.45 18.3 55.45 18.95 55.9 19.35 56.3 19.75 57.0 19.75 L58.3 19.75 Q58.7 19.75 59.1 19.35 59.5 18.95 59.5 18.3 L59.25 17.45" fill="#ffffff" fill-rule="evenodd" stroke="none"/>
    </g>
  </defs>
</svg>
