<?xml version="1.0" encoding="UTF-8" standalone="no"?>
<svg xmlns:xlink="http://www.w3.org/1999/xlink" height="34.25px" width="117.5px" xmlns="http://www.w3.org/2000/svg">
  <g transform="matrix(1.0, 0.0, 0.0, 1.0, 0.0, 0.0)">
    <use height="34.25" transform="matrix(1.0, 0.0, 0.0, 1.0, 0.0, 0.0)" width="117.5" xlink:href="#shape0"/>
  </g>
  <defs>
    <g id="shape0" transform="matrix(1.0, 0.0, 0.0, 1.0, 0.0, 0.0)">
      <path d="M115.0 0.0 L115.0 5.4 116.9 5.6 117.25 6.4 117.5 7.0 117.25 7.5 116.4 7.8 115.85 7.65 115.25 7.65 114.4 9.15 112.8 8.5 99.35 8.5 98.65 9.35 97.85 8.75 88.25 8.75 88.1 9.6 73.0 9.6 71.2 10.55 69.9 11.25 68.95 11.45 68.0 11.3 Q67.7 11.25 67.6 11.05 L66.9 10.6 60.05 10.6 Q60.05 13.15 61.2 15.85 62.2 18.2 64.35 21.05 66.55 23.95 70.65 26.85 L69.75 28.0 68.1 30.6 65.85 34.25 Q62.85 32.2 60.15 29.35 57.8 26.9 55.3 23.2 52.8 19.6 51.15 14.6 L50.6 14.65 50.2 15.0 48.7 14.75 Q47.55 15.4 46.3 15.65 L43.95 15.8 Q42.55 15.65 41.25 14.6 L40.3 15.35 38.45 17.3 Q37.4 18.55 36.5 20.1 35.55 21.55 35.2 23.05 L34.3 23.45 32.3 23.9 Q31.2 23.95 30.2 23.4 29.25 22.8 29.0 21.0 L29.75 19.4 31.2 16.65 32.7 13.9 33.6 12.7 32.75 12.1 Q32.15 11.5 31.45 11.65 L30.45 12.0 28.2 12.75 25.2 13.85 21.8 15.05 12.85 18.35 1.0 22.25 0.0 8.1 Q0.8 7.5 1.85 7.2 L4.05 6.65 6.6 6.7 8.8 6.65 13.7 6.25 20.95 5.8 22.35 6.25 24.45 6.7 25.7 6.4 27.85 5.85 30.65 5.0 35.2 1.1 35.6 1.5 63.4 1.5 63.7 1.25 Q63.85 1.1 64.25 1.0 L65.45 0.9 86.85 1.1 88.05 1.5 89.05 1.8 89.95 2.1 98.9 2.1 100.25 3.75 101.45 5.0 102.4 5.6 110.25 5.6 110.85 5.4 111.7 3.5 112.35 2.05 Q112.6 1.3 112.8 1.1 L112.95 0.35 112.95 0.0 115.0 0.0 M46.65 11.2 L43.95 11.25 Q43.15 11.2 42.55 11.7 42.05 12.25 42.05 13.05 42.05 13.7 42.55 14.2 43.15 14.7 43.95 14.7 L46.65 14.7 Q47.4 14.7 47.85 14.2 L48.3 13.05 Q48.3 12.25 47.85 11.7 47.4 11.2 46.65 11.2" fill="#ffffff" fill-rule="evenodd" stroke="none"/>
    </g>
  </defs>
</svg>
