<?xml version="1.0" encoding="UTF-8" standalone="no"?>
<svg xmlns:xlink="http://www.w3.org/1999/xlink" height="34.1px" width="44.7px" xmlns="http://www.w3.org/2000/svg">
  <g transform="matrix(1.0, 0.0, 0.0, 1.0, -0.25, -0.5)">
    <use height="34.1" transform="matrix(1.0, 0.0, 0.0, 1.0, 0.25, 0.5)" width="44.7" xlink:href="#shape0"/>
  </g>
  <defs>
    <g id="shape0" transform="matrix(1.0, 0.0, 0.0, 1.0, -0.25, -0.5)">
      <path d="M44.45 1.15 L44.45 1.25 44.45 1.35 44.45 1.5 44.45 1.6 44.95 1.6 44.95 1.7 44.95 2.25 44.95 2.75 44.95 3.3 44.95 3.8 44.95 4.35 44.95 4.85 44.95 5.4 44.95 5.9 44.95 6.45 44.95 6.95 44.95 7.5 44.95 8.0 44.95 8.55 44.95 9.05 44.95 9.55 44.95 9.95 44.95 10.1 44.95 10.25 44.95 10.6 44.95 10.75 44.95 10.9 44.95 11.0 44.95 11.15 44.95 11.3 44.95 11.4 44.95 11.5 44.95 11.55 44.95 11.65 32.8 11.65 32.75 11.7 32.75 11.75 32.75 11.85 32.65 11.9 32.5 12.0 32.45 12.05 32.45 12.1 32.3 12.15 32.25 12.25 32.2 12.25 32.1 12.35 32.05 12.4 32.05 12.45 31.95 12.5 31.85 12.5 31.85 12.7 31.85 13.15 31.85 13.6 31.85 14.05 31.85 14.5 31.85 14.95 31.85 15.4 31.85 15.9 31.85 16.35 31.85 16.8 31.85 17.25 31.85 17.35 32.1 17.35 32.1 17.45 32.1 17.55 32.1 17.65 32.1 17.75 32.1 17.8 32.1 17.9 32.1 18.0 32.1 18.1 32.1 18.2 32.05 18.2 32.05 18.25 32.05 18.35 32.05 18.45 32.05 18.55 32.05 18.6 32.05 18.7 32.05 18.8 17.2 18.8 17.2 18.95 17.2 19.1 17.15 19.2 17.05 19.35 17.05 19.5 17.05 19.65 17.05 19.75 17.05 19.85 17.05 20.0 17.05 20.15 17.0 20.25 16.85 20.4 16.85 20.55 16.85 20.65 16.85 20.8 16.85 20.9 16.85 21.05 16.8 21.2 16.7 21.3 16.7 21.45 16.7 21.6 16.7 21.7 16.7 21.8 16.7 21.95 16.7 22.1 16.5 22.25 16.5 22.35 16.5 22.5 16.5 22.65 16.5 22.75 16.5 22.85 Q16.45 22.85 16.35 22.95 L16.35 23.05 16.35 23.2 16.35 23.35 16.35 23.45 16.3 23.55 16.15 23.7 16.15 23.85 16.15 24.0 16.1 24.1 16.0 24.25 16.0 24.35 16.0 24.5 15.95 24.6 15.8 24.75 15.8 24.9 15.8 25.05 15.75 25.15 15.65 25.3 15.65 25.4 15.65 25.55 15.65 25.65 15.45 25.75 15.4 25.85 15.3 26.0 15.3 26.1 15.3 26.25 15.3 26.35 15.3 26.5 15.1 26.6 15.1 26.7 15.1 26.85 15.1 27.0 14.95 27.15 14.95 27.25 14.95 27.35 14.95 27.5 14.75 27.65 14.75 27.75 14.75 27.9 14.75 28.05 14.7 28.2 14.6 28.3 14.6 28.4 14.6 28.55 14.6 28.7 14.6 28.75 14.4 28.9 14.4 29.0 14.4 29.1 14.4 29.25 14.4 29.4 14.4 29.45 14.25 29.55 14.25 29.7 14.25 29.8 14.25 29.95 14.25 30.1 14.25 30.2 14.25 30.3 14.25 30.35 14.05 30.45 14.05 30.55 14.05 30.7 14.05 30.85 14.05 30.95 14.05 31.05 14.05 31.2 14.05 31.35 14.05 31.5 14.05 31.6 14.05 31.75 14.05 31.9 14.05 32.0 14.05 32.1 14.05 32.25 14.1 32.25 14.15 32.3 14.15 32.55 14.2 32.6 14.2 32.75 14.25 32.8 14.25 32.85 14.3 32.9 14.3 32.95 14.35 33.0 14.35 33.05 14.4 33.1 14.4 33.3 14.5 33.35 14.5 33.4 14.55 33.45 14.55 33.5 14.6 33.5 14.6 33.55 14.65 33.6 14.7 33.6 14.7 33.65 14.75 33.7 14.75 33.75 14.85 33.75 14.85 33.8 14.95 33.85 15.05 33.85 15.05 33.9 15.1 33.95 15.2 33.95 15.35 33.95 15.35 34.0 15.4 34.0 15.4 34.05 15.55 34.05 15.55 34.1 15.65 34.1 15.7 34.15 15.7 34.55 15.05 34.55 14.75 34.55 14.75 34.5 14.65 34.5 14.6 34.55 14.05 34.55 13.7 34.6 12.45 34.6 12.2 34.55 12.2 34.4 12.15 34.4 11.8 34.4 11.6 34.35 11.6 34.15 11.15 34.15 10.65 34.1 10.65 34.0 10.2 33.95 9.7 33.9 9.7 33.85 9.65 33.85 9.5 33.85 9.4 33.85 8.15 33.8 8.15 33.7 7.05 33.6 6.95 33.5 6.35 33.45 6.25 33.35 5.65 33.25 5.55 33.15 4.95 33.1 4.85 33.0 4.3 32.9 4.3 32.8 3.9 32.75 3.8 32.65 3.55 32.55 3.25 32.55 3.25 32.45 3.25 32.3 3.25 32.2 3.25 32.05 3.25 31.9 3.25 31.8 0.45 31.8 0.45 31.75 0.45 31.65 0.45 31.55 0.25 31.55 0.25 31.4 0.25 31.25 0.25 31.15 0.25 31.0 0.25 30.85 0.25 30.7 0.25 30.6 0.25 30.5 0.25 30.35 0.25 30.2 0.25 30.1 0.25 29.95 0.25 29.8 0.25 29.7 0.25 29.55 0.25 29.45 0.25 29.3 0.25 29.15 0.25 29.05 0.25 28.9 0.25 28.75 0.25 28.65 0.25 28.55 0.25 28.4 0.25 28.3 0.25 28.25 0.45 28.2 0.45 28.05 0.45 27.9 0.45 27.75 0.45 27.65 0.45 27.5 0.45 27.35 0.45 27.25 0.55 27.15 0.6 27.0 0.6 26.85 0.6 26.7 0.6 26.6 0.6 26.5 0.8 26.45 0.8 26.3 0.8 26.15 0.8 26.0 0.8 25.9 0.8 25.75 0.8 25.65 0.8 25.5 Q0.9 25.4 0.95 25.4 L0.95 25.25 0.95 25.1 0.95 24.95 0.95 24.85 0.95 24.75 1.15 24.7 1.15 24.55 1.15 24.4 1.15 24.25 1.15 24.15 1.15 24.05 1.3 24.0 1.3 23.85 1.3 23.7 1.3 23.55 1.5 23.45 1.5 23.35 1.5 23.2 1.5 23.05 1.65 22.95 1.65 22.8 1.65 22.65 1.8 22.5 1.85 22.4 1.85 22.3 2.0 22.25 2.0 22.1 2.0 21.95 2.15 21.8 2.2 21.7 2.2 21.6 2.2 21.5 2.2 21.45 2.35 21.35 2.35 21.25 2.35 21.1 2.35 20.95 2.55 20.85 2.55 20.7 2.55 20.55 2.7 20.45 2.7 20.3 2.75 20.2 2.85 20.05 2.9 19.9 3.0 19.8 3.05 19.65 3.05 19.5 3.05 19.4 3.25 19.3 3.25 19.15 3.25 19.0 3.4 18.85 3.4 18.75 3.4 18.6 3.4 18.45 3.55 18.35 3.6 18.25 3.6 18.15 3.75 18.05 3.75 17.9 3.75 17.8 3.95 17.7 3.95 17.55 4.1 17.45 4.1 17.3 4.2 17.2 4.3 17.05 4.3 16.9 4.3 16.75 4.4 16.65 4.45 16.5 4.45 16.4 4.6 16.25 4.65 16.15 4.65 16.0 4.8 15.85 4.8 15.7 4.8 15.6 4.8 15.5 5.0 15.45 5.0 15.3 5.0 15.15 5.0 15.0 5.15 14.9 5.15 14.75 5.15 14.65 5.15 14.5 5.15 14.4 5.15 14.25 5.15 14.15 5.15 14.1 5.35 14.05 5.35 13.9 5.35 13.75 5.35 13.6 5.15 13.55 5.15 13.4 5.15 13.35 5.15 13.25 4.95 13.2 4.8 13.05 4.8 12.9 4.75 12.8 4.45 12.7 4.45 12.6 4.25 12.5 4.1 12.35 4.1 12.25 3.9 12.15 3.8 12.05 3.6 12.0 3.6 11.9 3.4 11.8 3.4 11.7 3.05 11.65 3.05 11.55 2.85 11.45 2.75 11.35 2.55 11.3 2.55 11.2 2.0 11.1 1.9 11.0 1.65 10.95 1.65 10.85 0.95 10.75 0.95 10.6 0.95 10.5 0.95 10.4 0.45 10.4 0.45 10.25 0.45 10.15 0.45 10.05 0.45 9.9 0.45 9.75 0.45 9.6 0.45 9.5 0.45 9.35 0.45 9.2 0.45 9.1 0.45 9.0 0.45 8.85 0.45 8.7 0.45 8.55 0.6 8.45 0.6 8.3 0.6 8.2 0.6 8.05 0.6 7.95 0.6 7.8 0.6 7.65 0.6 7.5 0.6 7.4 0.6 7.3 1.15 7.25 1.15 7.1 1.15 6.95 1.15 6.8 1.15 6.7 1.15 6.55 1.15 6.45 1.15 6.3 1.15 6.2 1.15 6.05 1.15 5.9 1.15 5.75 1.3 5.65 1.3 5.55 1.3 5.4 1.45 5.25 1.5 5.15 1.5 5.0 1.5 4.9 1.5 4.85 1.65 4.8 1.65 4.65 1.65 4.5 1.65 4.35 1.85 4.25 1.85 4.15 1.85 4.0 2.0 3.9 2.0 3.8 2.0 3.7 2.0 3.65 2.2 3.55 2.2 3.45 2.35 3.4 2.35 3.25 2.35 3.15 2.35 3.1 2.55 3.05 2.55 2.95 2.7 2.85 2.7 2.75 2.7 2.65 2.7 2.6 2.9 2.5 2.9 2.4 3.05 2.35 3.05 2.25 3.25 2.15 3.25 2.05 3.4 2.0 3.4 1.9 3.6 1.85 3.6 1.75 3.6 1.65 3.6 1.5 3.6 1.35 5.0 1.4 5.0 1.3 5.0 1.15 5.0 1.0 5.0 0.9 5.0 0.8 5.0 0.65 5.0 0.55 5.0 0.5 22.1 0.55 22.1 0.65 22.1 0.8 22.1 0.95 22.1 1.05 22.8 1.05 22.8 1.15 22.95 1.25 22.95 1.35 22.95 1.5 22.95 1.65 22.95 1.75 22.95 1.9 22.95 2.05 22.95 2.1 29.25 2.1 29.25 2.05 29.25 1.95 29.25 1.85 29.25 1.7 29.25 1.55 29.25 1.4 29.25 1.3 29.25 1.15 29.25 1.0 29.25 0.9 29.25 0.8 29.25 0.65 29.25 0.55 29.25 0.5 42.0 0.55 42.0 0.5 43.15 0.55 43.55 0.55 44.25 0.55 44.25 0.65 44.45 0.7 44.45 0.85 44.45 1.0 44.45 1.15 M21.05 12.1 L21.05 12.2 20.8 12.3 20.65 12.4 20.5 12.55 20.5 12.7 20.35 12.8 20.35 12.9 20.35 13.05 20.15 13.15 20.15 13.25 20.15 13.4 20.0 13.5 20.0 13.6 20.0 13.75 20.0 13.9 19.9 14.05 19.8 14.15 19.8 14.3 19.8 14.45 19.75 14.55 19.65 14.65 19.65 14.8 19.65 14.95 19.6 15.1 19.65 15.2 19.65 15.35 19.65 15.45 19.75 15.6 19.8 15.7 19.8 15.85 19.95 16.0 20.0 16.15 20.05 16.25 20.15 16.4 20.15 16.5 20.15 16.65 20.15 16.75 20.15 16.9 20.15 17.05 20.15 17.2 20.15 17.3 20.15 17.45 20.15 17.55 20.15 17.7 20.15 17.8 20.15 17.95 30.1 17.95 30.1 17.8 30.1 17.7 30.1 17.65 30.1 17.55 30.1 17.3 30.9 17.35 30.9 17.3 30.9 17.2 30.9 17.15 31.0 17.1 31.0 17.05 31.0 16.65 31.0 16.3 31.0 15.9 31.0 15.45 31.0 15.1 31.0 14.7 31.0 14.3 31.0 13.9 31.0 13.5 31.0 13.15 31.0 12.75 31.0 12.6 30.55 12.6 30.55 12.55 30.55 12.45 30.45 12.4 30.45 12.35 30.35 12.35 30.3 12.25 30.3 12.2 30.25 12.15 30.25 12.1 30.1 12.1 30.1 12.0 30.0 12.0 29.95 11.9 29.85 11.85 29.75 11.8 29.6 11.75 29.6 11.65 29.55 11.65 24.2 11.65 24.2 11.75 24.2 11.8 24.2 11.9 24.2 12.0 24.2 12.15 24.0 12.25 24.0 12.4 24.0 12.55 24.0 12.7 24.0 12.8 24.0 12.9 24.0 13.05 24.0 13.2 24.0 13.4 24.0 13.45 24.0 13.6 24.0 13.75 24.0 13.85 24.0 13.95 24.0 14.1 24.0 14.25 24.0 14.35 24.0 14.45 24.05 14.55 24.1 14.6 24.15 14.65 24.2 14.7 24.25 14.75 24.25 14.85 24.35 14.9 24.45 15.0 24.45 15.05 24.5 15.1 24.55 15.2 24.6 15.25 24.7 15.25 24.7 15.35 24.8 15.4 24.85 15.45 24.95 15.5 24.95 15.6 25.05 15.6 25.15 15.7 25.15 15.75 25.25 15.8 25.45 15.85 25.45 15.95 25.65 15.95 25.8 16.05 25.8 16.1 26.05 16.15 26.3 16.2 26.3 16.3 27.0 16.3 27.0 16.4 27.0 16.5 27.0 16.6 27.0 16.7 27.0 16.75 27.0 16.85 27.0 16.95 27.0 17.05 27.0 17.15 25.4 17.15 25.4 17.1 25.2 17.05 24.95 16.95 24.95 16.9 24.8 16.85 24.6 16.8 24.6 16.75 24.45 16.7 24.25 16.6 24.25 16.55 24.2 16.5 24.1 16.45 24.1 16.4 23.95 16.3 23.85 16.25 23.85 16.15 23.75 16.1 23.65 16.05 23.6 15.95 23.55 15.9 23.5 15.8 23.4 15.75 23.4 15.7 23.3 15.6 23.3 15.55 23.2 15.45 23.15 15.4 23.15 15.35 23.05 15.3 23.05 15.25 22.95 15.15 22.95 15.1 22.85 15.05 22.85 15.0 22.85 14.9 22.6 14.9 22.6 14.8 22.55 14.75 22.5 14.65 22.5 14.45 22.5 14.35 22.5 14.3 22.5 14.2 22.5 14.1 22.5 14.0 22.5 13.85 22.5 13.75 22.6 13.7 22.6 13.6 22.6 13.45 22.6 13.25 22.6 13.05 22.6 12.85 22.6 12.65 22.6 12.45 22.6 12.25 22.6 12.05 22.6 11.9 22.6 11.65 21.75 11.65 21.75 11.7 21.75 11.8 21.75 11.85 21.2 11.95 21.2 12.0 21.05 12.1 M8.85 33.7 L8.85 33.65 8.5 33.6 8.6 33.65 8.85 33.7" fill="#ffffff" fill-rule="evenodd" stroke="none"/>
    </g>
  </defs>
</svg>
