<?xml version="1.0" encoding="UTF-8" standalone="no"?>
<svg xmlns:xlink="http://www.w3.org/1999/xlink" height="33.5px" width="59.75px" xmlns="http://www.w3.org/2000/svg">
  <g transform="matrix(1.0, 0.0, 0.0, 1.0, 0.0, 0.0)">
    <use height="33.5" transform="matrix(1.0, 0.0, 0.0, 1.0, 0.0, 0.0)" width="59.75" xlink:href="#shape0"/>
  </g>
  <defs>
    <g id="shape0" transform="matrix(1.0, 0.0, 0.0, 1.0, 0.0, 0.0)">
      <path d="M59.1 1.65 L59.3 1.65 59.6 1.7 59.55 2.9 59.75 4.55 59.45 5.6 59.15 6.55 58.85 7.65 58.25 9.55 57.9 10.5 57.65 10.8 57.5 10.9 34.45 10.9 33.75 11.05 32.2 12.15 Q31.45 12.9 30.8 14.35 30.05 15.75 30.05 18.25 L30.05 18.8 29.95 18.8 28.95 19.05 26.75 19.35 24.0 19.5 21.4 19.05 20.5 19.7 Q19.9 20.35 19.85 21.1 L19.55 22.95 18.95 26.0 18.45 28.95 18.1 30.45 18.9 32.7 18.75 32.7 13.95 33.25 9.4 33.5 4.65 33.25 4.3 33.2 3.7 32.7 Q3.4 32.2 3.4 30.9 L3.55 28.85 Q3.75 27.65 4.3 26.05 L5.6 22.2 7.75 17.15 7.75 16.95 7.8 16.6 7.85 15.95 Q7.85 14.95 7.4 13.9 7.0 12.9 5.35 12.6 L4.5 12.55 2.75 12.45 1.0 12.4 0.15 12.4 0.0 12.25 0.0 12.1 Q0.0 11.85 0.15 11.75 0.3 11.2 1.2 10.65 2.05 10.1 4.3 9.55 L4.65 8.95 4.95 7.65 4.9 7.15 4.65 6.5 4.3 6.1 3.55 4.65 3.55 3.7 4.5 3.45 4.75 3.6 5.05 3.8 6.75 3.8 6.95 3.4 7.15 3.05 8.65 1.7 8.95 1.6 9.3 1.4 9.3 0.65 9.35 0.0 11.2 0.0 12.5 1.3 14.7 1.25 15.45 0.85 24.5 0.8 24.75 1.15 25.1 1.4 36.85 1.6 37.0 1.7 37.2 1.8 37.85 1.8 37.9 1.65 37.95 1.5 38.15 1.3 51.35 1.4 51.4 1.65 51.45 1.9 51.45 2.05 52.15 2.05 52.25 1.7 52.45 1.5 55.05 1.5 55.5 1.25 56.2 0.8 Q56.55 0.55 56.95 0.45 L57.5 0.3 57.9 0.7 58.05 1.3 58.6 1.5 59.0 1.6 59.1 1.65 M27.4 11.65 L23.5 11.65 Q23.0 11.65 22.65 11.95 22.35 12.3 22.35 12.8 L22.35 16.45 22.65 17.3 23.5 17.6 27.4 17.6 Q27.9 17.6 28.25 17.3 L28.65 16.45 28.65 12.8 Q28.65 12.3 28.25 11.95 27.9 11.65 27.4 11.65" fill="#ffffff" fill-rule="evenodd" stroke="none"/>
    </g>
  </defs>
</svg>
