<?xml version="1.0" encoding="UTF-8" standalone="no"?>
<svg xmlns:xlink="http://www.w3.org/1999/xlink" height="31.1px" width="57.25px" xmlns="http://www.w3.org/2000/svg">
  <g transform="matrix(1.0, 0.0, 0.0, 1.0, -4.0, -0.65)">
    <use height="31.1" transform="matrix(1.0, 0.0, 0.0, 1.0, 4.0, 0.65)" width="57.25" xlink:href="#shape0"/>
  </g>
  <defs>
    <g id="shape0" transform="matrix(1.0, 0.0, 0.0, 1.0, -4.0, -0.65)">
      <path d="M61.25 6.05 L60.65 7.5 60.65 10.2 57.85 10.2 57.85 9.85 57.2 9.85 57.2 10.25 52.95 10.25 52.95 9.8 48.65 9.75 47.9 10.05 41.45 10.05 40.75 10.15 Q40.0 10.3 39.6 10.6 L39.55 10.65 38.85 11.25 Q38.5 11.7 38.45 12.25 L38.4 13.95 38.4 15.0 36.95 14.95 36.9 14.95 35.65 14.95 34.8 15.05 Q34.15 15.2 33.85 15.45 L33.45 16.0 33.3 16.2 Q33.1 16.6 33.0 17.3 L32.75 18.3 32.05 19.4 Q31.25 20.2 30.05 20.65 L29.85 20.75 27.45 21.3 25.45 21.35 25.0 21.25 24.05 20.7 23.65 20.3 23.45 20.1 23.15 20.4 22.65 20.3 22.0 20.2 21.45 20.15 20.4 20.0 19.05 20.05 Q18.4 20.35 18.0 20.75 17.55 21.2 17.5 21.75 17.45 22.5 17.9 23.1 L18.2 23.55 18.25 23.9 18.05 24.2 17.65 24.5 Q17.1 25.0 17.05 25.6 16.9 26.4 17.35 27.05 L17.6 27.5 17.65 27.9 17.45 28.2 16.95 28.45 16.0 29.15 15.6 30.05 15.2 30.8 12.85 31.5 9.5 31.75 6.2 31.35 Q4.25 30.85 4.05 29.95 3.95 29.6 4.25 29.0 L4.4 28.75 4.8 27.95 5.25 27.0 5.75 25.6 6.45 23.7 Q7.35 21.2 8.0 19.95 L10.3 16.25 12.45 12.95 12.95 11.85 12.95 10.85 12.95 10.0 13.15 9.15 Q13.45 8.65 14.75 8.4 L15.7 8.25 16.05 8.25 16.5 7.85 Q17.05 7.45 17.5 7.3 L18.45 6.95 18.95 6.85 18.65 6.1 17.8 5.1 16.55 4.75 16.3 4.7 15.4 4.65 15.35 4.4 16.3 4.35 17.85 4.35 18.85 4.9 18.95 4.95 Q19.4 5.3 19.6 5.3 19.85 5.3 20.4 4.55 L20.9 3.9 22.05 3.95 22.5 2.9 22.4 2.85 22.25 2.7 Q22.0 2.4 22.15 2.0 L22.45 1.65 22.55 1.6 22.75 1.6 22.85 1.1 23.45 1.2 23.4 1.65 25.15 1.65 25.7 2.0 28.4 2.0 28.4 1.3 29.1 0.65 30.1 0.7 30.1 1.2 31.0 1.2 31.0 0.7 32.05 0.7 32.05 1.2 32.95 1.2 32.95 0.65 34.0 0.65 34.0 1.2 34.95 1.2 34.95 0.65 35.85 0.65 35.85 1.2 36.9 1.2 36.9 0.7 37.8 0.7 37.8 1.2 38.8 1.2 38.8 0.65 39.75 0.65 39.75 1.2 40.75 1.2 40.75 0.65 41.75 0.65 41.75 1.2 42.7 1.2 42.7 0.65 43.6 0.65 43.6 1.2 44.6 1.2 44.6 0.7 45.5 0.7 45.5 1.15 46.5 1.15 46.5 0.7 47.2 0.7 47.7 0.85 48.65 1.2 50.45 2.1 56.3 2.1 56.3 1.2 59.15 1.2 59.35 1.25 59.75 1.5 59.9 1.95 59.85 2.2 61.25 3.35 61.25 6.05 M29.2 14.2 L28.35 14.2 28.4 14.5 28.7 14.75 28.3 15.55 27.95 16.1 27.85 16.15 27.35 16.85 27.35 17.85 27.95 18.75 29.0 19.55 29.55 19.85 29.4 20.15 28.55 19.85 27.0 18.85 Q26.6 18.4 26.35 17.6 L26.15 16.8 26.4 16.6 26.45 16.0 26.0 15.95 25.1 15.8 24.55 15.4 24.35 15.15 24.15 15.3 23.8 15.8 Q23.25 16.55 23.25 17.25 L23.25 17.45 Q23.3 18.15 23.5 18.75 L24.0 19.85 24.85 20.45 26.4 20.75 28.45 20.6 29.55 20.35 29.95 20.2 30.45 19.95 31.15 19.5 32.15 18.5 32.45 17.55 32.45 16.3 32.45 16.25 Q32.4 15.65 31.8 15.2 L30.7 14.45 29.2 14.2" fill="#ffffff" fill-rule="evenodd" stroke="none"/>
    </g>
  </defs>
</svg>
