<?xml version="1.0" encoding="UTF-8" standalone="no"?>
<svg xmlns:xlink="http://www.w3.org/1999/xlink" height="29.25px" width="139.35px" xmlns="http://www.w3.org/2000/svg">
  <g transform="matrix(1.0, 0.0, 0.0, 1.0, 0.2, -7.2)">
    <use height="29.25" transform="matrix(1.0, 0.0, 0.0, 1.0, -0.2, 7.2)" width="139.35" xlink:href="#shape0"/>
  </g>
  <defs>
    <g id="shape0" transform="matrix(1.0, 0.0, 0.0, 1.0, 0.2, -7.2)">
      <path d="M135.75 9.2 L138.05 9.2 138.3 9.25 138.4 9.3 138.45 9.3 138.45 9.25 138.55 9.25 138.8 9.35 138.9 9.5 138.95 9.6 139.0 9.7 139.0 9.8 138.95 9.95 138.9 10.05 139.0 10.05 139.0 10.25 139.0 10.45 139.0 10.65 139.0 10.8 139.0 10.95 139.05 11.0 139.1 11.15 139.15 11.2 139.15 11.35 139.15 11.5 139.15 11.6 139.1 11.7 139.0 11.8 139.0 11.95 139.0 12.15 139.0 12.3 139.0 12.5 139.0 12.7 139.0 12.9 139.0 13.0 138.3 13.0 138.3 13.05 138.35 13.15 138.45 13.25 138.45 13.4 138.45 13.45 125.4 13.4 125.25 13.5 124.65 13.55 124.65 13.65 124.6 13.65 124.6 13.6 124.6 13.55 122.95 13.65 122.75 13.65 122.75 13.75 122.05 13.75 121.95 13.8 121.9 14.0 121.75 14.05 121.75 14.2 121.75 14.4 121.75 14.55 121.75 14.75 121.75 14.8 122.0 14.8 122.0 15.0 122.0 15.2 122.0 15.4 122.0 15.55 122.0 15.75 122.0 15.95 122.0 16.15 122.0 16.3 122.0 16.5 122.0 16.7 122.0 16.9 122.0 17.05 122.0 17.25 122.0 17.45 122.0 17.65 122.0 17.75 121.5 17.75 121.5 17.9 121.5 18.0 121.0 18.0 120.15 18.0 120.15 18.05 120.15 18.15 120.1 18.25 120.05 18.4 119.95 18.45 119.85 18.5 119.75 18.55 119.7 18.6 119.5 18.65 119.2 18.65 119.0 18.65 119.0 18.7 118.0 18.9 118.0 19.0 117.15 19.15 117.0 19.25 114.4 19.4 114.25 19.5 112.2 19.45 112.1 19.55 112.05 19.55 111.8 19.6 97.75 19.6 97.25 19.65 97.25 19.75 95.0 19.9 95.0 20.0 92.65 20.15 92.5 20.25 90.65 20.4 90.5 20.5 88.75 20.65 88.75 20.75 86.75 20.9 86.75 21.0 84.9 21.15 84.75 21.25 82.4 21.4 82.25 21.5 79.2 21.45 79.05 21.3 77.45 21.2 77.3 21.05 76.75 20.95 76.75 20.8 76.25 20.7 76.25 20.55 76.0 20.45 76.0 20.3 75.5 20.2 75.5 20.05 75.25 19.95 75.2 19.75 75.05 19.55 74.9 19.4 74.5 19.2 74.45 19.0 74.3 18.8 63.75 18.9 63.75 19.0 60.45 18.95 60.3 18.8 59.75 18.7 59.75 18.6 59.65 18.6 59.6 18.65 59.45 18.8 59.35 18.85 59.3 18.9 59.25 18.95 59.2 19.0 59.1 19.05 59.05 19.05 58.9 19.1 58.85 19.15 58.8 19.15 58.8 19.2 58.7 19.25 58.65 19.3 58.55 19.35 58.5 19.35 58.35 19.4 58.3 19.45 58.25 19.5 58.2 19.55 58.15 19.6 58.1 19.65 58.0 19.7 57.95 19.75 57.85 19.8 57.8 19.8 57.75 19.85 57.65 19.9 57.6 19.95 57.6 20.0 57.1 20.05 57.05 20.1 56.95 20.15 56.85 20.25 56.85 20.3 56.8 20.35 56.8 20.4 56.65 20.45 56.6 20.5 56.6 20.55 56.55 20.55 56.45 20.6 56.3 20.75 56.3 20.85 56.15 20.9 56.05 21.0 56.05 21.1 55.9 21.15 55.8 21.2 55.8 21.3 55.65 21.3 55.65 21.35 55.55 21.4 55.5 21.45 55.45 21.5 55.4 21.55 55.4 21.65 55.1 21.65 55.05 21.7 55.05 21.8 54.9 21.8 54.8 21.85 54.45 21.9 54.1 21.95 54.1 22.05 53.8 22.05 53.6 22.1 52.4 22.15 51.25 22.15 51.05 22.1 50.9 22.05 50.8 22.0 50.8 21.95 50.6 21.9 50.65 21.95 50.65 22.35 50.7 22.4 50.75 22.45 50.75 22.5 50.75 22.65 50.7 22.7 50.65 22.65 49.8 22.65 49.65 22.6 49.55 22.5 49.55 22.4 49.4 22.35 49.4 22.3 49.35 22.25 49.35 22.2 49.3 22.15 49.25 22.1 49.15 22.05 49.1 22.0 49.1 21.9 49.05 21.85 49.05 21.8 48.75 21.5 48.75 21.45 48.7 21.4 48.6 21.3 48.6 21.25 48.55 21.2 48.55 21.1 48.45 21.05 48.4 21.0 48.35 20.95 48.35 20.9 48.3 20.85 48.3 20.8 48.25 20.75 48.25 20.7 48.2 20.65 48.15 20.6 48.15 20.55 48.1 20.55 48.1 20.5 48.05 20.45 48.0 20.4 47.9 20.3 47.9 20.25 47.85 20.2 47.85 20.15 47.8 20.1 47.8 19.8 47.75 19.8 47.7 19.75 47.7 19.7 47.65 19.65 47.65 19.6 47.6 19.6 47.35 19.55 45.6 19.55 44.65 19.6 44.65 19.65 44.45 19.65 44.15 19.75 43.0 19.85 42.85 19.9 42.7 19.95 42.5 20.0 42.4 20.05 42.2 20.1 42.05 20.15 41.85 20.2 41.65 20.3 41.35 20.4 41.25 20.5 41.1 20.55 40.95 20.65 40.75 20.7 40.75 20.75 40.7 20.8 40.65 20.85 40.55 20.95 40.5 21.0 40.45 21.0 40.45 21.05 40.25 21.25 40.05 21.45 39.75 21.65 39.75 21.8 39.75 21.95 39.75 22.0 39.5 22.15 39.5 22.25 39.25 22.4 39.25 22.55 39.25 22.7 39.25 22.75 39.0 22.9 39.0 23.05 39.0 23.2 39.0 23.25 38.75 23.4 38.75 23.55 38.75 23.75 38.75 23.95 38.75 24.15 38.75 24.3 38.75 24.5 38.75 24.7 38.75 24.9 38.75 25.05 38.75 25.25 38.75 25.45 38.75 25.65 38.7 25.8 38.55 25.95 38.5 26.0 38.25 26.0 38.2 26.1 38.1 26.25 38.0 26.3 37.75 26.35 37.65 26.35 37.35 26.3 37.25 26.15 37.2 26.0 36.5 25.95 36.5 26.0 36.25 26.15 36.25 26.25 36.0 26.35 36.0 26.45 36.0 26.65 36.0 26.75 35.75 26.9 35.75 27.0 34.6 27.0 32.95 26.95 32.95 27.05 33.05 27.15 33.2 27.3 33.25 27.4 33.25 27.45 33.3 27.5 33.3 27.65 33.25 27.75 33.2 27.9 33.1 27.95 33.0 27.95 32.85 28.0 32.65 28.0 32.35 27.95 32.2 27.85 32.1 27.7 32.0 27.6 32.0 27.45 32.0 27.4 32.0 27.25 32.0 27.1 31.9 27.0 31.85 26.9 31.85 26.8 31.7 26.65 31.6 26.55 31.55 26.45 31.45 26.3 31.35 26.2 31.3 26.05 31.25 25.95 31.25 25.9 30.95 25.8 30.85 25.7 30.75 25.55 30.5 25.45 30.2 25.45 29.95 25.5 29.7 25.45 29.6 25.35 29.5 25.2 29.5 25.1 29.5 25.0 29.5 24.9 29.5 24.75 29.5 24.65 29.15 24.8 28.75 25.0 28.75 25.2 28.4 25.4 28.0 25.5 27.5 25.65 27.25 25.75 26.9 25.9 26.75 26.0 26.25 26.15 26.25 26.25 25.75 26.4 25.75 26.5 25.25 26.65 25.25 26.75 24.65 26.9 24.5 27.0 24.25 27.15 24.25 27.25 23.65 27.4 23.5 27.5 23.0 27.65 23.0 27.75 22.5 27.9 22.5 28.0 21.9 28.15 21.75 28.25 21.25 28.4 21.25 28.5 21.0 28.65 21.0 28.75 20.65 28.9 20.5 29.0 20.0 29.15 20.0 29.25 19.5 29.4 19.5 29.5 19.15 29.65 19.0 29.75 18.65 29.9 18.5 30.0 18.15 30.15 18.0 30.25 17.75 30.4 17.75 30.5 17.25 30.65 17.25 30.75 16.75 30.9 16.75 31.0 16.25 31.15 16.25 31.25 15.5 31.4 15.5 31.5 15.15 31.65 15.0 31.75 14.5 31.9 14.5 32.0 14.0 32.15 14.0 32.25 13.5 32.4 13.5 32.5 12.75 32.65 12.75 32.75 12.25 32.9 12.25 33.0 11.75 33.15 11.75 33.25 11.25 33.4 11.25 33.5 10.75 33.65 10.75 33.75 10.4 33.9 10.25 34.0 9.75 34.15 9.75 34.25 9.25 34.4 9.25 34.5 8.5 34.65 8.5 34.75 7.9 34.9 7.75 35.0 7.15 35.15 7.0 35.25 6.5 35.4 6.5 35.5 6.1 35.5 6.1 35.65 6.1 35.8 6.1 35.85 6.0 36.0 5.95 36.05 5.9 36.1 5.75 36.15 5.6 36.15 5.4 36.05 5.35 36.05 5.2 36.05 5.0 36.15 4.8 36.15 4.55 36.05 4.45 35.95 4.45 35.9 4.35 35.8 4.35 35.9 4.35 35.95 4.25 36.05 4.2 36.15 4.15 36.3 3.95 36.35 3.7 36.45 3.25 36.45 3.0 36.35 2.9 36.35 2.7 36.25 2.6 36.15 2.35 36.05 2.25 36.0 1.95 35.9 1.75 35.8 1.65 35.7 1.5 35.55 1.45 35.45 1.4 35.3 1.35 35.2 1.3 35.1 1.25 34.95 1.25 34.85 1.25 34.75 1.25 34.65 1.25 34.5 1.25 34.4 1.25 34.3 1.25 34.15 1.25 34.05 1.25 33.9 1.2 33.8 1.15 33.7 1.1 33.55 1.1 33.45 1.1 33.35 1.1 33.25 1.1 33.1 1.1 33.0 1.1 32.85 1.1 32.75 1.05 32.65 0.95 32.5 0.9 32.4 0.9 32.3 0.9 32.15 0.9 32.05 0.9 31.9 0.9 31.85 0.9 31.7 0.9 31.6 0.9 31.45 0.9 31.35 0.9 31.25 0.9 31.1 0.85 31.0 0.85 30.9 0.8 30.75 0.8 30.65 0.8 30.5 0.8 30.4 0.8 30.3 0.8 30.2 0.8 30.05 0.8 29.9 0.8 29.85 0.8 29.7 0.8 29.6 0.8 29.45 0.8 29.35 0.8 29.25 0.8 29.1 0.8 29.0 0.75 28.9 0.7 28.8 0.6 28.65 0.6 28.5 0.6 28.4 0.6 28.3 0.6 28.2 0.6 28.05 0.6 27.95 0.6 27.85 0.6 27.7 0.6 27.6 0.6 27.45 0.6 27.4 0.6 27.25 0.6 27.1 0.6 27.0 0.6 26.9 0.6 26.8 0.6 26.65 0.6 26.55 0.6 26.45 0.6 26.3 0.5 26.2 0.45 26.05 0.45 25.95 0.45 25.85 0.45 25.7 0.45 25.6 0.45 25.45 0.45 25.4 0.45 25.25 0.45 25.15 0.45 25.0 0.45 24.9 0.45 24.8 0.45 24.65 0.45 24.55 0.45 24.45 0.45 24.35 0.45 24.2 0.35 24.05 0.3 24.0 0.3 23.85 0.3 23.75 0.3 23.6 0.3 23.5 0.3 23.4 0.3 23.25 0.3 23.15 0.3 23.0 0.3 22.95 0.3 22.8 0.3 22.65 0.3 22.55 0.2 22.45 0.15 22.35 0.15 22.2 0.15 22.1 0.15 22.0 0.15 21.85 0.15 21.75 0.15 21.6 0.15 21.55 0.15 21.4 0.15 21.25 0.15 21.15 0.15 21.0 0.15 20.95 0.05 20.8 0.0 20.7 0.0 20.55 0.0 20.45 0.0 20.35 0.0 20.2 0.0 20.1 0.0 20.0 0.0 19.85 0.0 19.75 -0.05 19.6 -0.15 19.55 -0.2 19.4 -0.2 19.3 -0.2 19.15 -0.2 19.0 -0.2 18.95 -0.2 18.8 -0.2 18.7 -0.2 18.55 -0.2 18.45 -0.15 18.35 -0.05 18.2 0.05 18.15 0.1 18.1 0.15 18.1 0.15 18.0 0.15 17.9 0.15 17.75 0.2 17.6 0.3 17.55 0.45 17.4 0.55 17.3 0.65 17.15 0.75 17.05 0.85 17.0 1.1 16.9 1.2 16.8 1.4 16.8 1.7 16.7 2.0 16.55 2.15 16.5 2.3 16.5 2.65 16.5 2.85 16.55 3.0 16.6 3.1 16.6 3.35 16.7 3.45 16.8 3.55 16.95 3.7 16.95 4.3 16.85 4.35 16.75 4.4 16.75 4.5 16.75 6.0 16.75 6.05 16.8 8.05 16.8 8.15 16.9 8.2 16.95 8.75 16.95 9.5 17.0 9.6 17.1 10.6 17.1 10.7 17.0 10.75 17.0 13.35 16.95 13.5 16.95 13.65 16.9 13.9 16.9 13.9 16.3 14.45 16.3 14.55 16.3 14.85 16.25 14.9 16.2 14.9 16.15 15.25 16.15 15.3 16.15 15.35 16.1 15.95 16.1 16.0 16.1 16.05 16.05 16.35 16.05 16.45 16.05 16.55 16.05 17.1 16.0 17.2 15.95 17.3 15.9 17.6 15.9 17.7 15.9 17.8 15.85 17.85 15.85 17.95 15.85 18.05 15.8 18.6 15.8 19.2 15.75 19.3 15.7 19.35 15.65 19.95 15.65 20.05 15.65 20.05 15.6 21.15 15.65 21.35 15.65 21.4 15.65 22.15 15.6 22.25 15.6 22.3 15.6 22.35 15.55 22.45 15.55 22.55 15.55 23.1 15.5 23.3 15.5 23.5 15.5 23.65 15.45 23.85 15.45 24.05 15.45 24.2 15.4 24.4 15.4 24.55 15.4 25.4 15.35 25.5 15.35 25.6 15.35 25.65 15.3 25.75 15.3 25.85 15.3 25.95 15.3 26.0 15.25 26.25 15.25 26.45 15.25 26.65 15.2 26.9 15.2 27.15 15.2 27.35 15.15 27.55 15.15 27.75 15.15 27.95 15.1 28.05 15.1 28.15 15.1 28.25 15.05 28.35 15.05 28.45 15.05 28.55 15.05 28.65 15.0 28.85 15.0 29.05 15.0 29.25 14.95 29.5 14.95 29.7 14.95 29.9 14.9 30.1 14.9 30.3 14.9 31.1 14.85 31.2 14.85 31.25 14.85 31.35 14.8 31.4 14.8 31.5 14.8 31.55 14.8 31.6 14.75 31.8 14.75 31.95 14.75 32.1 14.7 32.25 14.7 32.4 14.7 32.85 14.65 32.85 14.7 33.05 14.7 33.05 14.95 33.1 15.0 33.1 15.05 33.15 15.1 33.15 15.15 33.3 15.2 33.55 15.25 33.65 15.3 33.65 15.35 33.95 15.4 34.3 15.45 34.85 15.45 35.1 15.4 35.2 15.35 35.25 15.3 35.45 15.25 35.55 15.2 35.75 15.2 35.9 15.15 36.1 15.1 36.1 15.05 36.25 15.0 36.3 14.95 36.5 14.95 36.65 14.9 36.75 14.9 36.8 14.9 36.85 14.85 36.85 14.8 37.0 14.75 37.05 14.7 37.25 14.7 37.4 14.65 37.6 14.6 37.6 14.55 37.8 14.5 37.8 14.45 37.9 14.45 38.15 14.4 38.3 14.35 38.3 14.3 38.4 14.25 38.4 14.2 38.65 14.2 38.8 14.15 38.95 14.1 39.0 14.05 39.15 14.0 39.15 13.95 39.4 13.95 39.55 13.9 39.65 13.85 39.65 13.8 39.8 13.75 39.85 13.7 40.0 13.7 40.1 13.65 40.2 13.6 40.25 13.55 40.45 13.5 40.55 13.45 40.6 13.45 40.75 13.4 40.85 13.35 40.9 13.3 41.05 13.25 41.05 13.2 41.25 13.2 41.35 13.15 41.55 13.1 41.6 13.05 41.7 13.0 41.8 12.95 41.85 12.95 42.05 12.9 42.15 12.85 42.15 12.8 42.3 12.75 42.3 12.7 42.4 12.7 42.5 12.7 42.55 12.65 42.6 12.65 42.8 12.6 42.8 12.55 42.9 12.5 42.9 12.45 43.05 12.45 43.15 12.4 43.35 12.35 43.35 12.3 43.45 12.25 43.55 12.2 43.65 12.2 43.8 12.15 43.9 12.1 43.9 12.05 44.1 12.0 44.1 11.95 44.3 11.95 44.4 11.9 44.6 11.85 44.6 11.8 44.8 11.75 44.8 11.7 44.9 11.7 45.1 11.65 45.2 11.6 45.25 11.55 45.35 11.5 45.35 11.45 45.5 11.45 45.6 11.4 45.8 11.35 45.8 11.3 45.9 11.25 45.9 11.2 46.05 11.2 46.25 11.15 46.35 11.1 46.35 11.05 46.45 11.0 46.55 10.95 46.65 10.95 46.85 10.9 46.95 10.85 47.0 10.8 47.15 10.75 47.15 10.7 47.3 10.7 47.4 10.65 47.6 10.6 47.6 10.55 47.65 10.5 47.65 10.45 47.8 10.45 47.9 10.4 48.05 10.35 48.05 10.3 48.15 10.25 48.15 10.2 48.35 10.2 48.4 10.15 48.6 10.1 48.6 10.05 48.7 10.0 48.8 9.95 48.8 9.9 48.9 9.9 49.1 9.85 49.1 9.8 49.2 9.75 49.3 9.7 49.35 9.7 49.5 9.65 49.6 9.6 49.6 9.55 49.8 9.5 49.8 9.45 49.9 9.45 50.05 9.4 50.1 9.35 50.1 9.3 50.2 9.25 50.3 9.2 50.35 9.2 50.4 9.15 50.55 9.1 50.55 9.05 50.65 9.0 50.65 8.95 50.8 8.95 50.85 8.9 50.95 8.85 51.0 8.8 51.1 8.75 51.1 8.7 51.25 8.7 51.3 8.65 51.35 8.6 51.35 8.55 51.4 8.5 51.4 8.45 51.55 8.45 51.55 8.4 51.65 8.4 51.65 7.7 52.15 7.75 52.15 7.2 53.8 7.25 53.8 7.2 54.55 7.25 54.65 7.25 54.65 7.75 55.05 7.75 55.05 7.8 55.6 7.8 55.6 7.85 55.65 7.9 55.65 8.4 64.75 8.45 64.75 8.5 65.05 8.5 64.95 8.45 65.55 8.45 65.5 8.5 68.55 8.5 68.55 8.45 69.2 8.45 69.2 8.5 69.35 8.5 69.35 8.45 69.95 8.45 69.95 8.5 70.3 8.5 70.3 8.45 70.9 8.45 70.9 8.5 72.65 8.5 72.65 8.45 73.25 8.45 73.25 8.5 73.7 8.5 73.7 8.45 74.95 8.45 74.95 8.5 75.5 8.5 75.55 8.65 75.65 8.8 77.4 8.8 77.45 8.95 77.45 9.05 77.55 9.05 77.7 9.2 77.7 9.25 77.75 9.2 77.95 9.2 130.05 9.2 129.95 9.1 129.95 8.95 129.95 8.9 131.2 8.95 131.3 9.05 132.0 9.1 132.0 9.0 132.0 8.65 132.0 8.45 132.0 8.25 132.0 8.05 132.25 7.9 132.25 7.8 132.25 7.75 135.55 7.8 135.7 8.0 135.75 8.2 135.75 8.4 135.75 8.55 135.75 8.75 135.75 9.2 M48.4 17.75 L48.25 17.8 48.4 17.8 48.4 17.75 M50.55 19.45 L50.55 20.4 50.65 20.4 50.65 20.6 50.75 20.65 50.8 20.7 50.8 20.75 50.85 20.8 50.85 20.85 50.9 20.9 51.05 20.95 51.05 21.05 51.1 21.05 51.2 21.1 51.3 21.1 51.3 21.15 51.35 21.15 51.55 21.2 51.55 21.25 51.65 21.3 51.8 21.35 52.05 21.35 53.05 21.3 53.35 21.25 53.35 21.15 53.55 21.15 54.05 21.1 54.15 21.05 54.3 21.0 54.3 20.95 54.35 20.9 54.35 20.85 54.55 20.85 54.55 18.95 50.6 18.9 50.6 19.35 50.5 19.4 50.55 19.45 M55.4 18.2 L54.2 18.2 55.4 18.2 M1.15 18.15 L1.15 18.2 1.25 18.15 1.25 18.05 1.15 18.15 M0.95 18.5 L0.85 18.55 0.8 18.6 0.75 18.65 0.75 18.75 0.75 18.8 0.9 18.65 1.0 18.45 1.0 18.4 0.95 18.5 M1.5 17.9 L1.65 17.85 1.7 17.8 1.65 17.8 1.4 17.9 1.3 18.0 1.5 18.0 1.5 17.9 M1.25 22.3 L1.2 22.3 1.25 22.35 1.25 22.3 M4.2 35.55 L4.3 35.7 4.35 35.8 4.35 35.75 4.35 35.6 4.4 35.5 4.45 35.45 4.15 35.45 4.2 35.55" fill="#ffffff" fill-rule="evenodd" stroke="none"/>
    </g>
  </defs>
</svg>
