<?xml version="1.0" encoding="UTF-8" standalone="no"?>
<svg xmlns:xlink="http://www.w3.org/1999/xlink" height="26.7px" width="141.95px" xmlns="http://www.w3.org/2000/svg">
  <g transform="matrix(1.0, 0.0, 0.0, 1.0, 0.0, 0.0)">
    <use height="26.7" transform="matrix(1.0, 0.0, 0.0, 1.0, 0.0, 0.0)" width="141.95" xlink:href="#shape0"/>
  </g>
  <defs>
    <g id="shape0" transform="matrix(1.0, 0.0, 0.0, 1.0, 0.0, 0.0)">
      <path d="M141.35 7.85 L141.6 8.4 141.8 8.9 141.95 9.55 Q141.95 10.05 141.35 10.95 L141.2 11.2 88.1 11.2 88.1 12.1 92.0 12.1 92.0 15.5 92.55 16.05 Q93.0 16.4 93.0 17.25 L92.9 17.65 92.8 17.8 92.8 17.95 92.55 18.55 92.1 18.55 89.75 18.55 83.75 18.55 72.05 18.55 71.8 19.05 72.05 19.2 72.4 19.55 72.15 20.3 70.15 20.3 69.9 20.05 69.25 18.55 Q68.75 17.4 69.15 16.65 69.15 16.05 69.75 16.05 L69.9 16.05 Q71.15 16.05 71.45 16.4 72.15 16.4 73.1 16.0 L63.4 15.9 62.15 16.25 59.85 16.9 57.45 17.55 Q56.4 17.8 56.3 17.95 L56.3 21.45 44.85 22.65 44.85 19.05 Q43.95 19.05 43.75 19.3 L42.95 19.95 41.45 20.75 39.15 20.95 Q37.85 20.85 36.2 19.85 L36.0 19.95 35.6 19.95 35.55 21.5 35.2 23.5 34.6 25.4 33.9 26.4 31.55 26.65 28.05 26.2 24.65 25.65 22.75 25.0 21.35 23.5 19.85 22.15 18.9 21.45 12.35 21.45 11.85 24.65 Q11.8 25.05 11.55 25.05 L10.95 25.4 9.25 25.05 7.25 25.05 5.95 25.05 4.95 25.2 3.4 25.45 1.8 25.8 0.6 26.05 0.25 26.05 0.1 25.9 0.0 25.05 0.0 23.15 0.0 19.3 0.25 14.85 0.25 11.55 Q0.25 11.15 1.25 10.7 L5.7 10.4 7.0 10.4 7.1 10.3 7.25 10.2 7.5 10.05 7.9 9.75 19.8 9.75 Q20.2 9.8 20.6 10.2 L21.95 11.55 35.45 11.55 35.85 10.3 36.1 9.05 36.1 8.75 36.2 8.75 38.15 8.4 39.75 8.1 40.25 8.0 Q40.3 7.85 40.55 7.75 L44.75 7.75 44.75 6.5 43.2 6.5 41.95 6.7 39.55 7.0 36.75 7.25 34.3 7.1 34.2 6.85 34.2 6.7 34.05 4.55 34.05 3.2 Q34.05 2.8 34.2 2.65 L34.3 2.55 34.55 2.55 35.6 2.45 38.0 2.3 40.8 2.15 42.8 2.3 44.75 2.3 47.15 2.3 49.3 2.25 50.7 2.15 50.7 1.3 50.6 1.05 50.6 0.25 54.75 0.0 54.8 0.0 55.3 1.4 55.15 1.55 Q55.05 1.75 54.8 1.75 L54.8 2.0 62.05 2.0 64.45 1.65 67.7 1.3 70.75 1.05 72.4 1.25 72.6 1.4 72.7 7.1 72.4 7.1 62.65 6.5 62.65 6.7 61.25 6.45 58.85 6.5 58.85 7.65 141.35 7.65 141.35 7.85 M42.45 17.7 Q42.45 16.65 41.3 16.65 L38.5 16.65 Q37.35 16.65 37.35 17.7 37.35 18.95 38.5 18.95 L41.3 18.95 Q42.45 18.95 42.45 17.7 M27.15 23.1 Q28.4 23.45 30.1 22.7 L31.95 21.1 32.45 19.6 Q32.6 18.6 32.25 18.05 32.0 17.1 30.4 16.8 L27.1 16.95 Q26.25 17.4 25.9 17.7 L25.15 18.7 Q24.35 20.0 24.95 21.5 25.65 22.95 27.15 23.1" fill="#ffffff" fill-rule="evenodd" stroke="none"/>
    </g>
  </defs>
</svg>
