<?xml version="1.0" encoding="UTF-8" standalone="no"?>
<svg xmlns:xlink="http://www.w3.org/1999/xlink" height="38.55px" width="61.8px" xmlns="http://www.w3.org/2000/svg">
  <g transform="matrix(1.0, 0.0, 0.0, 1.0, 1.35, 0.4)">
    <use height="38.55" transform="matrix(1.0, 0.0, 0.0, 1.0, -1.35, -0.4)" width="61.8" xlink:href="#shape0"/>
  </g>
  <defs>
    <g id="shape0" transform="matrix(1.0, 0.0, 0.0, 1.0, 1.35, 0.4)">
      <path d="M9.3 -0.4 L9.3 -0.15 9.8 -0.1 9.8 0.45 45.2 0.35 45.2 0.05 45.5 -0.15 46.55 -0.1 47.15 0.25 47.15 0.45 47.4 0.45 47.4 1.0 47.85 1.35 48.55 1.35 48.65 1.45 48.85 1.65 48.9 1.9 48.9 2.0 60.0 2.0 60.1 2.1 60.2 2.4 60.45 3.6 60.3 4.95 60.1 5.45 48.8 5.5 48.6 5.95 47.6 5.95 47.6 7.9 47.4 8.3 47.2 8.5 47.1 8.55 39.6 8.55 39.35 9.1 40.05 9.1 41.55 9.5 42.7 10.15 43.05 10.45 42.85 10.7 38.6 10.7 45.7 35.25 45.3 35.45 45.4 35.5 45.7 35.6 46.1 35.9 46.1 36.5 45.95 36.65 45.3 36.95 44.6 37.25 44.35 37.3 43.65 37.3 43.55 37.6 41.85 37.6 41.85 38.15 38.1 38.15 38.1 37.65 30.5 10.8 30.05 10.5 29.35 11.8 29.3 12.95 29.45 12.95 29.5 13.15 29.7 13.2 29.7 16.4 29.5 16.45 29.5 16.65 27.6 17.3 25.6 17.9 21.9 18.35 19.25 17.75 18.45 17.5 18.2 17.35 17.65 17.8 16.8 18.05 16.6 18.4 14.8 22.7 12.25 29.05 12.15 29.5 12.15 30.2 12.4 31.9 13.35 31.95 13.7 32.05 14.0 32.25 14.1 32.4 14.05 32.5 13.5 33.0 12.15 33.8 10.3 34.25 9.3 34.4 0.6 34.5 0.3 34.15 0.2 33.15 -0.5 33.0 -0.9 32.9 -1.05 32.8 -1.1 32.7 -1.15 32.1 -1.3 31.65 -1.35 30.6 -1.2 29.25 3.25 17.3 3.95 16.3 4.8 14.9 5.0 14.1 4.95 13.2 4.45 12.05 3.7 11.0 2.55 10.05 1.85 9.5 1.85 8.65 2.45 8.45 3.8 7.4 4.65 5.8 4.75 5.3 4.75 5.1 4.65 4.95 4.3 4.6 3.8 4.4 3.55 4.3 3.15 4.35 2.4 4.1 1.95 3.55 Q1.75 3.1 1.95 2.55 2.15 1.95 2.7 1.8 L3.45 1.8 Q3.6 1.8 4.05 2.3 L4.5 2.8 4.5 3.35 4.75 3.65 4.8 3.05 4.9 2.55 5.35 1.65 6.2 1.0 6.75 0.8 6.75 0.45 8.35 0.45 8.35 -0.4 9.3 -0.4 M22.05 10.9 L21.15 11.15 Q20.1 11.6 19.4 12.45 18.7 13.3 18.5 14.35 L18.35 15.25 18.4 15.45 18.65 15.95 Q19.1 16.75 20.15 17.3 L21.95 17.75 24.15 17.7 Q26.25 17.2 27.7 16.15 L28.3 15.45 28.55 14.85 28.6 13.55 28.5 12.0 27.9 10.95 27.0 10.05 26.15 9.85 25.4 10.0 24.9 10.4 24.75 10.65 25.0 10.7 24.95 11.2 24.85 11.35 24.6 11.8 Q24.25 12.55 24.25 13.2 24.25 13.9 24.4 14.4 L24.85 15.3 25.75 16.05 26.45 16.35 26.45 16.6 25.4 16.45 Q24.25 16.1 23.6 15.2 23.25 14.65 23.1 13.55 L23.0 12.8 23.0 12.5 22.9 12.0 22.7 11.45 22.3 11.1 22.05 10.9" fill="#ffffff" fill-rule="evenodd" stroke="none"/>
    </g>
  </defs>
</svg>
