<?xml version="1.0" encoding="UTF-8" standalone="no"?>
<svg xmlns:xlink="http://www.w3.org/1999/xlink" height="32.8px" width="100.95px" xmlns="http://www.w3.org/2000/svg">
  <g transform="matrix(1.0, 0.0, 0.0, 1.0, 0.0, 0.0)">
    <use height="32.8" transform="matrix(1.0, 0.0, 0.0, 1.0, 0.0, 0.0)" width="100.95" xlink:href="#shape0"/>
  </g>
  <defs>
    <g id="shape0" transform="matrix(1.0, 0.0, 0.0, 1.0, 0.0, 0.0)">
      <path d="M50.2 17.65 Q50.2 17.0 49.85 16.6 49.5 16.2 49.0 16.2 L46.6 16.2 46.55 16.25 46.35 16.85 46.65 18.0 46.8 18.7 Q46.5 18.9 45.65 17.75 45.4 17.45 45.3 16.8 L45.25 16.2 44.65 16.6 Q44.1 17.1 44.1 17.65 44.15 18.35 44.55 18.95 45.0 19.55 45.65 19.55 L48.7 19.55 Q49.6 19.55 49.95 18.9 L50.2 17.65 M88.25 5.0 L88.3 5.6 88.6 6.25 90.85 6.25 91.0 3.3 89.1 3.3 88.55 4.35 88.25 5.0 M93.8 10.15 L93.55 10.0 93.45 9.85 91.9 9.85 91.25 10.7 90.5 10.7 90.2 10.45 90.05 10.25 86.95 10.25 86.95 11.05 Q86.95 11.35 86.55 11.65 L85.7 12.0 61.55 12.0 61.05 11.55 60.85 11.1 60.3 12.0 59.95 12.0 59.95 17.75 60.35 18.25 59.95 18.65 Q59.7 18.75 59.8 19.7 L59.95 21.7 60.05 23.5 60.5 25.2 61.85 29.8 62.1 29.95 61.95 30.3 54.05 32.8 Q53.75 32.8 53.6 32.55 L53.6 32.1 53.15 30.25 Q52.45 27.95 52.1 25.9 51.7 23.65 51.65 21.85 L51.7 20.5 51.05 20.3 51.05 19.75 50.4 20.4 44.7 20.4 44.15 20.95 43.75 20.65 43.6 20.4 43.2 20.3 Q42.8 20.3 42.6 20.75 L42.15 21.45 41.75 21.95 Q41.65 22.2 41.9 22.6 L42.15 23.2 41.45 23.55 Q40.8 23.75 40.65 24.15 L39.6 26.1 38.75 27.9 39.1 28.55 Q39.4 28.95 39.15 29.3 L34.7 29.45 Q33.2 29.25 32.4 28.75 31.5 28.25 31.8 27.65 L38.15 16.7 Q38.45 16.15 38.15 15.15 37.85 14.1 37.2 14.05 L36.35 14.1 35.8 14.05 Q35.25 13.8 35.25 13.3 L35.2 12.15 Q35.15 11.2 35.25 10.75 L35.0 10.75 34.35 10.5 34.35 10.25 26.65 10.25 26.55 10.8 Q26.3 11.45 25.65 11.95 L24.45 12.95 24.05 13.3 23.15 14.95 21.95 14.95 21.15 16.35 18.2 16.35 18.2 15.6 16.45 15.6 12.2 18.8 11.6 19.1 Q11.35 19.15 11.25 18.8 L11.2 18.3 3.2 23.45 3.05 24.05 2.5 24.7 1.6 24.65 0.75 24.3 0.25 23.85 Q0.0 23.6 0.0 23.05 L0.0 7.75 Q0.0 7.15 0.45 6.7 0.95 6.2 1.85 6.2 L26.75 6.2 27.05 6.6 27.15 7.0 34.35 7.0 34.35 6.7 35.0 6.45 36.25 6.45 36.25 5.35 36.5 5.1 37.85 4.85 40.85 4.85 41.9 3.35 41.8 2.85 41.2 2.55 Q40.6 2.1 40.6 1.35 40.6 0.85 41.0 0.45 41.45 0.0 42.0 0.0 42.65 0.0 43.1 0.45 43.5 0.85 43.5 1.4 L43.5 4.4 44.1 4.4 44.1 3.6 45.95 3.6 45.95 4.65 60.05 4.65 Q60.35 4.65 60.6 4.95 L60.9 5.4 Q60.95 5.65 61.55 5.1 L63.05 5.1 63.1 4.85 Q63.2 4.6 63.5 4.6 L85.8 4.6 Q86.1 4.6 86.35 4.9 L86.55 5.15 87.6 3.7 89.05 1.85 89.3 1.6 90.55 1.35 91.8 1.35 91.8 7.75 93.3 7.75 93.5 7.5 93.9 7.3 99.9 7.3 Q100.3 7.3 100.55 7.6 100.95 7.95 100.95 8.6 L100.95 9.1 Q100.95 9.6 100.6 9.9 L99.95 10.15 93.8 10.15" fill="#ffffff" fill-rule="evenodd" stroke="none"/>
    </g>
  </defs>
</svg>
