<?xml version="1.0" encoding="UTF-8" standalone="no"?>
<svg xmlns:xlink="http://www.w3.org/1999/xlink" height="28.5px" width="77.1px" xmlns="http://www.w3.org/2000/svg">
  <g transform="matrix(1.0, 0.0, 0.0, 1.0, -3.05, -3.5)">
    <use height="28.5" transform="matrix(1.0, 0.0, 0.0, 1.0, 3.05, 3.5)" width="77.1" xlink:href="#shape0"/>
  </g>
  <defs>
    <g id="shape0" transform="matrix(1.0, 0.0, 0.0, 1.0, -3.05, -3.5)">
      <path d="M79.5 10.35 L63.95 10.35 63.75 10.2 63.45 10.3 51.5 10.3 51.2 10.5 50.75 10.35 45.7 10.35 45.7 9.45 44.0 9.45 44.0 8.7 42.95 8.7 42.95 10.45 43.2 10.65 43.2 11.5 42.95 11.7 42.85 13.4 31.5 13.4 31.3 13.5 Q31.05 13.7 30.9 14.05 L28.9 18.95 28.4 19.5 27.6 19.65 22.4 19.85 21.65 19.55 20.35 19.15 19.6 19.05 18.85 19.2 17.95 19.3 17.6 19.2 15.05 30.0 14.95 31.2 15.5 32.0 4.75 31.9 4.85 29.45 Q5.15 26.45 5.8 23.75 6.5 21.0 7.6 18.6 L8.3 17.15 8.65 16.25 Q8.8 15.65 8.4 15.3 8.1 15.0 7.1 14.65 L5.8 14.2 5.4 13.8 5.45 12.65 5.55 11.9 3.7 11.7 3.35 11.6 Q3.0 11.35 3.05 10.95 3.15 10.45 3.7 10.45 L4.25 10.5 4.5 9.2 6.0 10.15 6.65 6.9 7.7 4.9 7.7 4.05 8.5 4.5 11.7 4.55 12.0 4.8 22.9 4.8 22.9 5.0 29.0 5.0 29.0 4.85 39.5 4.85 39.5 3.5 42.0 3.5 42.3 3.85 42.3 4.75 42.65 4.7 43.0 5.15 43.0 5.95 44.0 5.95 44.0 5.25 45.5 5.25 45.5 3.8 50.7 3.8 51.05 3.6 51.5 3.8 63.45 3.8 63.8 3.85 64.15 3.7 79.5 3.7 79.75 4.0 80.05 5.05 80.15 6.9 80.0 8.85 79.7 9.9 79.5 10.35 M28.6 13.5 L22.9 13.55 21.7 14.8 21.1 15.6 Q20.75 16.15 20.7 16.85 L20.8 17.85 21.0 18.35 20.65 18.6 20.25 17.75 Q19.85 16.85 19.9 16.25 20.0 15.25 20.65 14.4 L21.2 13.75 20.4 13.95 Q19.5 14.25 19.1 14.65 18.55 15.25 18.4 15.95 18.2 16.7 18.5 17.35 L19.35 18.35 20.65 18.9 22.1 18.95 23.2 19.05 25.65 19.15 27.85 19.0 28.85 16.75 29.6 14.65 29.6 14.35 29.5 13.85 28.95 13.55 28.6 13.5" fill="#ffffff" fill-rule="evenodd" stroke="none"/>
    </g>
  </defs>
</svg>
