<?xml version="1.0" encoding="UTF-8" standalone="no"?>
<svg xmlns:xlink="http://www.w3.org/1999/xlink" height="31.75px" width="86.15px" xmlns="http://www.w3.org/2000/svg">
  <g transform="matrix(1.0, 0.0, 0.0, 1.0, -1.45, 0.4)">
    <use height="31.75" transform="matrix(1.0, 0.0, 0.0, 1.0, 1.45, -0.4)" width="86.15" xlink:href="#shape0"/>
  </g>
  <defs>
    <g id="shape0" transform="matrix(1.0, 0.0, 0.0, 1.0, -1.45, 0.4)">
      <path d="M3.5 -0.2 L3.65 -0.2 3.65 -0.25 3.7 -0.25 3.8 -0.25 23.2 -0.25 24.45 -0.3 24.55 -0.4 24.7 -0.4 24.8 -0.4 25.0 -0.35 25.1 -0.25 71.15 -0.25 71.3 -0.25 71.45 -0.25 71.65 -0.2 71.75 -0.1 71.85 0.0 71.9 0.1 71.95 0.2 72.0 0.25 72.5 0.25 72.5 0.35 72.5 0.45 72.5 0.55 72.5 0.65 72.5 0.75 72.5 0.85 72.5 0.95 72.5 1.0 72.5 1.1 72.5 1.2 72.5 1.3 72.5 1.4 72.5 1.45 72.55 1.5 72.55 1.6 72.55 1.7 72.5 1.8 72.5 1.85 72.5 1.95 72.5 2.05 72.5 2.15 72.5 2.25 72.3 2.25 72.3 2.35 72.45 2.35 72.65 2.4 72.7 2.45 72.8 2.35 72.95 2.35 73.6 2.35 73.7 2.4 73.7 2.35 73.9 2.4 74.0 2.5 74.05 2.6 74.1 2.7 74.1 2.75 74.1 2.85 74.1 2.95 74.1 3.05 74.1 3.15 74.1 3.25 74.1 3.35 74.1 3.45 74.1 3.5 74.1 3.6 86.95 3.6 87.15 3.65 87.25 3.75 87.4 3.8 87.5 3.9 87.55 4.0 87.6 4.1 87.6 4.2 87.6 4.25 87.6 4.35 87.6 4.45 87.6 4.55 87.6 4.65 87.6 4.75 87.6 4.85 87.6 4.95 87.6 5.0 87.6 5.1 87.6 5.2 87.6 5.3 87.6 5.4 87.6 5.5 87.6 5.6 87.6 5.7 87.6 5.75 87.6 5.85 87.6 5.95 87.6 6.05 87.6 6.15 87.6 6.25 87.55 6.35 87.6 6.45 87.6 6.5 87.5 6.6 87.5 6.7 87.5 6.75 87.4 6.85 87.4 6.95 87.35 7.0 87.25 7.05 87.1 7.1 80.9 7.1 80.9 7.2 80.9 7.25 80.9 7.35 80.9 7.45 80.9 7.55 80.9 7.65 80.85 7.65 80.85 7.7 80.75 7.75 80.75 7.85 80.65 7.95 80.6 7.95 80.45 8.0 80.25 7.95 80.1 8.0 74.6 8.0 74.5 8.05 74.35 8.1 74.25 8.1 74.15 8.2 74.2 8.25 74.25 8.35 74.25 8.45 74.15 8.5 74.15 8.6 74.1 8.7 74.0 8.7 73.85 8.75 73.7 8.75 73.6 8.75 73.4 8.75 73.4 8.9 71.65 8.9 71.65 8.95 71.65 9.05 71.65 9.15 71.65 9.25 71.65 9.35 71.65 9.45 71.65 9.5 71.65 9.6 71.65 9.7 71.65 9.8 71.65 9.9 71.2 9.95 71.2 10.0 71.15 10.1 71.1 10.2 71.05 10.25 71.0 10.35 71.0 10.45 70.9 10.55 70.9 10.65 70.8 10.75 70.8 10.85 70.75 10.95 70.7 11.0 70.65 11.1 70.6 11.2 70.55 11.3 70.45 11.4 70.4 11.5 70.4 11.55 70.35 11.65 70.3 11.7 70.25 11.75 70.2 11.85 70.15 11.95 70.1 12.0 70.0 12.1 69.95 12.2 69.85 12.3 69.75 12.4 69.65 12.5 69.55 12.55 69.5 12.6 69.4 12.7 69.35 12.7 69.3 12.75 69.25 12.75 69.2 12.85 69.15 12.95 69.1 13.0 69.0 13.1 68.7 13.2 68.45 13.3 68.45 13.35 68.4 13.4 67.8 13.4 67.75 13.45 67.55 13.5 65.55 13.5 65.35 13.45 65.3 13.35 65.2 13.35 64.8 13.35 64.65 13.3 64.6 13.25 64.5 13.25 64.25 13.2 64.15 13.1 64.1 13.0 64.05 13.0 63.85 12.95 63.75 12.85 63.7 12.75 63.55 12.65 63.55 12.6 58.1 12.65 58.05 12.7 58.0 12.7 57.8 12.75 57.2 12.75 57.15 12.8 57.0 12.85 56.8 12.9 56.75 13.0 56.55 13.1 56.4 13.2 56.3 13.25 56.25 13.35 56.2 13.45 56.15 13.45 55.9 13.5 55.75 13.6 55.65 13.7 55.55 13.8 55.55 13.9 55.5 14.0 55.3 14.1 55.15 14.2 55.05 14.25 55.0 14.35 54.9 14.45 54.9 14.55 54.8 14.65 54.75 14.75 54.65 14.85 54.6 14.95 54.6 15.0 54.55 15.1 54.5 15.2 54.4 15.3 54.4 15.4 54.35 15.5 54.3 15.6 54.25 15.7 54.2 15.75 54.15 15.85 54.1 15.95 54.05 16.05 54.05 16.15 54.0 16.25 53.85 16.35 53.8 16.45 53.65 16.5 53.6 16.6 53.5 16.7 53.45 16.75 53.4 16.8 53.25 16.85 53.05 16.9 53.0 16.95 52.8 17.0 52.45 17.0 52.4 17.05 52.25 17.1 51.8 17.1 51.65 17.05 51.6 17.0 51.5 17.0 51.25 16.95 51.2 16.85 51.05 16.85 50.85 16.75 50.75 16.7 50.7 16.65 50.35 16.6 50.25 16.5 50.2 16.45 50.15 16.35 50.1 16.25 50.0 16.15 50.0 16.05 49.95 15.95 49.9 15.85 49.9 15.75 49.9 15.7 49.9 15.6 49.85 15.5 49.75 15.4 49.75 15.3 49.75 15.2 49.75 15.1 49.75 15.0 49.75 14.9 49.7 14.8 49.7 14.7 49.7 14.6 49.7 14.5 49.7 14.45 49.7 14.35 49.7 14.25 49.7 14.15 49.7 14.05 49.7 13.95 49.65 13.85 49.65 13.75 49.6 13.7 49.6 13.6 41.95 13.65 41.9 13.7 41.7 13.75 41.55 13.75 41.45 13.75 41.45 13.85 41.4 13.95 41.4 14.05 41.3 14.15 41.25 14.2 41.2 14.25 41.1 14.35 41.05 14.45 40.9 14.5 40.85 14.6 40.8 14.7 40.8 14.8 40.7 14.9 40.55 15.0 40.5 15.1 40.4 15.2 40.3 15.25 40.25 15.35 40.15 15.45 40.05 15.55 40.05 15.65 39.95 15.75 39.85 15.85 39.8 15.95 39.65 16.0 39.6 16.1 39.5 16.2 39.4 16.3 39.3 16.4 39.2 16.5 39.05 16.6 38.9 16.7 38.8 16.75 38.75 16.85 38.7 16.95 38.65 16.95 38.45 17.0 38.4 17.1 38.35 17.2 38.3 17.25 38.2 17.3 38.05 17.35 37.9 17.3 37.85 17.35 37.8 17.45 37.7 17.45 37.55 17.5 30.95 17.5 30.8 17.5 30.7 17.5 30.5 17.45 30.4 17.35 30.35 17.25 30.35 17.15 30.35 17.05 30.4 17.0 30.2 17.0 30.2 17.1 30.15 17.15 30.15 17.25 30.1 17.3 30.05 17.4 30.05 17.45 30.0 17.55 29.9 17.6 29.9 17.7 29.9 17.75 29.9 17.85 29.8 17.9 29.8 18.0 29.8 18.05 29.8 18.15 29.8 18.2 29.75 18.3 29.75 18.35 29.7 18.45 29.7 18.5 29.65 18.6 29.6 18.65 29.55 18.75 29.5 18.8 29.5 18.9 29.5 18.95 29.5 19.05 29.4 19.1 29.35 19.2 29.3 19.25 29.3 19.35 29.3 19.4 29.25 19.5 29.15 19.55 29.1 19.65 29.1 19.7 29.1 19.8 29.05 19.85 29.05 19.95 29.0 20.0 28.95 20.1 28.95 20.15 28.9 20.25 28.8 20.3 28.8 20.4 28.75 20.45 28.75 20.55 28.7 20.6 28.65 20.7 28.6 20.75 28.6 20.85 28.6 20.9 28.55 21.0 28.45 21.05 28.4 21.15 28.4 21.2 28.35 21.3 28.3 21.35 28.3 21.45 28.25 21.5 28.2 21.6 28.15 21.7 28.1 21.75 28.05 21.85 28.0 21.9 27.95 22.0 27.85 22.05 27.8 22.15 27.75 22.2 27.75 22.3 27.7 22.35 27.65 22.45 27.6 22.5 27.55 22.6 27.55 22.65 27.5 22.75 27.45 22.8 27.45 22.85 27.4 22.95 27.35 23.0 27.35 23.1 27.3 23.15 27.3 23.25 27.25 23.3 27.2 23.3 27.2 23.4 27.15 23.45 27.1 23.55 27.0 23.6 26.95 23.7 26.85 23.75 26.8 23.85 26.7 23.9 26.7 24.0 26.9 24.0 27.05 24.0 27.05 24.1 26.95 24.15 26.95 24.25 26.9 24.3 26.85 24.4 26.85 24.45 26.85 24.55 26.85 24.6 26.85 24.7 26.75 24.75 26.75 24.85 26.7 24.9 26.65 25.0 26.65 25.05 26.65 25.15 26.65 25.2 26.65 25.3 26.65 25.35 26.65 25.45 26.65 25.55 26.65 25.6 26.55 25.65 26.5 25.75 26.45 25.8 26.45 25.9 26.45 26.1 26.35 26.15 26.35 26.25 26.3 26.3 26.25 26.4 26.25 26.45 26.2 26.55 26.15 26.6 26.15 26.65 26.0 26.7 25.85 26.75 25.7 26.75 25.55 26.8 25.5 26.8 25.35 26.85 25.3 26.9 25.25 27.0 25.15 27.05 25.1 27.15 25.1 27.2 25.1 27.3 25.0 27.35 24.9 27.45 24.9 27.5 24.85 27.6 24.8 27.65 24.8 27.75 24.8 27.8 24.8 27.9 24.8 27.95 24.8 28.05 24.7 28.1 24.7 28.2 24.7 28.25 24.7 28.35 24.7 28.4 24.7 28.5 24.65 28.55 24.6 28.65 24.6 28.7 24.6 28.8 24.6 28.85 24.55 28.95 24.7 29.05 24.8 29.1 24.8 29.2 24.8 29.3 24.7 29.4 24.55 29.45 24.35 29.45 24.3 29.55 24.2 29.6 24.15 29.7 24.1 29.75 24.05 29.85 24.0 29.9 23.95 30.0 23.95 30.05 23.9 30.15 23.85 30.2 23.8 30.2 23.4 30.2 23.4 30.3 23.4 30.4 23.4 30.45 23.4 30.55 23.5 30.65 23.55 30.7 23.55 30.75 23.6 30.85 23.6 30.95 23.55 31.05 23.5 31.1 23.45 31.2 23.4 31.2 23.2 31.25 13.55 31.3 13.45 31.3 13.3 31.35 13.1 31.3 12.9 31.25 12.8 31.25 12.7 31.25 12.5 31.2 12.4 31.1 12.3 31.0 12.2 30.9 12.1 30.8 12.05 30.7 11.95 30.6 11.85 30.55 11.75 30.45 11.65 30.35 11.6 30.25 11.6 30.15 11.6 30.05 11.6 29.95 11.6 29.85 11.6 29.8 11.7 29.7 11.8 29.6 11.95 29.6 12.05 29.6 12.25 29.65 12.35 29.75 12.4 29.85 12.4 29.75 12.4 29.65 12.4 29.55 12.3 29.45 12.25 29.35 12.2 29.3 12.2 29.2 12.25 29.1 12.35 29.0 12.4 29.0 12.4 28.9 12.4 28.85 12.4 28.75 12.45 28.7 12.5 28.6 12.55 28.6 12.6 28.55 12.7 28.45 12.8 28.4 12.8 28.3 12.9 28.25 12.95 28.15 13.0 28.1 13.0 28.0 13.1 27.95 13.1 27.85 13.15 27.8 13.2 27.7 13.2 27.65 13.2 27.55 13.2 27.5 13.2 27.4 13.3 27.35 13.3 27.25 13.35 27.2 13.4 27.1 13.5 27.05 13.5 26.95 13.5 26.9 13.5 26.8 13.6 26.75 13.6 26.65 13.65 26.6 13.65 26.5 13.7 26.45 13.75 26.35 13.75 26.3 13.8 26.2 13.8 26.15 13.85 26.05 13.95 26.0 14.0 25.9 14.0 25.85 14.0 25.75 14.05 25.7 14.05 25.6 14.15 25.55 14.2 25.45 14.25 25.4 14.3 25.3 14.3 25.25 14.3 25.15 14.35 25.1 14.4 25.0 14.4 24.95 14.45 24.85 14.5 24.8 14.55 24.7 14.6 24.65 14.6 24.55 14.65 24.5 14.7 24.4 14.7 24.35 14.75 24.25 14.85 24.2 14.9 24.1 14.95 24.05 14.95 23.95 15.0 23.9 15.0 23.8 15.0 23.75 15.05 23.65 15.1 23.6 15.1 23.5 15.2 23.45 15.25 23.35 15.25 23.3 15.3 23.2 15.3 23.15 15.35 23.05 15.4 23.0 15.4 22.9 15.55 22.85 15.6 22.75 15.65 22.7 15.7 22.6 15.7 22.55 15.7 22.45 15.75 22.4 15.8 22.3 15.8 22.25 15.85 22.15 15.85 22.1 15.9 22.0 15.9 21.95 15.95 21.85 16.0 21.8 16.05 21.7 16.1 21.65 16.15 21.55 16.2 21.5 16.2 21.4 16.3 21.35 16.3 21.3 16.3 21.2 16.3 21.15 16.35 21.05 16.35 21.0 16.4 21.0 16.4 20.95 16.4 20.9 16.45 20.85 16.5 20.75 16.55 20.7 16.6 20.6 16.6 20.55 16.65 20.45 16.75 20.4 16.8 20.3 16.8 20.25 16.85 20.15 16.9 20.1 16.95 20.0 17.0 19.95 17.0 19.85 17.05 19.8 17.05 19.7 17.1 19.65 17.1 19.55 17.1 19.5 17.15 19.5 17.25 19.45 17.25 19.4 17.3 19.3 17.35 19.25 17.4 19.15 17.45 19.1 17.5 19.0 17.5 18.95 17.5 18.85 17.5 18.8 17.5 18.75 17.5 18.65 17.5 18.55 17.5 18.5 17.5 18.4 17.5 18.35 17.5 18.25 17.5 18.2 17.5 18.1 17.5 18.05 17.5 17.95 17.5 17.9 17.5 17.8 17.5 17.75 17.5 17.65 17.5 17.6 17.5 17.5 17.6 17.45 17.65 17.35 17.7 17.3 17.7 17.2 17.75 17.15 17.8 17.05 17.85 17.0 17.9 16.9 17.95 16.85 17.95 16.75 17.95 16.7 18.0 16.6 18.0 16.55 18.05 16.45 18.05 16.4 18.1 16.3 18.15 16.25 18.2 16.15 18.25 16.1 18.3 16.0 18.4 15.95 18.45 15.85 18.45 15.8 18.5 15.7 18.55 15.65 18.6 15.55 18.6 15.5 18.65 15.4 18.65 15.35 18.7 15.25 18.75 15.2 18.8 15.1 18.85 15.05 18.9 14.95 18.95 14.9 19.0 14.8 19.05 14.75 19.1 14.65 19.15 14.6 19.2 14.5 19.1 14.45 19.05 14.35 18.8 14.35 18.65 14.3 18.6 14.25 18.2 14.25 18.0 14.2 17.95 14.1 17.3 14.1 17.15 14.05 17.1 14.0 16.55 14.0 16.35 13.95 16.3 13.85 15.8 13.85 15.65 13.8 15.6 13.75 15.2 13.75 15.0 13.7 14.95 13.6 14.55 13.6 14.4 13.55 14.35 13.5 13.7 13.5 13.5 13.45 13.45 13.35 12.95 13.35 12.8 13.3 12.75 13.25 12.45 13.25 12.25 13.2 12.2 13.1 11.95 13.1 11.8 13.05 11.75 13.0 11.45 13.0 11.25 12.95 11.2 12.85 11.05 12.85 10.9 12.8 10.85 12.75 10.7 12.75 10.5 12.7 10.45 12.6 10.2 12.6 10.05 12.55 10.0 12.5 9.8 12.5 9.6 12.45 9.55 12.35 9.45 12.35 9.3 12.3 9.25 12.25 9.05 12.25 8.85 12.2 8.8 12.1 8.7 12.1 8.55 12.05 8.5 12.0 8.3 12.0 8.1 11.95 7.95 11.85 7.85 11.75 7.8 11.75 7.6 11.7 7.45 11.6 7.35 11.5 7.3 11.5 7.1 11.45 6.95 11.35 6.85 11.25 6.7 11.25 6.5 11.2 6.4 11.1 6.35 11.0 6.3 11.0 6.1 10.95 6.05 10.85 5.95 10.85 5.75 10.75 5.6 10.7 5.5 10.6 5.45 10.5 5.3 10.4 5.15 10.3 5.05 10.2 4.95 10.1 4.75 10.0 4.6 9.95 4.5 9.85 4.45 9.75 4.3 9.65 4.2 9.55 4.15 9.45 4.05 9.35 3.85 9.25 3.75 9.2 3.6 9.1 3.45 9.0 3.3 8.9 3.25 8.85 2.9 8.85 2.9 8.75 2.9 8.6 2.8 8.5 2.7 8.4 2.55 8.3 2.4 8.2 2.3 8.1 2.2 8.0 2.15 7.95 2.1 7.85 2.1 7.8 2.0 7.75 1.9 7.7 1.85 7.6 1.85 7.5 1.8 7.4 1.7 7.3 1.7 7.2 1.6 7.1 1.55 7.0 1.5 6.95 1.45 6.85 1.45 6.75 1.45 6.65 1.45 6.55 1.45 6.45 1.45 6.35 1.45 6.25 1.45 6.2 1.45 6.1 1.45 6.0 1.45 5.9 1.45 5.8 1.45 5.7 1.45 5.6 1.45 5.5 1.45 5.45 1.45 5.35 1.5 5.25 1.55 5.15 1.6 5.05 1.6 4.95 1.6 4.85 1.6 4.75 1.6 4.7 1.6 4.6 1.6 4.5 1.6 4.4 1.6 4.3 1.6 4.2 1.65 4.1 1.7 4.0 1.7 3.95 1.8 3.85 1.9 3.75 1.95 3.65 1.95 3.55 2.05 3.45 2.15 3.35 2.2 3.25 2.3 3.2 2.35 3.1 2.4 3.0 2.45 2.9 2.45 2.8 2.45 2.7 2.55 2.6 2.6 2.5 2.6 2.45 2.6 2.35 2.6 2.25 2.6 2.15 2.6 2.05 2.65 1.95 2.7 1.85 2.7 1.75 2.7 1.7 2.7 1.6 2.7 1.5 2.7 1.4 2.7 1.3 2.7 1.2 2.7 1.1 2.7 1.0 2.7 0.95 2.8 0.85 2.85 0.75 2.85 0.65 2.85 0.55 2.9 0.45 2.95 0.35 2.95 0.25 3.05 0.2 3.2 0.1 3.25 0.0 3.35 -0.1 3.5 -0.2 M38.45 12.9 L38.45 12.85 33.8 12.9 33.8 12.95 33.8 13.05 33.8 13.15 33.8 13.25 33.8 13.35 33.8 13.45 33.8 13.5 33.8 13.6 33.8 13.7 33.8 13.8 33.85 13.9 33.9 14.0 33.95 14.1 33.95 14.2 33.95 14.25 34.05 14.35 34.15 14.45 34.25 14.55 34.3 14.55 34.35 14.6 34.35 14.65 34.4 14.7 34.45 14.75 34.45 14.85 34.65 14.95 36.45 14.95 36.7 14.95 36.8 14.95 36.85 14.9 37.0 14.85 37.05 14.75 37.1 14.75 37.2 14.7 37.45 14.65 37.55 14.55 37.65 14.45 37.7 14.35 37.8 14.25 37.8 14.2 37.85 14.1 37.95 14.0 38.05 13.9 38.05 13.8 38.15 13.7 38.2 13.6 38.2 13.5 38.2 13.45 38.25 13.35 38.35 13.25 38.45 13.15 38.55 13.15 38.55 13.1 38.5 13.0 38.45 12.9 M32.2 13.75 L32.2 13.65 32.15 13.75 32.05 13.85 31.95 13.95 31.95 14.0 31.9 14.0 31.9 14.05 31.85 14.1 31.85 14.15 31.8 14.15 31.8 14.2 31.75 14.25 31.75 14.3 31.7 14.3 31.65 14.4 31.6 14.45 31.55 14.5 31.5 14.6 31.5 14.65 31.45 14.7 31.45 14.75 31.4 14.85 31.4 14.95 32.55 14.95 32.55 14.85 32.55 14.75 32.45 14.7 32.35 14.6 32.3 14.5 32.3 14.4 32.3 14.3 32.2 14.2 32.2 14.1 32.2 14.0 32.2 13.95 32.2 13.85 32.2 13.75 M2.85 7.55 L2.9 7.6 2.9 7.45 2.9 7.4 2.85 7.4 2.85 7.5 2.85 7.55 M9.0 8.9 L9.15 8.9 9.0 8.9" fill="#ffffff" fill-rule="evenodd" stroke="none"/>
    </g>
  </defs>
</svg>
