<?xml version="1.0" encoding="UTF-8" standalone="no"?>
<svg xmlns:xlink="http://www.w3.org/1999/xlink" height="32.45px" width="122.55px" xmlns="http://www.w3.org/2000/svg">
  <g transform="matrix(1.0, 0.0, 0.0, 1.0, 0.0, 0.05)">
    <use height="32.45" transform="matrix(1.0, 0.0, 0.0, 1.0, 0.0, -0.05)" width="122.55" xlink:href="#shape0"/>
  </g>
  <defs>
    <g id="shape0" transform="matrix(1.0, 0.0, 0.0, 1.0, 0.0, 0.05)">
      <path d="M121.95 14.9 L120.8 15.05 118.95 15.1 116.95 15.05 115.3 14.9 114.85 14.7 107.85 14.7 107.55 14.95 107.45 15.1 106.5 15.35 106.0 15.1 105.0 15.1 104.8 15.35 104.6 15.7 104.6 15.9 104.2 16.65 103.3 16.65 103.3 18.35 102.85 18.55 102.35 18.65 101.55 18.55 100.25 18.35 96.4 18.35 96.4 19.0 96.0 19.0 94.4 18.9 94.0 18.75 94.0 18.5 93.9 18.35 94.0 18.35 94.0 18.15 77.35 18.15 75.7 18.35 73.95 18.5 72.45 18.65 71.8 18.75 Q71.35 19.0 70.95 18.75 L70.7 18.55 70.45 18.35 70.45 17.95 63.85 17.95 64.15 21.75 64.5 25.65 64.8 28.8 64.95 30.35 64.7 30.8 63.1 31.2 60.15 31.8 57.65 32.15 56.3 32.4 55.7 32.4 55.5 32.2 55.45 31.9 55.3 30.6 54.95 27.35 54.45 21.1 53.6 21.1 53.1 21.95 52.7 21.95 53.1 21.1 52.05 21.1 52.05 21.35 51.25 23.65 Q50.8 24.6 50.2 25.0 L47.65 25.5 45.25 25.2 44.55 24.75 43.8 24.4 43.25 24.1 43.0 24.35 42.6 25.15 42.0 26.4 40.75 29.2 39.9 30.75 39.35 31.45 38.95 31.6 Q38.55 31.6 36.9 30.6 L33.85 28.4 33.45 28.15 33.6 27.95 33.95 27.25 34.55 26.05 35.25 24.8 Q35.6 24.2 36.05 23.9 L36.25 23.65 37.2 22.65 Q37.75 22.1 37.95 21.35 38.15 20.35 37.75 19.7 L36.85 19.0 29.1 19.0 28.8 19.05 28.25 19.15 27.4 19.4 25.35 20.1 21.2 21.6 16.25 23.5 11.4 25.25 7.75 26.55 6.15 27.15 4.9 27.35 3.3 27.55 1.8 27.65 0.8 27.55 Q0.2 27.25 0.05 26.65 L0.0 25.4 0.0 24.65 Q0.05 24.2 0.25 23.9 L0.4 22.95 0.4 21.8 0.65 21.1 0.7 20.3 0.6 17.75 0.4 16.15 0.25 16.15 0.0 15.35 0.0 14.7 0.0 14.05 0.25 13.75 0.7 13.65 1.5 13.45 3.05 13.3 4.85 13.3 6.15 13.25 6.6 12.15 Q6.75 11.65 7.45 11.45 L10.15 11.3 15.0 11.2 20.0 11.1 22.95 11.05 23.2 11.05 23.7 11.7 24.05 12.4 24.45 12.8 25.25 12.75 25.85 12.55 27.65 11.65 29.35 10.6 30.45 10.0 Q30.9 9.7 31.7 9.7 L33.85 9.7 36.05 9.6 36.2 9.4 36.45 9.1 36.7 8.65 37.75 8.05 38.55 7.85 39.0 8.15 39.7 8.25 40.5 8.45 41.2 9.3 41.2 9.5 40.9 9.7 41.35 9.7 41.35 8.9 40.95 8.6 40.75 8.25 40.35 7.45 40.1 6.5 40.1 6.3 38.15 6.6 36.25 6.9 34.5 6.85 31.7 6.85 29.05 6.8 27.65 6.7 27.35 6.8 27.0 6.85 26.5 6.9 23.6 6.7 23.6 6.3 23.5 5.75 23.35 4.45 23.25 3.15 23.35 2.0 23.5 1.4 23.7 1.05 23.75 0.75 24.05 0.6 26.5 0.6 27.65 0.6 29.75 0.75 32.65 0.8 35.55 0.9 37.95 0.95 39.5 1.0 40.75 1.15 41.85 1.35 42.6 1.4 44.15 1.3 46.75 1.2 49.2 1.15 50.35 1.15 51.0 1.05 51.4 1.0 51.6 0.75 Q51.6 0.4 52.3 0.2 53.25 -0.25 54.25 0.2 L54.45 0.2 55.1 0.3 55.5 0.75 Q55.7 1.0 56.1 1.0 L56.5 1.15 59.15 1.3 62.15 1.15 64.35 0.9 67.15 0.65 70.0 0.6 71.8 0.75 72.0 0.75 Q72.65 0.9 72.85 1.2 73.15 1.45 73.25 2.65 73.45 3.9 73.05 4.9 L72.2 6.3 70.8 6.45 68.15 6.45 65.35 6.3 63.35 6.05 62.25 5.9 61.45 6.05 59.65 6.05 58.95 7.2 58.7 7.2 56.5 8.4 55.95 8.9 55.7 9.1 55.5 9.7 83.35 9.7 83.95 9.65 85.1 9.5 86.3 9.4 87.15 9.3 88.3 9.25 89.1 9.1 89.5 8.7 89.8 8.5 91.7 8.5 92.0 8.9 92.5 9.6 102.65 9.6 102.35 8.5 102.25 7.6 102.3 7.15 102.45 7.0 103.2 6.3 Q103.55 6.05 103.8 6.05 L104.8 6.3 105.2 7.45 105.6 9.7 105.6 11.05 Q105.8 11.05 106.0 11.3 L106.0 11.7 105.85 11.9 106.0 11.9 106.4 11.85 106.5 11.7 107.55 11.7 107.7 11.85 107.95 11.9 122.15 11.9 122.35 12.1 122.55 13.75 Q122.6 14.75 121.95 14.9 M44.0 21.2 L43.75 21.55 44.4 22.2 45.0 22.55 45.4 22.65 46.45 22.75 47.15 22.75 48.05 22.75 48.85 22.65 49.25 22.35 49.55 21.8 49.95 20.55 49.95 20.4 49.75 20.3 49.2 20.4 48.45 20.7 47.15 20.7 45.8 20.8 44.4 21.1 44.0 21.2" fill="#ffffff" fill-rule="evenodd" stroke="none"/>
    </g>
  </defs>
</svg>
