<?xml version="1.0" encoding="UTF-8" standalone="no"?>
<svg xmlns:xlink="http://www.w3.org/1999/xlink" height="36.4px" width="89.65px" xmlns="http://www.w3.org/2000/svg">
  <g transform="matrix(1.0, 0.0, 0.0, 1.0, 0.0, 0.0)">
    <use height="36.4" transform="matrix(1.0, 0.0, 0.0, 1.0, 0.0, 0.0)" width="89.65" xlink:href="#shape0"/>
  </g>
  <defs>
    <g id="shape0" transform="matrix(1.0, 0.0, 0.0, 1.0, 0.0, 0.0)">
      <path d="M89.45 6.8 L89.65 8.7 89.4 10.65 89.15 11.6 62.05 11.6 62.05 12.4 61.75 12.8 37.1 12.8 37.1 11.7 36.1 11.7 Q35.85 11.85 36.05 12.5 L36.75 14.65 37.1 14.65 37.2 15.0 36.6 15.25 36.75 15.8 37.3 17.3 Q38.3 19.9 39.9 22.95 41.45 26.0 44.25 30.1 L46.7 33.55 43.0 36.4 40.55 33.05 Q37.8 28.95 36.1 25.6 L33.15 19.25 32.2 16.95 31.85 17.05 30.5 17.05 30.1 19.15 29.8 19.15 30.1 17.15 28.65 17.15 28.3 17.5 26.55 21.0 Q26.4 21.4 25.9 21.45 L20.4 21.45 19.2 21.1 19.0 21.25 18.7 21.75 18.55 22.4 18.35 23.1 18.05 23.65 17.6 24.4 17.4 25.25 17.3 25.95 16.9 26.7 16.45 27.6 16.3 28.5 16.15 29.2 15.65 29.9 15.25 30.2 9.3 26.95 9.6 25.75 10.8 22.7 Q11.45 21.4 12.4 20.1 L13.0 19.3 13.35 18.6 13.7 17.05 Q13.8 16.2 13.45 15.65 L12.6 14.85 12.15 14.65 11.9 14.5 11.7 14.2 7.9 14.2 Q7.4 14.2 7.1 13.45 L6.5 10.55 6.25 10.5 6.15 10.85 6.8 13.0 6.5 13.55 4.95 13.55 4.6 12.9 5.6 10.9 5.55 10.45 5.15 10.65 4.45 11.55 4.0 12.65 3.9 13.05 3.35 16.45 2.6 20.0 2.2 20.35 1.9 20.45 1.1 20.45 0.3 20.1 0.0 19.65 0.05 19.15 0.4 16.9 0.85 13.8 0.9 9.85 0.9 7.15 1.0 6.1 Q1.25 5.85 1.6 5.85 L3.6 6.05 5.15 6.4 6.5 6.4 6.55 5.6 6.85 4.55 7.4 3.25 7.8 3.0 7.95 3.0 11.6 3.0 11.95 3.15 13.7 3.15 13.75 1.75 Q13.9 1.25 14.2 1.05 L14.8 0.9 15.3 0.9 15.5 1.65 15.9 0.65 18.0 1.55 17.55 2.35 18.0 3.1 36.9 3.1 37.3 3.15 60.05 3.15 60.05 2.65 59.75 2.65 59.75 0.25 59.95 0.0 60.8 0.0 61.5 1.95 61.5 3.15 61.95 3.15 62.3 3.65 62.3 5.35 62.0 5.35 62.0 5.9 89.25 5.9 89.45 6.8 M27.1 17.5 L26.75 17.15 22.7 17.15 22.5 17.55 22.2 18.35 22.3 19.25 22.5 20.0 22.55 20.5 22.15 20.3 Q21.7 19.65 21.55 19.0 L21.4 17.7 21.4 17.15 20.4 17.15 19.95 18.2 19.5 19.4 19.5 20.3 Q19.9 20.7 20.55 20.85 L25.6 20.85 26.05 20.45 27.1 17.5" fill="#ffffff" fill-rule="evenodd" stroke="none"/>
    </g>
  </defs>
</svg>
