<?xml version="1.0" encoding="UTF-8" standalone="no"?>
<svg xmlns:xlink="http://www.w3.org/1999/xlink" height="34.6px" width="87.1px" xmlns="http://www.w3.org/2000/svg">
  <g transform="matrix(1.0, 0.0, 0.0, 1.0, 0.0, 0.7)">
    <use height="34.6" transform="matrix(1.0, 0.0, 0.0, 1.0, 0.0, -0.7)" width="87.1" xlink:href="#shape0"/>
  </g>
  <defs>
    <g id="shape0" transform="matrix(1.0, 0.0, 0.0, 1.0, 0.0, 0.7)">
      <path d="M37.85 -0.2 L38.0 -0.3 38.0 -0.4 38.0 -0.5 38.0 -0.6 38.0 -0.7 38.6 -0.65 38.6 -0.55 39.2 -0.5 39.2 -0.4 39.35 -0.35 39.35 -0.25 39.5 -0.2 39.5 -0.05 39.6 0.05 39.7 0.15 39.85 0.25 40.0 0.4 40.05 0.45 40.45 0.55 40.45 0.65 40.6 0.7 40.6 0.8 77.65 0.8 77.9 0.9 78.0 1.0 78.15 1.1 78.2 1.2 78.25 1.35 78.3 1.45 78.3 1.5 78.35 1.5 78.45 1.65 78.95 3.4 Q79.45 5.15 79.85 5.15 L81.4 5.15 81.7 5.05 82.0 5.05 82.0 5.0 83.45 5.0 83.8 5.05 84.1 5.15 86.25 5.15 86.45 5.25 86.55 5.4 87.1 5.45 87.05 10.25 87.0 10.35 86.95 10.5 86.75 10.7 86.55 10.7 86.3 10.65 86.3 10.7 81.9 10.7 83.85 15.1 83.85 15.25 83.85 15.35 83.9 15.5 83.9 15.55 83.9 15.7 83.9 15.8 83.9 15.95 83.9 16.9 81.9 16.95 79.95 13.4 78.35 13.5 78.1 13.55 77.85 13.55 77.75 13.55 77.7 13.65 77.65 13.75 77.65 13.9 77.65 14.0 77.6 14.1 77.55 14.25 77.55 14.35 77.55 14.5 77.55 14.55 77.55 14.7 77.55 14.8 77.55 14.95 77.55 15.05 77.55 15.15 77.55 15.25 77.55 15.4 77.55 15.5 77.55 15.6 77.55 15.75 77.55 15.85 77.55 16.0 77.55 16.05 77.55 16.2 77.55 16.3 77.55 16.45 77.55 16.5 77.55 16.65 77.55 16.75 77.55 16.9 77.55 16.95 77.55 17.1 77.55 17.15 77.55 17.3 77.55 17.4 77.65 17.5 77.65 17.65 77.65 17.75 77.65 17.9 77.65 17.95 77.65 18.1 77.65 18.2 77.65 18.35 77.65 18.4 77.65 18.55 77.65 18.65 77.65 18.8 77.7 18.9 77.8 19.0 77.85 19.15 77.85 19.25 77.85 19.35 77.85 19.45 77.85 19.6 77.85 19.7 77.85 19.85 77.85 19.9 77.85 20.05 77.85 20.15 77.85 20.3 77.9 20.35 77.95 20.5 78.0 20.6 78.0 20.75 78.0 20.85 78.05 20.95 78.1 21.1 78.1 21.2 78.1 21.3 78.15 21.4 78.2 21.55 78.25 21.65 78.3 21.75 78.3 21.85 78.4 22.0 78.45 22.1 78.45 22.25 78.45 22.35 78.5 22.45 78.5 22.6 78.55 22.7 78.6 22.8 78.65 22.9 78.7 23.05 78.75 23.15 78.75 23.25 78.85 23.35 78.9 23.5 78.9 23.6 78.9 23.7 78.9 23.8 78.9 23.95 79.0 24.05 79.0 24.2 79.0 24.3 79.0 24.4 79.1 24.55 79.15 24.65 79.2 24.75 79.2 24.85 79.2 25.0 79.25 25.1 79.3 25.2 79.4 25.3 79.4 25.45 79.4 25.55 79.4 25.65 79.5 25.8 79.5 25.9 79.5 26.05 79.5 26.1 79.55 26.25 79.65 26.35 79.65 26.5 79.65 26.6 79.65 26.7 79.7 26.8 79.8 26.95 79.85 27.05 79.85 27.15 79.85 27.25 79.9 27.4 79.95 27.5 79.95 27.6 79.95 27.75 79.95 27.85 79.95 28.0 80.0 28.05 80.1 28.2 80.15 28.3 80.15 28.45 80.15 28.5 80.15 28.65 80.15 28.75 80.15 28.9 80.15 29.0 80.15 29.1 80.15 29.25 80.15 29.35 80.15 29.45 80.15 29.55 80.15 29.7 80.15 29.8 80.15 29.95 80.15 30.0 80.15 30.15 80.15 30.25 80.15 30.4 80.15 30.45 80.15 30.6 80.15 30.7 80.15 30.85 80.15 30.95 80.15 31.05 80.1 31.2 80.1 31.25 80.15 31.4 80.15 31.45 80.05 31.6 80.0 31.7 79.95 31.8 79.9 31.85 79.6 31.95 79.35 32.0 79.2 32.1 79.0 32.15 78.75 32.2 78.65 32.3 78.45 32.35 77.95 32.4 77.85 32.4 77.65 32.45 77.0 32.5 76.75 32.6 75.05 32.65 74.95 32.75 74.75 32.8 73.75 32.9 73.65 32.95 73.4 33.05 73.15 32.95 73.0 32.9 72.95 32.9 72.7 32.85 72.5 32.7 72.35 32.6 72.25 32.45 72.25 32.4 72.2 32.25 72.2 32.15 72.15 32.0 72.05 31.95 72.05 31.8 72.05 31.7 71.95 31.55 71.85 31.45 71.8 31.35 71.8 31.2 71.75 31.1 71.75 30.95 71.75 30.9 71.65 30.75 71.55 30.65 71.55 30.5 71.55 30.45 71.5 30.3 71.4 30.2 71.35 30.05 71.35 29.95 71.35 29.85 71.3 29.7 71.3 29.6 71.3 29.5 71.3 29.4 71.3 29.25 71.3 29.15 71.2 29.0 71.1 28.95 71.05 28.8 70.95 28.7 70.9 28.55 70.9 28.5 70.9 28.35 70.9 28.25 70.9 28.1 70.85 28.0 70.8 27.9 70.8 27.75 70.8 27.65 70.8 27.55 70.8 27.45 70.8 27.3 70.7 27.2 70.65 27.05 70.65 27.0 70.65 26.85 70.65 26.75 70.65 26.6 70.65 26.5 70.65 26.4 70.65 26.25 70.65 26.15 70.6 26.05 70.55 25.95 70.5 25.8 70.5 25.7 70.5 25.6 70.5 25.5 70.5 25.35 70.5 25.25 70.5 25.15 70.5 25.05 70.5 24.9 70.5 24.8 70.5 24.65 70.5 24.55 70.5 24.45 70.5 24.3 70.5 24.2 70.45 24.1 70.35 24.0 70.3 23.85 70.3 23.75 70.3 23.65 70.3 23.55 70.3 23.4 70.3 23.3 70.3 23.2 70.3 23.05 70.3 22.95 70.3 22.8 70.3 22.75 70.3 22.6 70.3 22.5 70.3 22.35 70.3 22.25 70.3 22.15 70.3 22.05 70.2 21.9 70.2 21.8 70.2 21.7 70.2 21.6 70.2 21.45 70.2 21.35 70.2 21.25 70.2 21.1 70.2 21.0 70.2 20.85 70.2 20.8 70.2 20.65 70.2 20.55 70.2 20.4 70.2 20.35 70.2 20.2 70.2 20.1 70.2 19.95 70.2 19.85 70.2 19.75 70.15 19.6 70.05 19.5 70.05 19.4 70.05 19.3 70.05 19.15 70.05 19.05 70.05 18.9 70.05 18.85 70.05 18.7 70.05 18.6 70.05 18.45 70.05 18.4 70.05 18.25 70.05 18.15 70.05 18.0 70.05 17.9 70.05 17.8 70.05 17.65 70.05 17.55 70.05 17.4 70.05 17.35 70.0 17.2 69.85 17.15 69.8 17.0 69.8 16.95 69.8 16.8 69.8 16.65 69.65 16.5 69.55 16.45 69.55 16.3 69.55 16.2 69.55 16.05 69.5 16.0 69.4 15.9 69.3 15.85 69.0 15.75 68.85 15.65 68.85 15.6 68.75 15.55 68.45 15.5 68.35 15.5 68.2 15.5 67.9 15.5 67.6 15.5 67.35 15.55 67.3 15.7 67.1 15.8 66.9 15.95 66.85 16.0 66.85 16.15 66.7 16.25 66.6 16.4 66.45 16.5 66.35 16.6 66.3 16.7 66.15 16.85 66.0 16.95 65.9 17.05 65.85 17.15 65.6 17.25 65.45 17.4 65.35 17.45 65.3 17.6 65.15 17.7 65.05 17.85 64.95 17.9 64.7 18.05 64.6 18.15 64.45 18.3 64.3 18.4 64.2 18.5 64.1 18.65 64.0 18.75 63.9 18.85 63.6 18.9 63.4 19.0 63.3 19.15 Q63.25 19.15 63.15 19.25 L62.85 19.35 62.5 19.45 62.3 19.6 62.1 19.7 61.9 19.8 61.55 19.85 61.45 19.85 61.25 19.85 60.4 19.95 60.15 20.05 58.05 20.05 57.75 19.95 57.2 19.85 56.95 19.85 56.85 19.7 56.7 19.6 56.65 19.45 56.5 19.35 56.2 19.25 56.1 19.15 55.95 19.0 55.8 18.9 55.75 19.0 55.7 19.15 55.6 19.25 55.6 19.35 55.55 19.45 55.5 19.6 55.4 19.7 55.35 19.85 55.25 19.9 55.25 20.05 55.25 20.15 55.2 20.3 55.15 20.35 55.1 20.5 55.0 20.6 55.0 20.75 55.0 20.85 55.0 20.95 54.95 21.1 54.9 21.2 54.8 21.3 54.8 21.4 54.8 21.55 54.8 21.65 54.75 21.75 54.7 21.85 54.65 22.0 54.6 22.1 54.5 22.25 54.5 22.35 54.5 22.45 54.45 22.6 54.35 22.7 54.3 22.8 54.3 22.9 54.25 23.05 54.25 23.15 54.25 23.25 54.25 23.35 54.25 23.5 54.25 23.6 54.25 23.7 54.2 23.8 54.15 23.95 54.05 24.05 54.05 24.2 54.05 24.3 54.05 24.4 54.05 24.55 54.05 24.65 54.05 24.75 54.0 24.85 53.95 25.0 53.85 25.1 53.85 25.2 53.85 25.3 53.85 25.45 53.85 25.55 53.85 25.65 53.85 25.8 53.8 25.9 53.75 26.05 53.75 26.1 53.75 26.25 53.75 26.35 53.75 26.5 53.75 26.6 53.75 26.7 53.75 26.8 53.75 26.95 53.75 27.05 53.75 27.15 53.75 27.25 53.75 27.4 53.75 27.5 53.75 27.6 53.75 27.75 53.75 27.85 53.75 28.0 53.75 28.05 53.75 28.2 53.75 28.3 53.75 28.45 53.75 28.5 53.75 28.65 53.75 28.75 53.75 28.9 53.75 29.0 53.75 29.1 53.75 29.25 53.75 29.35 53.75 29.45 53.75 29.55 53.75 29.7 53.75 29.8 53.75 29.95 53.75 30.0 53.75 30.15 53.75 30.25 53.75 30.4 53.75 30.45 53.75 30.6 53.75 30.7 53.75 30.85 53.75 30.95 53.75 31.05 53.75 31.2 53.75 31.3 53.75 31.45 53.75 31.5 53.75 31.65 53.75 31.75 53.75 31.9 53.75 31.95 53.75 32.1 53.75 32.2 53.75 32.35 53.75 32.45 53.75 32.55 53.7 32.65 53.6 32.8 53.5 32.9 53.3 32.9 53.3 32.95 53.3 33.1 53.3 33.2 53.3 33.35 53.3 33.4 53.3 33.55 53.3 33.65 53.3 33.8 53.3 33.9 44.6 33.9 44.6 33.85 44.6 33.75 44.6 33.65 44.6 33.5 44.6 33.4 44.6 33.3 44.6 33.15 44.6 33.05 44.6 32.9 44.6 32.85 43.6 32.85 43.5 32.9 43.3 32.9 43.05 32.9 42.9 32.9 42.7 32.9 42.45 32.9 42.2 32.85 42.05 32.7 41.95 32.6 41.95 32.45 41.95 32.4 41.95 32.25 41.85 32.15 41.75 32.0 41.75 31.95 41.75 31.8 41.75 31.7 41.75 31.55 41.75 31.45 41.75 31.35 41.75 31.2 41.75 31.1 41.75 30.95 41.75 30.9 41.75 30.75 41.75 30.65 41.7 30.5 41.7 30.45 41.7 30.3 41.7 30.2 41.7 30.05 41.7 29.95 41.7 29.85 41.7 29.7 41.7 29.6 41.7 29.5 41.7 29.4 41.7 29.25 41.7 29.15 41.7 29.0 41.7 28.95 41.7 28.8 41.7 28.7 41.7 28.55 41.7 28.5 41.7 28.35 41.7 28.25 41.7 28.1 41.75 28.0 41.75 27.9 41.75 27.75 41.75 27.65 41.75 27.55 41.75 27.45 41.75 27.3 41.75 27.2 41.75 27.05 41.75 27.0 41.75 26.85 41.75 26.75 41.75 26.6 41.75 26.5 41.75 26.4 41.75 26.25 41.75 26.15 41.75 26.05 41.75 25.95 41.75 25.8 41.75 25.7 41.75 25.6 41.8 25.5 41.95 25.35 41.95 25.25 41.95 25.15 41.95 25.05 41.95 24.9 41.95 24.8 41.95 24.65 42.0 24.55 42.1 24.45 42.15 24.3 42.15 24.2 42.15 24.1 42.2 24.0 42.2 23.85 42.2 23.75 42.2 23.65 42.2 23.55 42.2 23.4 42.2 23.3 42.25 23.2 42.4 23.05 42.45 22.95 42.55 22.8 42.6 22.75 42.6 22.6 42.65 22.5 42.7 22.35 42.7 22.25 42.7 22.15 42.75 22.05 42.8 21.9 42.85 21.8 42.85 21.7 42.9 21.6 42.95 21.45 43.1 21.35 43.2 21.25 43.2 21.1 43.25 21.0 43.3 20.85 43.3 20.8 43.3 20.65 43.4 20.55 43.45 20.4 43.55 20.35 43.65 20.2 43.65 20.1 43.7 19.95 43.75 19.85 43.75 19.75 43.75 19.6 43.85 19.5 43.9 19.4 43.95 19.3 44.05 19.15 44.15 19.05 44.2 18.9 44.2 18.85 44.2 18.7 44.3 18.6 44.4 18.45 44.4 18.4 44.4 18.25 44.4 18.15 44.45 18.0 44.55 17.9 44.6 17.8 44.6 17.65 44.6 17.55 44.6 17.4 44.6 17.35 44.65 17.2 44.65 17.15 44.65 17.0 44.65 16.95 44.65 16.8 44.65 16.7 44.65 16.55 44.65 16.45 44.6 16.35 44.6 16.25 44.6 16.1 44.55 16.0 44.45 15.9 44.4 15.75 44.3 15.65 44.2 15.5 44.2 15.45 44.15 15.3 44.05 15.2 43.95 15.05 43.9 15.0 43.85 14.85 43.7 14.75 43.65 14.6 43.65 14.5 43.5 14.4 43.4 14.25 35.2 14.3 29.5 14.35 29.4 14.5 29.3 14.55 29.15 14.55 28.95 14.55 28.7 14.5 28.5 14.4 28.4 14.25 28.3 14.15 28.3 14.05 28.3 14.0 28.2 13.95 28.15 13.8 28.05 13.7 28.05 13.6 28.05 13.5 28.05 13.35 28.05 13.25 28.05 13.1 28.05 13.0 28.05 12.9 28.05 12.8 28.05 12.65 28.05 12.55 28.05 12.45 28.05 12.3 28.05 12.2 28.05 12.1 28.05 12.0 28.05 11.85 28.05 11.75 28.05 11.65 28.05 11.55 28.05 11.4 28.05 11.3 28.05 11.2 28.05 11.05 28.05 10.95 28.05 10.8 28.05 10.7 28.05 10.6 28.05 10.5 28.05 10.35 28.05 10.25 28.05 10.15 28.05 10.05 28.05 9.9 28.05 9.8 28.05 9.75 27.4 9.75 27.15 9.75 26.85 9.65 26.75 9.55 26.65 9.6 26.4 9.5 26.3 9.35 26.2 9.25 26.2 9.15 26.2 9.1 3.1 9.1 3.1 10.0 3.05 10.1 3.0 10.15 3.0 10.75 3.05 10.75 3.1 10.8 3.05 10.9 2.15 20.7 2.1 20.75 2.1 20.85 2.05 20.9 1.6 22.4 0.0 22.55 0.0 6.1 0.1 6.1 0.3 6.05 0.3 6.0 0.4 6.0 0.55 6.1 0.65 6.2 0.65 6.3 3.25 6.3 3.4 6.35 3.45 6.4 3.55 6.45 26.5 6.45 27.35 6.45 29.85 6.4 29.95 6.4 30.15 6.4 30.15 6.35 30.15 6.25 30.15 6.15 30.15 6.0 30.15 5.9 30.15 5.8 30.15 5.65 30.15 5.55 30.15 5.4 30.15 5.35 30.15 5.2 30.15 5.1 30.15 4.95 30.15 4.9 30.15 4.75 30.15 4.65 30.15 4.5 30.15 4.4 30.15 4.3 30.15 4.15 30.15 4.05 30.15 3.9 30.15 3.85 30.15 3.7 30.15 3.6 30.15 3.45 30.15 3.4 30.15 3.25 30.15 3.15 30.15 3.0 30.15 2.95 30.15 2.8 30.15 2.7 30.15 2.55 30.15 2.45 30.15 2.35 30.15 2.2 30.15 2.1 30.15 2.0 30.15 1.9 30.15 1.75 30.15 1.65 30.15 1.5 30.15 1.45 30.15 1.3 30.2 1.2 30.35 1.05 30.55 1.05 30.6 0.95 30.65 0.9 30.75 0.85 30.95 0.85 30.95 0.8 37.4 0.8 37.4 0.7 37.4 0.55 37.4 0.45 37.4 0.35 37.4 0.25 37.4 0.2 37.65 0.15 37.65 0.05 37.65 -0.05 37.85 -0.2 M59.1 17.4 Q57.85 16.15 57.7 14.5 L57.35 14.8 Q56.7 15.45 56.35 16.25 L56.5 16.4 Q57.85 17.7 59.6 17.85 L59.1 17.4 M64.6 15.0 L64.4 14.8 Q62.95 13.35 60.9 13.35 L59.4 13.6 59.3 14.6 Q59.3 16.45 60.5 17.85 62.25 17.7 63.55 16.4 L64.6 15.0 M42.75 31.55 L42.75 31.45 42.7 31.45 42.75 31.6 42.75 31.55" fill="#ffffff" fill-rule="evenodd" stroke="none"/>
    </g>
  </defs>
</svg>
