<?xml version="1.0" encoding="UTF-8" standalone="no"?>
<svg xmlns:xlink="http://www.w3.org/1999/xlink" height="33.9px" width="133.4px" xmlns="http://www.w3.org/2000/svg">
  <g transform="matrix(1.0, 0.0, 0.0, 1.0, -0.55, 0.55)">
    <use height="33.9" transform="matrix(1.0, 0.0, 0.0, 1.0, 0.55, -0.55)" width="133.4" xlink:href="#shape0"/>
  </g>
  <defs>
    <g id="shape0" transform="matrix(1.0, 0.0, 0.0, 1.0, -0.55, 0.55)">
      <path d="M51.2 -0.55 L53.75 -0.55 53.9 -0.55 54.35 -0.55 54.5 -0.5 54.6 -0.35 54.65 -0.3 54.7 -0.2 54.7 -0.1 54.7 0.0 54.65 0.1 54.6 0.2 54.55 0.25 54.55 0.3 54.55 0.4 54.55 0.5 54.55 0.6 54.55 0.65 54.55 0.75 54.55 0.85 54.55 1.0 54.55 1.1 54.55 1.15 54.55 1.25 54.55 1.35 54.55 1.45 54.55 1.55 54.6 1.55 54.65 1.6 54.7 1.75 54.65 1.85 54.6 1.95 54.55 2.0 54.55 2.1 54.55 2.2 54.55 2.3 54.55 2.45 54.55 2.5 54.55 2.6 54.55 2.7 54.55 2.8 54.55 2.9 54.55 2.95 54.55 3.1 54.55 3.2 54.55 3.3 54.55 3.35 54.5 3.45 54.5 3.5 64.8 3.5 64.9 3.55 64.95 3.5 65.35 3.4 65.6 3.35 65.9 3.25 66.15 3.15 66.5 3.05 66.75 2.95 67.05 2.85 67.25 2.75 67.55 2.7 67.6 2.6 67.7 2.5 67.85 2.45 67.95 2.3 68.15 2.25 68.4 2.2 68.6 2.05 68.7 2.0 68.8 1.95 68.85 1.95 68.85 1.85 68.95 1.75 69.05 1.65 69.2 1.65 69.2 1.6 71.4 1.6 71.4 1.55 72.15 1.55 72.15 1.6 72.6 1.6 72.65 1.55 73.35 1.55 73.4 1.6 75.9 1.6 76.0 1.6 76.2 1.65 76.25 1.75 76.45 1.85 76.55 1.95 76.6 2.0 76.65 2.1 76.65 2.2 76.6 2.3 76.55 2.4 76.55 2.45 76.45 2.5 76.4 2.65 76.4 2.75 76.4 2.85 76.4 2.9 76.4 3.0 76.4 3.2 76.4 3.3 76.4 3.4 76.4 3.55 76.4 3.7 76.4 3.8 76.4 3.95 76.4 4.1 76.4 4.25 76.4 4.4 76.4 4.55 76.4 4.7 76.4 4.8 76.4 4.95 76.4 5.1 76.4 5.2 76.4 5.35 76.4 5.5 76.4 5.6 76.4 5.8 76.4 5.95 76.4 6.05 76.4 6.2 76.4 6.35 76.4 6.5 76.4 6.6 76.4 6.75 76.4 6.9 76.4 7.05 76.4 7.2 76.4 7.35 76.4 7.45 76.4 7.6 76.4 7.75 76.4 7.85 76.4 8.0 76.4 8.15 76.4 8.3 76.4 8.45 76.4 8.55 126.15 8.55 133.2 8.55 133.5 8.65 133.65 8.75 133.65 8.8 133.8 8.95 133.9 9.1 133.95 9.2 133.95 9.35 133.95 9.5 133.95 9.65 133.9 9.8 133.85 9.95 133.75 10.1 133.75 10.2 133.75 10.35 133.75 10.5 133.75 10.6 133.75 10.75 133.75 10.9 133.75 11.0 133.75 11.1 133.75 11.2 133.75 11.25 133.75 11.4 133.7 11.5 133.65 11.65 133.5 11.8 133.2 11.9 132.85 11.9 132.6 11.9 132.25 11.8 100.15 11.7 100.15 11.8 100.15 11.9 100.15 12.0 100.15 12.15 100.15 12.25 100.2 12.3 100.2 12.45 100.2 12.6 100.2 12.75 100.2 12.85 100.2 13.0 100.2 13.15 100.2 13.3 100.2 13.4 100.2 13.55 100.2 13.7 100.2 13.85 100.2 14.0 100.2 14.15 100.2 14.25 100.2 14.4 100.2 14.8 100.2 14.95 100.2 15.1 100.2 15.25 100.2 15.4 100.2 15.55 100.2 15.65 100.2 15.8 100.2 15.95 100.2 16.05 100.2 17.0 100.1 17.05 100.05 17.05 100.05 17.2 100.05 17.35 100.05 17.45 100.05 17.6 100.05 17.75 100.05 17.9 100.05 18.05 100.05 18.2 100.05 18.3 100.05 18.45 100.05 18.6 100.05 18.7 100.05 18.85 99.95 19.0 99.9 19.15 99.8 19.25 99.75 19.3 99.8 19.4 99.85 19.55 99.8 19.65 99.75 19.75 99.75 20.1 99.75 20.45 99.75 20.8 99.75 21.1 99.75 21.45 99.75 21.8 99.75 22.15 99.75 22.45 99.75 22.8 99.75 23.15 99.75 23.5 99.75 23.8 99.75 23.85 99.9 23.9 100.0 24.05 100.05 24.15 100.05 24.25 100.1 24.25 100.2 24.4 100.2 24.55 100.2 24.7 100.1 24.85 100.1 24.9 100.1 25.0 100.1 25.1 100.1 25.2 100.1 25.3 100.1 25.4 100.1 25.5 100.1 25.55 100.1 25.65 100.1 25.7 100.05 25.7 100.05 25.75 100.1 25.75 100.15 25.8 100.2 25.8 100.4 25.9 100.5 25.95 100.55 26.05 100.6 26.15 100.6 26.25 100.65 26.4 100.65 26.45 100.7 26.55 100.7 26.65 100.75 26.75 100.8 26.85 100.85 26.9 100.9 27.05 100.95 27.15 101.05 27.25 101.1 27.3 101.1 27.4 101.15 27.5 101.15 27.6 101.2 27.75 101.25 27.8 101.3 27.9 101.3 28.0 101.35 28.1 101.4 28.2 101.45 28.25 101.5 28.4 101.55 28.5 101.55 28.6 101.6 28.65 101.6 28.75 101.65 28.85 101.7 28.95 101.75 29.1 101.8 29.15 101.85 29.25 101.9 29.35 101.95 29.45 102.0 29.55 102.0 29.6 102.0 29.7 102.05 29.85 102.2 29.95 102.3 30.0 102.3 30.1 102.4 30.2 102.4 30.3 102.55 30.4 102.65 30.45 102.75 30.55 102.8 30.65 102.9 30.75 102.9 30.85 102.9 30.95 102.9 31.05 102.9 31.15 102.9 31.25 102.9 31.35 102.85 31.4 102.8 31.5 102.9 31.5 102.95 31.65 103.0 31.75 103.05 31.8 103.05 31.9 102.95 32.0 102.95 32.1 102.9 32.2 102.85 32.3 102.75 32.4 102.75 32.5 102.65 32.6 102.6 32.7 102.5 32.75 102.5 32.85 102.5 33.0 102.45 33.1 102.45 33.15 102.4 33.25 102.3 33.3 102.1 33.35 102.0 33.35 101.85 33.35 99.4 33.35 99.2 33.3 99.1 33.2 99.05 33.1 99.05 33.0 99.05 32.9 99.05 32.8 99.05 32.75 99.05 32.65 99.05 32.55 99.05 32.45 99.05 32.35 99.05 32.25 99.05 32.2 99.05 32.1 99.05 31.95 99.05 31.85 99.05 31.8 99.05 31.7 99.05 31.6 99.05 31.5 99.05 31.4 99.05 31.3 99.05 31.2 99.05 31.1 99.05 31.0 99.05 30.9 99.05 30.85 99.1 30.75 99.2 30.6 99.2 30.5 99.2 30.4 99.25 30.3 99.3 30.25 99.4 30.2 99.55 30.15 99.7 30.1 99.75 30.1 99.7 30.05 99.7 30.0 99.7 29.9 99.7 29.8 99.65 29.7 99.6 29.6 99.6 29.5 99.55 29.4 99.45 29.3 99.4 29.2 99.35 29.1 99.25 29.05 99.25 28.95 99.25 28.85 99.25 28.7 99.2 28.65 99.15 28.55 99.05 28.45 99.05 28.35 99.05 28.25 99.0 28.2 98.95 28.05 98.9 27.95 98.85 27.85 98.8 27.75 98.8 27.7 98.75 27.6 98.7 27.5 98.65 27.35 98.6 27.3 98.55 27.2 98.55 27.1 98.5 27.0 98.45 26.9 98.35 26.85 98.35 26.7 98.35 26.6 98.4 26.5 98.45 26.45 96.0 26.5 95.75 26.6 95.4 26.6 95.25 26.55 95.2 26.55 95.05 26.6 94.75 26.5 94.65 26.4 94.65 26.25 94.65 26.1 94.65 25.95 94.65 25.8 94.65 25.65 94.65 25.5 94.65 25.4 94.65 25.25 94.65 25.1 94.65 25.0 94.65 24.85 94.65 24.7 94.7 24.55 94.65 24.4 94.65 24.25 94.75 24.15 94.8 24.05 95.0 23.9 95.2 23.8 95.95 23.75 95.95 23.7 95.95 23.6 95.95 23.45 95.95 23.3 95.95 23.15 95.95 23.0 96.0 22.85 95.2 22.85 95.0 22.8 94.8 22.65 94.75 22.6 94.65 22.45 94.65 22.35 94.65 22.2 94.65 22.05 94.65 21.85 94.65 21.75 94.65 21.6 94.65 21.45 94.75 21.35 94.75 21.3 94.65 21.15 94.65 21.0 94.65 20.9 94.65 20.75 94.75 20.6 94.8 20.5 95.05 20.5 95.05 20.45 95.4 20.45 95.75 20.45 95.7 20.4 95.7 20.25 95.7 20.1 95.7 20.0 95.7 19.85 95.7 19.7 95.7 19.6 95.7 19.45 95.7 19.3 95.7 19.15 95.7 19.0 95.7 18.85 95.7 18.7 95.7 18.6 95.7 18.45 95.7 18.3 95.7 18.2 95.7 18.05 95.7 17.9 95.7 17.75 95.7 17.6 95.7 17.45 95.7 17.35 95.7 17.25 95.6 17.3 95.25 17.2 95.15 17.05 95.15 17.0 95.1 17.0 94.95 16.9 94.8 16.75 94.8 16.6 94.8 16.45 94.75 16.45 94.75 16.35 94.75 16.25 94.75 16.15 94.75 16.05 94.75 15.95 94.75 15.85 94.75 15.75 94.75 15.65 94.75 15.4 94.65 15.25 94.65 15.15 94.65 15.1 63.35 15.05 63.15 15.0 63.1 15.05 63.05 15.2 62.95 15.35 62.8 15.5 62.65 15.6 62.55 15.75 62.45 15.9 62.35 16.0 62.25 16.15 62.15 16.3 62.0 16.45 61.85 16.6 61.8 16.75 61.75 16.9 61.65 17.0 61.5 17.15 61.35 17.3 61.25 17.4 61.15 17.55 61.05 17.7 61.0 17.8 60.85 18.0 60.75 18.15 60.65 18.25 60.6 18.4 60.45 18.55 60.4 18.7 60.3 18.8 60.25 18.95 60.1 19.1 59.95 19.25 59.85 19.4 59.8 19.55 59.7 19.65 59.65 19.8 59.5 19.95 59.5 20.05 59.35 20.2 59.25 20.35 59.15 20.5 59.1 20.65 59.0 20.8 58.9 20.95 58.8 21.05 58.75 21.15 56.6 21.15 56.6 21.2 39.55 21.2 39.15 21.1 39.15 21.2 39.1 21.25 39.1 21.4 39.05 21.4 39.05 21.5 39.0 21.55 39.0 21.6 38.85 21.65 38.85 21.7 38.8 21.75 38.8 21.9 38.75 21.95 38.75 22.0 38.7 22.05 38.7 22.2 38.65 22.25 38.6 22.3 38.6 22.35 38.55 22.35 38.55 22.55 38.5 22.6 38.5 22.65 38.45 22.7 38.4 22.75 38.4 22.8 38.35 22.8 38.35 22.85 38.3 22.9 38.3 22.95 38.25 23.0 38.25 23.1 38.2 23.15 38.15 23.2 38.15 23.3 38.1 23.35 38.05 23.35 38.0 23.55 37.35 24.95 37.7 28.15 37.6 28.5 37.3 28.65 37.0 28.6 36.9 28.7 36.65 28.9 34.35 29.25 34.1 29.25 30.7 27.9 30.5 27.65 30.4 27.55 30.25 27.2 30.4 26.3 Q30.4 26.1 30.55 26.0 L30.75 25.9 30.75 24.85 30.8 24.8 30.8 24.1 30.85 24.05 30.85 24.0 30.9 23.95 30.9 23.8 31.0 23.75 31.0 23.7 31.05 23.7 31.05 23.6 31.2 23.45 31.2 23.35 31.25 23.3 31.3 23.25 31.4 23.25 31.4 23.2 31.45 23.15 31.45 23.05 31.5 23.0 31.5 22.9 31.6 22.85 31.65 22.8 31.65 22.75 31.7 22.7 31.75 22.65 31.75 22.6 31.8 22.55 31.85 22.55 31.9 22.5 31.9 22.3 31.95 22.25 31.95 22.2 32.0 22.15 32.0 22.1 32.05 22.05 32.1 22.0 32.1 21.95 32.15 21.9 32.25 21.85 32.35 21.75 32.35 21.7 32.4 21.65 32.4 21.55 32.5 21.5 32.55 21.45 32.55 21.4 32.6 21.35 32.65 21.3 32.65 21.2 32.7 21.15 32.8 21.05 32.8 20.9 32.85 20.85 32.9 20.8 32.9 20.75 32.95 20.7 33.0 20.65 33.0 20.6 33.05 20.55 33.05 20.5 33.1 20.5 33.1 20.4 33.15 20.35 33.2 20.3 33.2 20.25 33.25 20.2 33.25 20.05 33.3 20.0 33.3 19.9 33.35 19.85 33.35 19.8 33.45 19.75 33.5 19.7 33.5 19.65 33.55 19.6 33.55 19.55 33.6 19.5 33.6 19.4 33.65 19.35 33.7 19.3 33.7 18.95 33.6 18.85 33.6 18.65 33.55 18.6 33.55 18.45 33.5 18.4 33.5 18.35 33.45 18.3 33.45 18.15 33.35 18.05 33.35 17.5 33.3 17.45 33.1 17.45 31.2 17.45 31.15 17.4 31.15 17.35 30.8 17.35 30.55 17.3 30.55 17.05 30.5 17.05 30.5 16.6 30.45 16.6 30.45 16.8 30.45 16.9 30.45 16.95 30.45 17.1 30.45 17.25 30.45 17.3 29.65 17.3 29.65 17.35 29.6 17.35 29.6 17.4 29.55 17.4 29.5 17.45 29.45 17.5 29.4 17.5 29.3 17.55 29.3 17.6 29.25 17.65 29.2 17.7 29.2 17.8 29.15 17.8 29.1 17.85 29.1 17.9 29.0 18.1 28.95 18.15 28.95 18.2 28.85 18.2 28.85 18.3 28.85 18.45 28.85 18.6 28.85 18.65 28.75 18.65 28.75 18.7 28.75 19.1 28.15 19.9 27.85 20.05 27.5 20.05 27.35 19.75 25.7 19.85 25.4 19.75 24.95 19.9 24.8 20.0 24.7 20.0 24.7 20.15 24.45 20.4 11.95 25.65 11.6 25.65 11.45 25.55 11.0 25.55 10.65 25.55 10.65 25.75 10.65 25.9 10.65 26.05 10.65 26.25 10.65 26.4 10.65 26.55 10.65 26.75 10.65 26.9 10.65 27.1 10.65 27.25 10.65 27.4 10.65 27.6 10.65 27.75 10.65 27.8 10.9 27.95 11.05 28.25 11.05 28.75 10.9 29.1 10.6 29.2 10.55 29.25 10.2 29.4 7.85 29.4 7.6 29.3 7.5 29.35 7.3 29.4 7.1 29.4 6.8 29.3 6.6 29.15 6.55 29.05 6.55 28.9 6.55 28.75 6.55 28.65 2.0 28.75 1.7 28.85 1.35 28.85 1.0 28.75 0.85 28.6 0.75 28.45 0.75 28.35 0.65 28.2 0.55 28.1 0.55 27.95 0.55 27.8 0.55 27.7 0.55 27.55 0.55 27.4 0.55 27.25 0.55 27.1 0.55 26.95 0.55 26.85 0.55 26.7 0.55 26.55 0.55 26.4 0.55 26.3 0.55 26.15 0.55 26.0 0.55 25.85 0.55 25.7 0.55 25.55 0.55 25.45 0.55 25.3 0.55 25.15 0.55 25.05 0.55 24.9 0.55 24.75 0.55 24.6 0.55 24.45 0.55 24.3 0.55 24.15 0.55 24.05 0.55 23.9 0.55 23.75 0.55 23.65 0.55 23.5 0.55 23.35 0.55 23.2 0.55 23.05 0.55 22.9 0.55 22.8 0.55 22.65 0.55 22.5 0.55 22.35 0.55 22.25 0.55 22.1 0.55 21.95 0.55 21.8 0.55 21.65 0.55 21.5 0.55 21.4 0.55 21.25 0.55 21.1 0.55 20.95 0.55 20.85 0.55 20.7 0.55 20.5 0.55 20.4 0.55 20.25 0.55 20.1 0.55 20.0 0.55 19.85 0.55 19.7 0.55 19.6 0.55 19.45 0.55 19.3 0.55 19.15 0.55 19.0 0.55 18.85 0.55 18.7 0.55 18.6 0.55 18.45 0.55 18.3 0.55 18.2 0.55 18.05 0.55 17.9 0.55 17.75 0.55 17.6 0.55 17.45 0.55 17.35 0.55 17.2 0.55 17.05 0.55 16.9 0.55 16.8 0.55 16.65 0.55 16.45 0.55 16.35 0.55 16.2 0.55 16.05 0.55 15.95 0.55 15.8 0.55 15.65 0.55 15.55 0.55 15.4 0.55 15.25 0.55 15.1 0.55 14.95 0.55 14.8 0.55 14.65 0.55 14.55 0.55 14.4 0.55 14.25 0.55 14.15 0.55 14.0 0.55 13.85 0.55 13.7 0.55 13.55 0.55 13.4 0.55 13.3 0.55 13.15 0.55 13.0 0.65 12.85 0.75 12.75 1.1 12.7 1.1 12.65 1.4 12.75 1.5 12.7 1.7 12.7 1.7 12.65 6.35 12.65 6.5 12.7 6.6 12.55 6.95 12.5 6.95 12.45 7.2 12.55 9.55 12.65 9.55 12.55 9.55 12.5 9.4 12.4 9.3 12.25 9.15 12.1 9.0 11.95 8.95 11.85 8.95 11.7 8.95 11.55 8.95 11.45 8.95 11.3 8.95 11.15 9.05 11.0 9.15 10.85 9.15 10.7 9.15 10.55 9.15 10.45 9.15 10.3 9.15 10.15 9.15 10.05 9.25 9.9 9.35 9.75 9.4 9.75 9.5 9.65 9.6 9.55 9.7 9.5 9.9 9.5 9.9 9.45 25.15 9.45 25.45 9.55 25.6 9.65 25.65 9.85 25.75 10.0 25.8 10.05 25.85 10.15 25.95 10.3 25.95 10.45 25.9 10.55 25.8 10.7 25.8 10.8 25.8 10.95 25.8 11.0 25.8 11.15 25.8 11.3 25.8 11.45 25.8 11.55 25.8 11.65 25.8 11.8 25.8 11.95 25.8 12.05 25.8 12.2 25.8 12.35 25.8 12.4 25.8 12.55 25.8 12.7 25.8 12.85 25.75 12.85 25.75 12.9 25.6 13.05 25.6 13.2 25.45 13.3 25.35 13.4 25.35 13.45 25.35 13.6 25.4 13.65 25.4 13.7 27.85 13.75 27.85 13.7 27.95 13.7 27.95 13.65 28.3 13.55 28.6 13.65 29.05 13.65 29.75 13.6 30.2 13.55 30.3 13.55 30.45 13.5 30.5 13.45 30.75 13.45 30.8 13.4 30.95 13.35 31.0 13.3 31.15 13.3 31.2 13.25 31.35 13.25 31.4 13.2 31.5 13.15 31.6 13.15 31.65 13.15 31.7 13.1 31.8 13.1 31.85 13.05 31.9 13.05 31.9 13.0 32.0 13.0 32.05 12.95 32.2 12.9 32.35 12.85 32.4 12.85 32.45 12.8 32.5 12.75 32.55 12.75 32.7 12.7 32.8 12.65 32.85 12.65 32.9 12.6 32.95 12.6 33.0 12.55 33.1 12.55 33.1 12.5 33.2 12.45 33.25 12.4 33.3 12.4 33.4 12.35 33.45 12.35 33.5 12.3 33.7 12.25 33.75 12.2 33.85 12.2 34.0 12.15 34.05 12.1 34.1 12.1 34.15 12.05 34.25 12.0 34.4 11.95 34.55 11.95 34.6 11.9 34.65 11.85 34.7 11.8 34.85 11.75 34.95 11.7 35.0 11.65 35.1 11.65 35.1 11.6 35.2 11.55 35.25 11.5 35.4 11.5 35.45 11.45 35.55 11.35 35.75 11.3 35.85 11.25 35.9 11.2 35.95 11.2 36.0 11.15 36.05 11.1 36.15 11.05 36.35 11.0 36.45 11.0 36.45 10.95 36.5 10.9 36.65 10.85 36.75 10.8 36.8 10.75 36.85 10.75 36.9 10.7 36.9 10.65 36.95 10.6 37.05 10.55 37.1 10.55 37.15 10.5 37.2 10.45 37.3 10.4 37.35 10.4 37.4 10.35 37.45 10.3 37.5 10.25 37.5 10.2 37.55 10.2 37.6 10.15 37.7 10.15 37.75 10.1 37.8 10.05 37.85 10.0 37.95 9.95 38.05 9.9 38.1 9.85 38.2 9.85 38.25 9.8 38.35 9.65 38.45 9.65 38.6 9.6 38.7 9.45 38.75 9.35 38.85 9.3 38.95 9.3 38.95 9.25 39.0 9.25 39.1 9.25 39.1 9.2 39.15 9.2 39.15 9.15 39.2 9.15 39.3 9.1 39.4 9.05 39.45 9.05 39.65 9.05 39.75 9.0 40.15 8.85 40.35 8.75 40.55 8.75 42.85 8.65 43.15 8.6 43.2 8.5 43.2 8.3 36.85 8.3 36.85 8.25 36.75 8.2 36.65 8.2 35.8 8.2 34.2 8.2 34.2 8.15 34.1 8.1 34.1 8.05 33.85 8.0 33.75 7.9 33.75 7.85 33.75 7.7 33.75 7.6 33.75 7.5 33.75 7.4 33.75 7.35 33.75 7.25 33.75 7.15 33.75 7.0 33.75 6.95 33.75 6.85 33.75 6.75 33.75 6.65 33.75 6.55 33.75 6.5 33.75 6.35 33.75 6.25 33.75 6.15 33.75 6.05 33.75 6.0 33.75 5.9 33.75 5.8 33.75 5.65 33.75 5.6 33.75 5.5 33.75 5.4 33.75 5.3 33.7 5.2 33.7 4.65 33.75 4.6 33.75 4.45 33.75 4.25 33.75 4.15 33.8 4.0 33.95 3.9 34.15 3.9 34.15 3.85 34.25 3.85 34.25 3.8 34.3 3.8 34.35 3.7 34.45 3.6 34.5 3.55 34.65 3.55 34.65 3.5 38.35 3.5 38.35 3.45 38.35 3.35 38.35 3.3 38.35 3.2 38.35 3.1 38.35 2.95 38.35 2.9 38.35 2.8 38.35 2.7 38.35 2.6 38.35 2.5 38.35 2.45 38.35 2.3 38.35 2.2 38.35 2.1 38.3 2.0 38.25 1.95 38.25 1.85 38.25 1.75 38.25 1.6 38.25 1.55 38.25 1.45 38.25 1.35 38.3 1.25 38.35 1.15 38.35 1.1 38.45 1.0 38.5 0.95 38.6 0.9 38.7 0.9 38.7 0.85 41.55 0.85 41.65 0.9 41.7 0.9 41.7 0.85 41.85 0.95 41.95 1.05 42.05 1.1 42.1 1.2 42.1 1.3 42.1 1.4 42.1 1.55 42.1 1.6 42.1 1.7 42.1 1.8 42.1 1.9 42.1 2.0 42.1 2.05 42.1 2.2 42.1 2.3 42.1 2.4 42.1 2.45 42.1 2.55 42.1 2.65 42.1 2.75 42.1 2.9 42.1 2.95 42.1 3.05 42.1 3.15 42.1 3.25 42.1 3.35 42.1 3.4 42.1 3.5 50.6 3.5 50.6 3.45 50.6 3.35 50.6 3.3 50.6 3.2 50.6 3.1 50.6 2.95 50.6 2.9 50.6 2.8 50.6 2.7 50.6 2.6 50.6 2.5 50.6 2.45 50.6 2.3 50.6 2.2 50.6 2.1 50.6 2.0 50.6 1.95 50.6 1.85 50.6 1.75 50.6 1.6 50.6 1.55 50.6 1.45 50.6 1.35 50.6 1.25 50.6 1.15 50.6 1.1 50.6 1.0 50.6 0.85 50.6 0.75 50.6 0.65 50.6 0.6 50.6 0.5 50.6 0.4 50.6 0.3 50.6 0.2 50.6 0.1 50.65 0.0 50.75 -0.1 50.8 -0.2 50.85 -0.3 50.9 -0.4 50.95 -0.5 51.05 -0.5 51.2 -0.5 51.2 -0.55 M96.5 18.5 L96.55 18.45 96.55 18.35 96.5 18.25 96.5 18.35 96.5 18.5 M42.15 17.6 L42.15 17.75 42.15 17.9 42.15 18.05 42.15 18.2 42.15 18.3 42.15 18.45 42.15 18.55 42.15 18.6 42.35 18.7 42.45 18.8 42.5 18.95 42.5 19.1 42.95 19.05 43.2 19.0 43.2 18.95 43.45 18.95 43.75 18.85 44.05 18.7 44.15 18.6 44.25 18.5 44.3 18.45 44.5 18.35 44.6 18.25 44.75 18.1 44.9 17.95 44.95 17.8 45.0 17.65 45.05 17.5 45.1 17.35 45.1 17.25 45.15 17.1 42.2 17.15 42.15 17.2 42.15 17.35 42.15 17.45 42.15 17.6 M40.65 19.1 L40.45 18.95 40.3 18.8 40.2 18.7 40.2 18.55 40.2 18.4 40.2 18.25 40.2 18.15 40.2 18.0 40.2 17.8 40.2 17.7 40.2 17.55 40.2 17.4 40.2 17.3 40.05 17.35 40.0 17.45 39.95 17.55 39.9 17.6 39.75 17.65 39.7 17.7 39.6 17.85 39.45 18.0 39.45 18.2 39.45 18.35 39.45 18.55 39.45 18.65 39.6 18.7 39.75 18.8 39.85 18.95 39.9 19.1 39.9 19.15 40.65 19.15 40.65 19.1 M32.6 16.85 L33.05 16.85 33.2 16.85 33.2 16.8 32.95 16.8 32.6 16.8 32.6 16.85 M33.9 17.45 L34.05 17.45 34.05 17.4 33.9 17.4 33.9 17.45 M12.8 20.1 L12.75 20.15 12.7 20.2 12.7 20.3 12.7 20.4 12.7 20.5 12.7 20.6 12.7 20.7 12.7 20.8 12.7 20.9 12.7 21.0 12.7 21.1 12.7 21.2 12.7 21.25 12.7 21.35 12.7 21.4 12.7 21.5 12.7 21.55 12.9 21.55 13.1 21.65 13.85 21.75 14.05 21.85 14.1 21.75 14.15 21.75 14.25 21.7 14.3 21.7 14.35 21.65 14.45 21.6 14.5 21.55 14.5 21.5 14.55 21.45 14.75 21.4 14.8 21.4 14.85 21.35 14.9 21.35 15.0 21.35 15.05 21.3 15.1 21.3 15.15 21.25 15.2 21.2 15.2 21.15 15.25 21.15 15.3 21.1 15.35 21.1 15.45 21.1 15.6 21.05 15.7 21.0 15.9 20.95 15.95 20.95 16.05 20.9 16.1 20.85 16.25 20.85 16.25 20.75 16.35 20.6 16.45 20.45 16.45 20.3 16.45 20.15 16.45 20.05 16.45 20.0 12.85 20.0 12.85 20.05 12.8 20.1 M7.75 28.55 L7.85 28.5 7.7 28.5 7.75 28.55 M31.2 27.1 L31.25 27.1 31.2 27.05 31.2 27.1" fill="#ffffff" fill-rule="evenodd" stroke="none"/>
    </g>
  </defs>
</svg>
