<?xml version="1.0" encoding="UTF-8" standalone="no"?>
<svg xmlns:xlink="http://www.w3.org/1999/xlink" height="33.4px" width="83.0px" xmlns="http://www.w3.org/2000/svg">
  <g transform="matrix(1.0, 0.0, 0.0, 1.0, -0.05, 0.0)">
    <use height="33.4" transform="matrix(1.0, 0.0, 0.0, 1.0, 0.05, 0.0)" width="83.0" xlink:href="#shape0"/>
  </g>
  <defs>
    <g id="shape0" transform="matrix(1.0, 0.0, 0.0, 1.0, -0.05, 0.0)">
      <path d="M55.4 20.85 Q55.1 21.3 55.1 22.15 L55.15 24.25 57.15 24.25 57.15 25.25 57.5 25.35 57.95 25.6 Q58.25 26.0 58.85 26.15 59.85 26.45 61.0 25.6 62.25 24.7 61.75 23.2 61.3 21.9 60.1 21.35 L59.4 20.55 59.05 19.95 58.25 19.9 56.55 20.15 Q55.75 20.45 55.4 20.85 M43.75 22.4 Q43.75 21.55 43.3 20.65 L42.9 19.95 36.05 19.95 34.05 21.85 Q33.7 22.15 33.75 22.7 L33.85 23.75 Q33.85 25.45 34.8 26.2 35.95 27.15 36.95 27.05 L39.1 26.25 41.45 25.1 42.95 24.05 Q43.75 23.3 43.75 22.4 M67.65 9.95 Q67.75 9.8 67.25 9.35 L59.75 9.35 55.8 9.15 53.15 9.0 53.15 10.5 67.45 10.5 67.5 10.3 67.65 9.95 M69.4 9.15 L68.9 9.15 68.6 9.15 68.6 10.1 69.0 10.15 Q69.4 10.3 69.4 10.7 L69.15 11.35 68.9 11.6 69.1 14.05 69.7 14.05 69.7 9.8 69.65 9.4 69.4 9.15 M82.4 14.4 L82.7 14.7 Q83.05 15.15 83.05 16.1 83.05 17.35 82.75 17.8 82.55 18.2 82.05 18.2 L75.15 18.2 74.9 17.9 74.65 18.05 74.4 18.25 75.05 19.0 Q75.65 19.8 75.6 20.25 L75.2 23.45 74.95 26.45 74.75 26.85 74.25 26.95 71.35 26.95 71.0 26.6 70.8 25.55 70.75 23.9 70.5 22.85 69.0 22.55 67.45 22.65 66.95 23.15 Q66.6 23.5 66.6 23.8 L66.35 26.5 Q65.8 29.2 64.25 30.75 62.65 32.4 59.25 33.05 L55.0 33.3 53.8 32.95 53.8 32.5 54.9 27.95 54.7 27.45 Q54.5 27.2 54.15 27.2 L52.5 27.15 51.05 27.1 50.75 27.35 50.45 27.8 49.25 28.8 46.55 30.7 Q42.3 33.35 39.35 33.35 L33.25 33.15 30.6 32.9 30.55 31.25 23.6 28.65 22.5 28.6 22.0 28.55 21.6 29.25 20.75 29.9 1.3 29.9 Q0.85 29.9 0.5 29.25 L0.25 28.05 0.25 19.7 0.15 13.95 0.05 11.35 Q0.2 10.4 0.5 10.4 L25.75 10.4 27.15 10.15 28.7 9.95 46.7 9.95 46.75 7.8 47.55 5.9 48.35 3.8 Q48.4 3.5 49.0 3.15 L49.6 2.9 49.7 2.0 Q49.85 1.1 49.95 0.95 50.6 0.0 51.05 0.0 51.55 0.0 51.8 0.55 L52.0 1.4 52.0 2.9 51.85 2.95 51.75 3.3 51.75 4.4 65.95 4.4 67.75 3.35 Q68.25 3.35 68.25 3.0 L68.25 2.2 67.95 2.2 67.95 0.95 68.2 0.7 68.75 0.35 69.9 0.25 70.1 0.5 70.15 0.95 70.15 3.15 70.35 3.9 70.7 4.65 72.05 4.65 75.2 8.05 Q75.55 8.5 75.55 9.0 L75.55 14.4 82.4 14.4" fill="#ffffff" fill-rule="evenodd" stroke="none"/>
    </g>
  </defs>
</svg>
