<?xml version="1.0" encoding="UTF-8" standalone="no"?>
<svg xmlns:xlink="http://www.w3.org/1999/xlink" height="34.05px" width="86.75px" xmlns="http://www.w3.org/2000/svg">
  <g transform="matrix(1.0, 0.0, 0.0, 1.0, 0.0, 0.1)">
    <use height="34.05" transform="matrix(1.0, 0.0, 0.0, 1.0, 0.0, -0.1)" width="86.75" xlink:href="#shape0"/>
  </g>
  <defs>
    <g id="shape0" transform="matrix(1.0, 0.0, 0.0, 1.0, 0.0, 0.1)">
      <path d="M85.45 7.4 L85.75 7.5 86.0 7.65 86.1 7.8 86.3 7.95 86.3 8.15 86.45 8.3 86.5 8.35 86.6 8.4 86.65 8.5 86.75 8.55 86.75 8.6 86.75 8.7 86.75 8.8 86.75 8.85 86.75 8.95 86.75 9.05 86.7 9.1 86.75 9.15 86.75 9.25 86.75 9.35 86.7 9.45 86.65 9.55 86.55 9.6 86.45 9.6 86.4 9.6 86.45 9.65 86.45 9.75 86.45 9.85 86.4 9.9 86.35 9.95 86.3 10.05 86.2 10.05 86.2 10.1 86.1 10.1 86.05 10.15 86.0 10.15 83.35 10.2 83.3 10.25 83.15 10.25 83.1 10.25 83.0 10.25 82.9 10.25 62.0 10.35 61.9 10.35 61.9 10.4 61.9 10.5 61.9 10.6 61.9 10.7 61.9 10.8 61.9 10.85 61.85 10.95 61.8 11.05 61.8 11.35 61.8 11.45 61.8 11.5 61.8 11.6 61.8 11.7 61.8 11.8 61.8 11.9 61.8 12.05 61.9 12.05 62.0 12.1 62.05 12.1 62.2 12.15 62.3 12.2 62.35 12.3 62.4 12.3 62.4 12.4 62.4 12.45 62.5 12.45 62.5 12.5 62.5 12.6 62.55 12.7 62.55 12.75 62.6 12.8 62.5 12.9 62.5 13.0 62.5 13.1 62.5 13.2 62.5 13.3 62.5 13.4 62.5 13.5 62.5 13.6 62.5 13.7 62.5 13.75 62.5 13.85 62.5 13.95 62.5 14.0 62.5 14.1 62.5 14.15 62.5 14.25 62.5 14.35 62.5 14.45 62.5 14.5 62.5 14.6 62.5 14.7 62.5 14.8 62.5 14.9 62.5 14.95 62.5 15.05 62.5 15.15 62.5 15.3 62.5 15.4 62.5 15.45 62.5 15.55 62.5 15.65 62.5 15.7 62.5 15.8 62.5 15.9 62.5 16.0 62.5 16.1 62.5 16.15 62.45 16.2 62.45 16.25 62.3 16.3 62.0 16.3 61.85 16.25 61.8 16.25 61.8 16.3 61.8 16.4 61.8 16.45 61.8 16.55 61.8 16.65 61.8 16.7 61.8 16.8 61.8 16.9 61.8 17.0 61.8 17.1 61.8 17.2 61.8 17.3 61.8 17.35 61.8 17.45 61.8 17.5 61.8 17.6 61.8 17.65 61.8 17.75 61.8 17.85 61.8 17.9 61.8 18.0 61.8 18.1 61.8 18.2 61.8 18.3 61.8 18.4 61.8 18.5 61.8 18.55 61.8 18.65 61.8 18.7 61.75 18.8 61.75 18.85 61.9 18.85 61.95 18.9 62.05 18.95 62.05 19.05 62.1 19.1 62.15 19.2 62.15 19.25 62.2 19.3 62.25 19.3 62.3 19.4 62.3 19.5 62.3 19.55 62.25 19.65 62.2 19.7 62.2 19.8 62.2 19.85 62.2 19.95 62.2 20.05 62.2 20.15 62.2 20.25 62.2 20.35 62.2 20.45 62.2 20.5 62.2 20.6 62.2 20.7 62.2 20.75 62.2 20.85 62.2 20.9 62.2 21.0 62.2 21.05 62.2 21.15 62.2 21.25 62.2 21.35 62.2 21.45 62.2 21.55 62.2 21.65 62.2 21.75 62.2 21.8 62.2 21.9 62.2 22.0 62.2 22.2 62.2 22.3 62.2 22.4 62.2 22.45 62.2 22.55 62.2 22.65 62.2 22.75 62.2 22.85 62.2 22.95 62.2 23.0 62.2 23.1 62.2 23.25 62.2 23.35 62.2 23.45 62.2 23.5 62.2 23.6 62.2 23.7 62.2 23.75 62.2 23.85 62.2 23.95 62.2 24.05 62.2 24.15 62.2 24.25 62.2 24.35 62.2 24.45 62.2 24.55 62.2 24.65 62.2 24.7 62.2 24.8 62.2 24.9 62.2 24.95 62.2 25.05 62.2 25.1 62.2 25.2 62.2 25.3 62.2 25.35 62.2 25.45 62.2 25.55 62.2 25.65 62.2 25.75 62.2 25.85 62.2 25.9 62.2 26.0 62.2 26.1 62.2 26.2 62.2 26.25 62.2 26.35 62.2 26.4 62.2 26.5 62.2 26.6 62.2 26.65 62.2 26.75 62.2 26.85 62.2 26.95 62.2 27.05 62.2 27.15 62.2 27.25 62.2 27.3 62.2 27.4 62.2 27.45 62.2 27.55 62.2 27.6 62.2 27.7 62.2 27.8 62.2 27.85 62.2 27.95 62.2 28.05 62.2 28.1 62.2 28.2 62.2 28.3 62.2 28.35 62.2 28.45 62.2 28.55 62.2 28.65 62.2 28.75 62.2 28.8 62.2 28.9 62.2 29.0 62.2 29.1 62.2 29.2 62.2 29.3 62.2 29.4 62.2 29.5 62.2 29.55 62.2 29.65 62.2 29.75 62.2 29.85 62.2 29.95 62.2 30.05 62.2 30.15 62.2 30.2 62.2 30.3 62.2 30.4 62.2 30.5 62.2 30.6 62.2 30.7 62.2 30.75 62.15 30.85 62.25 30.9 62.3 31.0 62.3 31.1 62.25 31.2 62.1 31.2 61.7 31.2 61.65 31.3 61.55 31.4 61.55 31.45 61.55 31.55 61.55 31.65 61.55 31.7 61.55 31.8 61.55 31.85 61.55 31.95 61.55 32.05 61.55 32.15 61.55 32.2 61.55 32.3 61.55 32.4 61.55 32.5 61.55 32.6 61.55 32.65 61.55 32.75 61.55 32.85 61.55 32.95 61.55 33.0 61.55 33.1 61.55 33.15 61.55 33.25 61.55 33.35 61.55 33.4 61.55 33.5 61.55 33.55 61.7 33.6 61.75 33.65 61.8 33.75 61.75 33.85 61.7 33.9 61.55 33.95 60.35 33.95 60.2 33.9 60.1 33.85 60.1 33.75 60.1 33.65 60.2 33.6 60.35 33.55 60.4 33.55 60.4 33.45 60.4 33.4 60.4 33.3 60.4 33.2 60.4 33.1 60.4 33.0 60.4 32.9 60.4 32.8 60.4 32.7 60.4 32.6 60.4 32.5 60.4 32.4 60.4 32.35 60.4 32.25 60.4 32.15 60.4 32.1 60.4 32.0 60.4 31.95 60.4 31.85 60.4 31.75 60.4 31.7 60.4 31.6 60.4 31.5 60.4 31.45 60.35 31.45 60.35 31.35 60.2 31.3 60.15 31.2 60.1 31.2 60.0 31.2 59.85 31.1 59.8 31.0 59.8 30.9 59.75 30.85 59.7 30.75 59.65 30.7 59.65 30.6 59.6 30.5 59.6 30.4 59.6 30.3 59.6 30.2 59.6 30.15 59.6 30.05 59.6 29.95 59.6 29.85 59.6 29.75 59.6 29.65 59.6 29.55 59.6 29.5 59.6 29.4 59.6 29.3 59.6 29.2 59.6 29.1 59.6 29.0 59.6 28.9 59.6 28.8 59.6 28.75 59.6 28.65 59.6 28.55 59.6 28.45 59.6 28.35 59.6 28.3 59.6 28.2 59.6 28.1 59.6 28.05 59.6 27.95 59.6 27.85 59.6 27.8 59.6 27.7 59.6 27.6 59.6 27.55 59.6 27.45 59.6 27.4 59.6 27.3 59.6 27.25 59.6 27.15 59.6 27.05 59.6 26.95 59.6 26.85 59.6 26.75 59.6 26.65 59.6 26.6 59.6 26.5 59.6 26.4 59.6 26.35 59.6 26.25 59.6 26.2 59.6 26.1 59.6 26.0 59.6 25.9 59.6 25.85 59.6 25.75 59.6 25.65 59.6 25.55 59.6 25.45 59.6 25.35 59.6 25.3 59.6 25.2 59.6 25.1 59.6 25.05 59.6 24.95 59.6 24.9 59.6 24.8 59.6 24.7 59.6 24.65 59.6 24.55 59.6 24.45 59.6 24.35 59.6 24.25 59.6 24.15 59.6 24.05 59.6 23.95 59.6 23.85 59.6 23.75 59.6 23.7 59.6 23.6 59.6 23.5 59.6 23.45 59.6 23.35 59.6 23.25 59.6 23.1 59.6 23.0 59.6 22.95 59.6 22.85 59.6 22.75 59.6 22.65 59.6 22.55 59.6 22.45 59.6 22.4 59.6 22.3 59.6 22.2 59.6 22.0 59.6 21.9 59.6 21.8 59.6 21.75 59.6 21.65 59.6 21.55 59.6 21.45 59.6 21.35 59.6 21.25 59.6 21.15 59.6 21.05 59.6 21.0 59.6 20.9 59.6 20.85 59.6 20.75 59.6 20.7 59.6 20.6 59.6 20.5 59.6 20.45 59.6 20.35 59.6 20.25 59.6 20.15 59.6 20.05 59.6 19.95 59.6 19.85 59.6 19.8 59.6 19.7 59.6 19.65 59.6 19.55 59.6 19.5 59.6 19.4 59.6 19.3 59.6 19.2 59.6 19.15 59.65 19.1 59.8 19.1 59.8 19.05 59.8 18.95 59.85 18.85 59.95 18.8 60.0 18.75 60.0 18.65 60.0 18.55 60.0 18.45 60.0 18.35 60.0 18.3 60.0 18.2 60.0 18.1 60.0 18.0 60.0 17.9 60.0 17.8 60.0 17.7 60.0 17.6 60.0 17.55 60.0 17.45 60.0 17.35 60.0 17.15 60.0 17.05 60.0 16.95 60.0 16.9 60.0 16.8 60.0 16.7 60.0 16.6 60.0 16.5 60.0 16.4 60.0 16.35 60.0 16.25 59.9 16.25 59.8 16.25 59.6 16.25 59.5 16.25 59.5 16.3 59.4 16.2 59.4 16.15 59.4 16.05 59.4 15.95 59.4 15.9 59.4 15.8 59.4 15.7 59.4 15.6 59.45 15.5 59.5 15.45 59.4 15.4 59.4 15.3 59.4 15.2 59.45 15.15 59.5 15.05 59.5 14.95 59.5 14.9 59.5 14.8 59.5 14.7 59.45 14.6 59.4 14.5 59.4 14.45 59.4 14.35 59.4 14.25 59.4 14.15 59.5 14.15 59.4 14.1 59.35 14.0 59.15 13.95 59.1 13.9 59.0 13.8 59.0 13.7 59.0 13.6 58.95 13.5 58.9 13.45 58.9 13.35 58.9 13.25 58.8 13.15 58.65 13.2 58.65 13.3 58.65 13.4 58.65 13.5 58.6 13.6 58.55 13.7 58.5 13.75 58.35 13.8 58.0 13.9 57.9 13.95 57.9 14.0 57.9 14.1 57.9 14.2 57.85 14.25 57.8 14.3 57.75 14.4 57.7 14.45 57.65 14.5 57.55 14.5 57.3 14.55 57.25 14.6 57.15 14.6 56.95 14.55 56.95 14.5 56.75 14.5 56.7 14.55 56.65 14.6 56.55 14.6 56.45 14.6 56.25 14.6 55.8 14.6 55.7 14.6 55.25 14.7 55.15 14.7 55.0 14.7 54.95 14.7 54.75 14.7 54.7 14.6 54.6 14.6 54.45 14.55 54.4 14.45 54.3 14.4 54.3 14.3 54.3 14.25 54.3 14.15 54.3 14.05 54.3 13.95 54.3 13.9 54.3 13.8 54.3 13.7 54.3 13.6 54.05 13.6 53.9 13.6 43.3 13.6 43.3 13.7 43.3 13.8 43.3 13.9 43.3 13.95 43.3 14.05 43.3 14.15 43.3 14.25 43.3 14.3 43.3 14.4 43.3 14.5 43.4 14.5 43.5 14.5 43.65 14.6 43.7 14.7 43.75 14.7 43.75 14.8 43.75 14.9 43.75 15.0 43.75 15.1 43.75 15.2 43.75 15.3 43.75 15.4 43.75 15.55 43.9 15.7 43.95 15.9 44.05 16.05 44.15 16.1 44.25 16.15 44.3 16.15 44.45 16.2 44.5 16.25 44.6 16.3 44.6 16.4 44.6 16.45 44.6 16.55 44.6 16.65 44.6 16.7 44.6 16.8 44.6 16.9 44.6 17.0 44.6 17.1 44.6 17.2 44.6 17.3 44.6 17.35 44.6 17.45 44.6 17.5 44.6 17.6 44.6 17.65 44.6 17.75 44.6 17.85 44.6 17.9 44.6 18.0 44.6 18.1 44.6 18.2 44.6 18.3 44.6 18.4 44.6 18.5 44.6 18.55 44.6 18.65 44.6 18.7 44.6 18.8 44.6 18.85 44.6 18.95 44.6 19.05 44.6 19.1 44.6 19.2 44.6 19.35 44.6 19.45 44.6 19.55 44.6 19.6 44.6 19.7 44.6 19.8 44.6 19.9 44.6 20.0 44.6 20.05 44.6 20.15 44.6 20.25 44.6 20.35 44.6 20.45 44.6 20.55 44.6 20.65 44.6 20.75 44.6 20.8 44.6 20.9 44.6 21.0 44.6 21.15 44.6 21.25 44.6 21.3 44.6 21.4 44.6 21.5 44.6 21.55 44.6 21.65 44.6 21.75 44.6 21.85 44.6 21.95 44.6 22.0 44.6 22.1 44.6 22.25 44.6 22.35 44.6 22.45 44.6 22.5 44.6 22.6 44.6 22.7 44.6 22.75 44.6 22.85 44.6 22.95 44.6 23.05 44.6 23.15 44.6 23.25 44.6 23.35 44.6 23.45 44.6 23.55 44.6 23.65 44.6 23.7 44.6 23.8 44.6 23.9 44.6 23.95 44.6 24.05 44.6 24.2 44.6 24.3 44.6 24.4 44.6 24.45 44.6 24.55 44.6 24.65 44.6 24.75 44.6 24.85 44.6 24.9 44.6 25.0 44.6 25.1 44.6 25.2 44.6 25.25 44.6 25.35 44.6 25.4 44.6 25.5 44.6 25.6 44.6 25.65 44.6 25.75 44.6 25.85 44.6 25.95 44.6 26.05 44.6 26.15 44.6 26.25 44.6 26.35 44.6 26.45 44.6 26.55 44.6 26.6 44.6 26.7 44.6 26.8 44.6 26.85 44.6 26.95 44.6 27.05 44.6 27.1 44.6 27.2 44.6 27.3 44.6 27.35 44.6 27.45 44.6 27.55 44.6 27.65 44.6 27.75 44.6 27.8 44.6 27.9 44.6 28.15 44.6 28.25 44.6 28.3 44.6 28.4 44.6 28.45 44.5 28.55 44.5 28.6 44.5 28.7 44.5 28.8 44.5 28.85 44.5 28.95 44.5 29.0 44.5 29.1 44.45 29.2 44.35 29.25 44.2 29.3 35.35 29.3 35.2 29.3 35.15 29.3 35.05 29.3 34.9 29.3 34.75 29.25 34.55 29.2 34.5 29.1 34.4 29.0 34.25 29.0 34.1 29.0 34.0 28.95 33.95 28.85 33.95 28.75 33.95 28.65 33.95 28.55 33.95 28.5 33.95 28.4 33.95 28.3 33.95 28.2 33.95 28.1 33.95 28.0 33.95 27.9 33.95 27.8 33.95 27.75 33.95 27.65 33.95 27.55 33.95 27.45 33.95 27.35 33.95 27.3 33.95 27.2 33.95 27.1 33.95 27.05 33.95 26.95 33.95 26.85 33.95 26.8 33.95 26.7 33.95 26.6 33.95 26.55 33.95 26.45 33.95 26.35 33.95 26.25 33.95 26.15 33.95 26.05 33.95 25.95 33.95 25.85 33.95 25.75 33.95 25.65 33.95 25.6 33.95 25.5 33.95 25.4 33.95 25.35 33.95 25.25 33.95 25.2 33.95 25.1 33.95 25.0 33.95 24.9 33.95 24.85 33.95 24.75 33.95 24.65 33.95 24.55 33.95 24.45 33.95 24.4 33.95 24.3 33.95 24.2 33.95 24.05 33.95 23.95 33.95 23.9 33.95 23.8 33.95 23.7 33.95 23.65 33.95 23.55 33.95 23.45 33.95 23.35 33.95 23.25 33.95 23.15 33.95 23.05 33.95 22.95 33.95 22.85 33.95 22.75 33.95 22.7 33.95 22.6 33.95 22.5 33.95 22.45 33.95 22.35 33.95 22.25 33.95 22.1 33.95 22.0 33.95 21.95 33.95 21.85 33.95 21.75 33.95 21.65 33.95 21.55 33.95 21.5 33.95 21.4 33.95 21.3 33.95 21.25 33.95 21.15 33.95 21.0 33.95 20.9 33.95 20.8 33.95 20.75 33.95 20.65 33.95 20.55 33.95 20.45 33.95 20.35 33.95 20.25 33.95 20.15 33.95 20.05 33.95 20.0 33.95 19.9 33.95 19.8 33.95 19.7 33.95 19.6 33.95 19.55 33.95 19.45 33.95 19.35 33.95 19.2 33.95 19.1 33.95 19.05 33.95 18.95 33.95 18.85 33.95 18.8 33.95 18.7 33.95 18.65 33.95 18.55 33.95 18.5 33.95 18.4 33.95 18.3 33.95 18.2 33.95 18.1 33.95 18.0 33.95 17.9 33.95 17.85 33.95 17.75 33.95 17.65 33.95 17.6 33.95 17.5 33.95 17.45 33.95 17.35 33.95 17.3 33.95 17.2 33.95 17.15 33.9 17.1 33.85 17.0 33.85 16.9 33.85 16.8 33.85 16.7 33.85 16.6 33.85 16.5 33.85 16.4 33.85 16.35 33.85 16.25 33.85 16.1 33.85 16.0 33.85 15.9 33.85 15.85 33.85 15.75 33.9 15.65 33.95 15.6 34.0 15.6 33.95 15.5 33.95 15.4 33.95 15.3 34.05 15.2 34.1 15.1 34.2 15.05 34.35 15.0 34.35 14.95 34.4 14.85 34.4 14.75 34.45 14.7 34.55 14.65 32.75 14.7 32.65 14.7 32.65 14.75 32.65 14.95 32.65 15.1 32.65 15.25 32.65 15.35 32.65 15.5 32.6 15.65 32.65 15.75 32.7 15.85 32.75 15.9 32.85 16.0 32.95 16.1 32.95 16.25 33.0 16.35 33.0 16.4 33.0 16.5 32.95 16.6 32.9 16.7 32.85 16.7 32.85 16.75 32.8 16.85 32.75 16.9 32.65 17.0 32.55 17.0 32.05 17.1 31.95 17.15 31.9 17.15 31.75 17.15 31.7 17.15 31.1 17.15 31.05 17.2 31.0 17.2 31.0 17.3 31.0 17.35 31.0 17.45 31.0 17.5 30.95 17.6 30.85 17.65 30.85 17.75 30.8 17.85 30.75 17.9 30.75 18.0 30.75 18.1 30.75 18.2 30.65 18.25 30.65 18.3 30.6 18.4 30.55 18.5 30.55 18.55 30.55 18.65 30.55 18.7 30.55 18.8 30.5 18.85 30.45 18.95 30.45 19.05 30.45 19.1 30.4 19.2 30.35 19.25 30.35 19.35 30.3 19.45 30.2 19.55 30.2 19.6 30.2 19.7 30.2 19.8 30.2 19.85 30.15 19.9 30.15 20.0 30.15 20.05 30.15 20.15 30.1 20.2 30.1 20.25 30.0 20.35 30.0 20.45 30.0 20.55 30.0 20.65 29.95 20.75 29.95 20.8 29.85 20.9 29.85 21.0 29.85 21.15 29.75 21.25 29.75 21.3 29.75 21.4 29.75 21.5 29.75 21.55 29.75 21.65 29.75 21.75 29.75 21.85 29.75 21.95 29.75 22.0 29.75 22.1 29.65 22.15 29.65 22.25 29.65 22.35 29.55 22.45 29.55 22.5 29.55 22.6 29.55 22.7 29.5 22.75 29.5 22.85 29.4 22.9 29.25 22.9 29.2 22.95 29.15 23.05 29.05 23.1 29.0 23.1 28.8 23.05 28.75 23.0 28.65 23.05 28.6 23.1 28.5 23.1 26.6 23.1 26.35 23.05 26.35 23.0 26.1 22.95 26.0 22.95 25.95 22.95 25.8 22.9 25.6 22.85 25.5 22.75 25.35 22.7 25.25 22.65 25.15 22.55 25.15 22.45 25.0 22.45 24.95 22.35 24.9 22.25 24.9 22.1 24.9 22.0 24.8 21.9 24.8 21.85 24.8 21.75 24.8 21.7 24.8 21.6 24.85 21.5 24.9 21.45 24.9 21.35 24.9 21.25 24.9 21.15 24.95 21.1 25.0 21.0 25.05 20.95 25.1 20.85 25.1 20.75 25.1 20.65 25.15 20.55 25.15 20.5 25.15 20.4 25.2 20.3 25.25 20.25 25.25 20.15 25.25 20.1 25.35 20.05 25.35 20.0 25.35 19.9 25.35 19.8 25.4 19.75 25.45 19.65 25.45 19.55 25.45 19.5 25.55 19.45 25.6 19.35 25.6 19.3 25.6 19.2 25.6 19.15 25.65 19.1 25.65 19.0 25.65 18.9 25.65 18.85 25.7 18.8 25.75 18.7 25.8 18.6 25.8 18.55 25.8 18.45 25.8 18.35 25.9 18.3 25.9 18.2 25.95 18.1 26.0 18.05 26.0 17.95 26.05 17.85 26.05 17.8 26.05 17.7 26.05 17.6 26.1 17.5 26.1 17.4 26.15 17.35 26.15 17.25 26.15 17.15 26.25 17.1 26.25 17.0 26.25 16.9 26.25 16.85 26.3 16.75 26.35 16.65 26.35 16.6 26.35 16.5 26.35 16.45 26.4 16.4 26.45 16.3 26.45 16.25 26.4 16.2 26.35 16.15 26.35 16.05 26.3 15.95 26.25 15.9 26.25 15.8 26.15 15.7 26.1 15.65 26.05 15.6 26.05 15.5 25.95 15.4 25.9 15.35 25.8 15.25 25.7 15.2 25.6 15.2 25.6 15.15 25.35 15.1 25.3 15.0 25.1 14.95 24.95 14.9 24.9 14.8 24.8 14.75 24.8 14.7 24.6 14.7 24.5 14.6 24.4 14.5 24.3 14.45 24.25 14.4 24.15 14.3 24.1 14.25 24.1 14.2 24.0 14.1 23.95 14.0 23.9 13.95 23.85 13.9 23.8 13.8 23.8 13.7 23.8 13.65 23.8 13.55 23.75 13.45 23.7 13.4 23.7 13.3 23.65 13.3 23.6 13.25 23.6 13.15 23.6 13.05 23.6 12.95 23.5 12.95 23.4 12.95 23.3 12.95 23.15 12.95 23.0 12.9 22.95 12.8 22.8 12.75 22.7 12.7 22.7 12.6 22.7 12.5 22.7 12.4 17.2 12.4 17.05 12.35 17.05 12.3 16.85 12.3 16.8 12.25 16.7 12.15 16.65 12.1 16.6 12.05 16.5 11.95 16.5 11.9 16.5 11.8 16.5 11.75 16.5 11.65 16.5 11.55 16.5 11.5 16.5 11.4 16.5 11.3 16.5 11.25 16.5 11.15 14.15 11.15 13.85 11.1 13.65 11.05 13.5 11.2 13.25 11.3 13.05 11.3 12.9 11.3 12.9 11.4 12.75 11.7 5.8 17.1 5.5 17.15 5.4 17.15 5.25 17.2 5.05 17.3 5.05 17.55 4.9 17.85 4.7 18.0 4.5 18.05 4.45 18.1 4.4 18.1 4.3 18.2 4.25 18.25 4.2 18.3 4.05 18.4 4.0 18.45 3.95 18.5 3.85 18.55 3.75 18.55 3.65 18.65 3.6 18.65 3.5 18.7 3.05 18.7 2.85 18.65 2.8 18.6 2.7 18.55 2.5 18.55 2.3 18.45 2.25 18.35 2.1 18.3 2.05 18.25 1.95 18.2 1.85 18.1 1.8 18.05 1.75 17.95 1.7 17.85 1.65 17.8 1.55 17.7 1.55 17.6 1.55 17.5 1.55 17.4 1.5 17.35 1.5 17.25 1.5 17.15 1.45 17.1 1.4 17.0 1.4 16.9 1.4 16.85 1.35 16.75 1.35 16.65 1.35 16.6 1.35 16.5 1.25 16.45 1.2 16.4 1.2 16.3 1.2 16.25 1.2 16.15 1.2 16.1 1.1 16.0 1.1 15.9 1.1 15.8 1.1 15.7 1.1 15.65 1.05 15.55 1.0 15.45 1.0 15.4 1.0 15.3 1.0 15.25 0.9 15.15 0.9 15.05 0.9 14.95 0.9 14.9 0.9 14.8 0.9 14.7 0.85 14.6 0.8 14.5 0.8 14.45 0.8 14.35 0.8 14.25 0.7 14.15 0.7 14.1 0.7 14.0 0.65 13.95 0.6 13.85 0.6 13.75 0.6 13.7 0.6 13.6 0.6 13.5 0.6 13.45 0.55 13.4 0.5 13.3 0.5 13.2 0.5 13.1 0.5 13.0 0.5 12.95 0.45 12.9 0.4 12.8 0.4 12.75 0.4 12.65 0.4 12.55 0.4 12.5 0.4 12.4 0.35 12.3 0.35 12.25 0.35 12.15 0.3 12.05 0.25 12.0 0.2 11.9 0.2 11.8 0.2 11.7 0.2 11.6 0.2 11.5 0.2 11.45 0.2 11.35 0.2 11.3 0.15 11.25 0.15 11.15 0.15 11.05 0.15 10.95 0.15 10.85 0.15 10.8 0.1 10.7 0.0 10.6 0.0 10.5 0.0 10.4 0.0 10.3 0.0 10.2 0.0 10.1 0.0 10.05 0.0 9.95 0.0 9.85 0.0 9.75 0.0 9.65 0.0 9.6 0.0 9.5 0.0 9.4 0.0 9.35 0.0 9.25 0.0 9.15 0.0 9.1 0.0 9.0 0.0 8.9 0.0 8.85 0.1 8.75 0.15 8.7 0.15 8.6 0.2 8.55 0.2 8.45 0.25 8.35 0.35 8.35 0.35 8.25 0.4 8.15 0.5 8.15 0.5 8.05 0.6 7.95 0.65 7.9 0.7 7.9 0.85 7.85 1.05 7.8 1.05 7.75 1.25 7.75 1.3 7.8 1.3 7.75 1.35 7.7 1.45 7.7 1.5 7.65 1.65 7.65 1.8 7.65 1.95 7.7 2.05 7.75 2.3 7.65 12.3 7.65 12.55 7.7 12.75 7.6 12.95 7.5 13.05 7.45 13.25 7.4 13.5 7.4 19.45 7.4 19.45 7.35 19.5 7.25 19.5 7.15 19.55 7.05 19.55 6.95 19.65 6.9 19.7 6.9 19.7 6.8 19.7 6.7 19.7 6.65 19.8 6.55 19.8 6.5 20.0 6.4 20.1 6.4 20.15 6.3 20.25 6.2 20.4 6.2 20.75 6.2 20.85 6.2 20.9 6.25 21.0 6.2 21.0 6.15 21.0 6.05 21.0 5.95 21.1 5.95 21.1 5.85 21.1 5.75 21.1 5.7 21.15 5.6 21.1 5.5 21.1 5.45 21.0 5.4 20.95 5.35 20.9 5.25 20.9 5.2 20.9 5.1 20.9 5.0 20.9 4.95 20.9 4.85 20.9 4.75 20.95 4.65 21.0 4.55 21.0 4.5 21.1 4.45 21.2 4.45 21.25 4.45 21.25 4.4 21.35 4.35 21.4 4.3 21.5 4.25 21.6 4.25 21.7 4.25 21.8 4.2 21.95 4.15 22.0 4.05 22.0 4.0 22.0 3.9 22.05 3.8 22.15 3.75 22.2 3.65 22.25 3.55 22.35 3.5 22.5 3.5 22.5 3.45 23.1 3.45 23.25 3.5 23.35 3.55 23.4 3.65 23.5 3.75 23.55 3.8 23.6 3.9 23.65 4.0 23.8 4.0 24.15 4.0 24.35 4.05 24.45 4.15 24.55 4.2 24.6 4.25 24.6 4.35 24.6 4.45 24.65 4.45 24.75 4.55 24.9 4.6 24.95 4.65 25.1 4.65 26.75 4.65 27.55 4.65 27.65 4.6 27.8 4.6 27.8 4.55 27.9 4.55 28.05 4.65 28.05 4.6 28.15 4.6 28.15 4.55 28.3 4.65 28.35 4.75 28.45 4.75 28.5 4.85 28.55 4.95 28.55 5.05 28.65 5.0 28.8 5.0 28.95 5.05 29.0 5.15 29.0 5.25 29.0 5.35 29.0 5.45 29.0 5.55 29.0 5.65 29.05 5.7 29.1 5.75 29.1 5.85 29.1 5.95 29.15 6.0 29.15 6.05 29.2 6.1 29.2 6.2 29.2 6.25 29.2 6.35 29.2 6.4 29.35 6.4 33.1 6.35 33.1 6.3 33.15 6.25 33.2 6.2 33.35 6.2 33.55 6.15 33.55 6.05 33.65 5.95 33.7 5.95 33.8 5.85 33.85 5.75 33.95 5.65 34.0 5.6 34.1 5.6 34.1 5.55 34.35 5.55 34.5 5.65 34.6 5.75 34.6 5.85 34.85 5.7 35.1 5.6 35.4 5.6 35.4 5.55 35.75 5.6 35.85 5.7 35.9 5.55 36.2 5.45 38.65 5.45 38.9 5.55 39.0 5.75 39.45 5.7 39.65 5.7 39.8 5.65 42.95 5.65 43.1 5.7 43.25 5.7 43.4 5.8 43.55 5.9 43.6 5.95 43.65 5.9 43.75 5.8 43.8 5.7 43.85 5.7 44.0 5.7 44.0 5.65 44.15 5.7 44.25 5.75 44.3 5.85 44.3 5.95 44.3 6.0 44.35 6.0 44.5 5.95 44.7 5.95 44.8 6.0 44.8 6.05 46.75 6.0 46.75 5.95 46.85 5.85 46.95 5.75 47.0 5.7 47.2 5.65 47.9 5.6 47.95 5.5 48.05 5.45 48.15 5.4 48.2 5.35 48.4 5.25 48.7 5.25 48.75 5.25 48.8 5.2 48.9 5.1 49.05 5.05 49.25 5.0 49.35 5.0 49.4 5.0 49.45 4.95 49.5 4.95 49.6 4.9 49.7 4.85 49.75 4.85 49.85 4.85 49.85 4.75 49.85 4.65 49.85 4.55 49.75 4.5 49.7 4.45 49.7 4.4 45.8 3.05 45.6 2.85 45.55 2.65 45.5 2.65 45.4 2.6 45.3 2.55 45.2 2.55 45.05 2.55 44.75 2.45 44.6 2.45 44.55 2.45 44.45 2.4 44.3 2.4 44.1 2.35 44.0 2.3 43.9 2.2 43.8 2.1 43.7 2.05 43.55 2.0 43.4 1.95 43.35 1.85 43.25 1.8 43.2 1.7 43.15 1.65 43.1 1.65 43.1 1.6 43.05 1.55 42.95 1.5 42.85 1.4 42.8 1.3 42.8 1.2 42.75 1.1 42.7 1.05 42.7 0.95 42.7 0.85 42.7 0.8 42.75 0.75 42.8 0.65 42.8 0.6 42.8 0.5 42.8 0.45 42.85 0.4 42.95 0.3 43.05 0.3 43.05 0.25 43.25 0.0 43.55 -0.1 43.85 0.0 44.15 0.2 44.2 0.5 44.3 0.5 44.4 0.5 44.55 0.55 44.65 0.6 44.8 0.6 44.85 0.65 44.95 0.65 45.1 0.7 45.15 0.75 45.25 0.6 Q45.35 0.5 45.55 0.5 L45.75 0.55 50.95 1.95 Q51.1 1.95 51.2 2.1 L51.25 2.2 51.35 2.25 51.5 2.3 51.65 2.35 51.65 2.45 51.75 2.5 51.85 2.55 51.9 2.65 52.0 2.6 52.0 2.55 52.05 2.55 52.25 2.5 52.25 2.45 52.4 2.55 52.45 2.55 52.55 2.65 52.55 2.75 52.55 2.8 52.55 2.9 52.55 3.0 52.55 3.05 52.55 3.15 52.55 3.2 52.55 3.3 52.55 3.35 52.55 3.45 52.55 3.55 52.55 3.65 52.55 3.75 52.55 3.85 52.55 3.95 52.55 4.0 52.55 4.1 52.55 4.2 52.55 4.25 52.55 4.35 52.55 4.5 52.55 4.6 52.55 4.7 52.55 4.75 52.55 4.85 52.55 4.95 52.55 5.05 52.55 5.15 52.55 5.25 52.55 5.3 52.55 5.4 52.55 5.55 52.55 5.65 52.55 5.7 52.55 5.8 52.55 5.9 52.55 5.95 52.55 6.05 52.55 6.15 52.55 6.2 52.45 6.25 52.4 6.35 52.25 6.4 52.15 6.4 52.1 6.4 52.05 6.45 52.0 6.5 51.95 6.55 51.85 6.55 50.25 6.55 50.2 6.6 50.2 6.65 50.15 6.7 50.1 6.75 49.95 6.75 49.7 6.85 49.7 6.95 49.7 7.05 49.7 7.15 49.7 7.25 57.1 7.25 57.1 7.2 57.1 7.1 57.1 7.0 57.1 6.85 57.15 6.75 57.2 6.65 57.3 6.6 57.45 6.55 57.6 6.5 57.65 6.4 57.75 6.4 57.8 6.35 57.8 6.3 57.8 6.2 57.8 6.15 57.8 6.05 57.8 5.95 57.8 5.85 57.8 5.75 57.8 5.7 57.8 5.6 57.8 5.5 57.75 5.45 57.65 5.4 57.65 5.35 57.65 5.25 57.7 5.2 57.75 5.1 57.85 5.0 57.9 4.95 58.0 4.9 58.15 4.85 58.15 4.75 58.25 4.7 58.3 4.6 58.35 4.5 58.4 4.45 58.4 4.4 58.5 4.4 58.5 4.3 58.55 4.25 58.6 4.25 58.7 4.2 59.35 4.15 59.4 4.1 59.5 4.1 59.5 4.05 59.7 4.05 59.85 4.15 59.9 4.2 59.95 4.15 60.1 4.1 60.1 4.05 60.3 4.15 60.35 4.2 60.4 4.25 60.4 4.35 60.4 4.45 60.4 4.55 60.4 4.65 60.4 4.75 60.4 4.85 60.4 4.95 60.4 5.0 60.45 5.0 60.5 5.05 60.55 5.05 60.75 5.15 60.8 5.2 60.85 5.25 60.85 5.35 60.95 5.4 61.0 5.45 61.0 5.5 61.0 5.6 61.0 5.7 61.0 5.75 61.0 5.85 61.0 5.95 61.0 6.05 61.0 6.15 61.0 6.2 61.0 6.3 61.0 6.4 61.0 6.5 61.0 6.55 61.0 6.65 61.0 6.85 61.1 6.9 61.2 6.95 61.35 7.05 61.4 7.15 61.5 7.2 61.5 7.25 61.5 7.35 61.5 7.4 85.1 7.4 85.45 7.4 M62.1 15.9 L62.1 15.8 62.05 15.9 62.1 15.9 M60.35 5.8 L60.35 5.9 60.35 5.95 60.4 6.05 60.4 5.95 60.4 5.85 60.4 5.75 60.4 5.7 60.35 5.7 60.35 5.8 M58.25 6.85 L58.2 6.9 58.25 6.9 58.25 6.85 M57.95 7.1 L58.05 7.05 58.15 6.95 57.95 7.05 57.95 7.1 M50.45 4.55 L50.45 4.65 50.5 4.7 50.5 4.65 50.5 4.55 50.5 4.45 50.45 4.45 50.45 4.55 M47.7 6.35 L47.75 6.3 47.4 6.35 47.7 6.35 M60.05 15.85 L60.1 15.85 60.05 15.8 60.05 15.85 M23.45 12.25 L23.45 12.15 23.4 12.15 23.4 12.25 23.45 12.25 M26.65 15.25 L26.75 15.3 26.75 15.25 26.65 15.25 M32.2 16.3 L32.2 16.25 32.1 16.4 32.25 16.4 32.2 16.3 M11.5 10.25 L11.65 10.15 11.8 10.1 3.45 10.1 3.45 10.2 3.5 10.35 3.5 10.5 3.55 10.65 3.55 10.8 3.6 10.95 3.7 11.1 3.75 11.3 3.75 11.35 3.75 11.5 3.75 11.7 3.9 11.85 3.95 12.0 3.95 12.05 4.2 12.05 4.4 12.3 5.15 14.5 6.45 13.55 6.75 13.45 6.95 13.6 7.05 13.5 7.15 13.4 7.2 13.3 7.25 13.25 7.35 13.2 7.4 13.1 7.65 13.0 7.7 12.95 7.8 12.9 7.9 12.8 8.0 12.75 8.15 12.7 8.25 12.6 8.35 12.5 8.45 12.4 8.6 12.3 8.7 12.3 8.85 12.25 8.9 12.15 9.0 12.1 9.1 12.05 9.15 11.95 9.3 11.85 9.35 11.8 9.5 11.7 9.6 11.6 9.75 11.5 9.8 11.5 9.85 11.4 9.95 11.3 10.05 11.3 10.2 11.2 10.25 11.1 10.35 11.05 10.4 10.95 10.55 10.9 10.65 10.8 10.75 10.75 10.85 10.65 11.0 10.55 11.1 10.5 11.25 10.4 11.4 10.35 11.45 10.35 11.5 10.25" fill="#ffffff" fill-rule="evenodd" stroke="none"/>
    </g>
  </defs>
</svg>
