<?xml version="1.0" encoding="UTF-8" standalone="no"?>
<svg xmlns:xlink="http://www.w3.org/1999/xlink" height="31.2px" width="142.3px" xmlns="http://www.w3.org/2000/svg">
  <g transform="matrix(1.0, 0.0, 0.0, 1.0, 0.0, -0.3)">
    <use height="31.2" transform="matrix(1.0, 0.0, 0.0, 1.0, 0.0, 0.3)" width="142.3" xlink:href="#shape0"/>
  </g>
  <defs>
    <g id="shape0" transform="matrix(1.0, 0.0, 0.0, 1.0, 0.0, -0.3)">
      <path d="M142.3 5.25 L142.25 6.45 141.95 7.65 140.35 8.1 137.8 8.15 137.8 8.65 137.95 8.65 138.15 8.9 139.4 8.8 Q140.4 8.7 140.95 9.15 141.4 9.3 141.65 10.25 141.95 11.1 141.8 11.95 141.4 13.15 140.1 13.55 L104.5 13.55 Q104.2 13.55 102.75 14.1 L98.3 14.6 97.7 14.6 93.45 14.6 87.55 14.6 80.95 14.7 74.75 14.7 70.05 14.7 67.9 14.6 66.75 14.25 65.55 14.25 63.75 14.25 62.55 14.1 60.7 14.0 59.05 14.0 58.1 14.05 57.25 14.55 Q56.0 15.4 55.45 15.4 L54.75 15.1 53.4 14.75 51.7 14.4 50.55 14.25 48.7 14.25 Q47.35 14.35 46.95 14.75 46.65 14.75 46.15 15.6 L44.85 16.95 Q44.15 17.7 43.35 17.9 L42.5 17.9 41.9 18.15 41.55 18.2 40.05 18.25 37.95 18.35 35.85 18.55 Q34.9 18.7 34.7 18.95 L34.2 19.95 33.25 22.15 31.9 24.95 30.55 27.55 Q30.55 28.6 30.7 28.95 L30.9 29.6 31.15 29.85 31.6 30.3 31.9 30.9 31.7 31.2 31.0 31.4 29.95 31.5 28.6 31.4 26.55 30.9 24.15 30.45 22.3 29.8 Q21.35 29.6 21.3 29.35 L21.15 29.15 21.15 29.1 21.1 29.1 Q20.8 28.9 20.8 28.4 L20.8 28.05 21.65 26.55 23.25 23.6 24.9 20.6 25.7 18.95 25.65 17.9 25.25 16.95 23.7 16.6 Q22.75 16.45 22.3 16.6 L21.3 16.45 21.1 16.45 21.15 16.0 21.2 15.65 21.3 15.45 19.45 15.8 15.95 16.6 12.6 17.45 10.95 17.8 10.45 18.25 9.65 19.25 9.0 20.3 8.45 21.65 7.95 22.75 7.65 23.4 6.9 23.95 5.15 24.8 1.6 26.3 1.35 26.3 0.3 25.95 0.0 7.1 7.8 5.95 8.45 5.75 8.8 5.4 9.15 5.0 34.7 2.65 34.7 2.95 35.15 3.65 35.55 3.95 35.75 4.1 36.05 3.95 36.35 3.65 36.35 2.95 36.55 2.95 38.15 0.65 38.15 0.55 38.25 0.55 38.35 0.4 38.4 0.35 39.95 0.35 40.1 0.55 40.4 0.55 40.4 1.0 Q40.8 1.35 41.25 1.35 L41.75 1.6 43.35 1.6 44.6 1.7 Q45.1 1.75 45.1 2.1 45.4 2.1 45.4 2.95 L45.4 3.45 45.6 3.5 45.75 3.6 45.9 3.65 45.9 2.1 63.75 2.1 63.75 1.1 64.8 1.1 64.8 2.1 67.4 2.1 67.4 2.45 67.55 3.45 67.9 3.95 133.45 3.95 134.15 3.3 134.5 2.45 134.7 1.85 134.9 0.85 Q135.15 0.3 135.5 0.3 L136.6 0.7 138.15 1.6 139.65 2.65 140.45 3.65 140.75 3.95 140.95 4.1 141.2 4.15 141.45 4.15 142.3 4.5 142.3 5.25 M134.7 8.65 L134.2 8.15 132.65 8.15 132.4 7.8 104.5 7.8 Q103.95 8.3 103.95 8.65 L103.95 8.9 107.6 9.0 115.15 9.0 124.65 8.8 134.0 8.65 134.7 8.65 M41.1 1.2 L41.2 1.25 41.3 1.25 41.35 1.3 41.1 1.3 41.1 1.2 M42.65 16.1 L43.0 15.1 Q43.0 14.25 42.65 13.75 42.3 13.3 41.55 13.3 L37.9 13.3 Q37.25 13.3 36.75 13.75 36.35 14.25 36.35 15.1 36.35 15.65 36.75 16.1 37.25 16.6 37.9 16.6 L41.55 16.6 Q42.3 16.6 42.65 16.1 M37.45 1.3 L37.3 1.3 37.4 1.25 37.45 1.25 37.45 1.3" fill="#ffffff" fill-rule="evenodd" stroke="none"/>
    </g>
  </defs>
</svg>
