<?xml version="1.0" encoding="UTF-8" standalone="no"?>
<svg xmlns:xlink="http://www.w3.org/1999/xlink" height="32.85px" width="107.25px" xmlns="http://www.w3.org/2000/svg">
  <g transform="matrix(1.0, 0.0, 0.0, 1.0, -0.3, 0.45)">
    <use height="32.85" transform="matrix(1.0, 0.0, 0.0, 1.0, 0.3, -0.45)" width="107.25" xlink:href="#shape0"/>
  </g>
  <defs>
    <g id="shape0" transform="matrix(1.0, 0.0, 0.0, 1.0, -0.3, 0.45)">
      <path d="M97.7 -0.2 L98.0 -0.25 98.2 -0.3 99.35 -0.35 99.4 -0.45 99.55 -0.45 100.3 -0.45 100.45 -0.4 100.5 -0.35 100.55 -0.3 100.7 -0.3 100.85 -0.25 100.95 -0.15 101.0 -0.05 101.05 0.05 101.05 0.15 101.05 0.25 101.05 0.3 101.05 0.4 101.1 0.5 101.15 0.6 101.2 0.7 101.2 0.8 101.2 0.9 101.2 1.0 101.2 1.05 101.2 1.15 101.2 1.25 101.2 1.35 101.2 1.45 101.2 1.55 101.2 1.65 101.2 1.75 101.25 1.8 101.3 1.9 101.3 2.0 101.25 2.1 101.25 2.2 101.15 2.25 101.15 2.35 101.1 2.4 101.1 2.45 101.1 2.55 101.1 2.65 101.1 2.75 101.1 2.85 101.1 2.95 101.1 3.0 101.1 3.1 101.1 3.2 101.1 3.3 101.1 3.4 101.1 3.5 101.1 3.6 101.15 3.65 101.2 3.7 101.3 3.8 101.3 3.9 101.3 4.0 101.3 4.1 101.3 4.2 101.25 4.3 101.2 4.4 101.2 4.45 101.2 4.55 101.2 4.65 101.2 4.75 101.2 4.85 101.2 4.95 101.2 5.05 101.2 5.15 101.2 5.2 101.2 5.3 101.2 5.4 101.2 5.5 101.2 5.6 101.2 5.7 101.2 5.8 101.2 5.9 101.2 5.95 101.2 6.05 101.2 6.15 101.2 6.25 101.2 6.35 101.2 6.45 101.2 6.55 101.2 6.65 101.2 6.7 101.2 6.8 101.2 6.9 101.2 7.0 101.2 7.1 101.2 7.2 101.2 7.3 101.2 7.4 101.2 7.45 106.85 7.45 107.05 7.55 107.1 7.6 107.2 7.6 107.2 7.55 107.4 7.65 107.45 7.7 107.55 7.8 107.55 7.9 107.55 8.0 107.55 8.1 107.55 8.2 107.55 8.3 107.55 8.4 107.55 8.45 107.55 8.55 107.55 8.65 107.55 8.75 107.55 8.85 107.55 8.95 107.55 9.05 107.55 9.15 107.55 9.2 107.55 9.3 107.55 9.4 107.55 9.5 107.55 9.6 107.55 9.7 107.55 9.8 107.55 9.9 107.55 9.95 107.55 10.05 107.55 10.15 107.55 10.25 107.55 10.35 107.55 10.45 107.55 10.55 107.55 10.65 107.55 10.7 107.55 10.8 107.55 10.9 107.55 11.0 107.55 11.1 107.55 11.2 107.55 11.3 107.5 11.4 107.45 11.45 107.45 11.55 107.45 11.65 107.4 11.75 107.4 11.85 107.3 11.9 107.25 11.95 107.1 11.95 102.2 11.95 102.05 12.0 101.85 12.0 101.75 12.05 101.85 12.1 101.85 12.05 102.05 12.15 102.15 12.2 102.2 12.3 102.2 12.4 102.25 12.5 102.3 12.6 102.3 12.7 102.3 12.8 102.3 12.9 102.3 12.95 102.3 13.05 102.3 13.15 102.3 13.25 102.25 13.35 102.2 13.45 102.15 13.5 102.15 13.55 102.2 13.65 102.15 13.75 102.3 13.8 102.4 13.9 102.45 13.95 102.45 14.05 102.45 14.15 102.45 14.25 102.55 14.3 102.65 14.4 102.7 14.45 102.7 14.55 102.7 14.65 102.7 14.75 102.7 14.85 102.7 14.95 102.65 15.05 102.6 15.15 102.55 15.2 102.55 15.3 102.55 15.4 102.55 15.5 102.55 15.6 102.55 15.7 102.55 15.8 102.55 15.9 102.55 15.95 102.55 16.05 102.55 16.15 102.55 16.25 102.55 16.35 102.55 16.45 102.55 16.55 102.55 16.65 102.55 16.7 102.55 16.8 102.55 16.9 102.55 17.0 102.55 17.1 102.55 17.2 102.55 17.3 102.55 17.4 102.55 17.45 102.55 17.55 102.55 17.65 102.55 17.75 102.55 17.85 102.55 17.95 102.55 18.05 102.55 18.15 102.55 18.2 102.55 18.3 102.55 18.4 102.55 18.5 102.55 18.6 102.55 18.7 102.55 18.8 102.55 18.9 102.55 18.95 102.55 19.05 102.55 19.15 102.55 19.25 102.55 19.35 102.55 19.45 102.55 19.55 102.55 19.65 102.55 19.7 102.55 19.8 102.55 19.9 102.55 20.0 102.55 20.1 102.55 20.2 102.55 20.3 102.55 20.4 102.55 20.45 102.55 20.55 102.55 20.65 102.55 20.75 102.5 20.85 102.45 20.95 102.35 21.05 102.2 21.05 102.15 21.05 102.15 21.1 102.05 21.15 102.0 21.2 101.85 21.2 99.6 21.2 99.45 21.2 99.2 21.2 98.95 21.15 98.9 21.05 98.8 20.95 98.8 20.9 98.8 20.8 98.7 20.7 98.7 20.65 98.7 20.55 98.7 20.45 98.7 20.35 98.7 20.25 98.7 20.2 66.3 20.2 66.2 20.3 66.2 20.4 66.2 20.5 66.2 20.6 66.25 20.7 66.3 20.8 66.3 20.9 66.3 20.95 66.2 21.05 66.15 21.15 66.15 21.2 66.05 21.25 66.0 21.3 65.85 21.3 64.7 21.3 64.45 21.25 64.4 21.15 64.3 21.05 64.3 20.95 64.3 20.9 64.25 20.95 64.1 20.95 63.9 20.9 63.8 20.8 63.7 20.7 63.6 20.65 63.55 20.55 63.55 20.45 63.55 20.35 63.55 20.25 63.55 20.15 63.55 20.05 63.55 19.95 63.55 19.9 63.55 19.8 63.55 19.7 63.55 19.6 63.55 19.5 63.55 19.4 63.55 19.3 63.55 19.2 63.55 19.15 63.55 19.05 63.55 18.95 63.55 18.85 63.55 18.8 63.5 18.7 63.45 18.6 63.4 18.5 63.3 18.45 63.3 18.35 63.25 18.25 63.2 18.15 63.15 18.05 63.1 17.95 63.05 17.85 63.0 17.75 62.95 17.7 62.95 17.6 62.95 17.55 62.8 17.45 62.65 17.35 62.5 17.3 62.45 17.4 62.4 17.45 62.35 17.45 62.3 17.55 62.3 17.65 62.3 17.75 62.3 17.85 62.3 17.95 62.3 18.05 62.3 18.15 62.3 18.2 62.3 18.3 62.3 18.4 62.3 18.5 62.3 18.6 62.3 18.7 62.3 18.8 62.3 18.9 62.3 18.95 62.3 19.05 62.3 19.15 62.3 19.25 62.3 19.35 62.3 19.45 62.3 19.55 62.25 19.65 62.2 19.7 62.15 19.8 62.1 19.85 62.1 19.95 62.1 20.0 62.1 20.1 62.1 20.2 62.1 20.3 62.1 20.4 62.1 20.5 62.05 20.6 62.0 20.7 61.95 20.75 61.85 20.85 61.85 20.9 61.85 21.0 61.85 21.1 61.85 21.2 61.8 21.3 61.75 21.4 61.7 21.45 61.7 21.55 61.65 21.65 61.65 21.75 61.55 21.85 61.4 21.95 61.35 22.05 61.2 22.1 60.7 22.1 60.55 22.05 60.45 22.05 60.2 22.0 60.15 21.9 60.05 21.8 59.95 21.75 59.9 21.65 59.8 21.55 59.8 21.45 59.8 21.4 59.8 21.3 59.8 21.2 59.8 21.1 59.8 21.0 59.8 20.9 59.8 20.8 59.8 20.7 59.9 20.65 59.95 20.55 59.95 20.45 59.95 20.35 59.95 20.3 59.85 20.25 59.65 20.25 59.45 20.2 59.35 20.2 59.25 20.2 59.05 20.3 58.95 20.4 58.85 20.45 58.65 20.55 58.55 20.65 58.4 20.75 58.15 20.85 58.05 20.9 58.0 20.95 57.85 20.95 57.55 21.0 57.5 21.05 57.35 21.05 56.95 21.15 56.85 21.2 56.7 21.2 56.6 21.2 56.4 21.15 56.3 21.1 55.6 21.05 55.45 21.05 55.4 21.0 50.1 20.95 49.9 20.9 49.8 20.8 49.7 20.7 49.7 20.65 49.7 20.55 49.65 20.45 49.55 20.35 49.5 20.25 49.45 20.15 49.4 20.05 49.3 19.95 49.25 19.9 49.25 19.85 49.15 19.85 49.1 19.9 48.95 19.9 48.55 20.0 48.55 20.05 48.5 20.15 48.4 20.25 48.3 20.35 48.3 20.45 48.3 20.55 48.25 20.65 48.2 20.75 48.15 20.8 48.15 20.9 48.05 21.0 48.05 21.1 48.05 21.2 48.05 21.3 48.0 21.4 47.95 21.5 47.9 21.55 47.9 21.65 47.8 21.75 47.8 21.85 47.75 21.95 47.75 22.05 47.65 22.15 47.6 22.25 47.55 22.3 47.55 22.4 47.55 22.5 47.55 22.6 47.5 22.7 47.5 22.8 47.4 22.9 47.35 23.0 47.3 23.05 47.3 23.15 47.3 23.25 47.25 23.35 47.25 23.45 47.15 23.55 47.15 23.65 47.1 23.75 47.05 23.8 47.05 23.9 47.05 24.0 47.05 24.1 47.0 24.2 47.0 24.3 46.9 24.4 46.85 24.5 46.8 24.55 46.8 24.65 46.8 24.75 46.8 24.85 46.75 24.95 46.75 25.05 46.65 25.15 46.6 25.25 46.55 25.3 46.55 25.4 46.55 25.5 46.5 25.6 46.5 25.7 46.4 25.8 46.4 25.9 46.35 26.0 46.3 26.05 46.3 26.15 46.3 26.25 46.25 26.35 46.25 26.45 46.15 26.55 46.15 26.65 46.15 26.75 46.15 26.8 46.05 26.9 46.05 27.0 46.0 27.1 46.0 27.2 45.9 27.3 45.9 27.4 45.9 27.5 45.9 27.55 45.8 27.65 45.8 27.75 45.8 27.85 45.75 27.95 45.75 28.05 45.65 28.15 45.65 28.25 45.65 28.3 45.65 28.4 45.55 28.5 45.55 28.6 45.5 28.7 45.5 28.8 45.4 28.9 45.35 29.0 45.3 29.05 45.3 29.15 45.3 29.25 45.25 29.35 45.25 29.45 45.15 29.55 45.1 29.65 45.05 29.7 45.15 29.75 45.25 29.8 45.3 29.9 45.3 30.0 45.35 30.1 45.5 30.2 45.5 30.3 45.55 30.4 45.55 30.5 45.65 30.55 45.65 30.65 45.65 30.75 45.65 30.85 45.65 30.95 45.65 31.05 45.65 31.15 45.65 31.25 45.65 31.3 45.65 31.4 45.55 31.5 45.5 31.6 45.5 31.7 45.35 31.8 45.3 31.9 45.25 32.0 45.2 32.05 45.1 32.15 44.95 32.15 44.9 32.15 44.8 32.25 44.7 32.3 44.55 32.3 43.75 32.35 43.7 32.4 43.55 32.4 42.2 32.4 42.05 32.4 42.0 32.35 41.3 32.3 41.05 32.25 41.0 32.2 40.7 32.15 40.55 32.15 40.5 32.1 40.3 32.05 40.05 32.0 39.95 31.9 39.75 31.85 39.5 31.75 39.35 31.65 39.15 31.55 39.05 31.5 38.95 31.4 38.9 31.3 38.75 31.2 38.55 31.1 38.5 31.0 38.4 30.9 38.3 30.8 38.2 30.75 38.15 30.65 38.1 30.55 38.0 30.45 37.95 30.35 37.9 30.25 37.9 30.15 37.85 30.1 37.8 30.05 37.7 30.0 37.65 29.9 37.65 29.8 37.65 29.7 37.65 29.6 37.65 29.5 37.55 29.4 37.55 29.3 37.55 29.25 37.55 29.15 37.55 29.05 37.55 28.95 37.55 28.85 37.55 28.75 37.55 28.65 37.55 28.55 37.55 28.5 37.6 28.4 37.65 28.3 37.65 28.2 37.65 28.1 37.65 28.0 37.65 27.9 37.65 27.8 37.65 27.75 37.65 27.65 37.7 27.55 37.75 27.45 37.8 27.35 37.85 27.25 37.9 27.15 37.9 27.05 37.9 27.0 37.95 26.9 38.0 26.8 38.05 26.7 38.1 26.6 38.15 26.5 38.15 26.4 38.15 26.3 38.25 26.25 38.3 26.15 38.35 26.05 38.4 25.95 38.4 25.85 38.45 25.75 38.55 25.65 38.55 25.55 38.6 25.5 38.65 25.4 38.7 25.3 38.75 25.2 38.8 25.1 38.85 25.0 38.9 24.9 39.0 24.8 39.05 24.75 39.1 24.65 39.15 24.55 39.15 24.45 39.2 24.35 39.3 24.25 39.3 24.15 39.4 24.05 39.4 24.0 39.4 23.9 39.45 23.8 39.5 23.7 39.55 23.6 39.6 23.5 39.65 23.4 39.65 23.3 39.75 23.25 39.8 23.15 39.8 23.05 39.8 22.95 39.8 22.85 39.85 22.75 39.9 22.65 39.9 22.55 39.9 22.5 39.95 22.4 40.0 22.3 40.05 22.2 40.05 22.1 40.1 22.0 40.15 21.9 40.15 21.8 40.15 21.75 40.2 21.65 40.25 21.55 40.3 21.45 40.3 21.35 40.3 21.25 40.3 21.15 40.4 21.05 40.4 21.0 40.45 20.9 40.5 20.8 40.55 20.7 40.55 20.6 40.6 20.5 40.65 20.4 40.65 20.3 40.65 20.25 40.65 20.15 40.7 20.05 40.75 19.95 40.8 19.85 40.8 19.75 40.8 19.65 40.8 19.55 40.8 19.5 40.85 19.4 40.9 19.3 40.9 19.2 40.9 19.1 40.9 19.0 40.9 18.9 41.0 18.8 41.05 18.75 41.05 18.65 41.1 18.55 41.15 18.45 41.15 18.35 41.15 18.25 41.15 18.15 41.15 18.05 41.1 18.0 41.1 17.65 41.05 17.6 41.05 17.55 41.0 17.5 41.0 17.45 40.95 17.45 40.95 17.3 40.9 17.3 40.9 17.2 40.85 17.15 40.8 17.1 40.8 17.05 40.75 17.0 40.7 16.95 40.65 16.9 40.65 16.85 40.6 16.85 40.6 16.8 40.55 16.75 40.55 16.7 40.5 16.7 40.45 16.65 40.4 16.6 40.35 16.55 40.3 16.55 40.25 16.5 40.15 16.45 40.1 16.45 40.05 16.4 40.0 16.35 39.9 16.35 39.85 16.3 39.75 16.25 39.7 16.25 39.6 16.2 39.55 16.15 39.5 16.15 39.45 16.1 39.35 16.05 39.3 16.05 39.25 16.0 39.15 16.0 39.05 16.0 39.0 15.95 38.9 15.95 38.85 15.95 38.8 15.9 38.7 15.9 38.6 15.9 38.55 15.9 38.5 15.85 38.4 15.85 38.3 15.85 38.25 15.8 38.15 15.8 38.05 15.8 37.95 15.75 37.9 15.75 37.85 15.7 37.75 15.7 37.7 15.65 37.6 15.65 37.05 15.65 36.95 15.65 36.5 15.65 36.35 15.65 36.3 15.65 36.2 15.7 36.15 15.7 35.8 15.7 35.75 15.7 35.65 15.75 35.6 15.75 35.55 15.8 35.45 15.8 35.4 15.85 35.3 15.85 35.2 15.9 35.15 15.9 35.05 15.9 35.0 15.9 34.9 15.95 34.75 15.95 34.65 16.0 34.5 16.0 34.4 16.05 34.35 16.05 34.3 16.1 34.25 16.1 34.15 16.15 34.05 16.2 33.95 16.2 33.85 16.25 33.75 16.25 33.65 16.3 33.6 16.3 33.5 16.35 33.45 16.35 33.35 16.4 33.25 16.4 33.15 16.45 33.05 16.5 33.0 16.55 32.9 16.55 32.8 16.6 32.75 16.6 32.65 16.65 32.55 16.65 32.5 16.7 32.4 16.75 32.3 16.75 32.25 16.8 32.15 16.85 32.1 16.85 32.0 16.9 31.95 16.9 31.85 16.95 31.8 16.95 31.7 17.0 31.6 17.0 31.55 17.05 31.45 17.1 31.35 17.1 31.3 17.15 31.2 17.2 31.15 17.2 31.05 17.25 31.0 17.25 30.95 17.3 30.85 17.3 30.8 17.3 30.7 17.35 30.65 17.35 30.55 17.4 30.5 17.4 30.4 17.45 30.35 17.45 30.25 17.5 30.15 17.5 30.1 17.55 30.0 17.6 29.95 17.65 29.85 17.65 29.75 17.7 29.7 17.7 29.6 17.75 29.5 17.75 29.4 17.8 29.3 17.85 29.25 17.85 29.2 17.9 29.15 17.9 29.05 17.95 29.0 18.0 28.9 18.0 28.8 18.05 28.7 18.1 28.65 18.1 28.55 18.15 28.5 18.15 28.4 18.2 28.35 18.2 28.25 18.25 28.2 18.25 28.1 18.3 28.05 18.3 28.0 18.35 27.95 18.35 27.9 18.4 27.85 18.45 27.8 18.45 27.7 18.5 27.65 18.5 27.55 18.55 27.5 18.55 27.4 18.6 27.35 18.6 27.25 18.65 27.15 18.65 27.05 18.7 27.0 18.7 26.9 18.75 26.85 18.75 26.75 18.8 26.7 18.8 26.6 18.85 26.5 18.85 26.4 18.9 26.3 18.9 26.2 18.95 26.15 18.95 26.1 19.0 26.05 19.0 25.95 19.05 25.85 19.05 25.75 19.1 25.65 19.1 25.55 19.15 25.5 19.15 25.35 19.2 25.3 19.2 25.2 19.25 25.1 19.25 25.0 19.3 24.95 19.3 24.9 19.35 24.8 19.35 24.75 19.35 24.65 19.4 24.55 19.4 24.45 19.45 24.35 19.45 24.25 19.5 24.2 19.5 24.1 19.55 23.95 19.55 23.85 19.6 23.7 19.6 23.6 19.65 23.45 19.65 23.35 19.7 23.2 19.7 23.1 19.75 23.05 19.75 23.0 19.8 22.95 19.8 22.85 19.85 22.75 19.85 22.7 19.85 22.6 19.9 22.45 19.9 22.35 19.95 22.2 19.95 22.1 20.0 22.05 20.0 22.0 20.05 21.95 20.05 21.9 20.1 21.8 20.15 21.75 20.15 21.7 20.2 21.6 20.2 21.55 20.2 21.45 20.25 21.4 20.25 21.3 20.3 21.25 20.35 21.2 20.35 21.15 20.4 21.05 20.45 21.0 20.45 20.9 20.5 20.8 20.5 20.7 20.55 20.6 20.55 20.55 20.6 20.45 20.65 20.4 20.65 20.3 20.7 20.15 20.7 20.05 20.75 19.95 20.75 19.85 20.8 19.8 20.8 19.7 20.85 19.65 20.85 19.55 20.9 19.4 20.9 19.3 20.95 19.2 20.95 19.15 21.0 19.05 21.05 19.0 21.05 18.9 21.1 18.85 21.2 18.75 21.2 18.7 21.2 18.6 21.25 18.5 21.25 18.45 21.3 18.35 21.35 18.25 21.35 18.15 21.4 18.1 21.4 18.0 21.45 17.9 21.45 17.8 21.5 17.75 21.5 17.65 21.55 17.5 21.55 17.4 21.6 17.35 21.6 17.25 21.65 17.2 21.7 17.1 21.7 17.05 21.7 16.95 21.75 16.8 21.75 16.7 21.8 16.65 21.8 16.5 21.85 16.45 21.85 16.35 21.9 16.3 21.9 16.2 21.95 16.15 22.0 16.05 22.0 16.0 22.0 15.9 22.05 15.75 22.05 15.65 22.1 15.6 22.1 15.5 22.15 15.45 22.15 15.35 22.15 15.3 22.15 15.2 22.2 15.15 22.2 15.05 22.25 15.0 22.25 14.9 22.3 14.8 22.3 14.75 22.35 14.65 22.4 14.6 22.4 14.45 22.4 14.4 22.4 14.3 22.45 14.2 22.45 14.1 22.5 13.95 22.5 13.85 22.55 13.8 22.55 13.7 22.55 13.65 22.55 13.55 22.6 13.4 22.6 13.3 22.65 13.15 22.65 13.05 22.7 12.9 22.7 12.8 22.75 12.75 22.75 12.65 22.8 12.6 22.85 12.55 22.85 12.45 22.9 12.4 22.95 12.3 22.95 12.25 23.0 12.15 23.05 12.1 23.05 12.0 23.1 11.95 23.1 11.9 23.15 11.85 23.15 11.75 23.2 11.6 23.25 11.55 23.25 11.45 23.3 11.4 23.3 11.3 23.35 11.25 23.4 11.15 23.45 11.05 23.5 11.0 23.55 10.85 23.55 10.8 23.55 10.7 23.6 10.65 23.6 10.6 23.65 10.5 23.65 10.45 23.7 10.35 23.75 10.3 23.8 10.25 23.8 10.15 23.85 10.05 23.85 9.95 23.9 9.8 23.9 9.7 23.95 9.6 23.95 9.55 24.0 9.45 24.05 9.35 24.05 9.25 24.1 9.15 24.1 9.05 24.15 8.95 24.15 8.85 24.2 8.7 24.2 8.6 24.25 8.45 24.25 8.35 24.3 8.3 24.3 8.25 24.35 8.15 24.35 8.1 24.4 8.0 24.45 7.95 24.45 7.85 24.45 7.8 24.45 7.7 24.5 7.65 24.5 7.55 24.55 7.45 24.55 7.35 24.6 7.25 24.65 7.2 24.65 7.15 24.7 7.1 24.7 7.0 24.75 6.9 24.8 6.85 24.8 6.75 24.85 6.7 24.85 6.65 24.9 6.55 24.9 6.5 24.9 6.4 24.95 6.3 24.95 6.25 25.0 6.15 25.05 6.05 25.05 5.95 25.1 5.9 25.1 5.8 25.15 5.75 25.15 5.65 25.2 5.55 25.2 5.5 25.25 5.4 25.3 5.35 25.3 5.25 25.35 5.1 25.35 5.0 25.4 4.95 25.4 4.85 25.4 4.8 25.4 4.7 25.45 4.65 25.45 4.55 25.45 4.5 25.45 4.4 25.5 4.3 25.5 4.2 25.55 4.1 25.55 4.0 25.6 3.95 25.6 3.85 25.6 3.8 25.6 3.7 25.65 3.65 25.65 3.55 25.65 3.5 25.65 3.4 25.7 3.35 25.7 3.3 25.75 3.25 25.75 3.2 25.8 3.1 25.85 3.05 25.85 2.95 25.9 2.8 25.9 2.7 25.95 2.65 25.95 2.55 26.0 2.45 26.05 2.35 26.05 2.3 26.1 2.2 26.15 2.15 26.15 2.1 26.2 2.0 26.2 1.95 26.25 1.85 26.3 1.75 26.3 1.7 26.35 1.6 26.4 1.5 26.4 1.4 26.45 1.35 26.45 1.25 26.5 1.2 26.5 1.1 26.55 1.0 26.5 0.9 26.4 0.8 26.3 0.8 26.25 0.8 26.15 0.55 26.1 0.5 26.0 0.45 25.95 0.45 21.05 0.5 21.0 0.55 20.95 0.7 20.9 0.9 20.9 0.9 20.85 0.9 20.75 0.9 20.65 0.9 20.55 0.9 20.5 0.9 20.4 0.9 20.3 0.9 20.2 0.9 20.1 0.9 20.0 0.9 19.9 0.9 19.8 0.9 19.75 0.9 19.65 0.9 19.55 0.9 19.45 0.9 19.35 0.9 19.25 0.9 19.15 0.9 19.05 0.9 19.0 0.9 18.9 0.9 18.8 0.9 18.7 0.9 18.6 0.9 18.5 0.9 18.4 0.9 18.3 0.9 18.25 0.9 18.15 0.9 18.05 0.9 17.95 0.9 17.85 0.9 17.75 0.9 17.65 0.9 17.55 0.9 17.5 0.9 17.4 0.9 17.3 0.9 17.2 0.9 17.1 0.9 17.0 0.9 16.9 0.9 16.8 0.9 16.75 0.9 16.65 0.9 16.55 0.9 16.45 0.9 16.35 0.9 16.25 0.9 16.15 0.9 16.05 0.9 16.0 0.9 15.9 0.9 15.8 0.85 15.65 0.8 15.5 0.8 15.35 0.8 15.2 0.8 15.05 0.8 14.9 0.8 14.75 0.8 14.65 0.7 14.65 0.5 14.6 0.4 14.5 0.3 14.4 0.3 14.3 0.3 14.25 0.3 14.15 0.3 14.05 0.3 13.95 0.3 13.85 0.3 13.75 0.3 13.65 0.3 13.55 0.3 13.5 0.3 13.4 0.3 13.3 0.3 13.2 0.3 13.1 0.3 13.0 0.3 12.9 0.3 12.8 0.3 12.75 0.3 12.65 0.3 12.55 0.3 12.45 0.3 12.35 0.3 12.25 0.3 12.15 0.3 12.05 0.3 12.0 0.3 11.9 0.3 11.8 0.3 11.7 0.3 11.6 0.3 11.5 0.3 11.4 0.3 11.3 0.3 11.25 0.3 11.15 0.3 11.05 0.3 10.95 0.3 10.85 0.35 10.75 0.4 10.65 0.5 10.55 0.55 10.5 0.55 10.4 0.6 10.3 0.65 10.2 0.8 10.1 0.95 10.0 1.05 9.95 1.15 9.9 1.25 9.8 1.4 9.7 1.5 9.65 1.55 9.6 1.7 9.6 1.7 9.55 1.85 9.6 1.9 9.65 2.05 9.65 2.25 9.75 2.3 9.8 4.2 9.8 4.25 9.85 4.3 9.8 11.55 9.8 11.8 9.8 12.55 9.8 12.7 9.85 12.75 9.9 16.7 9.85 16.7 9.8 16.8 9.75 16.8 9.7 17.0 9.65 17.2 9.6 17.35 9.55 17.5 9.45 17.6 9.35 17.7 9.25 17.9 9.15 17.95 9.05 18.05 9.0 18.05 8.95 18.25 8.9 18.45 8.9 18.45 8.85 18.6 8.85 18.75 8.9 18.8 9.0 18.85 9.1 18.8 9.2 18.75 9.3 18.5 9.4 18.5 9.45 18.65 9.5 18.75 9.55 18.75 9.5 18.75 9.45 18.8 9.4 18.9 9.35 19.05 9.3 19.15 9.3 19.3 9.25 19.6 9.25 19.6 9.2 20.15 9.2 20.3 9.15 20.8 9.15 20.9 9.2 21.4 9.2 21.55 9.15 24.95 9.15 25.05 9.2 25.4 9.2 25.55 9.15 29.2 9.15 29.3 9.2 30.55 9.2 30.7 9.15 33.05 9.15 33.15 9.1 33.3 9.05 34.7 9.0 34.8 8.95 34.95 8.95 34.95 8.9 35.7 8.9 35.75 8.8 35.9 8.7 36.05 8.6 36.2 8.5 36.3 8.4 36.4 8.3 36.5 8.25 36.7 8.15 36.75 8.05 36.9 7.95 37.05 7.85 37.15 7.75 37.15 7.65 37.25 7.55 37.3 7.5 37.5 7.4 37.65 7.3 37.75 7.25 37.8 7.2 37.95 7.15 38.8 7.1 38.95 7.0 39.05 6.9 39.15 6.8 39.25 6.75 39.3 6.65 39.4 6.55 39.5 6.45 39.6 6.35 39.7 6.25 39.8 6.2 39.9 6.15 39.95 6.05 40.0 5.95 40.15 5.85 40.3 5.75 40.4 5.65 40.5 5.55 40.55 5.5 40.6 5.4 40.65 5.3 40.75 5.25 40.8 5.2 40.95 5.15 41.0 5.05 41.1 4.95 41.2 4.85 41.3 4.75 41.4 4.65 41.5 4.55 41.55 4.5 41.65 4.4 41.75 4.3 41.85 4.2 41.95 4.1 42.05 4.0 42.15 3.9 42.25 3.8 42.3 3.75 42.5 3.65 42.7 3.6 42.7 3.55 42.75 3.55 42.8 3.5 42.9 3.45 43.05 3.45 43.05 3.4 62.55 3.4 62.55 3.35 62.6 3.25 62.65 3.15 62.75 3.05 62.8 3.0 62.85 2.9 62.9 2.8 63.0 2.7 63.05 2.65 63.15 2.6 63.25 2.6 63.25 2.55 63.3 2.5 63.4 2.45 63.55 2.4 64.05 2.4 64.05 2.35 64.05 2.25 64.15 2.15 64.3 2.05 64.4 2.0 64.5 1.9 64.55 1.85 64.55 1.8 64.65 1.8 64.7 1.7 64.8 1.65 64.9 1.55 65.0 1.55 65.05 1.5 65.15 1.4 65.25 1.3 65.3 1.25 65.3 1.15 65.4 1.05 65.5 0.95 65.6 0.85 65.65 0.75 65.65 0.65 65.65 0.55 65.65 0.5 65.8 0.45 65.8 0.4 65.85 0.45 65.85 0.35 65.95 0.35 66.05 0.3 66.15 0.4 66.35 0.4 66.5 0.4 66.55 0.3 66.7 0.3 67.05 0.3 67.2 0.35 67.3 0.45 67.4 0.55 67.5 0.65 67.55 0.75 67.65 0.8 67.75 0.9 67.85 1.0 67.95 1.1 68.05 1.2 68.15 1.3 68.25 1.4 68.3 1.45 68.45 1.5 68.6 1.6 68.65 1.7 68.7 1.75 68.75 1.8 68.9 1.9 68.9 2.0 69.05 2.05 69.15 2.15 69.2 2.25 69.25 2.35 69.3 2.4 71.05 2.4 71.05 2.35 71.05 2.25 71.05 2.15 71.15 2.1 71.15 2.05 71.35 2.0 71.55 1.95 71.75 1.9 71.8 1.8 72.0 1.75 72.05 1.65 72.15 1.6 72.15 1.55 72.35 1.5 72.55 1.4 72.65 1.3 72.75 1.25 72.8 1.25 73.0 1.15 73.05 1.1 73.05 1.05 73.25 1.0 73.3 0.9 73.4 0.85 73.4 0.8 73.55 0.8 73.7 0.85 73.75 0.95 73.8 1.05 73.8 1.15 73.8 1.25 73.8 1.3 73.8 1.4 73.8 1.5 73.85 1.6 73.9 1.7 73.95 1.8 74.0 1.9 74.0 2.0 74.05 2.05 74.15 2.15 74.2 2.25 74.25 2.35 74.3 2.4 76.5 2.4 76.55 2.35 76.7 2.35 76.7 2.3 76.95 2.3 77.15 2.4 77.25 2.5 77.3 2.55 77.3 2.65 77.3 2.7 77.4 2.75 77.5 2.8 77.55 2.9 77.55 3.0 77.6 3.05 77.7 3.15 77.8 3.25 77.85 3.35 77.9 3.45 78.05 3.45 78.05 3.4 96.8 3.4 96.9 3.3 97.0 3.25 97.1 3.15 97.15 3.05 97.2 2.95 97.25 2.85 97.3 2.75 97.3 2.65 97.4 2.55 97.45 2.5 97.5 2.4 97.55 2.3 97.55 2.2 97.55 2.1 97.55 2.0 97.55 1.9 97.5 1.8 97.45 1.75 97.45 1.65 97.45 1.55 97.45 1.45 97.45 1.35 97.45 1.25 97.45 1.15 97.45 1.05 97.45 1.0 97.45 0.9 97.45 0.8 97.45 0.7 97.45 0.6 97.45 0.5 97.45 0.4 97.45 0.3 97.45 0.25 97.45 0.15 97.45 0.05 97.45 -0.05 97.55 -0.15 97.7 -0.2 M99.45 0.25 L99.5 0.3 99.5 0.25 99.6 0.2 99.55 0.2 99.4 0.2 99.45 0.25 M96.45 10.35 L96.4 10.35 96.2 10.45 96.5 10.45 96.55 10.4 96.45 10.35 M66.9 0.85 L66.9 0.9 67.0 0.95 67.0 0.9 66.9 0.85 M50.45 16.4 L50.4 16.5 50.3 16.6 50.35 16.7 50.35 16.8 50.35 16.9 50.35 17.0 50.35 17.1 50.35 17.2 50.35 17.25 50.35 17.35 50.35 17.45 50.35 17.55 50.35 17.65 50.3 17.75 50.25 17.85 50.2 17.95 50.15 18.0 50.1 18.1 50.1 18.45 50.1 18.55 50.1 18.65 50.1 18.7 50.1 18.8 50.1 18.9 50.1 19.0 50.1 19.1 50.1 19.2 50.1 19.3 50.1 19.35 50.15 19.45 50.15 19.55 50.15 19.65 50.2 19.75 50.25 19.85 50.4 19.95 50.4 20.05 50.45 20.15 50.45 20.2 55.45 20.2 55.6 20.25 55.65 20.3 56.6 20.3 56.85 20.3 57.2 20.3 57.3 20.25 57.45 20.2 57.6 20.15 57.7 20.1 57.85 20.05 58.05 20.0 58.2 19.9 58.3 19.8 58.5 19.7 58.6 19.7 58.6 19.6 58.6 19.5 58.6 19.4 58.6 19.3 58.6 19.2 58.6 19.15 58.6 19.05 58.6 18.95 58.6 18.85 58.6 18.75 58.6 18.65 58.6 18.55 58.6 18.45 58.6 18.4 58.6 18.3 58.6 18.2 58.6 18.1 58.6 18.0 58.6 17.9 58.6 17.8 58.6 17.7 58.6 17.65 58.6 17.55 58.6 17.45 58.6 17.35 58.6 17.25 58.6 17.15 58.6 17.05 58.6 16.95 58.6 16.9 58.6 16.8 58.6 16.7 58.6 16.6 58.6 16.5 58.6 16.15 58.6 16.05 58.6 16.0 53.2 16.0 53.15 16.05 53.1 16.15 53.1 16.25 53.1 16.35 53.1 16.45 53.1 16.55 53.1 16.65 53.1 16.7 53.15 16.8 53.2 16.9 53.2 17.0 53.2 17.1 53.2 17.2 53.3 17.3 53.3 17.4 53.35 17.45 53.4 17.55 53.5 17.65 53.55 17.75 53.6 17.85 53.65 17.95 53.8 18.05 53.8 18.15 53.85 18.2 53.9 18.3 54.0 18.4 54.1 18.5 54.15 18.6 54.25 18.65 54.35 18.7 54.5 18.75 54.55 18.85 54.6 18.95 54.6 19.05 54.6 19.15 54.55 19.2 54.5 19.3 54.45 19.3 54.45 19.4 54.4 19.45 54.35 19.55 54.3 19.55 54.2 19.6 53.85 19.6 53.7 19.55 53.65 19.45 53.6 19.45 53.4 19.4 53.2 19.3 53.15 19.2 53.1 19.2 52.95 19.15 52.8 19.05 52.7 18.95 52.55 18.9 52.45 18.8 52.35 18.7 52.25 18.6 52.15 18.5 52.05 18.4 51.95 18.3 51.9 18.2 51.85 18.15 51.8 18.05 51.7 17.95 51.7 17.85 51.7 17.75 51.65 17.65 51.65 17.55 51.6 17.45 51.6 17.4 51.6 17.3 51.55 17.2 51.5 17.1 51.45 17.0 51.45 16.9 51.45 16.8 51.45 16.7 51.45 16.65 51.4 16.55 51.35 16.45 51.35 16.35 51.35 16.25 51.35 16.15 51.35 16.05 51.35 16.0 51.15 16.0 51.05 16.05 50.85 16.15 50.65 16.2 50.55 16.3 50.45 16.4 M53.65 18.85 L53.6 18.85 53.65 18.9 53.65 18.85 M27.9 15.05 L27.95 15.05 28.2 15.0 28.4 14.95 28.5 14.9 28.7 14.85 29.15 14.75 29.5 14.6 29.7 14.5 29.9 14.45 30.25 14.35 30.35 14.3 30.4 14.2 30.6 14.05 30.8 13.95 3.85 13.95 3.8 14.05 3.8 14.1 3.75 14.1 3.7 14.1 3.6 14.15 3.5 14.25 3.5 14.3 3.45 14.35 3.45 14.4 3.4 14.45 3.4 15.25 3.45 15.3 3.45 18.95 3.4 19.0 3.4 19.7 3.35 19.75 3.35 21.4 3.4 21.45 3.4 21.55 3.45 21.55 3.45 21.7 3.5 21.75 3.5 21.85 3.55 21.85 3.55 21.9 3.6 21.95 3.6 22.0 3.65 22.0 3.75 22.05 3.8 22.1 3.9 22.1 4.0 22.1 4.0 22.15 3.95 22.3 3.95 22.4 4.0 22.4 4.05 22.5 4.1 22.55 4.1 22.6 4.05 22.7 4.0 22.8 3.85 22.85 3.7 22.85 3.65 22.9 3.65 23.0 3.8 22.95 3.9 22.9 4.1 22.85 4.4 22.8 4.6 22.75 4.7 22.7 4.9 22.65 5.2 22.55 5.5 22.4 5.7 22.3 5.9 22.25 6.2 22.2 6.4 22.15 6.5 22.1 6.7 22.05 7.0 21.95 7.4 21.8 7.7 21.7 7.9 21.65 8.2 21.55 8.5 21.45 8.8 21.35 9.1 21.25 9.4 21.15 9.7 21.05 10.0 20.95 10.3 20.85 10.6 20.75 10.9 20.65 11.2 20.6 11.6 20.55 11.7 20.5 11.9 20.45 12.2 20.4 12.5 20.3 12.8 20.15 13.1 20.05 13.4 19.95 13.7 19.8 13.9 19.7 14.15 19.6 14.4 19.45 14.6 19.35 14.7 19.3 14.9 19.25 15.2 19.2 15.9 19.1 16.2 18.95 16.5 18.85 16.8 18.75 17.1 18.65 17.4 18.6 17.6 18.55 17.7 18.5 17.9 18.45 18.2 18.35 18.5 18.25 18.8 18.15 19.1 18.05 19.4 18.0 19.7 17.9 20.0 17.75 20.3 17.65 20.6 17.6 21.05 17.5 21.4 17.35 21.7 17.25 22.0 17.15 22.3 17.05 22.6 16.95 22.9 16.85 23.2 16.75 23.4 16.6 23.6 16.45 23.7 16.4 23.8 16.35 23.9 16.3 24.1 16.25 24.2 16.25 24.4 16.2 24.8 16.15 24.9 16.1 25.1 16.05 25.4 15.95 25.8 15.8 26.2 15.65 26.4 15.55 26.5 15.55 26.5 15.5 26.6 15.5 27.6 15.15 27.9 15.05 M38.15 15.1 L38.1 15.05 37.65 15.1 37.4 15.25 37.1 15.35 37.25 15.35 37.95 15.35 38.1 15.35 38.2 15.35 38.25 15.4 38.4 15.4 38.2 15.2 38.15 15.1" fill="#ffffff" fill-rule="evenodd" stroke="none"/>
    </g>
  </defs>
</svg>
