<?xml version="1.0" encoding="UTF-8" standalone="no"?>
<svg xmlns:xlink="http://www.w3.org/1999/xlink" height="34.1px" width="59.25px" xmlns="http://www.w3.org/2000/svg">
  <g transform="matrix(1.0, 0.0, 0.0, 1.0, -0.65, 1.0)">
    <use height="34.1" transform="matrix(1.0, 0.0, 0.0, 1.0, 0.65, -1.0)" width="59.25" xlink:href="#shape0"/>
  </g>
  <defs>
    <g id="shape0" transform="matrix(1.0, 0.0, 0.0, 1.0, -0.65, 1.0)">
      <path d="M28.3 -0.05 L28.4 -0.1 28.45 -0.15 28.65 -0.2 28.7 -0.25 28.8 -0.3 28.85 -0.35 28.95 -0.4 29.0 -0.45 29.05 -0.45 29.05 -0.5 29.15 -0.55 29.25 -0.65 29.3 -0.7 29.35 -0.75 29.5 -0.8 29.6 -0.85 29.95 -0.85 29.95 -0.95 30.0 -0.95 30.0 -1.0 30.6 -0.95 30.6 -0.9 30.7 -0.85 30.7 -0.8 30.8 -0.75 30.85 -0.7 30.95 -0.65 30.95 -0.6 31.0 -0.55 31.1 -0.5 31.2 -0.45 31.25 -0.4 31.35 -0.35 31.4 -0.3 31.5 -0.3 31.55 -0.25 31.65 -0.2 31.7 -0.1 31.8 -0.05 31.95 0.0 32.05 0.1 32.05 0.2 32.05 0.35 32.05 0.5 32.05 0.65 32.05 0.9 32.05 1.05 32.05 1.15 32.05 1.3 32.05 1.45 53.55 1.45 53.55 1.4 53.55 1.3 53.55 1.2 53.55 1.1 53.55 1.0 53.55 0.9 53.6 0.9 53.7 0.9 53.75 0.8 53.8 0.75 53.85 0.75 53.9 0.65 53.95 0.65 53.95 0.55 54.05 0.5 54.1 0.5 54.15 0.4 54.2 0.35 54.25 0.3 54.25 0.25 54.3 0.2 54.35 0.15 54.35 0.1 55.8 0.1 55.8 0.15 55.9 0.25 55.95 0.3 56.0 0.35 56.0 0.4 56.05 0.5 56.1 0.5 56.15 0.55 56.25 0.65 56.25 0.75 56.35 0.75 56.4 0.8 56.45 0.9 56.55 0.9 56.55 1.05 56.55 1.15 56.55 1.3 56.55 1.4 56.65 1.45 56.65 1.6 56.95 1.6 56.95 1.75 56.95 1.85 57.05 1.95 57.2 2.0 57.25 2.1 57.3 2.1 57.5 2.15 57.5 2.25 57.5 2.4 57.5 2.65 57.5 2.8 57.5 2.9 57.5 3.0 57.6 3.05 57.6 3.2 57.6 3.3 57.75 3.35 57.75 3.45 57.75 3.55 57.75 3.65 57.75 3.75 57.75 3.85 57.75 3.9 58.0 3.9 58.0 4.0 58.0 4.15 59.6 4.15 59.6 4.3 59.9 4.3 59.9 4.4 59.9 4.5 59.9 4.6 59.9 4.7 59.9 4.8 59.9 4.9 59.9 5.0 59.9 5.1 59.9 5.2 59.9 5.3 59.9 5.4 59.9 5.5 59.9 5.6 59.9 5.7 59.9 5.8 59.9 5.9 59.9 6.0 59.9 6.1 59.9 6.2 59.9 6.3 59.9 6.4 59.9 6.5 59.9 6.6 59.9 6.7 59.9 6.8 59.9 6.85 59.75 6.85 57.9 6.8 57.9 6.85 57.75 6.85 57.75 7.0 57.75 7.1 57.75 7.25 57.6 7.25 57.6 7.4 57.6 7.5 57.6 7.6 57.6 7.65 57.5 7.8 57.45 7.9 57.35 8.0 57.35 8.1 57.35 8.15 57.15 8.2 57.15 8.35 57.15 8.4 57.1 8.45 57.05 8.5 57.05 8.6 57.0 8.65 56.95 8.7 56.95 8.75 56.9 8.8 56.9 8.9 56.85 8.95 56.65 8.95 56.65 9.0 56.65 9.15 56.65 9.25 56.6 9.3 56.6 9.35 55.85 9.35 55.85 9.3 41.45 9.2 41.45 9.25 40.6 9.25 40.6 9.35 40.6 9.4 40.6 9.55 40.6 9.65 40.6 9.75 40.6 9.85 40.6 9.95 40.6 10.05 40.6 10.15 40.6 10.25 40.6 10.35 40.6 10.45 40.6 10.55 40.6 10.65 40.6 10.75 40.6 10.85 40.6 10.95 40.6 11.05 40.6 11.15 40.6 11.25 40.6 11.35 40.6 11.45 40.6 11.55 40.6 11.65 40.6 11.75 40.6 11.85 40.6 11.95 40.6 12.05 40.6 12.15 40.6 12.25 40.6 12.35 40.4 12.35 40.4 12.45 39.3 12.55 39.3 12.6 38.4 12.55 38.25 12.55 38.05 12.55 38.05 12.65 37.95 12.65 37.85 12.7 37.85 12.8 37.75 12.8 37.75 12.9 37.75 12.95 37.7 12.95 37.65 13.05 37.6 13.05 37.6 13.15 37.55 13.2 37.5 13.2 37.45 13.3 37.45 13.35 37.4 13.35 37.35 13.45 37.2 13.6 37.2 13.7 37.15 13.75 37.1 13.75 37.05 13.85 37.05 13.95 36.95 14.0 36.9 14.0 36.9 14.1 36.85 14.15 36.8 14.2 36.8 14.25 36.7 14.3 36.65 14.35 36.65 14.4 36.6 14.4 36.6 14.5 36.5 14.55 36.5 14.6 36.45 14.65 36.25 14.7 36.2 14.8 36.2 14.85 36.1 14.95 36.1 15.15 36.1 15.25 36.1 15.4 36.1 15.5 36.1 15.55 36.1 15.65 36.1 15.7 36.1 15.8 36.1 15.9 36.1 16.1 36.1 16.2 36.1 16.3 36.1 16.6 36.1 16.7 36.1 17.0 36.1 17.1 36.1 17.4 36.1 17.5 36.1 17.8 36.1 17.9 36.1 18.2 36.1 18.3 36.5 18.3 36.65 18.4 36.7 18.5 36.75 18.6 36.75 18.75 36.75 18.9 36.75 19.0 36.75 19.15 36.75 19.3 36.75 19.45 36.8 19.5 36.8 19.9 36.75 19.95 36.75 20.0 36.7 20.05 36.7 20.4 36.65 20.45 36.65 20.5 36.6 20.55 36.55 20.6 36.55 20.65 36.5 20.7 36.5 20.8 36.5 20.9 36.35 20.9 36.25 20.95 36.2 21.0 36.1 21.05 36.1 21.1 36.05 21.1 35.95 21.15 35.85 21.2 35.75 21.2 35.7 21.25 35.7 21.3 35.7 21.4 35.7 21.45 35.6 21.5 35.6 21.6 35.6 21.65 35.6 21.75 35.55 21.85 35.5 21.9 35.5 21.95 35.5 22.05 35.5 22.15 35.5 22.25 35.5 22.35 35.5 22.45 35.5 22.55 35.5 22.65 35.5 22.75 35.5 22.85 35.5 22.95 35.5 23.05 35.5 23.15 35.5 23.25 35.5 23.35 35.5 23.45 35.5 23.55 35.5 23.65 35.5 23.75 35.5 23.85 35.5 23.95 35.5 24.05 35.5 24.15 35.5 24.25 35.5 24.35 35.5 24.45 35.5 24.55 35.5 24.7 35.5 24.85 35.5 24.95 35.5 25.1 35.5 25.25 35.5 25.4 35.5 25.65 35.5 25.8 35.5 26.05 35.5 26.2 35.5 26.45 35.5 26.6 35.5 26.7 35.5 26.8 35.5 26.85 35.5 27.0 35.5 27.1 35.5 27.2 35.5 27.25 35.5 27.4 35.5 27.5 35.5 27.6 35.5 27.7 35.5 27.8 35.5 27.9 35.5 29.6 35.5 29.7 35.5 30.3 35.5 30.4 35.5 30.5 35.5 30.7 35.5 30.8 35.5 30.9 35.5 30.95 35.5 31.05 35.5 31.2 35.5 31.3 35.5 31.5 35.5 31.6 35.5 31.9 35.5 32.0 35.5 32.1 35.5 32.3 35.5 32.4 35.5 32.5 35.5 32.8 35.5 32.9 35.5 33.1 27.45 33.1 27.45 32.9 27.45 32.8 27.45 32.1 27.45 32.0 27.45 31.9 27.45 31.7 27.45 31.6 27.45 31.5 27.45 31.3 27.45 31.2 27.45 31.1 27.45 30.9 27.45 30.8 27.45 30.7 27.45 30.5 27.45 30.4 27.45 30.3 27.45 30.1 27.45 30.0 27.45 29.9 27.45 29.7 27.45 29.6 27.45 27.9 27.45 27.8 27.45 27.7 27.45 27.6 27.45 27.5 27.45 27.4 27.45 27.25 27.45 27.2 27.45 27.1 27.45 27.0 27.45 26.85 27.45 26.8 27.45 26.7 27.45 26.6 27.45 26.45 27.45 26.2 27.45 26.05 27.45 25.8 27.45 25.65 27.45 25.4 27.45 25.25 27.45 25.1 27.45 24.95 27.45 24.85 27.45 24.7 27.45 24.55 27.45 24.45 27.45 24.35 27.45 24.25 27.45 24.15 27.45 24.05 27.45 23.95 27.45 23.85 27.45 23.75 27.45 23.65 27.45 23.55 27.45 23.45 27.45 23.35 27.45 23.25 27.45 23.15 27.45 23.05 27.45 22.95 27.45 22.85 27.45 22.75 27.45 22.65 27.45 22.55 27.45 22.45 27.45 22.35 27.45 22.25 27.45 22.15 27.45 22.05 27.45 21.95 27.45 21.85 27.45 21.75 27.45 21.65 27.45 21.55 27.45 21.45 27.4 21.45 27.35 21.5 27.35 21.6 27.25 21.7 27.2 21.8 27.2 21.85 27.05 21.95 27.0 22.05 26.95 22.15 25.7 22.15 25.7 22.05 25.3 22.0 25.25 21.9 24.9 21.85 24.9 21.75 24.9 21.7 24.8 21.7 24.8 21.6 24.8 21.5 24.8 21.4 24.8 21.3 24.8 21.2 24.8 21.1 24.8 21.0 24.8 20.9 24.8 20.8 24.8 20.7 24.8 20.6 24.8 20.5 24.8 20.4 24.8 20.3 24.8 20.2 24.8 20.1 24.8 20.0 24.8 19.9 24.8 19.8 24.8 19.7 24.8 19.55 24.8 19.5 24.8 19.4 24.8 19.3 24.8 19.15 24.8 19.0 24.8 18.9 18.9 18.9 18.9 19.0 18.9 19.15 18.9 19.3 18.9 19.45 18.9 19.7 18.9 19.85 18.9 20.0 15.5 19.95 15.5 20.0 15.45 20.1 15.4 20.25 15.3 20.35 15.25 20.4 15.2 20.5 15.1 20.65 15.1 20.75 15.05 20.85 15.0 20.9 15.0 21.05 15.0 21.25 14.85 21.3 14.85 21.4 14.8 21.5 14.7 21.6 14.65 21.7 14.6 21.8 14.6 21.9 14.6 22.0 14.6 22.15 14.5 22.2 14.45 22.3 14.4 22.4 14.3 22.55 14.25 22.6 14.25 22.7 14.25 22.8 14.2 22.95 14.2 23.0 14.15 23.1 14.05 23.2 14.05 23.35 13.95 23.4 13.85 23.5 13.85 23.6 13.85 23.75 13.8 23.8 13.8 23.9 13.8 24.05 13.8 24.2 13.65 24.25 13.65 24.35 13.6 24.45 13.45 24.55 13.45 24.7 13.45 24.75 13.4 24.85 13.4 24.95 13.4 25.1 13.25 25.15 13.25 25.25 13.2 25.4 13.1 25.5 13.05 25.55 13.05 25.65 13.05 25.75 13.05 25.8 12.95 25.85 12.95 25.95 12.9 26.05 12.85 26.15 12.85 26.25 12.85 26.35 12.7 26.4 12.7 26.5 12.7 26.6 12.7 26.75 12.55 26.8 12.55 26.9 12.45 27.0 12.45 27.15 12.45 27.2 12.45 27.3 12.4 27.4 12.3 27.55 12.3 27.7 12.25 27.8 12.15 27.95 12.15 28.1 12.3 28.2 12.3 28.3 12.45 28.35 12.45 28.5 12.5 28.55 12.55 28.65 12.55 28.75 12.65 28.9 12.7 28.95 12.7 29.15 12.7 29.3 12.7 29.55 12.7 29.7 12.7 29.85 12.7 30.0 12.7 30.1 12.55 30.15 12.55 30.25 12.55 30.35 12.55 30.45 12.35 30.55 12.3 30.65 11.25 30.6 11.2 30.6 11.2 30.5 9.85 30.45 9.85 30.4 7.9 30.3 7.85 30.25 5.75 30.2 5.75 30.1 5.15 30.05 5.1 30.0 3.4 30.0 3.25 29.95 2.95 29.9 2.85 29.85 1.6 29.75 1.5 29.7 1.5 29.55 1.5 29.4 0.95 29.35 0.85 29.3 0.85 29.15 0.75 29.05 0.65 28.95 0.65 28.9 0.65 28.75 0.65 28.65 0.65 28.55 0.65 28.5 0.65 28.35 0.65 28.25 0.65 28.15 0.65 28.1 0.65 27.95 0.65 27.85 0.65 27.75 0.65 27.65 0.65 27.55 0.65 27.45 0.65 27.35 0.65 27.25 0.65 27.15 0.75 27.05 0.85 26.95 0.85 26.85 0.85 26.75 0.95 26.65 1.0 26.55 1.0 26.45 1.0 26.35 1.0 26.25 1.0 26.15 1.05 26.05 1.1 25.95 1.1 25.85 1.1 25.75 1.1 25.65 1.1 25.55 1.1 25.5 1.2 25.5 1.2 25.4 1.2 25.25 1.2 25.15 1.3 25.1 1.35 24.95 1.4 24.85 1.4 24.75 1.5 24.7 1.5 24.55 1.5 24.45 1.5 24.3 1.6 24.25 1.6 24.15 1.6 24.05 1.8 23.95 1.8 23.85 1.8 23.75 1.8 23.65 1.9 23.55 1.9 23.45 1.9 23.35 2.0 23.25 2.1 23.15 2.2 23.05 2.2 22.95 2.35 22.95 2.35 22.8 2.35 22.7 2.45 22.6 2.5 22.55 2.55 22.4 2.6 22.3 2.75 22.2 2.75 22.15 2.75 22.0 2.8 21.9 2.85 21.8 2.85 21.75 3.0 21.7 3.05 21.6 3.1 21.45 3.15 21.35 3.2 21.3 3.25 21.2 3.25 21.05 3.25 20.95 3.4 20.85 3.4 20.8 3.4 20.65 3.5 20.55 3.55 20.45 3.65 20.35 3.65 20.25 3.8 20.15 3.8 20.05 3.85 19.95 3.9 19.85 3.95 19.75 4.05 19.65 4.05 19.55 4.15 19.45 4.2 19.35 4.35 19.25 4.35 19.15 4.45 19.15 4.45 19.0 4.5 18.9 4.6 18.8 4.75 18.75 4.75 18.6 4.75 18.5 4.9 18.45 4.9 18.35 5.0 18.25 5.0 18.15 5.15 18.05 5.15 17.95 5.15 17.85 5.3 17.8 5.3 17.7 5.4 17.6 5.4 17.5 5.55 17.4 5.55 17.3 5.7 17.2 5.7 17.1 5.8 17.0 5.8 16.9 5.8 16.8 5.95 16.7 5.95 16.6 5.95 16.5 6.1 16.45 6.15 16.3 6.2 16.2 6.2 16.15 6.25 16.05 6.35 15.9 6.35 15.75 Q6.45 15.65 6.5 15.65 L6.5 15.5 6.55 15.4 6.6 15.35 6.6 15.25 6.6 15.1 6.7 15.0 6.75 14.9 6.75 14.85 6.75 14.75 6.9 14.7 6.9 14.55 6.9 14.3 6.75 14.15 6.75 14.0 6.6 13.9 6.6 13.8 6.6 13.7 6.5 13.6 6.35 13.55 6.35 13.45 6.35 13.35 6.2 13.2 6.2 13.05 6.1 12.95 5.95 12.8 5.8 12.75 5.8 12.55 5.7 12.4 5.7 12.25 5.7 12.1 5.7 11.85 5.7 11.75 3.25 11.75 3.25 11.65 3.0 11.6 3.0 11.55 2.85 11.5 2.75 11.4 2.65 11.3 2.5 11.2 2.45 11.05 2.35 11.0 2.35 10.9 2.2 10.8 2.2 10.75 2.05 10.65 1.9 10.6 1.9 10.5 1.9 10.35 1.8 10.25 1.6 10.2 1.6 10.1 1.5 10.0 1.5 9.9 1.5 9.8 1.4 9.8 1.4 9.7 1.4 9.55 1.4 9.3 1.4 9.15 1.4 9.05 1.4 8.95 1.4 8.9 1.4 8.75 1.4 8.65 1.4 8.55 1.4 8.45 1.4 8.35 1.4 8.25 1.4 8.15 1.4 8.05 1.4 7.95 1.4 7.85 1.4 7.75 1.4 7.65 1.4 7.55 1.4 7.45 1.4 7.35 1.4 7.25 1.4 7.15 1.4 7.05 1.4 6.95 1.4 6.85 1.4 6.75 1.4 6.65 1.4 6.55 1.4 6.45 1.4 6.35 1.4 6.25 1.4 6.15 1.4 6.05 1.4 5.95 1.4 5.85 1.4 5.75 1.4 5.65 1.4 5.55 1.4 5.45 1.4 5.35 1.4 5.25 1.4 5.1 1.4 4.95 1.4 4.8 1.4 4.65 1.4 4.55 1.5 4.55 1.5 4.5 1.5 4.4 1.5 4.3 1.5 4.2 1.5 4.1 1.5 4.0 1.5 3.9 1.5 3.85 1.6 3.85 1.6 3.75 1.9 3.65 1.95 3.55 2.0 3.45 2.05 3.45 2.3 3.4 2.35 3.3 2.35 3.2 2.45 3.05 2.7 3.0 2.8 2.9 2.85 2.8 3.1 2.7 3.2 2.6 3.2 2.55 3.25 2.5 3.4 2.45 3.4 2.4 3.6 2.3 3.65 2.25 3.8 2.15 4.0 2.1 4.05 2.0 4.25 1.9 4.4 1.8 4.45 1.7 4.75 1.7 4.75 1.6 4.9 1.5 4.9 1.45 5.15 1.35 5.3 1.3 5.3 1.2 5.3 1.15 5.45 1.1 5.5 1.1 5.5 1.05 5.55 1.05 5.55 1.0 5.55 0.9 5.55 0.75 5.95 0.8 5.95 0.7 5.95 0.6 5.95 0.5 5.95 0.4 5.95 0.35 6.0 0.35 6.1 0.3 6.1 0.2 6.15 0.2 6.2 0.1 6.25 0.05 6.25 -0.05 7.3 0.0 7.3 0.05 7.7 0.1 7.7 0.2 7.7 0.35 7.7 0.45 7.75 0.5 7.8 0.65 7.85 0.75 7.85 0.9 7.85 1.05 7.85 1.15 28.25 1.2 28.25 1.15 28.25 1.05 28.25 0.9 28.25 0.65 28.25 0.5 28.25 0.35 28.25 0.2 28.25 -0.05 28.3 -0.05 M25.4 14.55 L25.3 14.45 25.3 14.35 25.3 14.25 25.2 14.15 25.2 14.05 25.2 13.95 25.2 13.85 25.05 13.75 25.05 13.6 24.9 13.55 24.9 13.45 24.8 13.35 24.7 13.25 24.0 13.2 21.3 13.2 21.35 13.25 21.35 13.35 21.35 13.4 21.35 13.5 21.4 13.5 21.4 13.55 21.45 13.6 21.5 13.65 21.5 13.75 21.55 13.8 21.6 13.9 21.65 13.9 21.7 14.0 21.75 14.0 21.8 14.05 21.9 14.15 21.9 14.2 21.95 14.3 22.05 14.3 22.05 14.4 22.15 14.4 22.2 14.45 22.25 14.55 22.3 14.55 22.3 14.65 22.4 14.7 22.45 14.75 22.5 14.8 22.5 14.85 22.55 14.85 22.6 14.9 22.7 14.95 22.7 15.0 22.75 15.05 22.8 15.05 22.9 15.1 23.0 15.15 23.1 15.2 23.1 15.3 23.15 15.35 23.25 15.35 23.35 15.45 23.4 15.5 23.4 15.6 23.35 15.65 23.3 15.75 23.25 15.8 23.25 15.9 23.2 15.9 23.2 16.0 23.15 16.05 23.1 16.1 23.05 16.1 23.0 16.15 22.95 16.15 22.55 16.15 22.4 16.1 22.25 16.1 22.15 16.05 22.05 16.05 21.95 16.0 21.9 15.95 21.9 15.9 21.75 15.9 21.65 15.9 21.5 15.85 21.45 15.8 21.4 15.75 21.35 15.7 21.3 15.65 21.15 15.65 21.1 15.6 21.1 15.55 21.05 15.5 21.0 15.45 20.9 15.4 20.85 15.35 20.8 15.3 20.75 15.25 20.7 15.2 20.7 15.15 20.65 15.1 20.6 15.05 20.5 15.0 20.45 14.95 20.4 14.9 20.35 14.85 20.3 14.8 20.3 14.75 20.25 14.7 20.2 14.65 20.15 14.6 20.05 14.55 20.0 14.5 19.95 14.4 19.9 14.4 19.9 14.3 19.85 14.25 19.85 14.2 19.75 14.15 19.75 14.1 19.7 14.0 19.65 13.95 19.6 13.9 19.6 13.85 19.6 13.75 19.55 13.7 19.55 13.6 19.55 13.5 19.5 13.45 19.45 13.35 19.45 13.3 19.45 13.2 19.35 13.2 19.3 13.25 19.15 13.35 19.15 13.4 19.05 13.5 19.0 13.55 18.95 13.65 18.8 13.8 18.8 13.95 18.75 14.1 18.65 14.2 18.65 14.35 18.65 14.5 18.55 14.65 18.45 14.75 18.4 14.9 18.3 15.05 18.25 15.2 18.25 15.3 18.25 15.45 18.1 15.6 18.1 15.75 18.05 15.85 17.9 16.0 17.9 16.15 17.9 16.3 17.85 16.4 17.7 16.55 17.7 16.7 25.05 16.8 25.05 16.7 25.05 16.6 25.05 16.5 25.05 16.4 25.2 16.3 25.3 16.2 25.3 16.1 25.4 16.05 25.4 15.9 25.4 15.8 25.6 15.75 25.6 15.65 25.6 15.55 25.6 15.45 25.7 15.35 25.65 15.25 25.6 15.15 25.6 15.05 25.6 14.95 25.55 14.85 25.4 14.75 25.4 14.65 25.4 14.55 M7.55 15.85 L7.55 15.8 7.5 15.8 7.5 15.85 7.55 15.85" fill="#ffffff" fill-rule="evenodd" stroke="none"/>
    </g>
  </defs>
</svg>
