<?xml version="1.0" encoding="UTF-8" standalone="no"?>
<svg xmlns:xlink="http://www.w3.org/1999/xlink" height="30.05px" width="88.95px" xmlns="http://www.w3.org/2000/svg">
  <g transform="matrix(1.0, 0.0, 0.0, 1.0, 0.0, 0.0)">
    <use height="30.05" transform="matrix(1.0, 0.0, 0.0, 1.0, 0.0, 0.0)" width="88.95" xlink:href="#shape0"/>
  </g>
  <defs>
    <g id="shape0" transform="matrix(1.0, 0.0, 0.0, 1.0, 0.0, 0.0)">
      <path d="M84.4 10.5 L88.5 10.65 88.75 10.65 88.75 10.8 88.95 12.15 88.75 13.05 88.35 13.7 88.15 13.7 87.05 13.7 85.4 13.75 83.8 13.75 83.0 13.7 Q82.8 13.7 82.5 13.5 L82.25 13.2 81.6 13.2 80.6 13.35 80.4 13.4 80.2 13.55 80.0 13.7 Q79.65 13.9 79.65 14.15 L79.55 14.95 79.35 15.8 79.35 16.05 79.05 16.05 78.25 16.05 77.7 15.95 Q77.4 15.95 77.25 15.2 L77.1 15.65 73.3 15.65 73.3 16.55 73.15 17.45 60.95 17.45 60.4 17.0 60.4 16.3 57.15 16.3 56.7 16.5 Q56.2 16.65 54.8 17.45 L54.9 18.5 55.2 20.2 55.6 22.2 56.0 24.0 56.45 26.7 56.6 27.65 56.6 27.8 56.55 27.9 56.55 28.0 56.45 28.1 54.9 28.6 52.35 29.4 49.8 29.95 48.4 30.0 48.1 29.55 47.75 28.25 47.2 25.75 46.45 21.4 46.25 20.25 46.15 19.3 Q45.55 19.75 45.35 20.55 L45.2 20.55 Q43.5 21.75 41.7 21.55 40.45 21.0 40.2 20.3 L38.55 22.8 37.1 25.15 36.05 27.05 35.65 28.25 35.65 28.35 35.8 29.05 35.65 29.6 35.2 29.9 35.05 29.9 Q28.3 27.65 28.1 26.3 L28.15 25.95 28.25 25.8 28.95 24.85 30.5 22.9 32.05 20.8 33.05 19.3 33.2 18.65 32.9 17.6 32.3 17.0 31.9 17.0 31.1 16.9 30.05 16.7 26.75 16.5 23.45 17.1 20.95 17.9 19.85 18.4 Q16.85 19.95 13.7 21.6 L7.9 24.6 3.5 26.8 1.65 27.65 0.75 27.55 Q0.2 27.4 0.0 26.45 L0.0 26.3 0.3 24.4 0.45 21.4 0.5 17.85 0.45 14.5 0.35 12.05 0.3 10.8 0.55 10.65 1.15 10.65 3.5 10.65 9.25 10.7 20.0 10.8 25.3 10.1 30.15 8.65 Q31.35 8.05 32.6 7.8 L34.4 7.55 34.4 5.9 35.35 5.65 35.8 5.65 36.1 5.15 36.85 3.95 37.0 3.7 39.45 4.7 39.5 4.9 39.55 5.1 39.6 5.2 40.0 5.25 Q40.25 5.25 41.4 5.9 L41.55 6.05 41.55 7.4 43.2 7.4 43.2 5.75 42.2 5.75 42.05 5.65 41.95 4.8 41.85 4.1 Q41.85 3.15 42.0 2.6 L42.2 1.8 42.35 1.65 42.95 1.5 44.45 1.4 47.45 1.35 47.45 0.15 47.7 0.15 48.3 0.0 48.8 0.05 49.35 0.3 49.45 0.4 49.45 1.35 50.05 1.15 50.85 0.55 51.0 0.55 51.9 0.5 53.7 0.35 57.05 0.15 57.4 0.15 57.4 0.3 57.55 2.45 57.3 4.1 56.75 5.65 56.6 5.75 55.65 5.75 55.65 7.4 56.75 7.4 57.4 7.3 58.7 7.15 66.75 7.15 71.7 7.05 75.25 7.05 77.25 7.0 77.1 6.4 77.1 5.9 Q77.1 4.7 77.3 4.2 L77.7 3.7 77.7 3.5 79.65 3.5 79.75 3.7 Q80.05 3.7 80.1 3.95 L80.15 4.55 80.15 5.3 80.0 6.05 80.15 6.6 80.25 7.3 81.0 7.3 81.15 7.4 81.45 8.15 81.5 8.95 81.15 10.8 82.25 10.8 83.15 10.65 84.4 10.5 M51.1 5.75 L47.8 5.75 47.8 7.4 51.1 7.4 51.1 5.75 M43.85 17.3 L41.7 17.3 Q41.3 17.3 41.05 17.6 40.8 17.95 40.8 18.4 L41.05 19.15 Q41.3 19.45 41.7 19.45 L43.85 19.45 44.5 19.15 44.8 18.4 44.5 17.6 Q44.2 17.3 43.85 17.3 M6.35 14.1 Q5.3 14.55 5.0 14.8 L4.7 15.2 4.65 15.95 4.55 17.3 4.5 18.75 4.4 19.85 5.95 20.75 6.95 21.25 8.25 20.65 10.85 19.3 13.95 17.6 17.0 15.9 17.05 15.5 17.15 15.05 17.0 14.55 13.85 14.3 10.6 14.05 7.95 13.9 6.6 13.95 6.35 14.1" fill="#ffffff" fill-rule="evenodd" stroke="none"/>
    </g>
  </defs>
</svg>
