<?xml version="1.0" encoding="UTF-8" standalone="no"?>
<svg xmlns:xlink="http://www.w3.org/1999/xlink" height="34.6px" width="48.35px" xmlns="http://www.w3.org/2000/svg">
  <g transform="matrix(1.0, 0.0, 0.0, 1.0, 0.0, 0.0)">
    <use height="34.6" transform="matrix(1.0, 0.0, 0.0, 1.0, 0.0, 0.0)" width="48.35" xlink:href="#shape0"/>
  </g>
  <defs>
    <g id="shape0" transform="matrix(1.0, 0.0, 0.0, 1.0, 0.0, 0.0)">
      <path d="M48.1 1.85 L48.3 2.9 48.35 4.15 48.3 6.5 48.2 8.05 48.1 8.25 47.8 8.5 47.75 9.1 47.75 9.35 47.6 9.75 47.2 9.6 46.7 9.6 44.8 9.6 44.45 10.8 44.1 11.35 44.05 11.55 32.8 11.55 32.25 11.75 31.35 12.2 30.3 12.75 29.7 13.1 29.85 14.5 29.85 15.65 29.7 17.2 Q29.5 18.4 28.7 18.95 28.0 19.5 26.9 19.7 L24.65 19.8 22.3 19.7 20.7 19.6 19.45 19.65 19.35 19.65 Q17.7 19.45 17.25 19.65 L16.6 20.15 16.4 20.25 Q16.0 20.65 16.0 22.15 L16.0 22.55 15.85 23.9 15.35 25.1 15.3 25.4 14.9 26.85 14.35 29.0 13.9 30.95 13.6 31.9 13.8 32.1 14.1 32.45 14.25 32.9 14.15 33.05 Q14.1 33.5 13.65 33.75 L12.9 34.15 12.75 34.15 11.25 34.2 8.25 34.35 2.9 34.6 Q1.95 34.6 0.9 32.6 L0.85 32.6 0.85 31.8 Q0.85 30.15 1.3 27.8 L2.35 23.2 3.7 18.8 4.9 15.35 4.9 15.1 5.0 14.4 5.0 14.15 4.95 14.05 4.9 13.9 4.8 13.9 4.8 13.8 4.4 13.35 4.15 13.25 3.5 13.05 Q2.75 12.8 1.45 11.95 0.6 11.45 0.35 10.85 0.0 10.15 0.0 9.55 L0.05 8.7 0.55 6.95 1.3 3.7 Q1.65 2.35 2.3 1.85 L3.35 1.05 3.35 0.25 3.55 0.15 6.45 0.4 Q7.85 1.05 8.1 1.3 L32.15 1.3 32.35 1.4 32.55 1.6 45.2 1.6 45.35 1.45 46.05 0.35 46.05 0.15 46.2 0.15 46.45 0.1 47.0 0.15 Q47.6 0.25 48.1 1.85 M27.2 12.7 L18.4 12.7 Q17.7 12.7 17.7 13.45 L17.7 16.6 Q17.7 17.3 18.4 17.3 L27.2 17.3 Q27.85 17.3 27.85 16.6 L27.85 13.45 Q27.85 12.7 27.2 12.7" fill="#ffffff" fill-rule="evenodd" stroke="none"/>
    </g>
  </defs>
</svg>
