<?xml version="1.0" encoding="UTF-8" standalone="no"?>
<svg xmlns:xlink="http://www.w3.org/1999/xlink" height="34.0px" width="119.45px" xmlns="http://www.w3.org/2000/svg">
  <g transform="matrix(1.0, 0.0, 0.0, 1.0, 0.05, 0.0)">
    <use height="34.0" transform="matrix(1.0, 0.0, 0.0, 1.0, -0.05, 0.0)" width="119.45" xlink:href="#shape0"/>
  </g>
  <defs>
    <g id="shape0" transform="matrix(1.0, 0.0, 0.0, 1.0, 0.05, 0.0)">
      <path d="M118.9 5.5 Q119.4 5.5 119.4 5.95 L119.4 9.25 114.1 9.25 111.5 9.25 106.35 9.4 100.75 9.45 97.25 9.5 Q97.25 10.15 96.85 10.55 95.8 11.6 94.9 11.6 94.5 11.6 93.85 11.05 L92.85 10.15 92.3 10.05 91.65 9.8 90.7 9.5 89.8 9.4 87.95 9.3 85.45 9.4 82.8 9.5 82.7 10.0 82.55 10.55 82.2 10.7 81.7 10.75 81.65 11.25 81.6 11.85 81.5 12.85 81.1 12.85 76.6 12.9 72.0 12.95 68.35 13.05 66.55 13.1 65.85 13.2 64.8 13.3 63.5 13.5 62.55 13.7 62.4 13.7 62.15 13.1 62.05 11.95 61.95 11.05 61.95 10.35 60.85 10.6 59.05 10.9 57.3 11.25 56.25 11.35 56.2 11.95 56.05 12.4 Q56.05 14.95 56.85 18.15 57.65 21.2 58.6 23.95 L60.35 28.4 61.15 30.2 61.35 30.55 60.95 30.7 59.85 31.2 57.8 32.2 Q56.45 32.75 54.15 34.0 L53.8 34.0 Q52.95 32.9 52.0 30.2 L50.2 24.55 48.8 19.05 47.9 15.6 46.6 16.2 46.35 16.35 46.2 16.4 Q45.95 16.85 45.35 16.85 42.9 17.45 41.45 16.9 40.05 16.35 39.6 16.0 L39.35 16.2 38.45 16.65 Q36.9 20.15 36.6 22.4 L36.35 25.7 36.35 26.5 36.25 26.75 36.15 26.9 Q35.3 26.9 30.5 24.35 L30.2 24.2 30.2 24.05 31.45 21.2 32.55 18.35 33.35 16.0 33.7 14.9 33.55 14.5 33.45 14.1 33.1 13.7 32.7 13.3 32.35 12.85 30.95 12.7 28.15 12.75 24.6 12.9 21.15 13.1 16.95 13.25 Q13.0 13.25 4.95 20.4 L4.55 20.8 3.55 21.65 2.65 22.7 2.25 22.9 Q1.85 22.9 1.5 22.3 L1.2 21.05 1.15 19.5 0.9 16.55 0.6 13.15 0.2 10.35 Q-0.35 9.25 0.4 8.15 0.9 7.6 1.7 7.6 L2.75 7.6 26.0 7.6 26.6 7.6 Q26.9 7.6 27.05 7.4 L27.05 7.2 27.3 6.9 27.5 6.5 Q27.85 6.25 28.55 6.25 L29.6 6.05 30.2 5.95 30.8 5.75 32.05 5.3 32.9 4.6 Q33.3 4.35 33.35 3.8 L33.55 2.3 33.55 1.85 Q33.55 0.95 34.0 0.6 L35.1 0.4 35.5 0.4 35.65 0.6 36.75 1.65 38.0 1.5 38.65 1.5 39.15 2.3 39.45 3.65 42.7 3.45 44.7 3.65 45.05 3.7 45.6 3.8 58.35 3.8 58.2 2.95 58.05 2.55 60.3 2.55 60.3 2.95 60.4 3.25 60.5 3.3 91.35 3.3 91.3 2.95 91.3 2.3 Q91.15 2.0 91.15 1.5 L91.85 0.2 93.95 0.0 94.15 0.0 94.15 3.65 94.0 3.7 93.85 3.8 93.75 3.95 95.3 5.1 Q96.5 5.75 97.95 5.75 L99.95 5.85 103.15 5.95 106.7 5.85 110.15 5.8 112.85 5.75 114.1 5.75 115.05 5.6 116.35 5.35 117.9 5.25 Q118.65 5.15 118.9 5.5 M41.5 12.25 Q41.1 12.25 40.7 12.6 40.35 13.05 40.35 13.7 40.35 14.35 40.7 14.8 41.1 15.2 41.5 15.2 L45.15 15.2 Q45.6 15.2 46.05 14.8 L46.4 13.7 46.05 12.6 Q45.6 12.25 45.15 12.25 L41.5 12.25 M2.8 12.15 L3.1 14.2 3.3 16.5 3.55 18.2 4.8 17.1 6.6 15.6 10.45 12.7 13.85 10.25 2.55 10.25 2.8 12.15" fill="#ffffff" fill-rule="evenodd" stroke="none"/>
    </g>
  </defs>
</svg>
