<?xml version="1.0" encoding="utf-8"?>
<!-- Generator: Adobe Illustrator 17.0.0, SVG Export Plug-In . SVG Version: 6.00 Build 0)  -->
<!DOCTYPE svg PUBLIC "-//W3C//DTD SVG 1.1//EN" "http://www.w3.org/Graphics/SVG/1.1/DTD/svg11.dtd">
<svg version="1.1" id="Layer_1" xmlns="http://www.w3.org/2000/svg" xmlns:xlink="http://www.w3.org/1999/xlink" x="0px" y="0px"
	 width="15.2px" height="17.1px" viewBox="0 0 15.2 17.1" enable-background="new 0 0 15.2 17.1" xml:space="preserve">
<path fill="#FFFFFF" d="M7.6,0.7L0.7,1.2v7.65c0,1.833,0.65,3.45,1.95,4.85c1.267,1.3,2.917,2.183,4.95,2.65
	c2.033-0.467,3.667-1.35,4.9-2.65c1.333-1.4,2-3.017,2-4.85V1.2L7.6,0.7z M11.65,10.05L11.1,10L11,9.05
	c-0.267-0.3-0.85-0.5-1.75-0.6h-3.3c-0.833,0.1-1.383,0.3-1.65,0.6C4.167,9.183,4.083,9.367,4.05,9.6V10L3.6,10.05
	c-0.233,0-0.383-0.267-0.45-0.8c0-0.6,0.15-1.167,0.45-1.7l0.35-0.8l0.4-1.1C4.983,4.45,6.067,3.833,7.6,3.8h0.05
	c1.533,0.033,2.633,0.65,3.3,1.85l0.4,1.1l0.25,0.8c0.3,0.533,0.45,1.1,0.45,1.7C12.05,9.783,11.917,10.05,11.65,10.05z"/>
</svg>
